<?xml version="1.0" standalone="no"?>
<!DOCTYPE svg PUBLIC "-//W3C//DTD SVG 20010904//EN"
 "http://www.w3.org/TR/2001/REC-SVG-20010904/DTD/svg10.dtd">
<svg version="1.0" xmlns="http://www.w3.org/2000/svg"
 width="2500.000000pt" height="2500.000000pt" viewBox="0 0 2500.000000 2500.000000"
 preserveAspectRatio="xMidYMid meet">
<metadata>
Created by potrace 1.14, written by Peter Selinger 2001-2017
</metadata>
<g transform="translate(0.000000,2500.000000) scale(0.100000,-0.100000)"
fill="#000000" stroke="none">
<path d="M12025 24649 c-1156 -45 -2311 -258 -3406 -628 -1706 -576 -3237
-1508 -4546 -2768 -1134 -1091 -2041 -2380 -2676 -3803 -936 -2098 -1258
-4413 -931 -6680 225 -1562 738 -3025 1548 -4420 308 -529 755 -1161 1175
-1660 654 -777 1461 -1523 2261 -2089 58 -41 134 -95 170 -121 387 -273 948
-604 1450 -855 1255 -628 2555 -1019 3965 -1194 490 -61 889 -84 1465 -84 576
0 975 23 1465 84 1622 201 3129 699 4535 1497 280 159 672 405 880 552 36 26
112 80 170 121 348 246 723 548 1110 894 166 149 637 616 793 787 436 480 878
1044 1188 1518 304 464 507 816 734 1270 739 1479 1149 3007 1262 4704 22 346
22 1106 0 1452 -113 1697 -523 3225 -1262 4704 -227 454 -430 806 -734 1270
-287 439 -699 972 -1095 1415 -319 357 -761 788 -1161 1131 -1168 1002 -2526
1774 -4000 2273 -1392 472 -2887 688 -4360 630z m2065 -3941 c833 -481 1758
-1016 2055 -1188 l540 -312 100 50 c171 86 315 119 488 109 323 -17 616 -197
773 -476 76 -136 112 -257 121 -413 21 -360 -170 -703 -487 -876 -126 -68
-212 -95 -359 -112 -435 -49 -861 232 -994 656 -27 85 -50 258 -45 333 l3 44
-1865 1078 c-1662 960 -1867 1076 -1885 1065 -11 -7 -1605 -927 -3543 -2046
l-3522 -2034 2 -225 3 -226 198 -3 197 -2 0 140 0 140 195 0 195 0 0 -140 0
-140 200 0 200 0 0 140 0 140 195 0 195 0 0 -3015 0 -3015 1300 0 1300 0 0
1516 0 1516 131 366 c72 202 131 368 133 369 1 1 62 -167 136 -373 l135 -374
915 2 915 3 137 365 c75 201 138 368 140 372 2 4 59 -156 128 -355 l125 -362
5 -4551 5 -4552 3540 2044 3540 2045 3 456 c1 289 -1 460 -8 468 -5 6 -637
317 -1405 690 l-1395 679 0 1142 0 1142 -67 38 c-234 130 -414 380 -464 644
-15 85 -16 268 0 350 54 280 238 526 494 660 146 76 166 80 437 80 266 0 300
-6 445 -85 405 -221 592 -702 441 -1141 -71 -208 -253 -421 -437 -515 l-59
-29 2 -895 3 -895 995 -485 c547 -266 1001 -485 1008 -485 10 0 12 488 10
2427 l-3 2427 -66 35 c-206 112 -372 323 -445 566 -25 82 -28 104 -28 255 0
151 3 172 28 255 92 304 319 541 610 639 112 37 203 49 341 44 150 -6 253 -33
384 -100 241 -125 426 -355 490 -611 33 -133 31 -330 -4 -470 -26 -102 -117
-275 -191 -361 -74 -88 -183 -177 -267 -221 l-57 -30 0 -3566 0 -3565 -3935
-2273 c-2165 -1250 -3941 -2271 -3948 -2268 -11 4 -1383 796 -7295 4210 l-572
331 0 4546 0 4546 3933 2272 c2162 1250 3939 2270 3947 2268 8 -2 697 -397
1530 -878z"/>
<path d="M17085 18921 c-212 -60 -375 -276 -375 -496 0 -307 299 -559 598
-506 247 44 431 260 432 506 0 233 -160 441 -385 500 -77 20 -194 18 -270 -4z"/>
<path d="M19975 16449 c-117 -11 -216 -60 -307 -151 -96 -96 -148 -221 -148
-358 0 -169 74 -314 212 -416 254 -187 615 -98 758 188 76 152 76 299 1 453
-97 196 -296 306 -516 284z"/>
<path d="M5816 15474 c-122 -30 -241 -130 -299 -252 -30 -64 -32 -73 -32 -188
0 -118 1 -121 37 -195 37 -75 105 -154 159 -186 l29 -17 0 -2246 0 -2246 -28
-16 c-75 -45 -159 -156 -186 -248 -20 -66 -21 -199 -2 -261 34 -111 106 -203
205 -263 62 -37 163 -66 231 -66 167 0 339 110 410 263 93 197 31 443 -140
559 l-49 33 -1 2245 0 2246 29 17 c39 23 109 94 138 141 108 170 84 401 -58
551 -115 122 -277 169 -443 129z m189 -263 c78 -36 115 -95 115 -183 0 -63
-29 -118 -83 -155 -34 -24 -51 -28 -106 -28 -53 0 -73 5 -102 24 -98 67 -120
204 -46 288 60 69 145 89 222 54z m13 -5292 c110 -54 139 -212 54 -303 -34
-36 -97 -66 -142 -66 -70 0 -155 59 -179 123 -6 16 -11 48 -11 73 0 147 145
237 278 173z"/>
<path d="M17103 14345 c-187 -51 -334 -201 -378 -387 -74 -315 178 -628 506
-628 222 0 438 171 494 390 22 84 16 223 -13 298 -96 249 -364 393 -609 327z"/>
<path d="M10986 10784 c-247 -60 -397 -330 -319 -577 75 -240 338 -375 574
-294 l67 23 131 -86 131 -85 0 -1793 0 -1794 -29 19 c-16 10 -386 256 -823
548 l-795 530 -1 73 c-2 195 -128 363 -322 427 -71 23 -199 22 -272 -4 -240
-83 -367 -337 -288 -575 44 -132 167 -253 297 -291 79 -23 194 -24 261 -1 l53
18 855 -568 c663 -440 853 -571 848 -583 -3 -9 -9 -46 -11 -84 -13 -166 73
-335 215 -421 221 -133 501 -61 631 161 116 199 58 468 -128 594 l-50 34 -1
1977 0 1976 -227 148 -228 147 -3 60 c-5 111 -41 201 -117 285 -113 126 -281
177 -449 136z m189 -263 c52 -23 102 -81 111 -126 23 -127 -50 -230 -171 -242
-209 -22 -289 267 -101 362 59 30 106 31 161 6z m-1617 -3010 c67 -34 102 -93
102 -171 0 -120 -84 -196 -206 -188 -52 3 -70 9 -100 34 -51 41 -74 88 -74
152 0 113 76 191 188 192 33 0 67 -7 90 -19z m2330 -1688 c138 -72 131 -279
-13 -344 -195 -89 -367 159 -216 310 62 62 150 74 229 34z"/>
</g>
</svg>
