<?xml version="1.0" standalone="no"?>
<!DOCTYPE svg PUBLIC "-//W3C//DTD SVG 20010904//EN"
 "http://www.w3.org/TR/2001/REC-SVG-20010904/DTD/svg10.dtd">
<svg version="1.0" xmlns="http://www.w3.org/2000/svg"
 width="1360.000000pt" height="1360.000000pt" viewBox="0 0 1360.000000 1360.000000"
 preserveAspectRatio="xMidYMid meet">
<metadata>
Created by potrace 1.11, written by Peter Selinger 2001-2013
</metadata>
<g transform="translate(0.000000,1360.000000) scale(0.100000,-0.100000)"
fill="#000000" stroke="none">
<path d="M1502 12774 c-57 -28 -96 -69 -123 -129 -18 -38 -19 -165 -19 -3245
0 -3080 1 -3207 19 -3245 27 -60 66 -101 123 -129 l52 -26 1923 0 1923 0 0
-605 0 -605 -815 0 c-711 0 -820 -2 -853 -15 -25 -11 -159 -137 -417 -395
l-380 -380 -960 -2 -960 -3 -42 -23 c-63 -33 -106 -74 -139 -134 l-29 -53 0
-1385 0 -1385 23 -42 c33 -63 74 -106 134 -139 l53 -29 5785 0 5785 0 53 29
c60 33 101 76 134 139 l23 42 0 1385 0 1385 -29 53 c-33 60 -76 101 -139 134
l-42 23 -950 3 -950 2 -375 375 c-279 279 -386 379 -420 394 -44 20 -63 21
-867 21 l-823 0 0 605 0 605 1923 0 1923 0 52 26 c57 28 96 69 123 129 18 38
19 165 19 3245 0 3080 -1 3207 -19 3245 -27 60 -66 101 -123 129 l-52 26
-5246 0 -5246 0 -52 -26z m10338 -3374 l0 -3000 -5040 0 -5040 0 0 3000 0
3000 5040 0 5040 0 0 -3000z m-5480 -4005 l0 -605 -280 0 -280 0 0 605 0 605
280 0 280 0 0 -605z m1440 0 l0 -605 -520 0 -520 0 0 605 0 605 520 0 520 0 0
-605z m2115 -1205 l190 -190 -3300 0 -3300 0 190 190 190 190 2920 0 2920 0
190 -190z m2485 -1790 l0 -1200 -5600 0 -5600 0 0 1200 0 1200 5600 0 5600 0
0 -1200z"/>
<path d="M2160 9400 l0 -2600 4640 0 4640 0 0 2600 0 2600 -4640 0 -4640 0 0
-2600z m8790 2174 c46 -26 77 -75 86 -130 14 -96 -18 -178 -86 -218 l-35 -21
-4094 -3 c-2940 -1 -4105 1 -4134 9 -163 44 -172 317 -12 374 34 12 624 14
4140 12 l4100 -2 35 -21z m90 -2574 l0 -1800 -4240 0 -4240 0 0 1800 0 1800
4240 0 4240 0 0 -1800z"/>
<path d="M3418 10144 c-47 -25 -58 -61 -58 -184 0 -125 11 -160 60 -185 26
-13 298 -15 2380 -15 2082 0 2354 2 2380 15 49 25 60 60 60 185 0 125 -11 160
-60 185 -26 13 -298 15 -2382 15 -2062 -1 -2356 -3 -2380 -16z"/>
<path d="M9250 10140 c-364 -90 -610 -405 -610 -780 0 -449 351 -800 800 -800
449 0 800 351 800 800 0 377 -248 692 -615 781 -105 25 -271 25 -375 -1z m274
-395 c86 -18 137 -48 204 -119 150 -159 143 -397 -17 -550 -163 -154 -400
-149 -555 13 -95 100 -129 218 -102 350 19 90 48 141 120 209 61 58 101 79
186 98 72 16 83 16 164 -1z"/>
<path d="M3418 9544 c-47 -25 -58 -61 -58 -184 0 -80 4 -119 15 -140 33 -63
-32 -60 1155 -60 1187 0 1122 -3 1155 60 11 21 15 60 15 140 0 80 -4 119 -15
140 -33 63 32 60 -1157 60 -938 -1 -1087 -3 -1110 -16z"/>
<path d="M5958 9544 c-47 -25 -58 -61 -58 -184 0 -80 4 -119 15 -140 33 -63
-32 -60 1155 -60 1187 0 1122 -3 1155 60 11 21 15 60 15 140 0 80 -4 119 -15
140 -33 63 32 60 -1157 60 -938 -1 -1087 -3 -1110 -16z"/>
<path d="M3418 8944 c-47 -25 -58 -61 -58 -184 0 -80 4 -119 15 -140 33 -64
-74 -60 1575 -60 1649 0 1542 -4 1575 60 21 41 21 239 0 280 -33 64 74 60
-1577 60 -1310 -1 -1507 -3 -1530 -16z"/>
<path d="M6798 8944 c-47 -25 -58 -61 -58 -184 0 -125 11 -160 60 -185 44 -23
1336 -23 1380 0 49 25 60 60 60 185 0 125 -11 160 -60 185 -43 22 -1341 22
-1382 -1z"/>
<path d="M3418 8344 c-47 -25 -58 -61 -58 -184 0 -125 11 -160 60 -185 44 -23
1336 -23 1380 0 49 25 60 60 60 185 0 125 -11 160 -60 185 -43 22 -1341 22
-1382 -1z"/>
<path d="M2224 3185 c-301 -65 -558 -329 -613 -629 -14 -77 -14 -235 0 -312
56 -303 313 -565 618 -630 85 -18 257 -18 342 0 305 65 562 327 618 630 15 83
13 248 -3 327 -65 305 -327 562 -630 618 -80 15 -256 13 -332 -4z m241 -396
c166 -30 294 -161 325 -327 46 -255 -197 -498 -452 -452 -168 31 -297 160
-328 328 -36 199 105 402 310 448 71 16 76 16 145 3z"/>
<path d="M4224 3185 c-301 -65 -558 -329 -613 -629 -14 -77 -14 -235 0 -312
56 -303 313 -565 618 -630 85 -18 257 -18 342 0 305 65 562 327 618 630 15 83
13 248 -3 327 -65 305 -327 562 -630 618 -80 15 -256 13 -332 -4z m241 -396
c166 -30 294 -161 325 -327 46 -255 -197 -498 -452 -452 -168 31 -297 160
-328 328 -36 199 105 402 310 448 71 16 76 16 145 3z"/>
<path d="M7765 3080 c-489 -100 -859 -478 -950 -969 -19 -105 -20 -251 -1
-294 17 -39 71 -92 109 -106 19 -8 362 -11 1078 -11 871 0 1055 2 1082 14 39
17 92 71 106 109 16 41 13 192 -4 288 -93 499 -475 881 -974 974 -115 21 -330
19 -446 -5z m435 -411 c268 -69 484 -277 565 -546 l6 -23 -303 0 -303 1 -100
186 c-55 102 -111 199 -124 215 -56 69 -168 89 -252 45 -63 -34 -104 -102
-104 -176 1 -49 8 -69 58 -160 31 -57 57 -106 57 -107 0 -2 -106 -4 -236 -4
l-235 0 6 23 c107 356 445 594 810 570 44 -3 114 -14 155 -24z"/>
<path d="M10565 3080 c-489 -100 -859 -478 -950 -969 -19 -105 -20 -251 -1
-294 17 -39 71 -92 109 -106 19 -8 362 -11 1078 -11 1152 0 1084 -4 1146 61
44 47 53 77 53 179 0 159 -45 340 -125 500 -170 338 -487 575 -864 645 -115
21 -330 19 -446 -5z m435 -411 c268 -69 484 -277 565 -546 l6 -23 -303 0 -303
1 -100 186 c-55 102 -111 199 -124 215 -56 69 -168 89 -252 45 -63 -34 -104
-102 -104 -176 1 -49 8 -69 58 -160 31 -57 57 -106 57 -107 0 -2 -106 -4 -236
-4 l-235 0 6 23 c107 356 445 594 810 570 44 -3 114 -14 155 -24z"/>
</g>
</svg>
