<?xml version="1.0" encoding="UTF-8" standalone="no"?>
<!-- Created with Inkscape (http://www.inkscape.org/) -->

<svg
   xmlns:dc="http://purl.org/dc/elements/1.1/"
   xmlns:cc="http://creativecommons.org/ns#"
   xmlns:rdf="http://www.w3.org/1999/02/22-rdf-syntax-ns#"
   xmlns:svg="http://www.w3.org/2000/svg"
   xmlns="http://www.w3.org/2000/svg"
   xmlns:sodipodi="http://sodipodi.sourceforge.net/DTD/sodipodi-0.dtd"
   xmlns:inkscape="http://www.inkscape.org/namespaces/inkscape"
   width="1560"
   height="210"
   viewBox="0 0 1560 210"
   id="svg6769"
   version="1.1"
   inkscape:version="0.91 r13725"
   sodipodi:docname="about-banner-text-bg.svg">
  <defs
     id="defs6771">
    <style
       type="text/css"
       id="style3372">
      @import url(&quot;https://fonts.googleapis.com/css?family=Jura:400,600|Raleway:400,600&quot;);
    </style>
    <style
       type="text/css"
       id="style3374">
      @import url(&quot;../bannerSvgStyle.css&quot;);
    </style>
  </defs>
  <sodipodi:namedview
     id="base"
     pagecolor="#ffffff"
     bordercolor="#666666"
     borderopacity="1.0"
     inkscape:pageopacity="0.0"
     inkscape:pageshadow="2"
     inkscape:zoom="0.53189276"
     inkscape:cx="290.94512"
     inkscape:cy="110.14275"
     inkscape:document-units="px"
     inkscape:current-layer="layer1"
     showgrid="false"
     units="px"
     inkscape:window-width="1920"
     inkscape:window-height="1001"
     inkscape:window-x="-9"
     inkscape:window-y="-9"
     inkscape:window-maximized="1"
     fit-margin-top="20"
     fit-margin-right="20"
     fit-margin-bottom="20"
     fit-margin-left="20" />
  <metadata
     id="metadata6774">
    <rdf:RDF>
      <cc:Work
         rdf:about="">
        <dc:format>image/svg+xml</dc:format>
        <dc:type
           rdf:resource="http://purl.org/dc/dcmitype/StillImage" />
        <dc:title></dc:title>
      </cc:Work>
    </rdf:RDF>
  </metadata>
  <g
     inkscape:groupmode="layer"
     id="layer2"
     inkscape:label="Background Colour">
    <rect
       style="opacity:1;fill:#58595b;fill-opacity:1;stroke:none;stroke-width:5.31496048;stroke-linecap:butt;stroke-linejoin:miter;stroke-miterlimit:4;stroke-dasharray:none;stroke-opacity:1"
       id="rect7086"
       width="1560"
       height="210"
       x="0"
       y="-7.2859916e-006" />
  </g>
  <g
     inkscape:label="Layer 1"
     inkscape:groupmode="layer"
     id="layer1"
     transform="translate(20,-862.36506)">
    <text
       xml:space="preserve"
       style="font-style:normal;font-variant:normal;font-weight:normal;font-stretch:normal;font-size:80px;line-height:125%;font-family:Jura;-inkscape-font-specification:'Jura, Normal';text-align:justify;letter-spacing:0px;word-spacing:0px;writing-mode:lr-tb;text-anchor:start;fill:#ffffff;fill-opacity:1;stroke:none;stroke-width:1px;stroke-linecap:butt;stroke-linejoin:miter;stroke-opacity:1"
       x="401.25964"
       y="967.95703"
       id="text7317"
       sodipodi:linespacing="125%"><tspan
         sodipodi:role="line"
         id="tspan7319"
         x="401.25964"
         y="967.95703">About Us</tspan></text>
    <text
       xml:space="preserve"
       style="font-style:normal;font-variant:normal;font-weight:500;font-stretch:normal;font-size:27.5px;line-height:125%;font-family:Raleway;-inkscape-font-specification:'Raleway, Medium';text-align:justify;letter-spacing:0px;word-spacing:0px;writing-mode:lr-tb;text-anchor:start;fill:#ffffff;fill-opacity:1;stroke:none;stroke-width:1px;stroke-linecap:butt;stroke-linejoin:miter;stroke-opacity:1"
       x="400.79715"
       y="1026.8142"
       id="text7321"
       sodipodi:linespacing="125%"><tspan
         sodipodi:role="line"
         id="tspan7323"
         x="400.79715"
         y="1026.8142">Find out more about the society</tspan></text>
    <path
       id="path4890"
       d="m 282.97393,954.34396 0,4.1914 -2.4925,0 q -1.3653,0 -1.8416,0.5714 -0.4762,0.5716 -0.4762,1.7146 l 0,3.0005 4.6515,0 -0.6191,4.6991 -4.0324,0 0,12.0498 -4.858,0 0,-12.0498 -4.0484,0 0,-4.6991 4.0484,0 0,-3.4608 q 0,-2.953 1.6511,-4.5802 1.65101,-1.6273 4.39761,-1.6273 2.33369,0 3.61959,0.1904 z"
       inkscape:connector-curvature="0"
       style="fill:#95c5cd;fill-opacity:1" />
    <path
       id="path4901"
       d="m 338.00488,1032.422 q -1.06369,1.5558 -2.57198,2.6513 0.016,0.2222 0.016,0.6668 0,2.0638 -0.60323,4.1197 -0.60336,2.0559 -1.83371,3.9452 -1.23034,1.8891 -2.92903,3.3418 -1.6987,1.4526 -4.09599,2.3178 -2.39725,0.8653 -5.12783,0.8653 -4.30231,0 -7.87437,-2.3021 0.55568,0.064 1.23839,0.064 3.57205,0 6.36605,-2.1908 -1.66688,-0.032 -2.9846,-1.024 -1.31767,-0.9923 -1.80976,-2.5322 0.5239,0.079 0.9683,0.079 0.68268,0 1.34949,-0.1748 -1.77802,-0.365 -2.94496,-1.7701 -1.16692,-1.4048 -1.16692,-3.2625 l 0,-0.063 q 1.0796,0.6034 2.31799,0.6509 -1.04781,-0.6984 -1.6671,-1.8257 -0.61909,-1.1271 -0.61909,-2.4448 0,-1.3972 0.69858,-2.5877 1.92089,2.3655 4.67543,3.7862 2.75432,1.421 5.89769,1.5798 -0.12698,-0.6034 -0.12698,-1.1748 0,-2.1274 1.50026,-3.6276 1.50025,-1.5003 3.62761,-1.5003 2.2226,0 3.74678,1.6192 1.7303,-0.3333 3.25448,-1.2382 -0.58749,1.8258 -2.25438,2.8259 1.47647,-0.1588 2.95296,-0.7938 z"
       inkscape:connector-curvature="0"
       style="fill:#95c5cd;fill-opacity:1" />
    <path
       id="path4912"
       d="m 14.333175,909.93826 q -4.4926898,0 -8.0092198,-2.3892 -3.51651,-2.3894 -5.23111,-6.3266 -0.92079003,-2.0797 -1.06367003,-4.7785 -0.14273,-2.6989 0.4128,-5.2786 0.55568,-2.5798 1.76225003,-4.9533 1.20662,-2.3734 2.84169,-3.8499 l -0.17452,4.4611 q 0.17452,-0.2222 1.07944,-0.2461 0.90487,-0.024 1.11138,0.2461 0.66678,-1.2859 2.54803,-2.1908 1.8812498,-0.9049 3.7228298,-0.9367 -0.8572,0.7143 -1.89713,2.3575 -1.03996,1.6431 -0.92865,2.5957 0.39689,0.127 0.99224,0.2143 0.59532,0.087 1.00008,0.1192 0.40475,0.032 1.0796,0.063 0.67465,0.032 0.80165,0.048 0.23811,0.079 0.15074,0.7223 -0.0871,0.6429 -0.48404,1.1985 -0.0795,0.1111 -0.26205,0.2937 -0.18256,0.1827 -0.89702,0.5638 -0.71432,0.3809 -1.60333,0.5397 l 0.23811,3.0006 -2.2066898,-1.0638 q -0.28579,0.6827 -0.11914,1.2938 0.16665,0.6112 0.57158,1.0558 0.4047598,0.4445 1.0397598,0.6588 0.63521,0.2144 1.28607,0.1033 0.80951,-0.143 1.55582,-0.5477 0.7461,-0.405 1.32554,-0.7145 0.57945,-0.3096 1.16694,-0.2777 0.96829,0.063 1.42073,0.5238 0.45248,0.4603 0.30974,1.0319 -0.016,0.032 -0.0398,0.087 -0.0238,0.056 -0.13487,0.1984 -0.1111,0.1429 -0.28579,0.246 -0.17469,0.1032 -0.50012,0.1668 -0.32547,0.063 -0.73827,0.016 -0.95239,1.5083 -2.29402,2.1513 -1.34144,0.6429 -3.32593,0.4684 1.1748,0.9683 2.5798,1.3096 1.40504,0.3414 2.67504,0.095 1.2702,-0.246 2.45283,-0.8254 1.18285,-0.5794 2.03218,-1.3891 0.84936,-0.8097 1.27785,-1.6512 0.68272,-1.4447 0.61931,-3.056 -0.0636,-1.6113 -0.59536,-2.9927 -0.53194,-1.3811 -1.24626,-1.9844 1.38113,0.6033 2.17491,1.2621 0.79378,0.6589 1.22249,1.7861 0.2381,-2.6988 -0.91292,-5.4453 -1.15103,-2.7465 -3.32594,-4.5088 4.20708,1.2225 6.54077,4.4373 2.33366,3.2148 2.39726,8.2157 0.0317,2.0161 -0.64304,4.0483 -0.67465,2.032 -1.96054,3.7784 -1.2859,1.7464 -3.00047,3.1116 -1.71461,1.3653 -3.92933,2.1511 -2.21473,0.7859 -4.58021,0.7859 z"
       inkscape:connector-curvature="0"
       style="fill:#95c5cd;fill-opacity:1" />
    <path
       id="path4923"
       d="m 1419.729,1023.9106 q 3.8101,-0.032 7.1598,1.905 3.6832,2.1274 5.5884,5.9057 l -11.7799,-0.6191 q -2.54,-0.1429 -4.6674,1.1827 -2.1274,1.3257 -2.9371,3.6435 l -4.3816,-6.7314 q 2.032,-2.5241 4.9373,-3.8973 2.9053,-1.3732 6.0805,-1.3891 z m -11.8593,6.4296 5.3501,10.5255 q 1.1432,2.2703 3.3499,3.445 2.2067,1.1748 4.6515,0.7145 l -3.6514,7.1599 q -3.3656,-0.5239 -6.1121,-2.5004 -2.7465,-1.9766 -4.3262,-5.0167 -1.5796,-3.0401 -1.5796,-6.5329 0,-4.2387 2.3178,-7.7949 z m 25.1789,2.6829 q 0.9208,2.3814 0.9447,4.9295 0.024,2.548 -0.77,4.8579 -0.7938,2.3099 -2.4289,4.3182 -1.6353,2.0082 -3.9056,3.3259 -3.6514,2.1115 -7.9059,1.8893 l 6.4296,-9.8906 q 1.397,-2.0797 1.3097,-4.6118 -0.087,-2.5322 -1.6908,-4.4056 z m -13.2721,0.3176 q 1.9845,0 3.3895,1.4051 1.405,1.4048 1.405,3.3893 0,1.9844 -1.405,3.3895 -1.405,1.4051 -3.3895,1.4051 -1.9843,0 -3.3894,-1.4051 -1.405,-1.4051 -1.405,-3.3895 0,-1.9845 1.405,-3.3893 1.4051,-1.4051 3.3894,-1.4051 z"
       inkscape:connector-curvature="0"
       style="fill:#95c5cd;fill-opacity:1" />
    <path
       id="path4934"
       d="m 1155.2246,1038.09 q 0,0.4128 -0.2619,0.7143 -0.262,0.3017 -0.6589,0.3017 -0.4128,0 -0.7143,-0.2619 -0.3017,-0.262 -0.3017,-0.6589 0,-0.4128 0.2699,-0.7143 0.2699,-0.3017 0.6668,-0.3017 0.3969,0 0.6984,0.2619 0.3017,0.262 0.3017,0.6589 z m 0.2381,0.9208 5.5565,-9.2239 q -0.1428,0.1271 -1.0715,0.9923 -0.9288,0.8652 -1.9925,1.8496 -1.0637,0.9842 -2.1671,2.0161 -1.1033,1.0319 -1.8575,1.7542 -0.7539,0.7224 -0.8016,0.8178 l -5.5407,9.2077 q 0.1111,-0.1111 1.0637,-0.9842 0.9526,-0.8731 2.0004,-1.8496 1.0478,-0.9763 2.159,-2.0161 1.1114,-1.0399 1.8575,-1.7623 0.7463,-0.7224 0.7938,-0.8016 z m 10.2716,-0.8731 q 0,3.1909 -1.651,5.8899 -0.048,-0.032 -0.2699,-0.1748 -0.2224,-0.1429 -0.4208,-0.262 -0.1985,-0.119 -0.2619,-0.119 -0.2064,0 -0.2064,0.2064 0,0.1588 0.9366,0.6986 -1.1748,1.778 -2.929,3.0242 -1.7542,1.2462 -3.8339,1.7544 l -0.254,-1.0637 q -0.016,-0.1588 -0.2381,-0.1588 -0.08,0 -0.127,0.087 -0.048,0.087 -0.032,0.1507 l 0.254,1.0796 q -1.1431,0.2381 -2.3178,0.2381 -3.1593,0 -5.9058,-1.6669 0.016,-0.032 0.2063,-0.3254 0.1906,-0.2938 0.3414,-0.532 0.1507,-0.2381 0.1507,-0.3015 0,-0.2065 -0.2063,-0.2065 -0.095,0 -0.2699,0.2303 -0.1747,0.2302 -0.3572,0.5476 -0.1826,0.3176 -0.2144,0.3651 -1.7939,-1.1905 -3.0482,-2.9765 -1.254,-1.786 -1.7462,-3.8816 l 1.0954,-0.2381 q 0.1587,-0.048 0.1587,-0.2383 0,-0.079 -0.087,-0.1271 -0.087,-0.047 -0.1666,-0.032 l -1.0796,0.2381 q -0.2222,-1.1432 -0.2222,-2.2067 0,-3.2706 1.7305,-6.0171 0.032,0.016 0.2937,0.1906 0.262,0.1747 0.4762,0.3018 0.2143,0.1269 0.2779,0.1269 0.2063,0 0.2063,-0.1906 0,-0.095 -0.1984,-0.2459 -0.1985,-0.151 -0.5159,-0.3413 l -0.3176,-0.1907 q 1.2225,-1.778 3.0005,-3.0003 1.7782,-1.2225 3.8738,-1.6987 l 0.2381,1.0637 q 0.032,0.1587 0.2381,0.1587 0.08,0 0.127,-0.087 0.048,-0.087 0.032,-0.1667 l -0.2381,-1.048 q 1.1271,-0.2063 2.1274,-0.2063 3.2385,0 6.0168,1.7304 -0.6193,0.8889 -0.6193,1.0319 0,0.2063 0.1906,0.2063 0.1747,0 0.762,-1.0159 1.7623,1.1906 2.9767,2.9528 1.2145,1.7621 1.7066,3.8261 l -0.889,0.1905 q -0.1588,0.032 -0.1588,0.2539 0,0.08 0.087,0.127 0.087,0.048 0.151,0.032 l 0.9048,-0.2065 q 0.2222,1.1432 0.2222,2.2228 z m 1.3495,0 q 0,-2.5879 -1.0081,-4.9375 -1.0082,-2.3496 -2.7069,-4.0483 -1.6987,-1.6986 -4.0482,-2.7068 -2.3496,-1.0081 -4.9373,-1.0081 -2.5879,0 -4.9375,1.0081 -2.3495,1.0082 -4.0482,2.7068 -1.6987,1.6987 -2.7069,4.0483 -1.0081,2.3496 -1.0081,4.9375 0,2.5876 1.0081,4.9372 1.0082,2.3497 2.7069,4.0483 1.6987,1.6987 4.0482,2.7068 2.3496,1.0082 4.9375,1.0082 2.5877,0 4.9373,-1.0082 2.3495,-1.0081 4.0482,-2.7068 1.6987,-1.6986 2.7069,-4.0483 1.0081,-2.3496 1.0081,-4.9372 z m 1.524,0 q 0,2.8893 -1.1271,5.5246 -1.1273,2.6354 -3.0323,4.5405 -1.9052,1.905 -4.5405,3.0323 -2.6352,1.1271 -5.5246,1.1271 -2.8894,0 -5.5248,-1.1271 -2.6354,-1.1273 -4.5406,-3.0323 -1.9049,-1.9051 -3.0322,-4.5405 -1.1271,-2.6353 -1.1271,-5.5246 0,-2.8894 1.1271,-5.5248 1.1273,-2.6354 3.0322,-4.5404 1.9052,-1.9051 4.5406,-3.0324 2.6354,-1.1272 5.5248,-1.1272 2.8894,0 5.5246,1.1272 2.6353,1.1273 4.5405,3.0324 1.905,1.905 3.0323,4.5404 1.1271,2.6354 1.1271,5.5248 z"
       inkscape:connector-curvature="0"
       style="fill:#95c5cd;fill-opacity:1" />
    <path
       id="path4945"
       d="m 1148.5817,889.04581 0,18.6221 q 0,0.3969 -0.1985,0.6747 -0.1984,0.278 -0.5794,0.278 -0.2699,0 -0.5239,-0.1271 l -7.3822,-3.699 q -0.3333,-0.1588 -0.5636,-0.532 -0.2302,-0.3729 -0.2302,-0.7382 l 0,-18.0983 q 0,-0.3174 0.1588,-0.5398 0.1587,-0.2222 0.4604,-0.2222 0.2222,0 0.6985,0.2381 l 8.1126,4.0642 q 0.048,0.048 0.048,0.08 z m 1.0162,1.6033 8.4775,13.7485 -8.4775,-4.223 0,-9.5255 z m 17.9554,0.2858 0,16.733 q 0,0.3969 -0.2224,0.6429 -0.2222,0.2461 -0.6032,0.2461 -0.381,0 -0.7461,-0.2062 l -7.0013,-3.4928 z m -0.048,-1.905 q 0,0.047 -4.0721,6.6599 -4.0722,6.6122 -4.7708,7.7393 l -6.1914,-10.0652 5.1436,-8.3664 q 0.2699,-0.4446 0.8256,-0.4446 0.2222,0 0.4128,0.095 l 8.5889,4.2866 q 0.063,0.032 0.063,0.095 z"
       inkscape:connector-curvature="0"
       style="fill:#95c5cd;fill-opacity:1" />
    <path
       id="path4956"
       d="m 1246.9104,1038.1375 q 0,-1.6827 -1.1907,-2.8734 -1.1907,-1.1907 -2.8735,-1.1907 -1.6828,0 -2.8735,1.1907 -1.1907,1.1907 -1.1907,2.8734 0,1.6828 1.1907,2.8735 1.1907,1.1907 2.8735,1.1907 1.6828,0 2.8735,-1.1907 1.1907,-1.1907 1.1907,-2.8735 z m 2.1908,0 q 0,2.6036 -1.8257,4.4293 -1.8257,1.8257 -4.4293,1.8257 -2.6036,0 -4.4293,-1.8257 -1.8257,-1.8257 -1.8257,-4.4293 0,-2.6036 1.8257,-4.4292 1.8257,-1.8257 4.4293,-1.8257 2.6036,0 4.4293,1.8257 1.8257,1.8256 1.8257,4.4292 z m 1.7146,-6.5089 q 0,0.6032 -0.4287,1.0319 -0.4285,0.4286 -1.0319,0.4286 -0.6032,0 -1.0319,-0.4286 -0.4287,-0.4287 -0.4287,-1.0319 0,-0.6034 0.4287,-1.032 0.4287,-0.4286 1.0319,-0.4286 0.6034,0 1.0319,0.4286 0.4287,0.4286 0.4287,1.032 z m -7.9696,-3.4928 q -0.1111,0 -1.2144,-0.01 -1.1034,-0.01 -1.675,0 -0.5716,0.01 -1.532,0.047 -0.9605,0.04 -1.6351,0.1588 -0.6748,0.1192 -1.1352,0.2938 -0.7938,0.3175 -1.3971,0.9208 -0.6032,0.6032 -0.9208,1.397 -0.1746,0.4603 -0.2937,1.1351 -0.1191,0.6747 -0.1588,1.6352 -0.04,0.9603 -0.047,1.5319 -0.01,0.5716 0,1.6749 0.01,1.1034 0.01,1.2145 0,0.1112 -0.01,1.2145 -0.01,1.1033 0,1.6749 0.01,0.5716 0.047,1.532 0.04,0.9604 0.1588,1.6351 0.1191,0.6748 0.2937,1.1351 0.3176,0.7939 0.9208,1.3972 0.6033,0.6032 1.3971,0.9209 0.4604,0.1745 1.1352,0.2936 0.6746,0.1189 1.6351,0.1588 0.9604,0.04 1.532,0.047 0.5716,0.01 1.675,0 1.1033,-0.01 1.2144,-0.01 0.1111,0 1.2144,0.01 1.1034,0.01 1.675,0 0.5714,-0.01 1.532,-0.047 0.9605,-0.04 1.6351,-0.1588 0.6748,-0.1191 1.1351,-0.2936 0.7939,-0.3177 1.397,-0.9209 0.6034,-0.6033 0.9208,-1.3972 0.1747,-0.4603 0.2939,-1.1351 0.1189,-0.6747 0.1586,-1.6351 0.04,-0.9604 0.048,-1.532 0.01,-0.5716 0,-1.6749 -0.01,-1.1033 -0.01,-1.2145 0,-0.1111 0.01,-1.2145 0.01,-1.1033 0,-1.6749 -0.01,-0.5716 -0.048,-1.5319 -0.04,-0.9605 -0.1586,-1.6352 -0.1192,-0.6748 -0.2939,-1.1351 -0.3174,-0.7938 -0.9208,-1.397 -0.6031,-0.6033 -1.397,-0.9208 -0.4603,-0.1746 -1.1351,-0.2938 -0.6746,-0.119 -1.6351,-0.1588 -0.9606,-0.04 -1.532,-0.047 -0.5716,-0.01 -1.675,0 -1.1033,0.01 -1.2144,0.01 z m 12.1925,10.0017 q 0,3.6355 -0.079,5.0327 -0.1588,3.3021 -1.9686,5.1119 -1.81,1.8098 -5.112,1.9686 -1.3972,0.079 -5.0326,0.079 -3.6355,0 -5.0327,-0.079 -3.3022,-0.1588 -5.112,-1.9686 -1.8097,-1.8098 -1.9685,-5.1119 -0.079,-1.3972 -0.079,-5.0327 0,-3.6355 0.079,-5.0327 0.1588,-3.3019 1.9685,-5.1119 1.8098,-1.8098 5.112,-1.9686 1.3972,-0.079 5.0327,-0.079 3.6354,0 5.0326,0.079 3.302,0.1588 5.112,1.9686 1.8098,1.81 1.9686,5.1119 0.079,1.3972 0.079,5.0327 z"
       inkscape:connector-curvature="0"
       style="fill:#95c5cd;fill-opacity:1" />
    <path
       id="path4967"
       d="m 325.49575,884.25616 q 3.31808,0 6.12012,1.6353 2.80204,1.6353 4.43732,4.4373 1.63511,2.8021 1.63511,6.1202 0,3.9846 -2.32583,7.1677 -2.32565,3.1832 -6.00884,4.4055 -0.4287,0.08 -0.63517,-0.1111 -0.20633,-0.1904 -0.20633,-0.4762 0,-0.048 0.007,-1.2144 0.007,-1.167 0.007,-2.1355 0,-1.5399 -0.8256,-2.2542 0.90492,-0.095 1.62725,-0.2858 0.72235,-0.1905 1.49236,-0.6192 0.77005,-0.4286 1.28591,-1.0557 0.51606,-0.6272 0.84149,-1.6669 0.32544,-1.0399 0.32544,-2.3894 0,-1.8891 -1.25426,-3.2704 0.58748,-1.4447 -0.12701,-3.2386 -0.4444,-0.1429 -1.2859,0.1747 -0.84146,0.3174 -1.46059,0.6984 l -0.60318,0.381 q -1.4765,-0.4126 -3.04819,-0.4126 -1.57169,0 -3.04819,0.4126 -0.25398,-0.1745 -0.67464,-0.4285 -0.42066,-0.254 -1.32554,-0.6113 -0.9051,-0.3572 -1.34949,-0.2143 -0.7145,1.7939 -0.12701,3.2386 -1.25426,1.3813 -1.25426,3.2704 0,1.3495 0.32543,2.3813 0.32543,1.032 0.83346,1.6671 0.50816,0.635 1.27803,1.0636 0.77005,0.4287 1.49237,0.6192 0.72236,0.1904 1.62724,0.2858 -0.61909,0.5715 -0.77787,1.6351 -0.33351,0.1588 -0.7145,0.2381 -0.38101,0.08 -0.90491,0.08 -0.5239,0 -1.03975,-0.3413 -0.51603,-0.3414 -0.88115,-0.9922 -0.30166,-0.5081 -0.77001,-0.8257 -0.46834,-0.3174 -0.78577,-0.381 l -0.31757,-0.048 q -0.33334,0 -0.4603,0.071 -0.12701,0.071 -0.0795,0.1825 0.0477,0.1113 0.14287,0.2224 0.0952,0.1111 0.20651,0.1905 l 0.1111,0.079 q 0.3492,0.1586 0.69055,0.6032 0.34133,0.4446 0.50012,0.8097 l 0.15864,0.3651 q 0.20647,0.6034 0.69859,0.9764 0.49208,0.3731 1.06366,0.4764 0.57162,0.103 1.10338,0.1111 0.53191,0.01 0.88111,-0.056 l 0.36512,-0.064 q 0,0.6034 0.009,1.405 0.007,0.8017 0.007,0.8653 0,0.2858 -0.20633,0.4762 -0.20647,0.1906 -0.63518,0.1111 -3.68297,-1.2223 -6.0088,-4.4055 -2.32583,-3.1831 -2.32583,-7.1677 0,-3.3181 1.63507,-6.1202 1.63528,-2.802 4.43733,-4.4373 2.80204,-1.6353 6.12011,-1.6353 z m -7.57266,17.511 q 0.0475,-0.1111 -0.1111,-0.1906 -0.15878,-0.047 -0.20647,0.032 -0.0475,0.1111 0.1111,0.1906 0.14288,0.095 0.20647,-0.032 z m 0.49212,0.5398 q 0.1111,-0.08 -0.0317,-0.254 -0.15879,-0.1429 -0.25398,-0.048 -0.1111,0.08 0.0316,0.254 0.15878,0.1588 0.25401,0.048 z m 0.47621,0.7144 q 0.14288,-0.1111 0,-0.3016 -0.127,-0.2064 -0.26992,-0.095 -0.1427,0.08 0,0.2859 0.14292,0.2064 0.26992,0.1111 z m 0.66678,0.6667 q 0.12701,-0.1269 -0.0634,-0.3015 -0.19056,-0.1906 -0.31757,-0.048 -0.14291,0.127 0.0636,0.3018 0.19038,0.1904 0.31739,0.047 z m 0.90491,0.3969 q 0.0477,-0.1745 -0.20633,-0.254 -0.2381,-0.063 -0.30169,0.1111 -0.0634,0.1747 0.2065,0.2383 0.23811,0.095 0.30152,-0.095 z m 1.00025,0.079 q 0,-0.2065 -0.26988,-0.1747 -0.25401,0 -0.25401,0.1747 0,0.2063 0.26992,0.1745 0.25397,0 0.25397,-0.1745 z m 0.92083,-0.1588 q -0.0317,-0.1747 -0.28579,-0.1429 -0.25402,0.048 -0.22224,0.2381 0.0316,0.1906 0.28562,0.127 0.25418,-0.063 0.22241,-0.2222 z"
       inkscape:connector-curvature="0"
       style="fill:#95c5cd;fill-opacity:1" />
    <path
       id="path4978"
       d="m 1067.0794,1040.6299 2.3498,2.3496 -2.3655,2.3655 z m -0.016,-9.7001 2.3655,2.3655 -2.3497,2.3497 z m -2.0639,19.4319 7.3663,-7.3664 -4.8579,-4.8579 4.8579,-4.858 -7.3663,-7.3663 0,9.7 -4.0483,-4.0482 -1.4765,1.4764 5.0804,5.0961 -5.0804,5.096 1.4765,1.4765 4.0483,-4.0482 0,9.7 z m 11.4146,-12.2243 q 0,3.3181 -0.508,5.8025 -0.508,2.4846 -1.3891,4.0801 -0.881,1.5956 -2.2305,2.5798 -1.3495,0.9844 -2.8815,1.3733 -1.5321,0.389 -3.4847,0.389 -1.9527,0 -3.4847,-0.389 -1.5319,-0.3889 -2.8814,-1.3733 -1.3495,-0.9842 -2.2306,-2.5798 -0.881,-1.5955 -1.3891,-4.0801 -0.5081,-2.4844 -0.5081,-5.8025 0,-3.3181 0.5081,-5.8025 0.5081,-2.4847 1.3891,-4.0801 0.8811,-1.5954 2.2306,-2.5798 1.3495,-0.9843 2.8814,-1.3734 1.532,-0.3887 3.4847,-0.3887 1.9526,0 3.4847,0.3887 1.532,0.3891 2.8815,1.3734 1.3495,0.9844 2.2305,2.5798 0.8811,1.5954 1.3891,4.0801 0.508,2.4844 0.508,5.8025 z"
       inkscape:connector-curvature="0"
       style="fill:#95c5cd;fill-opacity:1" />
    <path
       id="path4989"
       d="m 1382.0446,962.28426 q 0.2858,2.8893 -2.0796,4.0959 1.8573,0.4445 2.7781,1.6352 0.9207,1.1906 0.7144,3.3973 -0.1111,1.1273 -0.516,1.9845 -0.4048,0.8574 -1.0239,1.4129 -0.6192,0.5557 -1.54,0.9289 -0.9208,0.3729 -1.9288,0.5476 -1.0081,0.1747 -2.3099,0.2381 l 0,4.0483 -2.445,0 0,-3.9847 q -1.27,0 -1.9368,-0.016 l 0,4.0005 -2.4448,0 0,-4.0482 q -0.2858,0 -0.8574,-0.01 -0.5714,-0.01 -0.8731,-0.01 l -3.1751,0 0.4921,-2.9053 1.7622,0 q 0.7938,0 0.9208,-0.8095 l 0,-6.3822 0.254,0 q -0.095,-0.016 -0.254,-0.016 l 0,-4.5563 q -0.2063,-1.0796 -1.4129,-1.0796 l -1.7622,0 0,-2.6036 3.3655,0.016 q 1.0162,0 1.5401,-0.016 l 0,-4.0005 2.4448,0 0,3.9212 q 1.3018,-0.032 1.9368,-0.032 l 0,-3.8894 2.445,0 0,4.0005 q 1.2541,0.1111 2.2226,0.3572 0.9683,0.2462 1.7938,0.7146 0.8256,0.4681 1.3099,1.2381 0.4841,0.77 0.5794,1.8178 z m -3.4132,8.6522 q 0,-0.5716 -0.2381,-1.016 -0.2383,-0.4446 -0.5875,-0.7303 -0.3492,-0.2859 -0.913,-0.4843 -0.5635,-0.1985 -1.0397,-0.2936 -0.4762,-0.095 -1.1748,-0.143 -0.6986,-0.048 -1.0955,-0.048 -0.3969,0 -1.0239,0.016 -0.6271,0.016 -0.7541,0.016 l 0,5.366 q 0.127,0 0.5873,0.01 0.4605,0.01 0.762,0.01 0.3017,0 0.8415,-0.024 0.5398,-0.024 0.9286,-0.064 0.3891,-0.04 0.9051,-0.1348 0.5159,-0.095 0.881,-0.2222 0.3653,-0.127 0.7541,-0.3335 0.3891,-0.2063 0.6272,-0.4762 0.2381,-0.2699 0.3888,-0.635 0.151,-0.3653 0.151,-0.8097 z m -1.1273,-7.5569 q 0,-0.5239 -0.1985,-0.9287 -0.1984,-0.4047 -0.484,-0.6667 -0.2858,-0.2619 -0.7622,-0.4447 -0.4762,-0.1825 -0.8731,-0.2618 -0.3969,-0.079 -0.9763,-0.127 -0.5795,-0.048 -0.9209,-0.04 -0.3413,0.01 -0.8573,0.016 -0.5159,0.01 -0.627,0.01 l 0,4.8739 q 0.079,0 0.5476,0.01 0.4684,0.01 0.7383,0 0.2699,-0.01 0.7938,-0.032 0.5239,-0.024 0.8731,-0.087 0.3494,-0.064 0.8177,-0.1747 0.4682,-0.111 0.7699,-0.2936 0.3017,-0.1826 0.5875,-0.4287 0.2856,-0.2461 0.4285,-0.6113 0.1429,-0.365 0.1429,-0.8096 z"
       inkscape:connector-curvature="0"
       style="fill:#95c5cd;fill-opacity:1" />
    <path
       id="path5000"
       d="m 181.66438,963.39316 q 0.28579,1.3336 -0.0634,3.2388 -1.38127,7.0487 -8.96984,7.0487 l -0.69859,0 q -0.39689,0 -0.69841,0.2619 -0.30166,0.2621 -0.38116,0.6748 l -0.0634,0.3016 -0.8731,5.4931 -0.0317,0.2381 q -0.0795,0.4128 -0.38905,0.6747 -0.30953,0.262 -0.70646,0.262 l -3.98468,0 q -0.33348,0 -0.5239,-0.2383 -0.19059,-0.2381 -0.14291,-0.5714 0.14291,-0.889 0.42066,-2.6672 0.27775,-1.778 0.42066,-2.6671 0.14288,-0.889 0.42867,-2.6592 0.28583,-1.7701 0.42871,-2.6591 0.0793,-0.5875 0.6825,-0.5875 l 2.0799,0 q 2.11146,0.032 3.74657,-0.3333 2.77827,-0.6191 4.55629,-2.2862 1.61937,-1.5081 2.46088,-3.9054 0.38098,-1.1112 0.55549,-2.1114 0.016,-0.095 0.0398,-0.119 0.0238,-0.024 0.0555,-0.016 0.0317,0.01 0.0952,0.055 1.25409,0.9368 1.55578,2.5718 z m -2.73059,-4.4769 q 0,1.6986 -0.73036,3.7467 -1.27003,3.6991 -4.7944,5.0009 -1.79389,0.6349 -4.00076,0.6668 0,0.016 -1.42881,0.016 l -1.42878,-0.016 q -1.5876,0 -1.87322,1.524 -0.0317,0.127 -1.34948,8.4141 -0.016,0.1588 -0.1906,0.1588 l -4.68326,0 q -0.34921,0 -0.57945,-0.262 -0.23024,-0.2619 -0.18255,-0.6113 l 3.68318,-23.3531 q 0.0793,-0.4603 0.43653,-0.762 0.35725,-0.3017 0.81755,-0.3017 l 9.49375,0 q 0.53981,0 1.54774,0.2065 1.00815,0.2063 1.77016,0.508 1.69887,0.6509 2.59571,1.9526 0.89705,1.3019 0.89705,3.1117 z"
       inkscape:connector-curvature="0"
       style="fill:#95c5cd;fill-opacity:1" />
    <path
       id="path5011"
       d="m 966.30985,900.92081 9.57305,6.382 0,-5.6993 -5.30238,-3.5403 z m -0.98421,-2.2862 3.06407,-2.0479 -3.06407,-2.0479 0,4.0958 z m 13.00223,8.6682 9.57303,-6.382 -4.27064,-2.8576 -5.30239,3.5403 0,5.6993 z m -1.22248,-7.8267 4.31815,-2.8894 -4.31815,-2.8893 -4.31818,2.8893 z m -6.52487,-4.3659 5.30238,-3.5402 0,-5.6993 -9.57305,6.382 z m 15.24069,1.4765 3.06389,2.0479 0,-4.0958 z m -2.19095,-1.4765 4.27064,-2.8575 -9.57303,-6.382 0,5.6993 z m 7.69981,-2.8575 0,8.6681 q 0,0.6509 -0.53977,1.016 l -13.00223,8.6682 q -0.33347,0.2064 -0.68268,0.2064 -0.3492,0 -0.68272,-0.2064 l -13.00219,-8.6682 q -0.53981,-0.3651 -0.53981,-1.016 l 0,-8.6681 q 0,-0.6509 0.53981,-1.0161 l 13.00219,-8.668 q 0.33352,-0.2065 0.68272,-0.2065 0.34921,0 0.68268,0.2065 l 13.00223,8.668 q 0.53977,0.3652 0.53977,1.0161 z"
       inkscape:connector-curvature="0"
       style="fill:#95c5cd;fill-opacity:1" />
    <path
       id="path5022"
       d="m 217.5045,1049.3141 q 0,-0.635 -0.4445,-1.0794 -0.4444,-0.4447 -1.0796,-0.4447 -0.635,0 -1.0794,0.4447 -0.4446,0.4444 -0.4446,1.0794 0,0.6349 0.4446,1.0796 0.4444,0.4446 1.0794,0.4446 0.6352,0 1.0796,-0.4446 0.4445,-0.4447 0.4445,-1.0796 z m 0,-18.2887 q 0,-0.6351 -0.4445,-1.0796 -0.4444,-0.4445 -1.0796,-0.4445 -0.635,0 -1.0794,0.4445 -0.4446,0.4445 -0.4446,1.0796 0,0.6349 0.4446,1.0794 0.4444,0.4446 1.0794,0.4446 0.6352,0 1.0796,-0.4446 0.4445,-0.4445 0.4445,-1.0794 z m 10.1604,2.032 q 0,-0.635 -0.4444,-1.0796 -0.4446,-0.4445 -1.0796,-0.4445 -0.635,0 -1.0796,0.4445 -0.4444,0.4446 -0.4444,1.0796 0,0.635 0.4444,1.0796 0.4446,0.4446 1.0796,0.4446 0.635,0 1.0796,-0.4446 0.4444,-0.4446 0.4444,-1.0796 z m 1.5242,0 q 0,0.8255 -0.4128,1.5321 -0.4128,0.7064 -1.1114,1.1032 -0.032,4.5564 -3.5878,6.5726 -1.0637,0.6032 -3.2228,1.2859 -2.032,0.6351 -2.691,1.1273 -0.6588,0.4922 -0.6588,1.5876 l 0,0.4126 q 0.6985,0.3968 1.1113,1.1036 0.4128,0.7064 0.4128,1.5318 0,1.2702 -0.8891,2.1592 -0.8889,0.8889 -2.1591,0.8889 -1.27,0 -2.159,-0.8889 -0.889,-0.889 -0.889,-2.1592 0,-0.8254 0.4126,-1.5318 0.4128,-0.7067 1.1114,-1.1036 l 0,-13.018 q -0.6986,-0.3968 -1.1114,-1.1032 -0.4126,-0.7068 -0.4126,-1.5322 0,-1.2702 0.889,-2.1592 0.889,-0.889 2.159,-0.889 1.2702,0 2.1591,0.889 0.8891,0.889 0.8891,2.1592 0,0.8254 -0.4128,1.5322 -0.4128,0.7064 -1.1113,1.1032 l 0,7.8903 q 0.8573,-0.4128 2.4448,-0.9051 0.8731,-0.27 1.3892,-0.4683 0.516,-0.1985 1.1192,-0.4922 0.6032,-0.2935 0.9367,-0.627 0.3333,-0.3334 0.6429,-0.8096 0.3097,-0.4764 0.4446,-1.1033 0.135,-0.6273 0.135,-1.4528 -0.6986,-0.3968 -1.1114,-1.1033 -0.4128,-0.7065 -0.4128,-1.5321 0,-1.27 0.889,-2.159 0.8892,-0.8891 2.1592,-0.8891 1.27,0 2.1592,0.8891 0.889,0.889 0.889,2.159 z"
       inkscape:connector-curvature="0"
       style="fill:#95c5cd;fill-opacity:1" />
    <path
       id="path5033"
       d="m 1055.3582,883.88616 23.893,0 -4.223,21.1624 -12.764,4.2388 -11.0813,-4.2388 1.1273,-5.6518 4.7151,0 -0.4605,2.3337 6.6995,2.5561 7.7156,-2.5561 1.0796,-5.3819 -19.1779,0 0.9208,-4.715 19.1937,0 0.6033,-3.0323 -19.1779,0 z"
       inkscape:connector-curvature="0"
       style="fill:#95c5cd;fill-opacity:1" />
    <path
       id="path5044"
       d="m 984.21988,1032.8825 0.254,-2.7782 -14.0341,0 0.7463,8.4775 9.7159,0 -0.3494,3.6198 -3.1275,0.8413 -3.1115,-0.8413 -0.2065,-2.2226 -2.7781,0 0.3492,4.4133 5.7469,1.5876 0.064,0 0,-0.016 5.6992,-1.5717 0.7938,-8.6363 -10.2239,0 -0.2381,-2.8735 10.7001,0 z m -17.9395,-7.4455 22.3531,0 -2.0322,22.8291 -9.1762,2.5719 -9.1125,-2.5719 z"
       inkscape:connector-curvature="0"
       style="fill:#95c5cd;fill-opacity:1" />
    <path
       id="path5055"
       d="m 1277.3718,964.44096 7.8426,4.8421 -5.4296,4.5246 -7.7789,-5.0643 z m 15.6533,8.811 0,1.7145 -7.7789,4.6517 0,0.016 -0.016,-0.016 -0.016,0.016 0,-0.016 -7.7633,-4.6517 0,-1.7145 2.3337,1.5241 5.4296,-4.5087 0,-0.032 0.016,0.016 0.016,-0.016 0,0.032 5.4452,4.5087 z m -13.2403,-18.1618 5.4296,4.5246 -7.8426,4.8262 -5.3659,-4.2865 z m 13.2721,9.3508 5.366,4.3024 -7.7633,5.0643 -5.4452,-4.5246 z m -2.3973,-9.3508 7.7633,5.0643 -5.366,4.2865 -7.8425,-4.8262 z"
       inkscape:connector-curvature="0"
       style="fill:#95c5cd;fill-opacity:1" />
    <path
       id="path5066"
       d="m 75.260249,961.26591 0,13.3198 q 0,0.762 -0.7779,0.9842 -2.762377,0.8256 -5.366137,0.8256 -1.1589,0 -3.42114,-0.4684 -2.26224,-0.4683 -3.61173,-0.4683 -2.60358,0 -5.87397,0.762 l 0,5.366 -2.54017,0 0,-21.7179 q -1.00011,-0.3969 -1.60349,-1.2859 -0.6032,-0.8891 -0.6032,-1.9686 0,-1.4447 1.016,-2.4609 1.01618,-1.016 2.46087,-1.016 1.44469,0 2.46069,1.016 1.01599,1.0162 1.01599,2.4609 0,1.0795 -0.6032,1.9686 -0.60338,0.889 -1.60349,1.2859 l 0,1.0794 q 3.01639,-0.6984 5.44528,-0.6984 1.57169,0 3.14338,0.2381 0.22239,0.032 1.77014,0.3572 1.54794,0.3255 2.37352,0.3255 1.22231,0 2.61949,-0.2858 0.17469,-0.032 1.27,-0.3333 1.095477,-0.3017 1.412887,-0.3017 0.4128,0 0.71449,0.3017 0.30169,0.3015 0.30169,0.7143 z"
       inkscape:connector-curvature="0"
       style="fill:#95c5cd;fill-opacity:1" />
    <path
       id="path5077"
       d="m 1104.7887,973.90296 q 0,1.0478 -1.4763,1.0478 -1.6986,0 -1.6986,-1.0001 0,-1.016 1.5557,-1.016 1.6192,0 1.6192,0.9683 z m -0.5714,-7.398 q 0,1.3493 -1.1748,1.3493 -1.2223,0 -1.2223,-1.3333 0,-1.4291 1.2223,-1.4291 0.5715,0 0.8731,0.405 0.3017,0.4047 0.3017,1.0081 z m 2.6354,-1.1906 0,-1.9845 q -1.2384,0.4603 -2.1433,0.4603 -0.7938,-0.4603 -1.7463,-0.4603 -1.3652,0 -2.3019,0.9048 -0.9366,0.905 -0.9366,2.2703 0,0.7938 0.4683,1.6192 0.4683,0.8256 1.1669,1.0637 l 0,0.048 q -0.6033,0.2699 -0.6033,1.3495 0,0.8413 0.6509,1.2223 l 0,0.048 q -1.7939,0.5873 -1.7939,2.2067 0,0.7145 0.3175,1.2462 0.3174,0.532 0.8572,0.8097 0.5398,0.2778 1.1431,0.4048 0.6033,0.127 1.2857,0.127 3.5562,0 3.5562,-2.9846 0,-1.0637 -0.762,-1.5717 -0.762,-0.508 -2.0003,-0.7302 -0.4286,-0.08 -0.8176,-0.3255 -0.3889,-0.2461 -0.3889,-0.6271 0,-0.6986 0.7779,-0.8256 1.2223,-0.2381 1.9368,-1.1112 0.7143,-0.8732 0.7143,-2.1274 0,-0.381 -0.1586,-0.8256 0.5873,-0.1428 0.7779,-0.2062 z m 0.9367,6.6518 2.1749,0 q -0.032,-0.4287 -0.032,-1.3018 l 0,-6.1439 q 0,-0.7303 0.032,-1.0955 l -2.1749,0 q 0.047,0.3652 0.047,1.1273 l 0,6.2232 q 0,0.7938 -0.047,1.1907 z m 8.0806,-0.254 0,-1.9209 q -0.4762,0.3333 -1.0795,0.3333 -0.8413,0 -0.8413,-1.3018 l 0,-3.5721 0.8254,0 q 0.1428,0 0.4208,0.016 0.2778,0.016 0.4206,0.016 l 0,-1.8575 -1.6668,0 q 0,-1.3017 0.047,-1.6192 l -2.2225,0 q 0.063,0.381 0.063,0.8732 l 0,0.746 -0.9525,0 0,1.8575 q 0.5716,-0.048 0.5875,-0.048 0.048,0 0.1745,0.01 0.127,0.01 0.1905,0.01 l 0,0.032 -0.032,0 0,3.4451 q 0,0.5873 0.04,1.016 0.04,0.4287 0.1826,0.897 0.1429,0.4683 0.389,0.7699 0.246,0.3017 0.6906,0.4922 0.4446,0.1904 1.0478,0.1904 1.0159,0 1.7145,-0.3809 z m -5.6517,-11.2083 q 0,-0.5714 -0.381,-1.0079 -0.381,-0.4368 -0.9526,-0.4368 -0.5714,0 -0.9604,0.4287 -0.3889,0.4287 -0.3889,1.016 0,0.5716 0.3969,0.9922 0.3967,0.4208 0.9524,0.4208 0.5557,0 0.9447,-0.4287 0.3889,-0.4286 0.3889,-0.9843 z m 9.7159,-0.762 0,15.2407 q 0,1.8893 -1.3415,3.2307 -1.3414,1.3414 -3.2307,1.3414 l -15.2406,0 q -1.8892,0 -3.2308,-1.3414 -1.3414,-1.3414 -1.3414,-3.2307 l 0,-15.2407 q 0,-1.8891 1.3414,-3.2307 1.3416,-1.3415 3.2308,-1.3415 l 15.2406,0 q 1.8893,0 3.2307,1.3415 1.3415,1.3416 1.3415,3.2307 z"
       inkscape:connector-curvature="0"
       style="fill:#95c5cd;fill-opacity:1" />
    <path
       id="path5088"
       d="m 1316.4228,894.99931 0.016,0 q 0.2539,-2.0004 0.9288,-3.8339 0.6746,-1.8338 1.8256,-3.4451 1.1509,-1.6114 2.6592,-2.7942 1.5081,-1.1827 3.5481,-1.8653 2.0401,-0.6827 4.3896,-0.6827 3.6673,0 6.5726,1.6749 2.9052,1.6749 4.6676,4.8183 1.651,2.9687 1.651,7.017 l 0,2.9847 -17.8602,0 q 0.016,1.7621 0.8493,3.0561 0.8335,1.2937 2.167,1.9446 1.3336,0.6509 3.0085,0.9051 1.6749,0.254 3.3814,0.047 1.7068,-0.2064 3.3022,-0.7383 1.5955,-0.5317 2.7544,-1.3415 l 0,5.9852 q -1.4603,0.8732 -3.6432,1.4605 -2.183,0.5875 -4.9613,0.6034 -2.7782,0.016 -5.0168,-0.8415 -3.0004,-1.1589 -4.9453,-3.9531 -1.9447,-2.7939 -1.9765,-5.9057 -0.048,-3.8418 1.7623,-6.5408 1.8098,-2.6988 5.1595,-4.2546 -0.7619,0.9524 -1.2383,1.9924 -0.4763,1.0398 -0.7302,2.5321 l 10.0809,0 q 0.127,-1.2224 -0.1269,-2.2226 -0.254,-1.0001 -0.7462,-1.6113 -0.492,-0.6113 -1.1192,-1.0559 -0.6272,-0.4443 -1.2781,-0.6509 -0.6509,-0.2062 -1.1907,-0.3254 -0.5396,-0.1189 -0.8889,-0.1349 l -0.3492,-0.016 q -2.1434,0.079 -4.1198,0.7064 -1.9766,0.6272 -3.5483,1.6591 -1.5717,1.0319 -2.794,2.2304 -1.2225,1.1988 -2.191,2.5958 z"
       inkscape:connector-curvature="0"
       style="fill:#95c5cd;fill-opacity:1" />
    <path
       id="path5099"
       d="m 903.21849,1038.7883 q 0,0.889 -0.1111,1.6512 l -18.273,0 q 0,2.3178 1.7386,3.8817 1.7383,1.5636 4.0879,1.5636 1.5717,0 2.9449,-0.7383 1.3733,-0.7382 2.1671,-2.0716 l 6.7154,0 q -0.889,2.5241 -2.7068,4.4611 -1.8179,1.9367 -4.2467,2.9924 -2.4291,1.0559 -5.0961,1.0559 -2.9689,0 -5.6518,-1.3177 -3.6197,1.8415 -6.255,1.8415 -3.7626,0 -3.7626,-4.1752 0,-1.8259 0.7145,-4.3659 0.2699,-0.9526 1.7305,-3.6355 3.1591,-5.7154 7.5408,-9.6207 -2.9212,1.2541 -6.7788,5.6199 1.0001,-4.3499 4.5007,-7.136 3.5006,-2.7861 7.9617,-2.7861 0.4762,0 0.7143,0.016 4.0483,-1.8576 6.8742,-1.8576 1.016,0 1.8417,0.2064 0.8255,0.2065 1.5001,0.6431 0.6747,0.4365 1.0558,1.2145 0.3811,0.7778 0.3811,1.8256 0,1.8415 -1.1907,4.5403 1.6033,2.8894 1.6033,6.1916 z m -1.1112,-10.1602 q 0,-1.3177 -0.8414,-2.0956 -0.8414,-0.7779 -2.175,-0.7779 -1.7146,0 -4.0324,1.1112 1.9209,0.7461 3.5323,2.0877 1.6113,1.3414 2.7068,3.1037 0.8097,-2.1433 0.8097,-3.4291 z m -25.3058,19.6381 q 0,1.3654 0.7698,2.1034 0.7701,0.7383 2.1354,0.7383 1.8257,0 4.2228,-1.3177 -1.9367,-1.143 -3.3893,-2.9051 -1.4527,-1.7623 -2.1829,-3.8897 -1.5558,3.2545 -1.5558,5.2708 z m 8.0013,-11.3194 11.5576,0 q -0.08,-2.2544 -1.7941,-3.7625 -1.7146,-1.5083 -3.9847,-1.5083 -2.2862,0 -3.9927,1.5083 -1.7068,1.5081 -1.7861,3.7625 z"
       inkscape:connector-curvature="0"
       style="fill:#95c5cd;fill-opacity:1" />
    <path
       id="path5110"
       d="m 130.30063,895.13616 q 1.7621,0.7303 2.8495,2.3099 1.0877,1.5798 1.0877,3.5165 0,2.6036 -1.8734,4.4531 -1.8734,1.8496 -4.5247,1.8496 -0.063,0 -0.1825,-0.01 -0.119,-0.01 -0.1667,-0.01 l -19.3208,0 q -2.6988,-0.1588 -4.5721,-1.9923 -1.8734,-1.8337 -1.8734,-4.4532 0,-1.7464 0.8732,-3.2227 0.8731,-1.4765 2.3337,-2.3338 -0.1906,-0.6192 -0.1906,-1.3019 0,-1.8257 1.302,-3.1115 1.3018,-1.2859 3.1591,-1.2859 1.5083,0 2.7308,0.9207 1.1907,-2.4449 3.5322,-3.9371 2.3418,-1.4924 5.1834,-1.4924 2.6354,0 4.858,1.278 2.2226,1.2781 3.5165,3.4689 1.294,2.1907 1.294,4.7786 0,0.095 -0.01,0.2857 -0.01,0.1905 -0.01,0.2858 z m -21.1465,4.2229 q 0,1.9368 1.3336,3.0641 1.3334,1.1271 3.302,1.1271 2.1751,0 3.8102,-1.5717 -0.254,-0.3176 -0.754,-0.897 -0.5001,-0.5795 -0.6907,-0.8017 -1.0635,1.0319 -2.286,1.0319 -0.8731,0 -1.4844,-0.5317 -0.6112,-0.532 -0.6112,-1.3892 0,-0.8414 0.6112,-1.3812 0.6113,-0.5398 1.4526,-0.5398 0.6986,0 1.3414,0.3334 0.6431,0.3333 1.1591,0.8732 0.5159,0.5397 1.0319,1.1906 0.5159,0.6509 1.0953,1.3018 0.5795,0.6509 1.2225,1.1907 0.6431,0.5398 1.5399,0.8731 0.897,0.3335 1.9289,0.3335 1.9209,0 3.2466,-1.1351 1.3256,-1.1352 1.3256,-3.0243 0,-1.9211 -1.3336,-3.0481 -1.3334,-1.1273 -3.2863,-1.1273 -2.2701,0 -3.8258,1.54 l 1.4762,1.7147 q 1.0478,-1.0162 2.2544,-1.0162 0.8256,0 1.4606,0.5238 0.635,0.524 0.635,1.3336 0,0.9049 -0.5873,1.4528 -0.5875,0.5476 -1.4924,0.5476 -0.6827,0 -1.3096,-0.3333 -0.6272,-0.3335 -1.1432,-0.8733 -0.5159,-0.5398 -1.0398,-1.1907 -0.5239,-0.6509 -1.1033,-1.3017 -0.5795,-0.651 -1.2305,-1.1908 -0.6509,-0.5398 -1.5319,-0.8731 -0.8811,-0.3334 -1.8814,-0.3334 -1.9368,0 -3.2861,1.1192 -1.3495,1.1193 -1.3495,3.0085 z"
       inkscape:connector-curvature="0"
       style="fill:#95c5cd;fill-opacity:1" />
    <path
       id="path5121"
       d="m 1239.7694,888.88723 q -0.1745,0.016 -0.2459,0.1666 -0.072,0.1507 -0.1351,0.1507 -0.079,0.016 -0.079,-0.079 0,-0.1904 0.3015,-0.238 l 0.1588,0 z m 1.3813,0.2221 q -0.064,0.016 -0.1826,-0.103 -0.1191,-0.1191 -0.2779,-0.072 0.381,-0.1747 0.508,0.032 0.048,0.095 -0.047,0.1428 z m -5.5724,6.7791 q -0.063,-0.016 -0.095,0.047 -0.032,0.064 -0.071,0.1984 -0.04,0.1351 -0.087,0.2144 -0.048,0.079 -0.1588,0.2063 -0.1589,0.1747 -0.016,0.1906 0.064,0.016 0.1984,-0.1111 0.135,-0.1271 0.1985,-0.2858 0.016,-0.048 0.032,-0.1111 0.016,-0.064 0.032,-0.095 0.016,-0.032 0.024,-0.072 0.01,-0.04 0.01,-0.063 l 0,-0.048 -0.016,-0.04 -0.048,-0.032 z m 13.5737,5.6993 q 0,-0.2858 -0.8732,-0.6669 0.064,-0.238 0.1191,-0.4365 0.055,-0.1984 0.079,-0.4128 0.024,-0.2143 0.048,-0.3413 0.024,-0.127 0.01,-0.3571 -0.016,-0.2302 -0.016,-0.3097 0,-0.079 -0.056,-0.3492 -0.056,-0.2699 -0.063,-0.3254 -0.01,-0.056 -0.079,-0.3969 -0.072,-0.3414 -0.087,-0.4207 -0.1588,-0.762 -0.7463,-1.6353 -0.5873,-0.8731 -1.143,-1.1907 0.381,0.3176 0.9049,1.3177 1.3813,2.572 0.8574,4.4136 -0.1747,0.635 -0.7938,0.6668 -0.4923,0.063 -0.6112,-0.2939 -0.1192,-0.3572 -0.127,-1.3255 -0.01,-0.9685 -0.1826,-1.6987 -0.1429,-0.6191 -0.3095,-1.0955 -0.1669,-0.4762 -0.3098,-0.7223 -0.1427,-0.246 -0.2459,-0.3889 -0.1033,-0.1429 -0.2065,-0.2383 -0.1031,-0.095 -0.119,-0.1111 -0.2222,-0.9842 -0.4921,-1.6351 -0.2699,-0.6509 -0.4683,-0.889 -0.1985,-0.2383 -0.3732,-0.5239 -0.1747,-0.2858 -0.2381,-0.6352 -0.064,-0.3332 0.095,-0.8493 0.1588,-0.5159 0.071,-0.7858 -0.087,-0.2699 -0.7064,-0.3969 -0.2381,-0.048 -0.7064,-0.2857 -0.4684,-0.2382 -0.5636,-0.2541 -0.127,-0.016 -0.1747,-0.4128 -0.048,-0.3969 0.127,-0.8096 0.1747,-0.4128 0.5716,-0.4286 0.5873,-0.048 0.8095,0.4763 0.2224,0.5238 0.064,0.9207 -0.1747,0.3017 -0.032,0.4207 0.1429,0.1191 0.4764,0.01 0.2063,-0.064 0.2063,-0.5716 l 0,-0.5875 q -0.079,-0.4762 -0.2144,-0.7936 -0.1348,-0.3176 -0.3333,-0.4842 -0.1984,-0.1668 -0.3731,-0.2382 -0.1747,-0.071 -0.4287,-0.1191 -1.6987,0.127 -1.4129,2.1274 0,0.2381 -0.016,0.2381 -0.1429,-0.1429 -0.4683,-0.1667 -0.3255,-0.024 -0.5239,0.01 -0.1985,0.032 -0.246,-0.079 0.016,-0.9049 -0.254,-1.4287 -0.2699,-0.524 -0.7145,-0.5398 -0.4287,-0.016 -0.6589,0.4365 -0.2301,0.4525 -0.2619,0.9445 -0.016,0.2382 0.056,0.5875 0.071,0.3493 0.2063,0.5954 0.1351,0.246 0.2462,0.2143 0.1588,-0.048 0.2539,-0.2224 0.064,-0.1428 -0.1111,-0.127 -0.1111,0 -0.2461,-0.2302 -0.1348,-0.2301 -0.1507,-0.5318 -0.016,-0.3492 0.1429,-0.5875 0.1588,-0.238 0.5398,-0.2222 0.2699,0 0.4286,0.3336 0.1586,0.3332 0.1508,0.6191 -0.01,0.2857 -0.024,0.3492 -0.3494,0.238 -0.4923,0.4604 -0.127,0.1905 -0.4365,0.373 -0.3096,0.1828 -0.3255,0.1984 -0.2063,0.2224 -0.2459,0.4287 -0.04,0.2065 0.1189,0.2858 0.2222,0.127 0.3969,0.3096 0.1747,0.1826 0.254,0.3016 0.079,0.119 0.2937,0.2064 0.2143,0.087 0.5637,0.1032 0.7461,0.032 1.6192,-0.2381 0.032,-0.016 0.3653,-0.1111 0.3333,-0.095 0.5476,-0.1668 0.2144,-0.072 0.4684,-0.2063 0.254,-0.135 0.3333,-0.2778 0.1429,-0.2224 0.3176,-0.127 0.079,0.048 0.1032,0.1349 0.024,0.087 -0.048,0.1906 -0.072,0.103 -0.262,0.1507 -0.3174,0.095 -0.8969,0.3413 -0.5794,0.246 -0.7223,0.3096 -0.6986,0.3017 -1.1114,0.3651 -0.3969,0.08 -1.2541,-0.032 -0.1588,-0.032 -0.1429,0.032 0.016,0.064 0.2699,0.3017 0.3969,0.3651 1.0637,0.3492 0.2699,-0.016 0.5714,-0.1111 0.3017,-0.095 0.5716,-0.2222 0.2699,-0.127 0.5318,-0.2779 0.262,-0.1508 0.4763,-0.2699 0.2144,-0.119 0.3889,-0.1904 0.1747,-0.071 0.2779,-0.04 0.1031,0.032 0.1349,0.1745 0,0.032 -0.016,0.072 -0.016,0.04 -0.063,0.079 -0.048,0.04 -0.095,0.072 -0.048,0.032 -0.1351,0.079 -0.087,0.048 -0.1428,0.071 -0.056,0.024 -0.1589,0.079 -0.103,0.055 -0.1507,0.071 -0.4446,0.2224 -1.0716,0.6986 -0.6271,0.4762 -1.0558,0.6827 -0.4287,0.2063 -0.7779,0.016 -0.3333,-0.1747 -1.0001,-1.1589 -0.3494,-0.4923 -0.3969,-0.3494 -0.016,0.048 -0.016,0.1588 0,0.3969 -0.2381,0.8971 -0.2381,0.4999 -0.4683,0.8809 -0.2303,0.3812 -0.3335,0.9208 -0.1031,0.5398 0.1826,1.0003 -0.3652,0.095 -0.9923,1.4288 -0.6269,1.3336 -0.754,2.2384 -0.032,0.2859 -0.024,1.0954 0.01,0.8097 -0.087,0.9367 -0.127,0.381 -0.4604,0.048 -0.5081,-0.4922 -0.5717,-1.4924 -0.032,-0.4444 0.064,-0.889 0.063,-0.3017 -0.016,-0.2858 -0.032,0.016 -0.063,0.08 -0.5716,1.0319 0.1586,2.6353 0.08,0.1904 0.3969,0.4445 0.3176,0.2539 0.381,0.3176 0.3176,0.365 1.6512,1.4366 1.3336,1.0717 1.4765,1.2146 0.254,0.2381 0.2778,0.6033 0.024,0.365 -0.2222,0.6826 -0.2462,0.3175 -0.7224,0.3651 0.127,0.2381 0.4603,0.7065 0.3335,0.4683 0.4446,0.8574 0.1111,0.3888 0.1111,1.1192 0.7302,-0.3812 0.1111,-1.4606 -0.063,-0.127 -0.1666,-0.254 -0.1033,-0.127 -0.1508,-0.1906 -0.048,-0.063 -0.032,-0.095 0.047,-0.08 0.2063,-0.1509 0.1588,-0.071 0.3176,0.04 0.7302,0.8254 2.6354,0.5714 2.1114,-0.2381 2.8098,-1.3811 0.3652,-0.6034 0.5398,-0.4764 0.1906,0.095 0.1588,0.8256 -0.016,0.3969 -0.365,1.4606 -0.143,0.3651 -0.095,0.5954 0.048,0.2302 0.3811,0.2461 0.047,-0.3017 0.2301,-1.2225 0.1826,-0.9208 0.2143,-1.4288 0.032,-0.3335 -0.1032,-1.1669 -0.1349,-0.8335 -0.119,-1.5399 0.016,-0.7064 0.3652,-1.1193 0.2381,-0.2857 0.8096,-0.2857 0.016,-0.5874 0.5477,-0.8413 0.5319,-0.2541 1.151,-0.1669 0.6191,0.087 0.9526,0.3573 z m -9.9699,-13.1292 q 0.048,-0.2699 -0.04,-0.4763 -0.087,-0.2065 -0.1825,-0.2381 -0.1429,-0.032 -0.1429,0.1111 0.032,0.079 0.08,0.095 0.1588,0 0.1111,0.2382 -0.048,0.3176 0.127,0.3176 0.048,0 0.048,-0.048 z m 6.6519,3.1274 q -0.032,-0.127 -0.1033,-0.1825 -0.072,-0.056 -0.2063,-0.079 -0.135,-0.024 -0.2302,-0.087 -0.079,-0.048 -0.1508,-0.127 -0.071,-0.079 -0.1111,-0.127 -0.04,-0.048 -0.087,-0.1032 -0.048,-0.055 -0.064,-0.063 -0.016,-0.01 -0.063,0.024 -0.2224,0.254 0.1111,0.6905 0.3333,0.4365 0.6191,0.5002 0.1429,0.016 0.2302,-0.1271 0.087,-0.1429 0.056,-0.3175 z m -2.8258,-3.3815 q 0,-0.1746 -0.079,-0.3095 -0.079,-0.1348 -0.1747,-0.1985 -0.095,-0.063 -0.1427,-0.048 -0.095,0 -0.127,0.032 -0.032,0.032 0,0.064 0.032,0.032 0.079,0.047 0.2222,0.064 0.2858,0.4923 0,0.047 0.127,-0.032 0.032,-0.032 0.032,-0.048 z m 0.8572,-3.699 q 0,-0.032 -0.04,-0.079 -0.04,-0.048 -0.1429,-0.1111 -0.1033,-0.064 -0.1508,-0.095 -0.2383,-0.2382 -0.3811,-0.2382 -0.1428,0.016 -0.1826,0.1192 -0.04,0.1033 -0.016,0.2063 0.024,0.1032 -0.01,0.1985 -0.016,0.063 -0.095,0.1666 -0.08,0.1033 -0.095,0.1429 -0.016,0.04 0.048,0.135 0.064,0.048 0.127,0 0.064,-0.048 0.1747,-0.1428 0.1111,-0.095 0.2381,-0.1429 0.016,-0.016 0.1429,-0.016 0.127,0 0.2381,-0.032 0.1111,-0.032 0.1429,-0.1111 z m 8.9698,21.2894 q 0.3174,0.1905 0.4921,0.389 0.1747,0.1984 0.1904,0.3809 0.016,0.1826 -0.04,0.3571 -0.056,0.1747 -0.2459,0.3494 -0.1906,0.1745 -0.3732,0.3096 -0.1825,0.1349 -0.4762,0.2936 -0.2938,0.1588 -0.5001,0.2621 -0.2065,0.103 -0.508,0.2459 -0.3017,0.1429 -0.4287,0.2065 -0.6032,0.3015 -1.3574,0.889 -0.7541,0.5875 -1.1987,1.016 -0.2697,0.254 -1.0794,0.3096 -0.8097,0.055 -1.4131,-0.2301 -0.2856,-0.1429 -0.4682,-0.3732 -0.1827,-0.2302 -0.262,-0.4047 -0.079,-0.1747 -0.3492,-0.3098 -0.2699,-0.1348 -0.7463,-0.1507 -0.6984,-0.016 -2.0638,-0.016 -0.3017,0 -0.9048,0.024 -0.6033,0.024 -0.9208,0.04 -0.6986,0.016 -1.2622,0.2381 -0.5635,0.2222 -0.8493,0.4762 -0.2858,0.254 -0.6906,0.4525 -0.4049,0.1984 -0.8493,0.1825 -0.4605,-0.016 -1.7623,-0.4921 -1.3018,-0.4762 -2.3178,-0.6827 -0.3017,-0.063 -0.8097,-0.1507 -0.508,-0.087 -0.7938,-0.143 -0.2858,-0.055 -0.6271,-0.1507 -0.3412,-0.095 -0.5318,-0.2302 -0.1906,-0.1349 -0.2699,-0.3096 -0.1588,-0.3651 0.1111,-1.0558 0.2699,-0.6906 0.2858,-0.8651 0.016,-0.2542 -0.063,-0.6351 -0.08,-0.3811 -0.1588,-0.6747 -0.079,-0.2937 -0.071,-0.5795 0.01,-0.2857 0.1667,-0.4287 0.2222,-0.1904 0.9048,-0.2221 0.6828,-0.032 0.9526,-0.1906 0.4762,-0.2856 0.6668,-0.5555 0.1904,-0.2699 0.1904,-0.8098 0.3335,1.1589 -0.508,1.6828 -0.5079,0.3176 -1.3176,0.2382 -0.5398,-0.048 -0.6828,0.1588 -0.2062,0.238 0.08,0.9048 0.032,0.095 0.1271,0.2858 0.095,0.1905 0.1348,0.2858 0.04,0.095 0.072,0.27 0.032,0.1745 0.016,0.3491 0,0.2381 -0.2699,0.7779 -0.2699,0.5398 -0.2222,0.762 0.048,0.2699 0.5873,0.4128 0.3176,0.095 1.3416,0.2937 1.0239,0.1984 1.5796,0.3254 0.381,0.095 1.1748,0.3494 0.7937,0.254 1.3098,0.3651 0.5159,0.1111 0.8811,0.063 0.6826,-0.095 1.0239,-0.4444 0.3413,-0.3494 0.3651,-0.762 0.024,-0.4128 -0.119,-0.9288 -0.1429,-0.5158 -0.3017,-0.8256 -0.1588,-0.3096 -0.3174,-0.5795 -1.9211,-3.0163 -2.6831,-3.8417 -1.0795,-1.1749 -1.7938,-0.6352 -0.1747,0.1428 -0.2382,-0.2381 -0.048,-0.254 -0.032,-0.6032 0.016,-0.4605 0.1588,-0.8256 0.1427,-0.3651 0.381,-0.7462 0.2381,-0.3809 0.3492,-0.6667 0.127,-0.3334 0.4207,-1.143 0.2938,-0.8097 0.4683,-1.2384 0.1747,-0.4287 0.4764,-0.9685 0.3015,-0.5396 0.6191,-0.8572 1.7464,-2.2703 1.9686,-3.0957 -0.1906,-1.7782 -0.254,-4.9215 -0.032,-1.4288 0.381,-2.4052 0.4128,-0.9763 1.6828,-1.659 0.6191,-0.3334 1.651,-0.3334 0.8415,-0.016 1.683,0.2142 0.8413,0.2303 1.4129,0.659 0.9049,0.6668 1.4525,1.9289 0.5478,1.2621 0.4684,2.3416 -0.079,1.5082 0.4764,3.3976 0.5395,1.7938 2.1114,3.4607 0.8731,0.9367 1.5796,2.5877 0.7064,1.6512 0.9445,3.0323 0.127,0.7779 0.08,1.3416 -0.048,0.5636 -0.1906,0.8809 -0.1429,0.3177 -0.3174,0.3494 -0.1588,0.032 -0.3731,0.3015 -0.2144,0.27 -0.4287,0.5638 -0.2144,0.2936 -0.6429,0.5317 -0.4286,0.2381 -0.9685,0.2222 -0.2857,-0.016 -0.5001,-0.079 -0.2143,-0.064 -0.3572,-0.2144 -0.1428,-0.1508 -0.2142,-0.2459 -0.072,-0.095 -0.1828,-0.3257 -0.1111,-0.2301 -0.1427,-0.3095 -0.3493,-0.5873 -0.6509,-0.4762 -0.3016,0.111 -0.4445,0.7778 -0.1429,0.6669 0.1111,1.5399 0.3175,1.1115 0.016,3.0959 -0.1588,1.0319 0.2858,1.5954 0.4444,0.5636 1.1589,0.524 0.7144,-0.04 1.3494,-0.5636 0.9367,-0.7779 1.4208,-1.0558 0.4843,-0.2778 1.6432,-0.6747 0.8414,-0.2858 1.2224,-0.5794 0.381,-0.2937 0.2937,-0.5477 -0.087,-0.2539 -0.3969,-0.4524 -0.3096,-0.1985 -0.8175,-0.3732 -0.5239,-0.1747 -0.7858,-0.762 -0.262,-0.5874 -0.2383,-1.151 0.024,-0.5636 0.2462,-0.7542 0.016,0.4924 0.127,0.8971 0.1111,0.4047 0.2302,0.643 0.119,0.2381 0.3254,0.4525 0.2064,0.2141 0.3334,0.3015 0.1269,0.087 0.3413,0.2065 0.2143,0.1189 0.262,0.1508 z"
       inkscape:connector-curvature="0"
       style="fill:#95c5cd;fill-opacity:1" />
    <path
       id="path5132"
       d="m 232.11813,902.23051 q -0.61912,1.9845 -1.9527,3.969 -2.04791,3.1116 -4.08008,3.1116 -0.77787,0 -2.22259,-0.508 -1.36519,-0.508 -2.39725,-0.508 -0.96833,0 -2.25423,0.5239 -1.28605,0.5398 -2.09559,0.5398 -2.41316,0 -4.77863,-4.1119 -2.33369,-4.1437 -2.33369,-7.9854 0,-3.6198 1.79389,-5.9376 1.79388,-2.2862 4.50874,-2.2862 1.14302,0 2.8099,0.4764 1.6512,0.4762 2.19096,0.4762 0.71432,0 2.27011,-0.5398 1.61941,-0.5398 2.74649,-0.5398 1.88929,0 3.38166,1.0321 0.82542,0.5714 1.65102,1.5874 -1.25413,1.0637 -1.8098,1.8734 -1.03189,1.4924 -1.03189,3.2863 0,1.9686 1.0953,3.5403 1.09548,1.5716 2.50838,2.0003 z m -5.96919,-18.6221 q 0,0.9683 -0.46048,2.1589 -0.47621,1.1907 -1.47628,2.191 -0.85741,0.8572 -1.71461,1.143 -0.58749,0.1747 -1.65119,0.2699 0.0478,-2.3655 1.23839,-4.0801 1.1748,-1.6986 3.96898,-2.3495 0.016,0.048 0.0396,0.1747 0.0239,0.1269 0.0397,0.1745 0,0.063 0.007,0.1588 0.007,0.095 0.007,0.1588 z"
       inkscape:connector-curvature="0"
       style="fill:#95c5cd;fill-opacity:1" />
    <path
       id="path5143"
       d="m 1460.306,968.09246 0,10.3351 -10.8271,-1.4923 0,-8.8428 10.8271,0 z m 0,-11.7956 0,10.462 -10.8271,0 0,-8.9697 z m 15.5899,11.7956 0,12.4783 -14.3992,-1.9845 0,-10.4938 14.3992,0 z m 0,-13.9389 0,12.6053 -14.3992,0 0,-10.6208 z"
       inkscape:connector-curvature="0"
       style="fill:#95c5cd;fill-opacity:1" />
    <path
       id="path5154"
       d="m 1340.7876,1027.5327 q -2.6195,-1.7462 -5.6995,-1.7462 -2.4606,0 -4.6514,1.1589 -2.191,1.1589 -3.8102,3.175 -1.1907,1.4764 -1.8972,3.4609 -0.7064,1.9845 -0.77,4.2229 l 0,0.6669 q 0.064,2.2384 0.77,4.2229 0.7065,1.9845 1.8972,3.4608 1.6192,2.0163 3.8102,3.1752 2.1908,1.1589 4.6514,1.1589 3.08,0 5.6995,-1.7463 -1.9211,1.7147 -4.3578,2.6671 -2.437,0.9525 -5.12,0.9525 -0.4604,0 -0.6828,-0.016 -2.7782,-0.1269 -5.2864,-1.3018 -2.5084,-1.1747 -4.3184,-3.0639 -1.8098,-1.8892 -2.8734,-4.461 -1.0638,-2.572 -1.0638,-5.3819 0,-2.8894 1.1273,-5.5247 1.1271,-2.6354 3.0323,-4.5405 1.905,-1.905 4.5404,-3.0323 2.6354,-1.1272 5.5248,-1.1272 l 0.048,0 q 2.667,0.016 5.088,0.9605 2.421,0.9446 4.3421,2.6592 z m 4.7468,10.605 q 0,3.048 -1.2224,5.7549 -1.2225,2.7067 -3.3815,4.7072 -1.6512,1.0001 -3.5244,1.0001 -2.1751,0 -4.0484,-1.3336 2.4449,-0.889 4.0244,-3.6989 1.5798,-2.8101 1.5798,-6.4297 0,-3.6038 -1.5717,-6.4139 -1.5717,-2.8098 -4.0167,-3.7147 1.8894,-1.3177 4.0326,-1.3177 1.8891,0 3.5878,1.0319 2.1433,1.9844 3.3419,4.6832 1.1986,2.699 1.1986,5.7312 z"
       inkscape:connector-curvature="0"
       style="fill:#95c5cd;fill-opacity:1" />
    <path
       id="path5176"
       d="m 16.60606,1042.1383 q 0,1.0161 -0.6034,1.7305 -0.6031,0.7143 -1.4446,0.7143 -0.6827,0 -1.1113,-0.2382 l 0,-4.3976 q 0.4445,-0.2699 1.1113,-0.2699 0.8415,0 1.4446,0.7223 0.6034,0.7223 0.6034,1.7386 z m -5.4454,-6.7948 q 0,1.0161 -0.6032,1.7384 -0.6034,0.7224 -1.4447,0.7224 -0.6827,0 -1.1114,-0.2381 l 0,-4.3978 q 0.4446,-0.2699 1.1114,-0.2699 0.8413,0 1.4447,0.7145 0.6032,0.7143 0.6032,1.7305 z m 8.9221,6.8424 q 0,-2.1273 -1.397,-3.6355 -1.3972,-1.5081 -3.3815,-1.5081 -0.3175,0 -0.6192,0.048 -0.3652,1.2383 -1.2383,2.159 -1.3812,1.5082 -3.3498,1.6036 l 0,10.097 3.3498,-0.6509 0,-3.2706 q 0.8096,0.3017 1.8575,0.3017 1.9843,0 3.3815,-1.5081 1.397,-1.5083 1.397,-3.6357 z m -5.4452,-6.779 q 0,-2.1274 -1.4051,-3.6355 -1.405,-1.5083 -3.3895,-1.5083 -1.1748,0 -2.2385,0.5716 l -2.9528,0 0,13.3357 3.3497,-0.651 0,-3.2704 q 0.8733,0.3017 1.8416,0.3017 1.9845,0 3.3895,-1.5082 1.4051,-1.5081 1.4051,-3.6356 z m 9.7475,-2.8576 0,15.2408 q 0,1.889 -1.3415,3.2306 -1.3414,1.3415 -3.2307,1.3415 l -15.24066,0 q -1.88912,0 -3.23075,-1.3415 Q 0,1049.6791 0,1047.7901 l 0,-15.2408 q 0,-1.8893 1.34145,-3.2307 1.34163,-1.3415 3.23075,-1.3415 l 15.24066,0 q 1.8893,0 3.2307,1.3415 1.3415,1.3414 1.3415,3.2307 z"
       inkscape:connector-curvature="0"
       style="fill:#95c5cd;fill-opacity:1" />
    <path
       id="path5187"
       d="m 1508.9346,900.88916 q 0.254,0.2539 0,0.4921 -0.9844,0.9843 -3.1592,0.9843 -2.175,0 -3.1593,-0.9843 -0.254,-0.2382 0,-0.4921 0.095,-0.095 0.2381,-0.095 0.1429,0 0.2383,0.095 0.762,0.7778 2.6829,0.7778 1.9051,0 2.683,-0.7778 0.095,-0.095 0.2381,-0.095 0.1429,0 0.2381,0.095 z m -4.8738,-2.8735 q 0,0.5873 -0.4128,1.0001 -0.4128,0.4128 -1.0002,0.4128 -0.5874,0 -1.0081,-0.4128 -0.4206,-0.4128 -0.4206,-1.0001 0,-0.6034 0.4206,-1.0162 0.4207,-0.4126 1.0081,-0.4126 0.5874,0 1.0002,0.4206 0.4128,0.4207 0.4128,1.0082 z m 6.2708,0 q 0,0.5873 -0.4206,1.0001 -0.4207,0.4128 -1.0082,0.4128 -0.5873,0 -1.0001,-0.4128 -0.4128,-0.4128 -0.4128,-1.0001 0,-0.5875 0.4128,-1.0082 0.4128,-0.4206 1.0001,-0.4206 0.5875,0 1.0082,0.4126 0.4206,0.4128 0.4206,1.0162 z m 3.9849,-1.9052 q 0,-0.7779 -0.5557,-1.3336 -0.5557,-0.5555 -1.3495,-0.5555 -0.7936,0 -1.3652,0.5714 -2.0638,-1.4288 -4.9373,-1.524 l 1.0001,-4.4928 3.1752,0.7144 q 0,0.5873 0.4128,1.0001 0.4126,0.4128 1.0001,0.4128 0.5873,0 1.0082,-0.4207 0.4206,-0.4208 0.4206,-1.008 0,-0.5875 -0.4206,-1.0082 -0.4209,-0.4207 -1.0082,-0.4207 -0.8574,0 -1.27,0.7938 l -3.5087,-0.7779 q -0.3015,-0.08 -0.3968,0.2541 l -1.0954,4.9531 q -2.8575,0.1111 -4.9056,1.5399 -0.5557,-0.5873 -1.3811,-0.5873 -0.7938,0 -1.3495,0.5555 -0.5557,0.5557 -0.5557,1.3336 0,0.5557 0.2936,1.0162 0.2939,0.4603 0.786,0.6984 -0.095,0.4287 -0.095,0.889 0,2.2543 2.2226,3.8579 2.2226,1.6034 5.3501,1.6034 3.1433,0 5.3659,-1.6034 2.2226,-1.6036 2.2226,-3.8579 0,-0.508 -0.1111,-0.9049 0.4762,-0.2381 0.762,-0.6906 0.2858,-0.4524 0.2858,-1.0081 z m 5.6835,0.4764 q 0,2.8894 -1.1272,5.5248 -1.1271,2.6351 -3.0323,4.5404 -1.905,1.9049 -4.5404,3.0322 -2.6354,1.1271 -5.5247,1.1271 -2.8894,0 -5.5248,-1.1271 -2.6354,-1.1273 -4.5404,-3.0322 -1.9052,-1.9053 -3.0323,-4.5404 -1.1273,-2.6354 -1.1273,-5.5248 0,-2.8894 1.1273,-5.5247 1.1271,-2.6354 3.0323,-4.5406 1.905,-1.9051 4.5404,-3.0323 2.6354,-1.1271 5.5248,-1.1271 2.8893,0 5.5247,1.1271 2.6354,1.1272 4.5404,3.0323 1.9052,1.9052 3.0323,4.5406 1.1272,2.6353 1.1272,5.5247 z"
       inkscape:connector-curvature="0"
       style="fill:#95c5cd;fill-opacity:1" />
    <path
       id="path5198"
       d="m 1027.1176,971.36286 q 0,-0.3494 -0.3492,-0.4286 -1.0637,-0.2382 -1.8734,-0.9368 -0.8096,-0.6984 -1.27,-1.7145 -0.1112,-0.3015 -0.1112,-0.3969 0,-0.2381 0.3097,-0.4129 0.3096,-0.1744 0.6825,-0.2698 0.3732,-0.095 0.6827,-0.3255 0.3096,-0.23 0.3096,-0.5794 0,-0.3015 -0.2937,-0.5 -0.2937,-0.1984 -0.6112,-0.1984 -0.1905,0 -0.508,0.127 -0.3176,0.127 -0.4921,0.127 -0.064,0 -0.1906,-0.032 0.08,-1.5081 0.08,-1.8098 0,-1.2543 -0.2699,-1.8097 -0.5716,-1.2384 -1.6353,-1.929 -1.0637,-0.6905 -2.413,-0.6905 -3.1593,0 -4.3659,2.6195 -0.2699,0.5554 -0.2699,1.8097 0,0.3017 0.079,1.8098 -0.063,0.032 -0.2222,0.032 -0.1906,0 -0.508,-0.1192 -0.3176,-0.1189 -0.4764,-0.1189 -0.3333,0 -0.611,0.1904 -0.278,0.1906 -0.278,0.508 0,0.3335 0.3096,0.5635 0.3097,0.2303 0.6827,0.3255 0.3731,0.095 0.6827,0.2698 0.3095,0.1748 0.3095,0.4129 0,0.095 -0.1111,0.3969 -1.016,2.1909 -3.1434,2.6513 -0.3492,0.079 -0.3492,0.4286 0,0.7302 2.1749,1.0796 0.032,0.079 0.095,0.4126 0.064,0.3335 0.1826,0.4843 0.1191,0.1509 0.3731,0.1509 0.1906,0 0.5954,-0.072 0.4047,-0.071 0.6271,-0.071 0.5557,0 1.0637,0.2381 0.508,0.2381 0.8572,0.5159 0.3492,0.2779 0.9129,0.516 0.5636,0.2381 1.2145,0.2381 0.6827,0 1.2541,-0.2381 0.5716,-0.2381 0.9129,-0.516 0.3414,-0.2778 0.8494,-0.5159 0.508,-0.2381 1.0637,-0.2381 0.2222,0 0.6271,0.063 0.4048,0.064 0.6111,0.064 0.254,0 0.3652,-0.1587 0.1111,-0.1588 0.1746,-0.4763 0.064,-0.3176 0.095,-0.3969 2.1748,-0.3494 2.1748,-1.0796 z m 4.0801,-4.0007 q 0,3.3181 -1.6353,6.1201 -1.6351,2.802 -4.4371,4.4373 -2.8022,1.6351 -6.1201,1.6351 -3.3181,0 -6.1201,-1.6351 -2.8021,-1.6353 -4.4373,-4.4373 -1.6351,-2.802 -1.6351,-6.1201 0,-3.3179 1.6351,-6.1201 1.6352,-2.8021 4.4373,-4.4372 2.802,-1.6352 6.1201,-1.6352 3.3179,0 6.1201,1.6352 2.802,1.6351 4.4371,4.4372 1.6353,2.8022 1.6353,6.1201 z"
       inkscape:connector-curvature="0"
       style="fill:#95c5cd;fill-opacity:1" />
    <path
       id="path5209"
       d="m 941.1753,966.47311 q 0.9844,0 1.6432,0.643 0.6589,0.643 0.6589,1.6113 0,1.5401 -1.4765,2.064 l -2.7306,0.9366 0.889,2.6512 q 0.1111,0.3335 0.1111,0.7463 0,0.9365 -0.6668,1.6192 -0.6668,0.6827 -1.6033,0.6827 -0.7463,0 -1.3575,-0.4287 -0.6111,-0.4285 -0.8494,-1.143 l -0.8731,-2.6195 -4.9213,1.6828 0.8731,2.6036 q 0.127,0.381 0.127,0.7463 0,0.9365 -0.6668,1.6192 -0.6668,0.6827 -1.6194,0.6827 -0.7461,0 -1.3493,-0.4287 -0.6034,-0.4286 -0.8415,-1.143 l -0.8731,-2.5877 -2.4291,0.8413 q -0.4603,0.1429 -0.7938,0.1429 -0.9683,0 -1.6113,-0.635 -0.643,-0.635 -0.643,-1.6035 0,-0.7461 0.4367,-1.3493 0.4365,-0.6034 1.1351,-0.8415 l 2.4766,-0.8415 -1.6671,-4.969 -2.4766,0.8573 q -0.4128,0.127 -0.762,0.127 -0.9525,0 -1.6034,-0.643 -0.6509,-0.6429 -0.6509,-1.5955 0,-0.7461 0.4365,-1.3494 0.4367,-0.6032 1.1352,-0.8414 l 2.4924,-0.8414 -0.8413,-2.5243 q -0.127,-0.381 -0.127,-0.7461 0,-0.9526 0.6668,-1.6272 0.6666,-0.6749 1.6192,-0.6749 0.7463,0 1.3495,0.4287 0.6032,0.4287 0.8413,1.143 l 0.8574,2.5402 4.9214,-1.6669 -0.8572,-2.5402 q -0.127,-0.381 -0.127,-0.7461 0,-0.9367 0.6746,-1.6194 0.6749,-0.6827 1.6115,-0.6827 0.7462,0 1.3574,0.4367 0.6113,0.4367 0.8494,1.135 l 0.8413,2.5561 2.5719,-0.8731 q 0.3333,-0.095 0.6825,-0.095 0.9526,0 1.6275,0.6272 0.6746,0.6271 0.6746,1.5638 0,0.7143 -0.4762,1.2937 -0.4764,0.5795 -1.1748,0.8177 l -2.4925,0.8573 1.6669,5.0167 2.6036,-0.889 q 0.381,-0.1271 0.7302,-0.1271 z m -12.6053,4.1595 4.9216,-1.6671 -1.6669,-5.0006 -4.9216,1.6987 z"
       inkscape:connector-curvature="0"
       style="fill:#95c5cd;fill-opacity:1" />
    <path
       id="path5220"
       d="m 123.68031,1045.1547 q 0,-0.508 -0.4762,-0.8098 -3.06408,-1.8256 -7.09646,-1.8256 -2.11148,0 -4.55627,0.5398 -0.6668,0.1428 -0.6668,0.8255 0,0.3176 0.21435,0.5477 0.21416,0.2302 0.56354,0.2302 0.0793,0 0.58732,-0.1269 2.09558,-0.4287 3.85786,-0.4287 3.58797,0 6.30266,1.6353 0.3017,0.1745 0.52389,0.1745 0.3017,0 0.5239,-0.2142 0.22221,-0.2144 0.22221,-0.5478 z m 1.52418,-3.4133 q 0,-0.635 -0.55569,-0.9683 -3.76249,-2.2385 -8.69994,-2.2385 -2.4289,0 -4.81028,0.6668 -0.762,0.2063 -0.762,1.016 0,0.3969 0.27776,0.6746 0.27776,0.278 0.67465,0.278 0.11128,0 0.58749,-0.1271 1.93679,-0.5238 3.98486,-0.5238 4.42928,0 7.74718,1.9686 0.38117,0.2062 0.60338,0.2062 0.3969,0 0.67465,-0.2777 0.27794,-0.2779 0.27794,-0.6748 z m 1.71459,-3.9372 q 0,-0.7462 -0.63518,-1.1113 -2.00021,-1.1588 -4.65149,-1.7543 -2.65127,-0.5953 -5.44545,-0.5953 -3.23859,0 -5.77876,0.7462 -0.36511,0.1111 -0.61107,0.4048 -0.24614,0.2937 -0.24614,0.77 0,0.492 0.32545,0.8255 0.32545,0.3333 0.81755,0.3333 0.1747,0 0.635,-0.127 2.11149,-0.5872 4.87387,-0.5872 2.52428,0 4.91352,0.5398 2.38941,0.5396 4.02452,1.5081 0.33349,0.1906 0.635,0.1906 0.46048,0 0.80183,-0.3255 0.34135,-0.3254 0.34135,-0.8177 z m 3.25448,2.3653 q 0,3.3182 -1.63529,6.1203 -1.63509,2.8019 -4.43713,4.4373 -2.80221,1.6351 -6.12011,1.6351 -3.31807,0 -6.12011,-1.6351 -2.80203,-1.6353 -4.43731,-4.4373 -1.6351,-2.802 -1.6351,-6.1203 0,-3.3178 1.6351,-6.1199 1.63528,-2.8023 4.43731,-4.4372 2.80204,-1.6352 6.12011,-1.6352 3.3179,0 6.12011,1.6352 2.80204,1.6349 4.43713,4.4372 1.63529,2.8022 1.63529,6.1199 z"
       inkscape:connector-curvature="0"
       style="fill:#95c5cd;fill-opacity:1" />
    <path
       id="path5231"
       d="m 1428.5541,891.60156 q 0,1.6035 -1.1349,2.7386 -1.1352,1.1351 -2.7386,1.1351 -1.6036,0 -2.7387,-1.1351 -1.1351,-1.1351 -1.1351,-2.7386 0,-1.6035 1.1351,-2.7385 1.1351,-1.1351 2.7387,-1.1351 1.6034,0 2.7386,1.1351 1.1349,1.135 1.1349,2.7385 z m -12.2241,11.7797 q 0,-1.651 -1.1591,-2.8099 -1.1589,-1.1589 -2.8099,-1.1589 -0.4287,0 -0.8574,0.095 l 1.6512,0.6668 q 1.2223,0.4921 1.7383,1.6907 0.5161,1.1987 0.024,2.4053 -0.4921,1.2223 -1.6987,1.7303 -1.2065,0.5082 -2.4129,0.016 -0.3335,-0.127 -0.9844,-0.3889 -0.6509,-0.262 -0.9683,-0.389 0.508,0.9525 1.4447,1.532 0.9364,0.5794 2.0637,0.5794 1.6511,0 2.8099,-1.1589 1.1591,-1.1588 1.1591,-2.81 z m 13.1767,-11.7638 q 0,-2.0004 -1.4209,-3.4211 -1.4207,-1.421 -3.4212,-1.421 -2.0162,0 -3.437,1.421 -1.4209,1.4207 -1.4209,3.4211 0,2.0163 1.4209,3.4291 1.4208,1.413 3.437,1.413 2.0005,0 3.4212,-1.413 1.4209,-1.4128 1.4209,-3.4291 z m 2.3814,0 q 0,3.0005 -2.1194,5.112 -2.1195,2.1114 -5.1041,2.1114 l -6.9376,5.0643 q -0.1906,2.0481 -1.7305,3.461 -1.5399,1.4129 -3.6355,1.4129 -1.921,0 -3.3974,-1.2066 -1.4765,-1.2064 -1.8733,-3.048 l -3.6514,-1.4606 0,-6.8107 6.1756,2.4926 q 1.2541,-0.762 2.7465,-0.762 0.2063,0 0.5557,0.032 l 4.5086,-6.4612 q 0.032,-2.9689 2.1511,-5.0645 2.1196,-2.0956 5.0882,-2.0956 2.9846,0 5.1041,2.1194 2.1194,2.1195 2.1194,5.1041 z"
       inkscape:connector-curvature="0"
       style="fill:#95c5cd;fill-opacity:1" />
    <path
       id="path5242"
       d="m 888.99378,890.26821 0,6.89 -2.30206,0 0,-6.89 2.30206,0 z m 6.31836,0 0,6.89 -2.30188,0 0,-6.89 2.30188,0 z m 0,12.0656 4.01666,-4.0325 0,-12.6212 -18.95565,0 0,16.6537 5.17555,0 0,3.445 3.44508,-3.445 6.31836,0 z m 6.31858,-18.9556 0,16.082 -6.88998,6.89 -5.17556,0 -3.44508,3.4451 -3.44486,0 0,-3.4451 -6.31858,0 0,-18.3839 1.73048,-4.5881 23.54358,0 z"
       inkscape:connector-curvature="0"
       style="fill:#95c5cd;fill-opacity:1" />
    <path
       id="path5253"
       d="m 1511.4589,1043.6623 0,3.3497 q 0,1.0637 -0.6191,1.0637 -0.3651,0 -0.7145,-0.3492 l 0,-4.7787 q 0.3494,-0.3492 0.7145,-0.3492 0.6191,0 0.6191,1.0637 z m 5.366,0.016 0,0.7302 -1.4288,0 0,-0.7302 q 0,-1.0796 0.7145,-1.0796 0.7143,0 0.7143,1.0796 z m -15.3359,-3.461 1.6987,0 0,-1.4923 -4.9532,0 0,1.4923 1.6669,0 0,9.0333 1.5876,0 0,-9.0333 z m 4.5721,9.0333 1.4129,0 0,-7.8425 -1.4129,0 0,6.0009 q -0.4762,0.6668 -0.9049,0.6668 -0.2858,0 -0.3333,-0.3333 -0.016,-0.048 -0.016,-0.5557 l 0,-5.7787 -1.4129,0 0,6.2074 q 0,0.7778 0.127,1.1589 0.1905,0.5873 0.9208,0.5873 0.762,0 1.6192,-0.9684 l 0,0.8573 z m 6.8107,-2.3496 0,-3.1275 q 0,-1.1589 -0.1429,-1.5717 -0.2699,-0.889 -1.1271,-0.889 -0.7938,0 -1.4765,0.8572 l 0,-3.445 -1.4129,0 0,10.5256 1.4129,0 0,-0.762 q 0.7145,0.8731 1.4765,0.8731 0.8572,0 1.1271,-0.8731 0.1429,-0.4288 0.1429,-1.5876 z m 5.366,-0.1588 0,-0.2063 -1.4447,0 q 0,0.8097 -0.032,0.9683 -0.1111,0.5716 -0.635,0.5716 -0.7304,0 -0.7304,-1.0955 l 0,-1.3811 2.8417,0 0,-1.6353 q 0,-1.2541 -0.4285,-1.8416 -0.6193,-0.8095 -1.6828,-0.8095 -1.0796,0 -1.6989,0.8095 -0.4444,0.5875 -0.4444,1.8416 l 0,2.7467 q 0,1.2541 0.4603,1.8414 0.6193,0.8097 1.7146,0.8097 1.1432,0 1.7146,-0.8413 0.2858,-0.4287 0.3335,-0.8574 0.032,-0.143 0.032,-0.9208 z m -9.6524,-14.4944 0,-3.3338 q 0,-1.0955 -0.6827,-1.0955 -0.6827,0 -0.6827,1.0955 l 0,3.3338 q 0,1.1112 0.6827,1.1112 0.6827,0 0.6827,-1.1112 z M 1520,1044.1704 q 0,3.715 -0.4127,5.5566 -0.2223,0.9364 -0.9208,1.5717 -0.6986,0.6349 -1.6192,0.7302 -2.9212,0.3332 -8.8111,0.3332 -5.8899,0 -8.811,-0.3332 -0.9208,-0.095 -1.6273,-0.7302 -0.7064,-0.6353 -0.9129,-1.5717 -0.4128,-1.7782 -0.4128,-5.5566 0,-3.715 0.4128,-5.5565 0.2222,-0.9367 0.9208,-1.5718 0.6986,-0.635 1.6353,-0.7461 2.9052,-0.3175 8.7951,-0.3175 5.8899,0 8.8111,0.3175 0.9206,0.1111 1.6272,0.7461 0.7064,0.6351 0.9128,1.5718 0.4127,1.7781 0.4127,5.5565 z m -15.8439,-20.2574 1.6192,0 -1.9209,6.3344 0,4.3023 -1.5875,0 0,-4.3023 q -0.2222,-1.1746 -0.9683,-3.3654 -0.5875,-1.6353 -1.0321,-2.969 l 1.683,0 1.127,4.1754 z m 5.874,5.2868 0,2.7781 q 0,1.2858 -0.4446,1.8733 -0.6032,0.8096 -1.6828,0.8096 -1.0637,0 -1.6669,-0.8096 -0.4446,-0.6033 -0.4446,-1.8733 l 0,-2.7781 q 0,-1.27 0.4446,-1.8575 0.6032,-0.8097 1.6669,-0.8097 1.0796,0 1.6828,0.8097 0.4446,0.5875 0.4446,1.8575 z m 5.3183,-2.5718 0,7.9217 -1.4447,0 0,-0.8732 q -0.8413,0.9843 -1.6351,0.9843 -0.7304,0 -0.9367,-0.5873 -0.127,-0.381 -0.127,-1.1907 l 0,-6.2548 1.4447,0 0,5.8261 q 0,0.5238 0.016,0.5557 0.048,0.3492 0.3333,0.3492 0.4287,0 0.9049,-0.6827 l 0,-6.0483 1.4447,0 z"
       inkscape:connector-curvature="0"
       style="fill:#95c5cd;fill-opacity:1" />
    <path
       id="path5264"
       d="m 1201.9116,979.15319 -4.6835,-11.0334 q -0.3969,0.7778 -2.5162,4.8499 -2.1194,4.0722 -3.1512,6.1835 -0.016,0.016 -0.4368,0.01 -0.4207,-0.01 -0.4207,-0.024 -1.3017,-3.0641 -4.0561,-9.3191 -2.7545,-6.2551 -4.1199,-9.4619 -0.3333,-0.7938 -1.0556,-1.7068 -0.7224,-0.9127 -1.6432,-1.5954 -0.9208,-0.6826 -1.6194,-0.6826 0,-0.079 -0.01,-0.3811 -0.01,-0.3017 -0.01,-0.4287 l 9.2557,0 0,0.7938 q -0.6191,0.032 -1.2621,0.254 -0.6431,0.2224 -1.0557,0.6827 -0.4128,0.4605 -0.1588,1.016 0.4128,0.9367 3.437,7.9221 3.0245,6.9853 3.7388,8.5729 0.4921,-0.9685 2.2225,-4.231 1.7305,-3.2623 2.0798,-3.9292 -0.3016,-0.6192 -2.0003,-4.461 -1.6987,-3.842 -2.1591,-4.6835 -0.6032,-1.0953 -3.1911,-1.127 l 0,-0.7939 8.1442,0.016 0,0.7461 q -0.9524,0.032 -1.4843,0.3969 -0.5318,0.3651 -0.1985,1.0955 0.5239,1.1112 1.3813,3.0083 0.8572,1.8973 1.3652,2.9767 1.7464,-3.3973 2.7465,-5.7628 0.381,-0.8731 -0.1588,-1.2622 -0.5396,-0.3888 -2.0479,-0.4206 0.016,-0.1111 0.016,-0.3969 l 0,-0.381 q 1.0161,0 2.7069,-0.01 1.6907,-0.01 2.8576,-0.016 1.1669,-0.01 1.4684,-0.01 l 0,0.7779 q -0.9842,0.032 -1.8891,0.5239 -0.9049,0.4923 -1.4288,1.2859 l -3.3816,7.0172 q 0.2065,0.5238 2.0241,4.6039 1.8179,4.0801 1.929,4.35 l 7.0011,-16.1456 q -0.2222,-0.6034 -0.7859,-0.9923 -0.5635,-0.389 -1.0318,-0.5001 -0.4684,-0.1111 -0.8812,-0.127 l 0,-0.7938 7.3029,0.064 0.016,0.032 -0.016,0.6985 q -2.2067,0.064 -3.1911,2.3021 -8.3505,19.3047 -8.8744,20.4954 l -0.7779,0 z"
       inkscape:connector-curvature="0"
       style="fill:#95c5cd;fill-opacity:1" />
  </g>
</svg>
