<?xml version="1.0" encoding="UTF-8" standalone="no"?>
<!-- Created with Inkscape (http://www.inkscape.org/) -->

<svg
   xmlns:dc="http://purl.org/dc/elements/1.1/"
   xmlns:cc="http://creativecommons.org/ns#"
   xmlns:rdf="http://www.w3.org/1999/02/22-rdf-syntax-ns#"
   xmlns:svg="http://www.w3.org/2000/svg"
   xmlns="http://www.w3.org/2000/svg"
   xmlns:sodipodi="http://sodipodi.sourceforge.net/DTD/sodipodi-0.dtd"
   xmlns:inkscape="http://www.inkscape.org/namespaces/inkscape"
   width="1352"
   height="216"
   viewBox="0 0 1352.0001 216"
   id="svg4807"
   version="1.1"
   inkscape:version="0.91 r13725"
   sodipodi:docname="about-banner-right.svg">
  <defs
     id="defs4809" />
  <sodipodi:namedview
     id="base"
     pagecolor="#ffffff"
     bordercolor="#666666"
     borderopacity="1.0"
     inkscape:pageopacity="0.0"
     inkscape:pageshadow="2"
     inkscape:zoom="0.9899495"
     inkscape:cx="579.77075"
     inkscape:cy="133.13853"
     inkscape:document-units="px"
     inkscape:current-layer="layer1"
     showgrid="false"
     fit-margin-top="0"
     fit-margin-left="0"
     fit-margin-right="0"
     fit-margin-bottom="0"
     units="px"
     inkscape:window-width="2560"
     inkscape:window-height="1373"
     inkscape:window-x="2551"
     inkscape:window-y="-9"
     inkscape:window-maximized="1"
     showguides="true"
     inkscape:guide-bbox="true" />
  <metadata
     id="metadata4812">
    <rdf:RDF>
      <cc:Work
         rdf:about="">
        <dc:format>image/svg+xml</dc:format>
        <dc:type
           rdf:resource="http://purl.org/dc/dcmitype/StillImage" />
        <dc:title />
      </cc:Work>
    </rdf:RDF>
  </metadata>
  <g
     inkscape:label="Layer 1"
     inkscape:groupmode="layer"
     id="layer1"
     transform="translate(379.75821,-287.07847)">
    <path
       id="path4923"
       d="m 230.64009,375.0792 q 5.35597,-0.045 10.06475,2.67791 5.17758,2.99054 7.85577,8.30182 l -16.55935,-0.87029 q -3.57055,-0.20088 -6.5611,1.66255 -2.99055,1.86358 -4.12877,5.12178 l -6.15935,-9.46252 q 2.85645,-3.54821 6.94051,-5.47856 4.08407,-1.93034 8.54754,-1.95269 z m -16.67097,9.03827 7.5208,14.79601 q 1.60703,3.19142 4.70905,4.84274 3.10203,1.65145 6.53875,1.00439 l -5.13288,10.06489 q -4.73112,-0.73646 -8.59196,-3.51489 -3.86084,-2.77856 -6.08146,-7.05212 -2.2205,-4.27356 -2.2205,-9.18349 0,-5.95847 3.2582,-10.95753 z m 35.39473,3.77144 q 1.2944,3.3476 1.328,6.92954 0.0337,3.58179 -1.08242,6.8289 -1.11587,3.24709 -3.41438,6.07022 -2.29879,2.82298 -5.49021,4.67531 -5.13289,2.9682 -11.11356,2.65585 l 9.03828,-13.90352 q 1.9638,-2.92348 1.84108,-6.48294 -0.1223,-3.55958 -2.37681,-6.19308 z m -18.65698,0.44646 q 2.78967,0 4.76472,1.97519 1.97504,1.97477 1.97504,4.76444 0,2.78952 -1.97504,4.76472 -1.97505,1.97519 -4.76472,1.97519 -2.7894,0 -4.76459,-1.97519 -1.97504,-1.9752 -1.97504,-4.76472 0,-2.78967 1.97504,-4.76444 1.97519,-1.97519 4.76459,-1.97519 z"
       inkscape:connector-curvature="0"
       style="fill:#95c5cd;fill-opacity:1" />
    <path
       id="path4934"
       d="m 100.76989,395.01161 q 0,0.5804 -0.36824,1.00432 -0.36837,0.42419 -0.926413,0.42419 -0.5804,0 -1.00432,-0.36823 -0.42419,-0.36838 -0.42419,-0.92643 0,-0.5804 0.37948,-1.0043 0.37948,-0.4242 0.93753,-0.4242 0.55804,0 0.981953,0.36824 0.4242,0.36837 0.4242,0.92641 z m 0.33476,1.29466 7.8125,-12.96889 q -0.20078,0.1787 -1.50654,1.39517 -1.3059,1.21649 -2.80148,2.60056 -1.49557,1.3838 -3.04696,2.83466 -1.55124,1.45086 -2.611663,2.46643 -1.05999,1.01569 -1.12706,1.14983 l -7.79028,12.94611 q 0.15621,-0.1562 1.49558,-1.38379 1.33936,-1.22759 2.81258,-2.60056 1.47322,-1.37268 3.03558,-2.83465 1.56263,-1.46211 2.61165,-2.47782 1.049313,-1.01569 1.116093,-1.12705 z m 14.44198,-1.22759 q 0,4.48644 -2.32132,8.28126 -0.0675,-0.045 -0.37949,-0.24577 -0.31269,-0.20092 -0.59165,-0.36838 -0.27908,-0.16731 -0.36823,-0.16731 -0.2902,0 -0.2902,0.2902 0,0.22327 1.31687,0.98224 -1.65178,2.49989 -4.1182,4.25206 -2.46643,1.75216 -5.3905,2.4667 l -0.35713,-1.49557 q -0.0225,-0.22327 -0.33477,-0.22327 -0.11248,0 -0.17856,0.12231 -0.0675,0.12233 -0.045,0.21189 l 0.35713,1.51793 q -1.60721,0.33477 -3.258853,0.33477 -4.442,0 -8.30361,-2.34367 0.0225,-0.045 0.29005,-0.45753 0.26799,-0.41308 0.48002,-0.74799 0.21188,-0.33478 0.21188,-0.42391 0,-0.29035 -0.29006,-0.29035 -0.13357,0 -0.37948,0.32381 -0.24563,0.32367 -0.50223,0.76993 -0.25674,0.44655 -0.30145,0.51333 -2.52223,-1.67385 -4.28579,-4.18499 -1.76314,-2.51113 -2.45518,-5.45756 l 1.54015,-0.33478 q 0.22313,-0.0675 0.22313,-0.33504 0,-0.11108 -0.12232,-0.17871 -0.12233,-0.0661 -0.23424,-0.045 l -1.51793,0.33477 q -0.31242,-1.60735 -0.31242,-3.10264 0,-4.5985 2.4331,-8.4601 0.045,0.0225 0.41295,0.26798 0.36837,0.24563 0.66954,0.42433 0.30131,0.17842 0.39073,0.17842 0.29006,0 0.29006,-0.26798 0,-0.13357 -0.27895,-0.34574 -0.2791,-0.2123 -0.72536,-0.47987 l -0.44655,-0.26812 q 1.71885,-2.49989 4.21872,-4.21846 2.50018,-1.71885 5.44661,-2.38839 l 0.33477,1.49558 q 0.045,0.22313 0.33477,0.22313 0.11248,0 0.17856,-0.12232 0.0675,-0.12232 0.045,-0.23438 l -0.33478,-1.4735 q 1.58472,-0.29007 2.99115,-0.29007 4.553373,0 8.459693,2.43297 -0.87075,1.24979 -0.87075,1.45086 0,0.29006 0.26798,0.29006 0.24564,0 1.07139,-1.42837 2.47781,1.674 4.18527,4.15167 1.7076,2.47753 2.3995,5.37954 l -1.24995,0.26784 q -0.22327,0.045 -0.22327,0.35698 0,0.11248 0.12232,0.17857 0.12232,0.0675 0.21231,0.045 l 1.27216,-0.29034 q 0.31241,1.60735 0.31241,3.12528 z m 1.89741,0 q 0,-3.63862 -1.41739,-6.94218 -1.41754,-3.30355 -3.80594,-5.69194 -2.38839,-2.38826 -5.6918,-3.8058 -3.30356,-1.41739 -6.941903,-1.41739 -3.63861,0 -6.94217,1.41739 -3.30342,1.41754 -5.69181,3.8058 -2.38839,2.38839 -3.80593,5.69194 -1.4174,3.30356 -1.4174,6.94218 0,3.63819 1.4174,6.94176 1.41754,3.3037 3.80593,5.69195 2.38839,2.38839 5.69181,3.80578 3.30356,1.41755 6.94217,1.41755 3.638343,0 6.941903,-1.41755 3.30341,-1.41739 5.6918,-3.80578 2.3884,-2.38825 3.80594,-5.69195 1.41739,-3.30357 1.41739,-6.94176 z m 2.14276,0 q 0,4.06238 -1.58471,7.76765 -1.58499,3.7054 -4.26345,6.38399 -2.67873,2.67844 -6.38399,4.26344 -3.70511,1.58471 -7.767643,1.58471 -4.06253,0 -7.76793,-1.58471 -3.70539,-1.585 -6.38412,-4.26344 -2.67831,-2.67859 -4.2633,-6.38399 -1.58472,-3.70527 -1.58472,-7.76765 0,-4.06252 1.58472,-7.76792 1.58499,-3.7054 4.2633,-6.38385 2.67873,-2.6786 6.38412,-4.26359 3.7054,-1.58485 7.76793,-1.58485 4.062533,0 7.767643,1.58485 3.70526,1.58499 6.38399,4.26359 2.67846,2.67845 4.26345,6.38385 1.58471,3.7054 1.58471,7.76792 z"
       inkscape:connector-curvature="0"
       style="fill:#95c5cd;fill-opacity:1" />
    <path
       id="path4945"
       d="m -233.30024,471.55866 0,27.4919 q 0,0.58595 -0.29304,0.99607 -0.29291,0.41041 -0.85538,0.41041 -0.39846,0 -0.77343,-0.18765 l -10.89838,-5.46085 q -0.49205,-0.23443 -0.83205,-0.78539 -0.33984,-0.55051 -0.33984,-1.08981 l 0,-26.71862 q 0,-0.46857 0.23443,-0.7969 0.2343,-0.32803 0.6797,-0.32803 0.32803,0 1.0312,0.3515 l 11.97667,6.00001 q 0.0709,0.0708 0.0709,0.1181 z m 1.50022,2.36696 12.51539,20.29698 -12.51539,-6.23443 0,-14.06255 z m 26.50767,0.42193 0,24.70301 q 0,0.58595 -0.32834,0.94912 -0.32805,0.36332 -0.89051,0.36332 -0.56249,0 -1.10148,-0.30442 l -10.33605,-5.15644 z m -0.0709,-2.81236 q 0,0.0694 -6.01166,9.83205 -6.0118,9.76162 -7.04315,11.42557 l -9.1404,-14.85931 7.59353,-12.35137 q 0.39846,-0.65636 1.21884,-0.65636 0.32803,0 0.60941,0.14024 l 12.67984,6.32834 q 0.093,0.0472 0.093,0.14024 z"
       inkscape:connector-curvature="0"
       style="fill:#95c5cd;fill-opacity:1" />
    <path
       id="path4956"
       d="m 40.058251,310.60915 q 0,-2.7603 -1.95322,-4.71351 -1.95321,-1.95322 -4.71367,-1.95322 -2.76046,0 -4.71367,1.95322 -1.95322,1.95321 -1.95322,4.71351 0,2.76045 1.95322,4.71367 1.95321,1.95322 4.71367,1.95322 2.76046,0 4.71367,-1.95322 1.95322,-1.95322 1.95322,-4.71367 z m 3.59378,0 q 0,4.27092 -2.99487,7.26579 -2.99487,2.99486 -7.2658,2.99486 -4.27092,0 -7.26579,-2.99486 -2.99487,-2.99487 -2.99487,-7.26579 0,-4.27093 2.99487,-7.26564 2.99487,-2.99487 7.26579,-2.99487 4.27093,0 7.2658,2.99487 2.99487,2.99471 2.99487,7.26564 z m 2.81261,-10.67717 q 0,0.98949 -0.70323,1.69273 -0.70291,0.70307 -1.69272,0.70307 -0.98949,0 -1.69273,-0.70307 -0.70323,-0.70324 -0.70323,-1.69273 0,-0.98981 0.70323,-1.69288 0.70324,-0.70308 1.69273,-0.70308 0.98981,0 1.69272,0.70308 0.70323,0.70307 0.70323,1.69288 z m -13.07328,-5.72956 q -0.18225,0 -1.99209,-0.0164 -1.81001,-0.0164 -2.74766,0 -0.93765,0.0164 -2.51308,0.0772 -1.5756,0.0656 -2.68221,0.2605 -1.10693,0.19552 -1.86217,0.48194 -1.30215,0.52082 -2.29179,1.51047 -0.98949,0.98949 -1.51048,2.29164 -0.28641,0.75507 -0.48179,1.862 -0.19536,1.10678 -0.26049,2.68237 -0.0656,1.57528 -0.077,2.51292 -0.0164,0.93766 0,2.7475 0.0164,1.81001 0.0164,1.99226 0,0.18242 -0.0164,1.99226 -0.0164,1.80984 0,2.74749 0.0164,0.93765 0.077,2.51309 0.0656,1.57543 0.26049,2.6822 0.19538,1.10694 0.48179,1.86202 0.52099,1.3023 1.51048,2.29195 0.98964,0.98949 2.29179,1.51064 0.75524,0.28625 1.86217,0.48161 1.10661,0.19505 2.68221,0.26051 1.57543,0.0656 2.51308,0.0771 0.93765,0.0164 2.74766,0 1.80984,-0.0164 1.99209,-0.0164 0.18225,0 1.99209,0.0164 1.81002,0.0164 2.74766,0 0.93733,-0.0164 2.51309,-0.0771 1.5756,-0.0656 2.6822,-0.26051 1.10694,-0.19536 1.86202,-0.48161 1.30231,-0.52115 2.29162,-1.51064 0.98982,-0.98965 1.51048,-2.29195 0.28658,-0.75508 0.48211,-1.86202 0.19504,-1.10677 0.26017,-2.6822 0.0656,-1.57544 0.0788,-2.51309 0.0164,-0.93765 0,-2.74749 -0.0164,-1.80984 -0.0164,-1.99226 0,-0.18225 0.0164,-1.99226 0.0164,-1.80984 0,-2.7475 -0.0164,-0.93764 -0.0788,-2.51292 -0.0656,-1.57559 -0.26017,-2.68237 -0.19553,-1.10693 -0.48211,-1.862 -0.52066,-1.30215 -1.51048,-2.29164 -0.98931,-0.98965 -2.29162,-1.51047 -0.75508,-0.28642 -1.86202,-0.48194 -1.1066,-0.19522 -2.6822,-0.2605 -1.57576,-0.0656 -2.51309,-0.0772 -0.93764,-0.0164 -2.74766,0 -1.80984,0.0164 -1.99209,0.0164 z m 20.00049,16.40673 q 0,5.96364 -0.12958,8.25561 -0.26049,5.41673 -3.22928,8.38552 -2.96912,2.96878 -8.38569,3.22928 -2.29195,0.12959 -8.25545,0.12959 -5.96364,0 -8.25561,-0.12959 -5.4169,-0.2605 -8.38569,-3.22928 -2.96861,-2.96879 -3.22911,-8.38552 -0.12959,-2.29197 -0.12959,-8.25561 0,-5.96366 0.12959,-8.25561 0.2605,-5.41641 3.22911,-8.38553 2.96879,-2.96879 8.38569,-3.22928 2.29197,-0.1296 8.25561,-0.1296 5.9635,0 8.25545,0.1296 5.41657,0.26049 8.38569,3.22928 2.96879,2.96912 3.22928,8.38553 0.12958,2.29195 0.12958,8.25561 z"
       inkscape:connector-curvature="0"
       style="fill:#95c5cd;fill-opacity:1" />
    <path
       id="path4989"
       d="m 309.90801,301.56453 q 0.50906,5.14633 -3.70411,7.29549 3.30816,0.79173 4.94826,2.91258 1.63993,2.12066 1.27247,6.05116 -0.19788,2.00792 -0.91909,3.53474 -0.72101,1.52718 -1.82373,2.51662 -1.10291,0.9898 -2.74301,1.65454 -1.64011,0.6642 -3.43552,0.97536 -1.79561,0.31117 -4.11432,0.42411 l 0,7.2107 -4.35498,0 0,-7.09742 q -2.26208,0 -3.44977,-0.0285 l 0,7.12558 -4.3546,0 0,-7.21054 q -0.50906,0 -1.52717,-0.0178 -1.01777,-0.0178 -1.55515,-0.0178 l -5.6554,0 0.87652,-5.17484 3.13878,0 q 1.4139,0 1.6401,-1.44186 l 0,-11.36779 0.45242,0 q -0.16921,-0.0285 -0.45242,-0.0285 l 0,-8.11555 q -0.36746,-1.92296 -2.51662,-1.92296 l -3.13878,0 0,-4.63745 5.99453,0.0285 q 1.81003,0 2.74319,-0.0285 l 0,-7.12558 4.3546,0 0,6.98432 q 2.31873,-0.057 3.44977,-0.057 l 0,-6.92768 4.35498,0 0,7.12557 q 2.23376,0.19789 3.95881,0.63625 1.72472,0.43851 3.19508,1.2728 1.47054,0.83378 2.33316,2.20528 0.86226,1.3715 1.032,3.23781 z m -6.0795,15.41105 q 0,-1.01811 -0.42408,-1.80967 -0.42446,-0.79191 -1.04644,-1.30079 -0.62198,-0.50924 -1.62621,-0.86263 -1.00369,-0.35355 -1.8519,-0.52295 -0.84818,-0.16921 -2.0925,-0.2547 -1.24433,-0.0856 -1.95128,-0.0856 -0.70695,0 -1.82375,0.0285 -1.11697,0.0285 -1.34317,0.0285 l 0,9.55777 q 0.2262,0 1.04607,0.0178 0.82024,0.0178 1.35725,0.0178 0.53738,0 1.49886,-0.0427 0.96147,-0.0427 1.654,-0.114 0.69305,-0.0712 1.61213,-0.2401 0.91891,-0.16921 1.56922,-0.39577 0.65067,-0.22621 1.34319,-0.59402 0.69305,-0.36746 1.11713,-0.8482 0.42411,-0.48075 0.69253,-1.13105 0.26895,-0.65065 0.26895,-1.4422 z m -2.00791,-13.46014 q 0,-0.93316 -0.35356,-1.65418 -0.35339,-0.72083 -0.86208,-1.18749 -0.50905,-0.46649 -1.35762,-0.79209 -0.84819,-0.32508 -1.55514,-0.46631 -0.70695,-0.14072 -1.73895,-0.22621 -1.03218,-0.0856 -1.64028,-0.0712 -0.60793,0.0178 -1.52699,0.0285 -0.91892,0.0178 -1.1168,0.0178 l 0,8.68124 q 0.14071,0 0.97536,0.0178 0.83431,0.0178 1.31505,0 0.48073,-0.0178 1.41389,-0.057 0.93316,-0.0427 1.55513,-0.15495 0.62235,-0.11401 1.45647,-0.31117 0.83394,-0.19772 1.37132,-0.52295 0.53738,-0.32525 1.04645,-0.7636 0.50869,-0.43833 0.76323,-1.08882 0.25452,-0.65014 0.25452,-1.44205 z"
       inkscape:connector-curvature="0"
       style="fill:#95c5cd;fill-opacity:1" />
    <path
       id="path5011"
       d="m -308.93674,401.17218 13.45981,8.97316 0,-8.01327 -7.45521,-4.9777 z m -1.3838,-3.21442 4.3081,-2.87936 -4.3081,-2.87937 0,5.75873 z m 18.28127,12.18758 13.45977,-8.97316 -6.00457,-4.01781 -7.4552,4.9777 0,8.01327 z m -1.71883,-11.00441 6.07137,-4.06253 -6.07137,-4.06239 -6.0714,4.06239 z m -9.17404,-6.1385 7.45521,-4.97756 0,-8.01328 -13.45981,8.97316 z m 21.42857,2.07597 4.30786,2.87936 0,-5.75873 z m -3.0805,-2.07597 6.00457,-4.01768 -13.45977,-8.97316 0,8.01328 z m 10.82602,-4.01768 0,12.18743 q 0,0.91517 -0.75893,1.42851 l -18.28127,12.18758 q -0.46885,0.2902 -0.95985,0.2902 -0.49097,0 -0.95991,-0.2902 l -18.28121,-12.18758 q -0.75898,-0.51334 -0.75898,-1.42851 l 0,-12.18743 q 0,-0.91518 0.75898,-1.42865 l 18.28121,-12.18729 q 0.46894,-0.29034 0.95991,-0.29034 0.491,0 0.95985,0.29034 l 18.28127,12.18729 q 0.75893,0.51347 0.75893,1.42865 z"
       inkscape:connector-curvature="0"
       style="fill:#95c5cd;fill-opacity:1" />
    <path
       id="path5033"
       d="m 542.83964,291.6046 35.75229,0 -6.31908,31.66637 -19.09943,6.34272 -16.5815,-6.34272 1.68683,-8.45708 7.05545,0 -0.68908,3.49204 10.02481,3.82482 11.54524,-3.82482 1.61546,-8.05321 -28.69686,0 1.37784,-7.0553 28.72051,0 0.90274,-4.53738 -28.69687,0 z"
       inkscape:connector-curvature="0"
       style="fill:#95c5cd;fill-opacity:1" />
    <path
       id="path5044"
       d="m 437.19181,302.33387 0.39999,-4.37494 -22.10008,0 1.17524,13.34986 15.30002,0 -0.55022,5.70025 -4.92499,1.32483 -4.89982,-1.32483 -0.32518,-3.50001 -4.37478,0 0.54989,6.9498 9.04989,2.50006 0.10081,0 0,-0.0252 8.97476,-2.47501 1.25003,-13.59995 -16.09999,0 -0.37495,-4.52502 16.84989,0 z m -28.25007,-11.72473 35.20034,0 -3.20019,35.94992 -14.45012,4.05008 -14.34983,-4.05008 z"
       inkscape:connector-curvature="0"
       style="fill:#95c5cd;fill-opacity:1" />
    <path
       id="path5055"
       d="m 152.1215,306.02003 12.32039,7.60673 -8.52968,7.10796 -12.22032,-7.95581 z m 24.59067,13.84171 0,2.6934 -12.22033,7.30763 0,0.0252 -0.0251,-0.0252 -0.0252,0.0252 0,-0.0252 -12.19582,-7.30763 0,-2.6934 3.66613,2.3943 8.52968,-7.08298 0,-0.0503 0.0252,0.0252 0.0251,-0.0252 0,0.0503 8.55419,7.08298 z m -20.79996,-28.53143 8.52968,7.10796 -12.32039,7.58176 -8.42961,-6.73393 z m 20.84992,14.68972 8.42976,6.75888 -12.19583,7.95581 -8.55417,-7.10796 z m -3.76606,-14.68972 12.19582,7.95579 -8.42976,6.73393 -12.32024,-7.58176 z"
       inkscape:connector-curvature="0"
       style="fill:#95c5cd;fill-opacity:1" />
    <path
       id="path5077"
       d="m 423.69303,493.42062 q 0,1.71877 -2.42166,1.71877 -2.78629,0 -2.78629,-1.64052 0,-1.66661 2.55189,-1.66661 2.65606,0 2.65606,1.58836 z m -0.9373,-12.13534 q 0,2.21334 -1.92709,2.21334 -2.005,0 -2.005,-2.18708 0,-2.34423 2.005,-2.34423 0.93746,0 1.4322,0.66434 0.49489,0.66385 0.49489,1.65363 z m 4.32299,-1.95299 0,-3.25528 q -2.03142,0.75504 -3.51577,0.75504 -1.30211,-0.75504 -2.86455,-0.75504 -2.23941,0 -3.77592,1.48418 -1.53636,1.48452 -1.53636,3.72409 0,1.30212 0.76817,2.65607 0.76819,1.35427 1.91414,1.74484 l 0,0.0788 q -0.98963,0.44273 -0.98963,2.21365 0,1.38004 1.06771,2.00501 l 0,0.0788 q -2.94264,0.96337 -2.94264,3.61977 0,1.17203 0.52082,2.0442 0.52065,0.87267 1.40611,1.3282 0.88546,0.45568 1.87509,0.66401 0.98962,0.20832 2.109,0.20832 5.83342,0 5.83342,-4.89579 0,-1.74484 -1.24995,-2.57814 -1.24995,-0.8333 -3.2812,-1.19779 -0.70306,-0.13123 -1.34115,-0.53394 -0.63793,-0.40368 -0.63793,-1.02866 0,-1.14595 1.27602,-1.35427 2.00501,-0.39057 3.17704,-1.82277 1.17171,-1.43235 1.17171,-3.48968 0,-0.62498 -0.26017,-1.35428 0.96339,-0.23424 1.27604,-0.33824 z m 1.53651,10.91129 3.56761,0 q -0.0525,-0.70321 -0.0525,-2.13541 l 0,-10.07817 q 0,-1.19795 0.0525,-1.797 l -3.56761,0 q 0.077,0.59905 0.077,1.84917 l 0,10.20825 q 0,1.30211 -0.077,1.95316 z m 13.25504,-0.41665 0,-3.15095 q -0.78113,0.54673 -1.77075,0.54673 -1.38004,0 -1.38004,-2.13541 l 0,-5.85951 1.35395,0 q 0.23424,0 0.69026,0.0263 0.45569,0.0263 0.68994,0.0263 l 0,-3.04696 -2.73415,0 q 0,-2.13525 0.077,-2.65606 l -3.64567,0 q 0.10329,0.62497 0.10329,1.43235 l 0,1.22371 -1.56244,0 0,3.04696 q 0.93763,-0.0788 0.96371,-0.0788 0.0788,0 0.28624,0.0164 0.20833,0.0164 0.31249,0.0164 l 0,0.0525 -0.0525,0 0,5.65118 q 0,0.96339 0.0656,1.6666 0.0656,0.70322 0.29953,1.4714 0.2344,0.76818 0.6381,1.26291 0.40352,0.49489 1.13282,0.80738 0.72931,0.31232 1.71876,0.31232 1.66644,0 2.81239,-0.62481 z m -9.27078,-18.38557 q 0,-0.93729 -0.62497,-1.6533 -0.62498,-0.71652 -1.5626,-0.71652 -0.93731,0 -1.5754,0.70323 -0.63794,0.70322 -0.63794,1.66659 0,0.93764 0.65106,1.62757 0.65073,0.69025 1.56228,0.69025 0.91154,0 1.54964,-0.70322 0.63793,-0.70306 0.63793,-1.6146 z m 15.9375,-1.24995 0,25.00014 q 0,3.09911 -2.20053,5.29948 -2.20036,2.20037 -5.29948,2.20037 l -24.99997,0 q -3.09895,0 -5.29965,-2.20037 -2.20037,-2.20037 -2.20037,-5.29948 l 0,-25.00014 q 0,-3.09878 2.20037,-5.29948 2.2007,-2.20053 5.29965,-2.20053 l 24.99997,0 q 3.09912,0 5.29948,2.20053 2.20053,2.2007 2.20053,5.29948 z"
       inkscape:connector-curvature="0"
       style="fill:#95c5cd;fill-opacity:1" />
    <path
       id="path5088"
       d="m 342.5671,392.75094 0.0234,0 q 0.37226,-2.93295 1.36178,-5.62121 0.9891,-2.68871 2.67668,-5.05117 1.68743,-2.36262 3.89888,-4.09682 2.21116,-1.73407 5.20218,-2.73489 2.99117,-1.00096 6.43597,-1.00096 5.37696,0 9.63666,2.45573 4.25957,2.45571 6.84358,7.06452 2.42066,4.35267 2.42066,10.28822 l 0,4.37615 -26.18638,0 q 0.0234,2.58357 1.24524,4.48081 1.22206,1.8968 3.17723,2.85115 1.95531,0.95434 4.41102,1.32703 2.4557,0.37242 4.95776,0.069 2.50249,-0.30262 4.84164,-1.08248 2.33931,-0.77958 4.03848,-1.96689 l 0,8.77541 q -2.14108,1.28028 -5.34163,2.14138 -3.20067,0.86138 -7.27419,0.8847 -4.07335,0.0234 -7.35556,-1.23381 -4.39915,-1.69915 -7.25075,-5.79597 -2.85129,-4.09638 -2.89791,-8.65887 -0.0704,-5.63281 2.58387,-9.59003 2.6535,-3.95695 7.56479,-6.23805 -1.11708,1.3964 -1.81558,2.92124 -0.69834,1.52453 -1.07061,3.71253 l 14.78048,0 q 0.18622,-1.79228 -0.18604,-3.25875 -0.37243,-1.46634 -1.09409,-2.36246 -0.72136,-0.89629 -1.64094,-1.54815 -0.91961,-0.65142 -1.87395,-0.95434 -0.95434,-0.30232 -1.74579,-0.47709 -0.79114,-0.17434 -1.30329,-0.19781 l -0.51199,-0.0234 q -3.14263,0.11582 -6.0404,1.03571 -2.89806,0.9196 -5.20247,2.43256 -2.3044,1.51296 -4.09653,3.27019 -1.79241,1.75766 -3.21241,3.80591 z"
       inkscape:connector-curvature="0"
       style="fill:#95c5cd;fill-opacity:1" />
    <path
       id="path5099"
       d="m 644.2969,396.00487 q 0,1.26557 -0.15816,2.35062 l -26.01327,0 q 0,3.29961 2.47506,5.52596 2.47462,2.22592 5.81949,2.22592 2.23746,0 4.19234,-1.05103 1.95502,-1.0509 3.08507,-2.94911 l 9.55996,0 q -1.26556,3.59328 -3.85336,6.35077 -2.58795,2.75707 -6.04556,4.25996 -3.45805,1.50316 -7.25477,1.50316 -4.22649,0 -8.04585,-1.87585 -5.15297,2.62153 -8.90455,2.62153 -5.3564,0 -5.3564,-5.94377 0,-2.59934 1.01715,-6.21525 0.38423,-1.35611 2.46353,-5.17547 4.49726,-8.13639 10.73501,-13.69593 -4.1586,1.78532 -9.65023,8.00043 1.42372,-6.19247 6.40714,-10.15874 4.98343,-3.96627 11.3342,-3.96627 0.67791,0 1.01688,0.0228 5.76312,-2.64447 9.78605,-2.64447 1.44636,0 2.62182,0.29383 1.17517,0.29397 2.13553,0.91551 0.96048,0.6214 1.50302,1.72896 0.54253,1.10726 0.54253,2.5989 0,2.62155 -1.69506,6.46353 2.28243,4.11331 2.28243,8.8143 z m -1.58189,-14.46397 q 0,-1.87586 -1.19782,-2.98327 -1.19779,-1.10742 -3.09629,-1.10742 -2.44089,0 -5.74049,1.5819 2.73457,1.06214 5.02854,2.97203 2.29383,1.9096 3.85338,4.4184 1.15268,-3.05118 1.15268,-4.88164 z m -36.02509,27.95661 q 0,1.94377 1.09587,2.99438 1.09632,1.05103 3.03995,1.05103 2.59904,0 6.01153,-1.87586 -2.75707,-1.62717 -4.82497,-4.13566 -2.06805,-2.5088 -3.10756,-5.53735 -2.21482,4.63307 -2.21482,7.50346 z m 11.39057,-16.11419 16.45329,0 q -0.11389,-3.20934 -2.55406,-5.35626 -2.44089,-2.1472 -5.67258,-2.1472 -3.25462,0 -5.68397,2.1472 -2.42979,2.14692 -2.54268,5.35626 z"
       inkscape:connector-curvature="0"
       style="fill:#95c5cd;fill-opacity:1" />
    <path
       id="path5121"
       d="m 557.1538,471.86667 q -0.24534,0.0225 -0.34571,0.23423 -0.10123,0.21187 -0.18994,0.21187 -0.11107,0.0225 -0.11107,-0.11107 0,-0.26769 0.42388,-0.33461 l 0.22326,0 z m 1.94197,0.31226 q -0.09,0.0225 -0.25671,-0.14481 -0.16745,-0.16745 -0.3907,-0.10123 0.53565,-0.24561 0.7142,0.045 0.0675,0.13356 -0.0661,0.20076 z m -7.83427,9.53077 q -0.0885,-0.0225 -0.13356,0.0661 -0.045,0.09 -0.0998,0.27894 -0.0562,0.18993 -0.12231,0.30142 -0.0675,0.11107 -0.22327,0.29004 -0.22339,0.24561 -0.0225,0.26796 0.09,0.0225 0.27893,-0.15619 0.1898,-0.17869 0.27907,-0.40181 0.0225,-0.0675 0.045,-0.1562 0.0225,-0.09 0.045,-0.13356 0.0225,-0.045 0.0337,-0.10122 0.014,-0.0562 0.014,-0.0886 l 0,-0.0675 -0.0225,-0.0562 -0.0675,-0.045 z m 19.08335,8.01268 q 0,-0.40181 -1.22764,-0.9376 0.09,-0.3346 0.16744,-0.61368 0.0773,-0.27893 0.11107,-0.58035 0.0337,-0.30129 0.0675,-0.47984 0.0337,-0.17855 0.014,-0.50205 -0.0225,-0.32364 -0.0225,-0.43541 0,-0.11106 -0.0787,-0.49094 -0.0787,-0.37945 -0.0885,-0.45749 -0.0141,-0.0787 -0.11107,-0.558 -0.10122,-0.47997 -0.12231,-0.59146 -0.22326,-1.0713 -1.04923,-2.29908 -0.82568,-1.22749 -1.60694,-1.67401 0.53565,0.44652 1.2722,1.85256 1.94197,3.61599 1.20542,6.20511 -0.24561,0.89275 -1.11601,0.93746 -0.69213,0.0885 -0.85929,-0.4132 -0.16758,-0.50219 -0.17854,-1.86353 -0.014,-1.36161 -0.25673,-2.38821 -0.2009,-0.8704 -0.43512,-1.54017 -0.23465,-0.66949 -0.43555,-1.01549 -0.20063,-0.34585 -0.34571,-0.54675 -0.14523,-0.20091 -0.29033,-0.33503 -0.14494,-0.13356 -0.1673,-0.15619 -0.31239,-1.3837 -0.69184,-2.2988 -0.37946,-0.91511 -0.65839,-1.24985 -0.27907,-0.33503 -0.52468,-0.73656 -0.24561,-0.40181 -0.33475,-0.89303 -0.09,-0.46845 0.13356,-1.19404 0.22326,-0.7253 0.0998,-1.10476 -0.12231,-0.37945 -0.99313,-0.558 -0.33475,-0.0675 -0.99313,-0.40167 -0.65853,-0.33488 -0.79237,-0.35724 -0.17855,-0.0225 -0.24561,-0.58035 -0.0675,-0.55801 0.17855,-1.13823 0.24561,-0.58035 0.80361,-0.60257 0.82569,-0.0675 1.13809,0.66963 0.31266,0.73642 0.09,1.29442 -0.24561,0.42416 -0.045,0.59147 0.2009,0.16744 0.66977,0.014 0.29004,-0.09 0.29004,-0.80361 l 0,-0.82597 q -0.11107,-0.66949 -0.30143,-1.11572 -0.18952,-0.44652 -0.46859,-0.68075 -0.27893,-0.2345 -0.52454,-0.33488 -0.24562,-0.0998 -0.60271,-0.16745 -2.38821,0.17855 -1.98641,2.99093 0,0.33474 -0.0225,0.33474 -0.2009,-0.2009 -0.65838,-0.23436 -0.45763,-0.0337 -0.73655,0.014 -0.27908,0.045 -0.34585,-0.11106 0.0225,-1.27221 -0.35711,-2.00863 -0.37945,-0.73669 -1.00451,-0.7589 -0.60272,-0.0225 -0.92636,0.61367 -0.32349,0.63618 -0.3682,1.32789 -0.0225,0.33488 0.0787,0.82597 0.0998,0.49108 0.29004,0.83708 0.18994,0.34585 0.34614,0.30128 0.22326,-0.0675 0.35696,-0.31267 0.09,-0.20077 -0.15619,-0.17855 -0.1562,0 -0.346,-0.32365 -0.18952,-0.32349 -0.21187,-0.74765 -0.0225,-0.49095 0.2009,-0.82598 0.22326,-0.3346 0.75891,-0.31239 0.37945,0 0.60257,0.46901 0.22298,0.46845 0.21201,0.8704 -0.014,0.40167 -0.0337,0.49094 -0.49121,0.3346 -0.69212,0.64728 -0.17855,0.26783 -0.61367,0.5244 -0.43528,0.257 -0.45763,0.27893 -0.29004,0.31268 -0.34571,0.60272 -0.0562,0.29032 0.16716,0.40181 0.31239,0.17855 0.558,0.43526 0.24561,0.25672 0.3571,0.42402 0.11107,0.1673 0.41292,0.29018 0.30129,0.12232 0.79251,0.14509 1.04894,0.045 2.27644,-0.33474 0.045,-0.0225 0.51357,-0.1562 0.4686,-0.13356 0.76988,-0.23451 0.30143,-0.10122 0.65853,-0.29004 0.3571,-0.18979 0.46859,-0.39055 0.2009,-0.31268 0.44651,-0.17855 0.11107,0.0675 0.1451,0.18965 0.0337,0.12232 -0.0675,0.26797 -0.10122,0.1448 -0.36834,0.21187 -0.44623,0.13356 -1.26095,0.47983 -0.81459,0.34585 -1.01549,0.43527 -0.98217,0.42416 -1.56252,0.51329 -0.55801,0.11248 -1.76315,-0.045 -0.22326,-0.045 -0.20091,0.045 0.0225,0.09 0.37946,0.42417 0.558,0.51329 1.49546,0.49094 0.37945,-0.0225 0.80334,-0.15619 0.42416,-0.13357 0.80361,-0.31239 0.37945,-0.17856 0.74766,-0.39071 0.36835,-0.21201 0.66964,-0.37945 0.30142,-0.1673 0.54675,-0.26769 0.24561,-0.0998 0.39071,-0.0562 0.14494,0.045 0.18965,0.24532 0,0.045 -0.0225,0.10123 -0.0225,0.0562 -0.0886,0.11106 -0.0675,0.0562 -0.13356,0.10123 -0.0675,0.045 -0.18994,0.11107 -0.12232,0.0675 -0.20077,0.0998 -0.0787,0.0337 -0.22339,0.11107 -0.14481,0.0773 -0.21187,0.0998 -0.62507,0.31267 -1.50657,0.98216 -0.88164,0.6695 -1.48435,0.95981 -0.60272,0.29004 -1.09366,0.0225 -0.46859,-0.24561 -1.40605,-1.6293 -0.49122,-0.69213 -0.558,-0.49122 -0.0225,0.0675 -0.0225,0.22325 0,0.55801 -0.33475,1.26124 -0.33474,0.70282 -0.65839,1.23847 -0.32378,0.53592 -0.46887,1.29455 -0.14494,0.75891 0.25673,1.40633 -0.51345,0.13356 -1.39509,2.00876 -0.88136,1.87491 -1.06005,3.14698 -0.045,0.40195 -0.0337,1.54003 0.014,1.13836 -0.12232,1.31691 -0.17855,0.53565 -0.64728,0.0675 -0.71434,-0.69198 -0.80375,-2.09817 -0.045,-0.62479 0.09,-1.24985 0.0886,-0.42416 -0.0225,-0.40181 -0.045,0.0225 -0.0885,0.11248 -0.80362,1.45074 0.22298,3.70497 0.11247,0.26769 0.558,0.62493 0.44652,0.35696 0.53565,0.44651 0.44652,0.51316 2.32143,2.01973 1.87492,1.50671 2.07582,1.70761 0.3571,0.33475 0.39057,0.84818 0.0337,0.51316 -0.3124,0.95968 -0.34613,0.44637 -1.01563,0.51329 0.17855,0.33475 0.64715,0.99327 0.46886,0.65839 0.62506,1.20543 0.1562,0.54662 0.1562,1.57349 1.02659,-0.53594 0.15619,-2.05347 -0.0886,-0.17855 -0.23422,-0.3571 -0.14523,-0.17855 -0.21202,-0.26796 -0.0675,-0.0886 -0.045,-0.13357 0.0661,-0.11246 0.29005,-0.21214 0.22325,-0.0998 0.44651,0.0562 1.02659,1.16044 3.70512,0.80334 2.96844,-0.33475 3.95032,-1.9417 0.51344,-0.84832 0.75891,-0.66977 0.26796,0.13356 0.22326,1.16071 -0.0225,0.55801 -0.51316,2.05347 -0.20104,0.5133 -0.13356,0.83708 0.0675,0.32363 0.53579,0.34599 0.066,-0.42416 0.32349,-1.71872 0.25673,-1.29456 0.3013,-2.00876 0.045,-0.46887 -0.1451,-1.64055 -0.18965,-1.17182 -0.1673,-2.16495 0.0225,-0.99313 0.51344,-1.57364 0.33474,-0.40167 1.13822,-0.40167 0.0225,-0.82582 0.77001,-1.18278 0.74781,-0.35724 1.6182,-0.23464 0.8704,0.12231 1.33927,0.50232 z m -14.01674,-18.45842 q 0.0675,-0.37945 -0.0562,-0.66963 -0.12232,-0.29032 -0.25657,-0.33475 -0.20091,-0.045 -0.20091,0.1562 0.045,0.11107 0.11247,0.13356 0.22326,0 0.1562,0.33489 -0.0675,0.44651 0.17855,0.44651 0.0675,0 0.0675,-0.0675 z m 9.35195,4.39683 q -0.045,-0.17855 -0.14524,-0.25658 -0.10122,-0.0787 -0.29004,-0.11106 -0.18979,-0.0337 -0.32363,-0.12232 -0.11107,-0.0675 -0.21202,-0.17855 -0.0998,-0.11107 -0.15619,-0.17855 -0.0562,-0.0675 -0.12231,-0.14508 -0.0675,-0.0773 -0.09,-0.0886 -0.0225,-0.014 -0.0885,0.0337 -0.31267,0.3571 0.1562,0.97077 0.46859,0.61369 0.8704,0.70324 0.2009,0.0225 0.32363,-0.17869 0.12232,-0.2009 0.0787,-0.44637 z m -3.97282,-4.75407 q 0,-0.24547 -0.11106,-0.43512 -0.11106,-0.18952 -0.24561,-0.27908 -0.13356,-0.0885 -0.20062,-0.0675 -0.13356,0 -0.17855,0.045 -0.045,0.045 0,0.09 0.045,0.045 0.11106,0.0661 0.31239,0.09 0.40181,0.69214 0,0.0661 0.17855,-0.045 0.045,-0.045 0.045,-0.0675 z m 1.20515,-5.20045 q 0,-0.045 -0.0562,-0.11106 -0.0562,-0.0675 -0.2009,-0.15619 -0.14522,-0.09 -0.21201,-0.13357 -0.33503,-0.33489 -0.53578,-0.33489 -0.20077,0.0225 -0.25673,0.16759 -0.0562,0.14523 -0.0225,0.29004 0.0337,0.14508 -0.014,0.27908 -0.0225,0.0885 -0.13356,0.23422 -0.11247,0.14523 -0.13357,0.2009 -0.0225,0.0562 0.0675,0.18979 0.09,0.0675 0.17855,0 0.09,-0.0675 0.24561,-0.20075 0.15619,-0.13357 0.33474,-0.20091 0.0225,-0.0225 0.20091,-0.0225 0.17855,0 0.33474,-0.045 0.15619,-0.045 0.20091,-0.1562 z m 12.61069,29.93089 q 0.44623,0.26783 0.69184,0.5469 0.24561,0.27893 0.26769,0.53552 0.0225,0.25671 -0.0562,0.50204 -0.0787,0.24561 -0.34572,0.49122 -0.26796,0.24534 -0.52467,0.43527 -0.25659,0.18966 -0.6695,0.41278 -0.41305,0.22325 -0.70309,0.36849 -0.29032,0.1448 -0.71421,0.34571 -0.42416,0.2009 -0.60271,0.29031 -0.84803,0.42389 -1.90837,1.24986 -1.0602,0.82596 -1.68526,1.4284 -0.37917,0.3571 -1.51753,0.43526 -1.13836,0.0773 -1.98669,-0.3235 -0.40152,-0.2009 -0.65824,-0.52468 -0.25686,-0.32364 -0.36835,-0.56897 -0.11106,-0.24561 -0.49094,-0.43555 -0.37945,-0.18951 -1.04923,-0.21187 -0.98188,-0.0225 -2.9015,-0.0225 -0.42417,0 -1.27207,0.0337 -0.84818,0.0337 -1.29456,0.0562 -0.98216,0.0225 -1.77454,0.33475 -0.79222,0.31239 -1.19403,0.66949 -0.40181,0.3571 -0.97091,0.63617 -0.56926,0.27894 -1.19405,0.25658 -0.64741,-0.0225 -2.47762,-0.69184 -1.83021,-0.6695 -3.25861,-0.95981 -0.42416,-0.0886 -1.13836,-0.21187 -0.7142,-0.12232 -1.11601,-0.20105 -0.40181,-0.0773 -0.88164,-0.21187 -0.47969,-0.13356 -0.74767,-0.32364 -0.26796,-0.18966 -0.37945,-0.43527 -0.22326,-0.5133 0.1562,-1.48436 0.37945,-0.97091 0.4018,-1.21625 0.0225,-0.35737 -0.0885,-0.89289 -0.11247,-0.53578 -0.22325,-0.94856 -0.11107,-0.41292 -0.0998,-0.81472 0.014,-0.40167 0.23436,-0.60271 0.31239,-0.26769 1.27206,-0.31225 0.95995,-0.045 1.33927,-0.26797 0.66949,-0.40152 0.93746,-0.78098 0.26768,-0.37945 0.26768,-1.13851 0.46887,1.62931 -0.7142,2.36586 -0.71406,0.44652 -1.85242,0.33489 -0.75891,-0.0675 -0.95995,0.22325 -0.2899,0.33461 0.11247,1.27207 0.045,0.13356 0.17869,0.40181 0.13356,0.26782 0.18952,0.40181 0.0562,0.13356 0.10122,0.3796 0.045,0.24532 0.0225,0.49079 0,0.33475 -0.37945,1.09366 -0.37946,0.75891 -0.31239,1.0713 0.0675,0.37945 0.82568,0.58036 0.44653,0.13356 1.88617,0.41291 1.43951,0.27894 2.22077,0.45749 0.53565,0.13355 1.65165,0.49122 1.11587,0.3571 1.84146,0.51329 0.72531,0.1562 1.23874,0.0885 0.95968,-0.13356 1.43952,-0.62478 0.47983,-0.49122 0.51329,-1.0713 0.0337,-0.58035 -0.1673,-1.3058 -0.20091,-0.72517 -0.42417,-1.16072 -0.22325,-0.43526 -0.44623,-0.81472 -2.70089,-4.24063 -3.77219,-5.40107 -1.51767,-1.6518 -2.52191,-0.89303 -0.24562,0.20077 -0.33488,-0.33475 -0.0675,-0.3571 -0.045,-0.84804 0.0225,-0.64742 0.22325,-1.16072 0.20062,-0.51329 0.53566,-1.04908 0.33474,-0.53551 0.49094,-0.93732 0.17855,-0.46873 0.59146,-1.60694 0.41306,-1.13837 0.65838,-1.74108 0.24562,-0.60272 0.66978,-1.36162 0.42388,-0.75863 0.8704,-1.20514 2.45527,-3.19183 2.76767,-4.35226 -0.26798,-2.49998 -0.3571,-6.91917 -0.045,-2.00876 0.53564,-3.38148 0.58036,-1.37259 2.36586,-2.3324 0.87039,-0.46873 2.32115,-0.46873 1.18307,-0.0225 2.36614,0.30114 1.18279,0.32378 1.9864,0.92649 1.27221,0.93746 2.04208,2.71186 0.77016,1.77439 0.65853,3.29207 -0.11107,2.12038 0.66977,4.7767 0.75848,2.52192 2.96843,4.86541 1.2275,1.31693 2.22077,3.63807 0.99313,2.32143 1.32787,4.26313 0.17855,1.09365 0.11248,1.88616 -0.0675,0.79237 -0.26797,1.23847 -0.2009,0.44665 -0.44623,0.49122 -0.22326,0.045 -0.52454,0.42388 -0.30143,0.37959 -0.60271,0.79265 -0.30143,0.41277 -0.90387,0.74752 -0.60256,0.33475 -1.36162,0.31239 -0.40166,-0.0225 -0.70308,-0.11106 -0.30129,-0.09 -0.5022,-0.30143 -0.20075,-0.21201 -0.30114,-0.34572 -0.10123,-0.13356 -0.257,-0.4579 -0.1562,-0.32349 -0.20062,-0.43512 -0.49109,-0.82569 -0.9151,-0.6695 -0.42403,0.15605 -0.62493,1.09352 -0.2009,0.9376 0.1562,2.16495 0.44637,1.56266 0.0225,4.35255 -0.22326,1.45074 0.40181,2.24298 0.62478,0.79236 1.6293,0.73669 1.00438,-0.0562 1.89713,-0.79237 1.31691,-1.09366 1.99751,-1.48435 0.68088,-0.39057 2.31019,-0.94857 1.18292,-0.40181 1.71857,-0.81458 0.53565,-0.41291 0.41292,-0.77001 -0.12232,-0.35696 -0.55801,-0.63604 -0.43527,-0.27907 -1.14932,-0.52469 -0.73656,-0.24561 -1.10477,-1.07129 -0.36834,-0.82583 -0.33502,-1.6182 0.0337,-0.79236 0.34613,-1.06034 0.0225,0.69227 0.17855,1.26124 0.1562,0.56897 0.32364,0.904 0.16731,0.33475 0.45749,0.63617 0.29018,0.30101 0.46873,0.42389 0.1784,0.12231 0.47983,0.29031 0.30128,0.16716 0.36835,0.21202 z"
       inkscape:connector-curvature="0"
       style="fill:#95c5cd;fill-opacity:1" />
    <path
       id="path5143"
       d="m 685.03609,311.71493 0,15.64905 -16.39402,-2.25959 0,-13.38946 16.39402,0 z m 0,-17.86048 0,15.84119 -16.39402,0 0,-13.5816 z m 23.60568,17.86048 0,18.89421 -21.80277,-3.00486 0,-15.88935 21.80277,0 z m 0,-21.10579 0,19.0865 -21.80277,0 0,-16.08164 z"
       inkscape:connector-curvature="0"
       style="fill:#95c5cd;fill-opacity:1" />
    <path
       id="path5154"
       d="m 506.25793,380.16795 q -3.68305,-2.45517 -8.01355,-2.45517 -3.45963,0 -6.53992,1.62943 -3.08056,1.62941 -5.35718,4.46407 -1.67412,2.07584 -2.66747,4.86607 -0.99322,2.79022 -1.08264,5.93743 l 0,0.93767 q 0.09,3.14721 1.08264,5.93744 0.99334,2.79022 2.66747,4.86592 2.27662,2.83494 5.35718,4.46436 3.08029,1.62943 6.53992,1.62943 4.3305,0 8.01355,-2.45532 -2.70108,2.41088 -6.12711,3.74997 -3.42643,1.33922 -7.19877,1.33922 -0.64732,0 -0.96002,-0.0225 -3.90617,-0.17843 -7.43273,-1.83035 -3.52683,-1.65163 -6.07171,-4.30787 -2.5446,-2.65623 -4.04004,-6.27221 -1.49571,-3.61626 -1.49571,-7.56701 0,-4.06252 1.58499,-7.76777 1.58472,-3.7054 4.26345,-6.38399 2.67845,-2.67846 6.38385,-4.26345 3.7054,-1.58485 7.76792,-1.58485 l 0.0675,0 q 3.74983,0.0225 7.15379,1.35047 3.40394,1.32812 6.10503,3.73886 z m 6.67405,14.91074 q 0,4.28551 -1.7187,8.09145 -1.71885,3.80564 -4.75443,6.61836 -2.3216,1.40615 -4.95534,1.40615 -3.05822,0 -5.69208,-1.87505 3.43755,-1.24994 5.65834,-5.2007 2.22121,-3.95102 2.22121,-9.04021 0,-5.06698 -2.20982,-9.01801 -2.20983,-3.95061 -5.64752,-5.2229 2.65652,-1.8527 5.66987,-1.8527 2.6561,0 5.04449,1.45085 3.0135,2.79009 4.69874,6.58463 1.68524,3.79482 1.68524,8.05813 z"
       inkscape:connector-curvature="0"
       style="fill:#95c5cd;fill-opacity:1" />
    <path
       id="path5187"
       d="m -90.884464,488.74064 q 0.357128,0.35698 0,0.6919 -1.38408,1.38393 -4.441882,1.38393 -3.058074,0 -4.442014,-1.38393 -0.35713,-0.33492 0,-0.6919 0.13357,-0.13358 0.33477,-0.13358 0.20092,0 0.33505,0.13358 1.07139,1.09359 3.772194,1.09359 2.678599,0 3.772338,-1.09359 0.133572,-0.13358 0.334772,-0.13358 0.20092,0 0.334772,0.13358 z m -6.852641,-4.04019 q 0,0.82576 -0.580385,1.40616 -0.58041,0.5804 -1.4063,0.5804 -0.82589,0 -1.4174,-0.5804 -0.59137,-0.5804 -0.59137,-1.40616 0,-0.84838 0.59137,-1.4288 0.59151,-0.58011 1.4174,-0.58011 0.82589,0 1.4063,0.59137 0.580385,0.59151 0.580385,1.41754 z m 8.816845,0 q 0,0.82576 -0.59137,1.40616 -0.591511,0.5804 -1.417545,0.5804 -0.825753,0 -1.406156,-0.5804 -0.580402,-0.5804 -0.580402,-1.40616 0,-0.82603 0.580402,-1.41754 0.580403,-0.59137 1.406156,-0.59137 0.826034,0 1.417545,0.58011 0.59137,0.58042 0.59137,1.4288 z m 5.602829,-2.67874 q 0,-1.09374 -0.781323,-1.87506 -0.781322,-0.78104 -1.897417,-0.78104 -1.115813,0 -1.919492,0.8034 -2.901734,-2.00892 -6.941918,-2.14277 l 1.406155,-6.31695 4.464379,1.00446 q 0,0.82575 0.580404,1.40616 0.580122,0.5804 1.406156,0.5804 0.825752,0 1.417544,-0.59151 0.59137,-0.59165 0.59137,-1.41727 0,-0.82603 -0.59137,-1.41754 -0.591792,-0.59151 -1.417544,-0.59151 -1.205517,0 -1.78564,1.11609 l -4.933285,-1.09374 q -0.423913,-0.11248 -0.557906,0.35728 l -1.54015,6.96413 q -4.017682,0.15621 -6.897342,2.16512 -0.78132,-0.82575 -1.94184,-0.82575 -1.1161,0 -1.89742,0.78104 -0.78132,0.78132 -0.78132,1.87506 0,0.78133 0.4128,1.42879 0.41323,0.64719 1.10513,0.98197 -0.13358,0.60276 -0.13358,1.24994 0,3.16958 3.12501,5.42427 3.12502,2.2544 7.52232,2.2544 4.419527,0 7.544537,-2.2544 3.125009,-2.25469 3.125009,-5.42427 0,-0.71425 -0.156208,-1.2723 0.669544,-0.33477 1.071383,-0.971 0.401839,-0.63607 0.401839,-1.4174 z m 7.991087,0.66983 q 0,4.06254 -1.58486,7.76795 -1.58472,3.70499 -4.26346,6.38387 -2.678459,2.67832 -6.38387,4.26332 -3.705413,1.58472 -7.767812,1.58472 -4.062534,0 -7.767944,-1.58472 -3.70542,-1.585 -6.38387,-4.26332 -2.67874,-2.67888 -4.26346,-6.38387 -1.585,-3.70541 -1.585,-7.76795 0,-4.06254 1.585,-7.76782 1.58472,-3.70541 4.26346,-6.38415 2.67845,-2.6786 6.38387,-4.26346 3.70541,-1.58471 7.767944,-1.58471 4.062399,0 7.767812,1.58471 3.705411,1.58486 6.38387,4.26346 2.67874,2.67874 4.26346,6.38415 1.58486,3.70528 1.58486,7.76782 z"
       inkscape:connector-curvature="0"
       style="fill:#95c5cd;fill-opacity:1" />
    <path
       id="path5198"
       d="m -149.33592,401.64103 q 0,-0.57313 -0.57281,-0.70306 -1.74484,-0.39073 -3.07304,-1.53668 -1.32802,-1.14562 -2.08324,-2.81238 -0.18242,-0.49456 -0.18242,-0.65106 0,-0.39057 0.50802,-0.6773 0.50786,-0.28607 1.11955,-0.44257 0.61218,-0.15583 1.11986,-0.53393 0.50785,-0.37728 0.50785,-0.95042 0,-0.49456 -0.48176,-0.82018 -0.48177,-0.32544 -1.00258,-0.32544 -0.31249,0 -0.8333,0.20832 -0.52099,0.20833 -0.80722,0.20833 -0.10501,0 -0.31265,-0.0525 0.13123,-2.47382 0.13123,-2.96871 0,-2.05749 -0.44274,-2.96854 -0.93763,-2.03142 -2.68247,-3.16424 -1.74484,-1.13267 -3.95817,-1.13267 -5.18236,0 -7.16161,4.29691 -0.44273,0.91105 -0.44273,2.96854 0,0.49489 0.12958,2.96871 -0.1034,0.0525 -0.36448,0.0525 -0.31266,0 -0.8333,-0.19553 -0.52098,-0.19504 -0.78147,-0.19504 -0.54673,0 -1.00225,0.31232 -0.45602,0.31266 -0.45602,0.8333 0,0.54706 0.50785,0.92434 0.50802,0.37777 1.11987,0.53393 0.61202,0.15583 1.11986,0.44257 0.5077,0.28673 0.5077,0.6773 0,0.15583 -0.18224,0.65106 -1.6666,3.59384 -5.15629,4.34906 -0.57281,0.12959 -0.57281,0.70306 0,1.19779 3.5676,1.77092 0.0525,0.12959 0.15583,0.67682 0.10501,0.54705 0.29954,0.79441 0.19536,0.24754 0.61201,0.24754 0.31265,0 0.97667,-0.11811 0.66385,-0.11646 1.02866,-0.11646 0.91154,0 1.74484,0.39057 0.8333,0.39057 1.40611,0.84625 0.57282,0.45586 1.49749,0.84643 0.92449,0.39056 1.9922,0.39056 1.11987,0 2.05717,-0.39056 0.93762,-0.39057 1.49747,-0.84643 0.56002,-0.45568 1.39332,-0.84625 0.8333,-0.39057 1.74485,-0.39057 0.36448,0 1.02866,0.10329 0.66402,0.10501 1.00241,0.10501 0.41665,0 0.59907,-0.26032 0.18224,-0.26049 0.28641,-0.7813 0.10501,-0.52098 0.15583,-0.65106 3.56743,-0.57314 3.56743,-1.77092 z m 6.6928,-6.56256 q 0,5.44285 -2.68246,10.03912 -2.68215,4.59628 -7.27842,7.27875 -4.5966,2.68213 -10.03912,2.68213 -5.44285,0 -10.03912,-2.68213 -4.59644,-2.68247 -7.27875,-7.27875 -2.68213,-4.59627 -2.68213,-10.03912 0,-5.44252 2.68213,-10.03912 2.68231,-4.59643 7.27875,-7.27858 4.59627,-2.6823 10.03912,-2.6823 5.44252,0 10.03912,2.6823 4.59627,2.68215 7.27842,7.27858 2.68246,4.5966 2.68246,10.03912 z"
       inkscape:connector-curvature="0"
       style="fill:#95c5cd;fill-opacity:1" />
    <path
       id="path5209"
       d="m -343.24397,309.26297 q 1.49055,0 2.48808,0.97361 0.99768,0.97361 0.99768,2.43977 0,2.33198 -2.23567,3.12525 l -4.13457,1.41816 1.34609,4.01435 q 0.16822,0.50498 0.16822,1.13002 0,1.41802 -1.00965,2.45174 -1.00964,1.03372 -2.42765,1.03372 -1.13002,0 -2.05548,-0.64912 -0.92531,-0.64882 -1.28613,-1.73069 l -1.32202,-3.96636 -7.45166,2.54804 1.32201,3.94228 q 0.1923,0.5769 0.1923,1.13002 0,1.41802 -1.00964,2.45174 -1.00965,1.03372 -2.45204,1.03372 -1.12972,0 -2.04306,-0.64912 -0.91365,-0.64897 -1.27418,-1.73069 l -1.32201,-3.91821 -3.67806,1.27387 q -0.69697,0.21637 -1.20195,0.21637 -1.46616,0 -2.43977,-0.96149 -0.9736,-0.9615 -0.9736,-2.42797 0,-1.12972 0.66124,-2.04306 0.66093,-0.91365 1.71872,-1.27417 l 3.74998,-1.27417 -2.52427,-7.52388 -3.74997,1.29809 q -0.62506,0.1923 -1.15379,0.1923 -1.44225,0 -2.42782,-0.97361 -0.98557,-0.97345 -0.98557,-2.41585 0,-1.12972 0.66093,-2.04321 0.66124,-0.91335 1.71888,-1.27402 l 3.77391,-1.27402 -1.27387,-3.82221 q -0.1923,-0.5769 -0.1923,-1.12972 0,-1.44239 1.00965,-2.46385 1.00934,-1.02191 2.45173,-1.02191 1.13003,0 2.04337,0.64913 0.91334,0.64912 1.27386,1.73069 l 1.29826,3.84628 7.4518,-2.52396 -1.29794,-3.84629 q -0.1923,-0.57689 -0.1923,-1.12972 0,-1.41831 1.02145,-2.45203 1.02191,-1.03372 2.44008,-1.03372 1.12987,0 2.05533,0.66123 0.92561,0.66124 1.28613,1.71858 l 1.27387,3.87036 3.89428,-1.32202 q 0.50468,-0.14385 1.03342,-0.14385 1.4424,0 2.46431,0.94969 1.02145,0.94953 1.02145,2.36784 0,1.08158 -0.72105,1.95888 -0.72134,0.87746 -1.77884,1.23814 l -3.77405,1.29809 2.52396,7.59612 3.94228,-1.3461 q 0.5769,-0.19245 1.10564,-0.19245 z m -19.0865,6.29817 7.45211,-2.52426 -2.52396,-7.57174 -7.45212,2.57212 z"
       inkscape:connector-curvature="0"
       style="fill:#95c5cd;fill-opacity:1" />
    <path
       id="path5231"
       d="m 837.55673,302.43152 q 0,2.63035 -1.86167,4.49234 -1.86217,1.862 -4.49236,1.862 -2.6305,0 -4.4925,-1.862 -1.86199,-1.86199 -1.86199,-4.49234 0,-2.63035 1.86199,-4.49218 1.862,-1.862 4.4925,-1.862 2.63019,0 4.49236,1.862 1.86167,1.86183 1.86167,4.49218 z m -20.05218,19.32318 q 0,-2.70827 -1.90137,-4.6093 -1.90103,-1.90103 -4.6093,-1.90103 -0.70323,0 -1.40646,0.15583 l 2.7086,1.09381 q 2.00503,0.80723 2.85147,2.77339 0.8466,1.96632 0.0393,3.9456 -0.80723,2.00504 -2.78651,2.83835 -1.97912,0.83365 -3.95807,0.0262 -0.54707,-0.20833 -1.61479,-0.63795 -1.06772,-0.42977 -1.58838,-0.6381 0.83331,1.56245 2.36985,2.51306 1.53605,0.95043 3.38525,0.95043 2.70843,0 4.60931,-1.90104 1.90136,-1.90086 1.90136,-4.60946 z m 21.6148,-19.2971 q 0,-3.28142 -2.33082,-5.6119 -2.33049,-2.33099 -5.61207,-2.33099 -3.30733,0 -5.63798,2.33099 -2.33083,2.33048 -2.33083,5.6119 0,3.3075 2.33083,5.62503 2.33065,2.31786 5.63798,2.31786 3.28158,0 5.61207,-2.31786 2.33082,-2.31753 2.33082,-5.62503 z m 3.9064,0 q 0,4.92196 -3.47663,8.38563 -3.47678,3.46349 -8.37266,3.46349 l -11.38029,8.30738 q -0.31267,3.35966 -2.83868,5.67735 -2.52603,2.3177 -5.96361,2.3177 -3.15117,0 -5.57303,-1.97928 -2.42202,-1.97896 -3.07292,-4.99989 l -5.98968,-2.39594 0,-11.17213 10.13033,4.08881 q 2.0572,-1.24997 4.5053,-1.24997 0.33842,0 0.91156,0.0525 l 7.39581,-10.59883 q 0.0525,-4.87012 3.52863,-8.3077 3.47695,-3.43758 8.34658,-3.43758 4.89588,0 8.37266,3.47662 3.47663,3.47678 3.47663,8.37266 z"
       inkscape:connector-curvature="0"
       style="fill:#95c5cd;fill-opacity:1" />
    <path
       id="path5242"
       d="m -97.658025,301.04178 0,10.43263 -3.485705,0 0,-10.43263 3.485705,0 z m 9.56707,0 0,10.43263 -3.48544,0 0,-10.43263 3.48544,0 z m 0,18.26937 6.08191,-6.10589 0,-19.11065 -28.702075,0 0,25.21654 7.83666,0 0,5.21632 5.216435,-5.21632 9.56707,0 z m 9.56741,-28.70201 0,24.35089 -10.43261,10.43264 -7.83668,0 -5.216435,5.21647 -5.2161,0 0,-5.21647 -9.56741,0 0,-27.83636 2.62024,-6.94717 35.648995,0 z"
       inkscape:connector-curvature="0"
       style="fill:#95c5cd;fill-opacity:1" />
    <path
       id="path5253"
       d="m 759.69328,402.84638 0,4.70975 q 0,1.49558 -0.87046,1.49558 -0.51334,0 -1.0046,-0.49098 l 0,-6.71895 q 0.49126,-0.49098 1.0046,-0.49098 0.87046,0 0.87046,1.49558 z m 7.54471,0.0225 0,1.02667 -2.00892,0 0,-1.02667 q 0,-1.51795 1.0046,-1.51795 1.00432,0 1.00432,1.51795 z m -21.56258,-4.86624 2.3884,0 0,-2.0982 -6.96428,0 0,2.0982 2.34367,0 0,12.701 2.23221,0 0,-12.701 z m 6.42847,12.701 1.98656,0 0,-11.02671 -1.98656,0 0,8.43739 q -0.66956,0.93753 -1.27232,0.93753 -0.40184,0 -0.46862,-0.46863 -0.0225,-0.0675 -0.0225,-0.78132 l 0,-8.12497 -1.98656,0 0,8.72773 q 0,1.09359 0.17855,1.62943 0.26786,0.82576 1.29467,0.82576 1.07138,0 2.27662,-1.36159 l 0,1.20538 z m 9.57597,-3.30358 0,-4.39733 q 0,-1.62944 -0.20092,-2.20984 -0.37949,-1.24995 -1.58472,-1.24995 -1.1161,0 -2.07599,1.20524 l 0,-4.84374 -1.98657,0 0,14.79919 1.98657,0 0,-1.07139 q 1.0046,1.2276 2.07599,1.2276 1.20523,0 1.58472,-1.2276 0.20092,-0.60289 0.20092,-2.23219 z m 7.5447,-0.22328 0,-0.29006 -2.03127,0 q 0,1.13845 -0.045,1.36145 -0.15621,0.80368 -0.89283,0.80368 -1.02695,0 -1.02695,-1.54029 l 0,-1.94187 3.99548,0 0,-2.29926 q 0,-1.7633 -0.60248,-2.58933 -0.87074,-1.13817 -2.36605,-1.13817 -1.51794,0 -2.38868,1.13817 -0.62484,0.82603 -0.62484,2.58933 l 0,3.86192 q 0,1.76328 0.64719,2.58904 0.87075,1.13845 2.41076,1.13845 1.60737,0 2.41077,-1.18289 0.40184,-0.60276 0.4689,-1.20551 0.045,-0.20105 0.045,-1.29467 z m -13.57146,-20.37941 0,-4.68739 q 0,-1.54029 -0.95989,-1.54029 -0.95989,0 -0.95989,1.54029 l 0,4.68739 q 0,1.56237 0.95989,1.56237 0.95989,0 0.95989,-1.56237 z m 16.04915,16.76341 q 0,5.22336 -0.58026,7.81269 -0.31256,1.31659 -1.29467,2.20984 -0.98224,0.89269 -2.27662,1.02668 -4.10727,0.46848 -12.38859,0.46848 -8.28131,0 -12.38844,-0.46848 -1.29466,-0.13358 -2.28801,-1.02668 -0.99321,-0.89326 -1.28355,-2.20984 -0.58041,-2.50018 -0.58041,-7.81269 0,-5.22337 0.58041,-7.81255 0.31241,-1.31701 1.29467,-2.20999 0.98223,-0.89281 2.29925,-1.04902 4.08477,-0.44641 12.36608,-0.44641 8.28132,0 12.38859,0.44641 1.29438,0.15621 2.28787,1.04902 0.99321,0.89298 1.28342,2.20999 0.58026,2.50005 0.58026,7.81255 z m -22.27684,-28.48231 2.27664,0 -2.70083,8.90629 0,6.04913 -2.23206,0 0,-6.04913 q -0.31242,-1.6515 -1.36144,-4.73182 -0.82604,-2.29926 -1.45117,-4.17447 l 2.36635,0 1.58457,5.8707 z m 8.25896,7.43335 0,3.90606 q 0,1.80787 -0.62511,2.6339 -0.84811,1.13832 -2.36605,1.13832 -1.49559,0 -2.3437,-1.13832 -0.62511,-0.84825 -0.62511,-2.6339 l 0,-3.90606 q 0,-1.78565 0.62511,-2.61168 0.84811,-1.13846 2.3437,-1.13846 1.51794,0 2.36605,1.13846 0.62511,0.82603 0.62511,2.61168 z m 7.47765,-3.616 0,11.13807 -2.03129,0 0,-1.22774 q -1.18288,1.38395 -2.29898,1.38395 -1.02696,0 -1.31702,-0.82576 -0.17856,-0.5357 -0.17856,-1.67415 l 0,-8.79437 2.03127,0 0,8.19161 q 0,0.73648 0.0225,0.78132 0.0675,0.49099 0.46863,0.49099 0.60276,0 1.27231,-0.95989 l 0,-8.50403 2.03127,0 z"
       inkscape:connector-curvature="0"
       style="fill:#95c5cd;fill-opacity:1" />
    <path
       id="path5264"
       d="m 43.066805,498.80899 -6.402079,-15.08202 q -0.542538,1.06321 -3.439498,6.62953 -2.897093,5.56645 -4.307507,8.45249 -0.02188,0.0219 -0.597079,0.0136 -0.575068,-0.0136 -0.575068,-0.0327 -1.779352,-4.18845 -5.544454,-12.73867 -3.76524,-8.55036 -5.631662,-12.93387 -0.455602,-1.08507 -1.442944,-2.33309 -0.987479,-1.24761 -2.246158,-2.18082 -1.25868,-0.93308 -2.213626,-0.93308 0,-0.10798 -0.01367,-0.52094 -0.01367,-0.41241 -0.01367,-0.58601 l 12.652002,0 0,1.08508 q -0.846274,0.0437 -1.725218,0.3472 -0.87908,0.30401 -1.443079,0.93321 -0.564274,0.62948 -0.217071,1.38882 0.564273,1.28041 4.698181,10.82905 4.134316,9.54849 5.110717,11.71866 0.672674,-1.32389 3.038032,-5.78354 2.365492,-4.45937 2.842964,-5.37098 -0.41227,-0.84642 -2.734295,-6.09794 -2.322025,-5.25179 -2.951356,-6.40207 -0.824541,-1.4972 -4.362056,-1.54054 l 0,-1.08522 11.132652,0.0219 0,1.01988 q -1.30188,0.0437 -2.02895,0.54254 -0.726945,0.49907 -0.271341,1.49749 0.716141,1.51893 1.888154,4.11216 1.171745,2.59351 1.866152,4.06898 2.387226,-4.64391 3.754307,-7.87741 0.520805,-1.19348 -0.217069,-1.72536 -0.737607,-0.53147 -2.799363,-0.57493 0.02188,-0.15187 0.02188,-0.54254 l 0,-0.52081 q 1.388949,0 3.700178,-0.0136 2.311087,-0.0136 3.906175,-0.0219 1.595079,-0.0136 2.007216,-0.0136 l 0,1.06334 q -1.345347,0.0437 -2.582294,0.71614 -1.236946,0.67294 -1.953087,1.75775 l -4.622449,9.5921 q 0.282279,0.716 2.766833,6.29326 2.484956,5.57726 2.636824,5.9462 l 9.570102,-22.07009 q -0.303737,-0.82481 -1.074283,-1.35642 -0.77027,-0.53174 -1.410414,-0.6836 -0.64027,-0.15187 -1.204542,-0.17361 l 0,-1.08507 9.98263,0.0875 0.02188,0.0437 -0.02188,0.9548 q -3.016423,0.0875 -4.362047,3.14683 -11.414645,26.38841 -12.130786,28.01603 l -1.063344,0 z"
       inkscape:connector-curvature="0"
       style="fill:#95c5cd;fill-opacity:1" />
    <path
       id="path4912"
       d="m -31.372754,414.70808 q -6.395958,0 -11.402278,-3.40143 -5.0062,-3.40171 -7.44721,-9.00699 -1.31091,-2.96079 -1.51436,-6.803 -0.20316,-3.84234 0.58769,-7.51498 0.79113,-3.67277 2.50878,-7.05185 1.71781,-3.37893 4.04551,-5.48098 l -0.24844,6.35112 q 0.24844,-0.31633 1.53672,-0.35036 1.28827,-0.0342 1.58225,0.35036 0.94931,-1.83069 3.62765,-3.11897 2.67805,-1.28828 5.299892,-1.33354 -1.220372,1.01691 -2.700852,3.35629 -1.48061,2.33923 -1.32214,3.69541 0.56505,0.18081 1.41254,0.3051 0.84767,0.12386 1.423826,0.1697 0.576291,0.0455 1.536976,0.0896 0.960565,0.0455 1.141371,0.0684 0.338967,0.11247 0.214536,1.02832 -0.123864,0.91528 -0.689039,1.70626 -0.112471,0.15817 -0.373163,0.41813 -0.259816,0.2601 -1.277026,0.80267 -1.016921,0.54227 -2.282561,0.76835 l 0.33897,4.27186 -3.14146,-1.51449 q -0.40688,0.97193 -0.16956,1.84194 0.2372,0.87014 0.81363,1.50311 0.57615,0.63281 1.48018,0.93791 0.90431,0.30524 1.83099,0.14706 1.152447,-0.20359 2.214927,-0.77975 1.062212,-0.57658 1.887074,-1.0172 0.82502,-0.44078 1.661422,-0.39535 1.378395,0.0896 2.022459,0.74572 0.644233,0.6553 0.440912,1.46908 -0.02278,0.0455 -0.05692,0.12386 -0.03413,0.0797 -0.191909,0.28245 -0.158171,0.20344 -0.406885,0.35023 -0.248713,0.14692 -0.711962,0.23746 -0.463268,0.0897 -1.050958,0.0228 -1.355898,2.14732 -3.265904,3.06274 -1.90986,0.91528 -4.735106,0.66684 1.67253,1.37855 3.672756,1.86444 2.000399,0.48605 3.808462,0.13525 1.8082,-0.35022 3.491831,-1.17509 1.684059,-0.82488 2.893198,-1.97761 1.209109,-1.15275 1.819147,-2.35078 0.972096,-2.05677 0.881674,-4.35073 -0.09114,-2.29395 -0.847507,-4.26061 -0.757392,-1.96622 -1.774304,-2.82513 1.966362,0.85891 3.096322,1.79681 1.130127,0.93806 1.740294,2.54282 0.338986,-3.8422 -1.299522,-7.7523 -1.638647,-3.91012 -4.734979,-6.41905 5.989239,1.74043 9.311648,6.31726 3.322408,4.57681 3.41297,11.69643 0.04557,2.87025 -0.915432,5.76344 -0.960546,2.8929 -2.791243,5.37918 -1.83068,2.4863 -4.271563,4.4299 -2.44104,1.94373 -5.594017,3.06245 -3.152874,1.11886 -6.520564,1.11886 z"
       inkscape:connector-curvature="0"
       style="fill:#95c5cd;fill-opacity:1" />
    <path
       id="path4770"
       d="m 181.50414,495.88837 q 0.34129,-0.13653 0.59158,-0.0682 0.25027,0.0682 0.25027,0.39817 0,0.32993 -0.3413,0.76223 -0.29578,0.36407 -1.00113,0.98978 -0.70538,0.62571 -2.17294,1.54724 -1.4676,0.92151 -3.20823,1.68374 -1.74065,0.76223 -4.27764,1.31968 -2.537,0.55747 -5.2219,0.55747 -2.70765,0 -5.41529,-0.70535 -2.70765,-0.70536 -4.75546,-1.74063 -2.04781,-1.0353 -3.92496,-2.36635 -1.87715,-1.33108 -3.01483,-2.38911 -1.13766,-1.05804 -1.91127,-1.99092 -0.18202,-0.20479 -0.22753,-0.37543 -0.0456,-0.17065 0.0227,-0.27303 0.0682,-0.10239 0.18202,-0.15929 0.11377,-0.0569 0.26166,-0.0455 0.14792,0.0114 0.26169,0.10237 4.36863,2.66214 6.826,3.77706 8.85105,4.00459 18.17995,2.0478 4.32313,-0.91014 8.89657,-3.0717 z m 4.70993,-2.61664 q 0.25028,0.36406 0.0569,1.58135 -0.19339,1.2173 -0.64845,2.33224 -0.77364,1.88852 -1.93404,2.82139 -0.38682,0.31856 -0.5916,0.20479 -0.20477,-0.11376 0,-0.54609 0.47783,-1.02389 1.01252,-2.76452 0.53471,-1.74065 0.14791,-2.2412 -0.11377,-0.15928 -0.35268,-0.26168 -0.23892,-0.10237 -0.61434,-0.13651 -0.37545,-0.0341 -0.67123,-0.0569 -0.29578,-0.0227 -0.79636,0 -0.50059,0.0227 -0.71673,0.0455 -0.21616,0.0227 -0.70536,0.0682 -0.48919,0.0455 -0.51196,0.0455 -0.1365,0.0227 -0.29579,0.0341 -0.15927,0.0115 -0.25027,0.0227 -0.0911,0.0115 -0.19342,0.0227 -0.10237,0.0114 -0.15927,0.0114 l -0.22753,0 -0.0682,-0.0114 -0.0455,-0.0341 -0.0341,-0.0682 q -0.13652,-0.36404 1.06941,-0.91013 1.20593,-0.54608 2.34361,-0.6826 1.04664,-0.15926 2.45736,-0.0227 1.41069,0.13652 1.72925,0.54609 z m -8.96482,-10.07975 q 0,0.70536 0.30717,1.45621 0.30718,0.75087 0.72811,1.31971 0.42093,0.56882 0.85325,1.04666 0.43232,0.47781 0.75085,0.72809 l 0.29579,0.2503 -5.165,5.09674 q -0.91014,-0.84187 -1.79752,-1.71787 -0.88738,-0.876 -1.31969,-1.33106 l -0.43231,-0.45508 q -0.25029,-0.2503 -0.56883,-0.75085 -0.86464,1.34244 -2.21848,2.33221 -1.35382,0.98977 -2.90104,1.44485 -1.54723,0.45507 -3.18548,0.52332 -1.63822,0.0682 -3.12858,-0.47781 -1.49035,-0.54609 -2.67352,-1.49036 -1.18317,-0.94426 -1.88853,-2.57113 -0.70535,-1.62687 -0.70535,-3.69742 0,-1.91129 0.63709,-3.50403 0.63709,-1.59273 1.63824,-2.65076 1.00116,-1.05804 2.42324,-1.88853 1.42208,-0.83049 2.78728,-1.29694 1.36521,-0.46644 2.95794,-0.78499 1.59273,-0.31855 2.71903,-0.42094 1.12629,-0.10238 2.26396,-0.14789 l 0,-2.88968 q 0,-1.47898 -0.47783,-2.20708 -0.77361,-1.20593 -2.75314,-1.20593 -0.13653,0 -0.37542,0.0227 -0.23893,0.0227 -0.92154,0.27304 -0.68259,0.25027 -1.27417,0.67121 -0.59159,0.42095 -1.27419,1.35384 -0.68261,0.93289 -1.09217,2.18432 l -6.68948,-0.61435 q 0,-1.36519 0.50057,-2.70763 0.50057,-1.34247 1.52447,-2.57115 1.02391,-1.22868 2.45737,-2.16156 1.43346,-0.9329 3.44713,-1.49035 2.01367,-0.55746 4.33451,-0.55746 2.27535,0 4.11836,0.56883 1.84302,0.56884 2.94657,1.39934 1.10353,0.8305 1.84303,1.88854 0.73948,1.05801 1.02388,1.95678 0.28443,0.89875 0.28443,1.67236 l 0,13.40174 z m -15.29026,0.47782 q 0,1.9568 1.59273,3.02619 1.50173,1.00117 3.16271,0.50058 1.91129,-0.56883 2.5939,-2.79865 0.31854,-1.0239 0.31854,-2.29809 l 0,-3.68605 q -1.34245,0.0455 -2.52562,0.27305 -1.18318,0.22753 -2.42324,0.76222 -1.24005,0.53471 -1.97954,1.6155 -0.73948,1.08078 -0.73948,2.60525 z"
       inkscape:connector-curvature="0"
       style="fill:#95c5cd;fill-opacity:0.96078431" />
    <path
       id="path4781"
       d="m 299.65443,482.01431 q 0,-1.11979 -1.0677,-1.71875 -1.0677,-0.59895 -2.0052,-0.026 -1.1198,0.52084 -1.1068,1.88802 0.013,1.36719 1.1329,1.83594 1.0156,0.59896 2.1093,-0.10417 1.0938,-0.70312 0.9375,-1.875 z m 2.0834,-0.41666 q 0.2083,1.71875 -0.9375,3.15104 -1.1459,1.43229 -2.8646,1.58854 -1.7188,0.15625 -3.099,-1.04167 -1.3802,-1.19791 -1.4583,-2.9427 -0.052,-1.27605 0.6641,-2.42188 0.7161,-1.14583 1.888,-1.66667 1.8229,-0.80729 3.6849,0.26042 1.862,1.06771 2.1224,3.07292 z m 4.4791,-10.18229 q -0.5208,0.54687 -1.3932,0.88541 -0.8724,0.33854 -1.3802,0.41667 -0.5078,0.0781 -1.6536,0.20833 -4.0365,0.52084 -8.4375,0 -1.1459,-0.15625 -1.6407,-0.24739 -0.4948,-0.0911 -1.3672,-0.41667 -0.8724,-0.32552 -1.4192,-0.84635 0.3385,-0.4948 0.9375,-0.8073 0.5989,-0.3125 1.0416,-0.40364 0.4427,-0.0912 1.224,-0.22136 5.1562,-0.91145 10.625,-0.026 0.8594,0.13021 1.3281,0.22136 0.4688,0.0911 1.1198,0.41666 0.6511,0.32552 1.0156,0.82032 z m 1.0938,19.42708 q 0,-0.18229 0.1432,-0.69011 0.1432,-0.50781 0.078,-0.83333 -0.065,-0.32552 -0.4557,-0.42969 -4.1927,2.76042 -9.5052,2.76042 -5.3125,0 -9.5312,-2.76042 l -0.3125,0.15625 -0.1303,0.3125 q 0.6771,4.01042 1.0678,5.46875 1.2239,2.10938 5.3125,2.8125 6.4843,1.19792 11.1458,-1.3802 0.8854,-0.4948 1.276,-1.34115 0.3907,-0.84635 0.586,-2.22656 0.1953,-1.38021 0.3255,-1.84896 z m 3.3854,-18.04688 q 0.2344,-1.3802 -0.2083,-1.95312 -1.1198,-1.43229 -4.0365,-2.29167 -5.625,-1.64062 -12.6823,-0.9375 -3.4375,0.3125 -5.8854,1.19792 -0.9896,0.39062 -1.5495,0.65104 -0.5599,0.26042 -1.2239,0.88542 -0.6641,0.625 -0.7683,1.40625 0.2084,1.77083 0.4948,3.59375 0.2865,1.82291 0.7552,4.45312 0.4688,2.63021 0.625,3.56771 0.026,0.13021 0.1302,0.80729 0.1042,0.67709 0.1823,0.9375 0.078,0.26042 0.3125,0.70313 0.2344,0.44271 0.573,0.72916 2.7343,2.08334 7.3958,2.60417 6.7448,0.72917 11.4583,-1.64062 0.625,-0.33855 1.0287,-0.59896 0.4036,-0.26042 0.8073,-0.75521 0.4036,-0.49479 0.5078,-1.04167 1.25,-6.95312 2.0833,-12.31771 z m 6.875,-2.60416 0,25 q 0,3.09896 -2.2005,5.29948 -2.2005,2.20052 -5.2995,2.20052 l -25,0 q -3.099,0 -5.2995,-2.20052 -2.2005,-2.20052 -2.2005,-5.29948 l 0,-25 q 0,-3.09896 2.2005,-5.29948 2.2005,-2.20052 5.2995,-2.20052 l 25,0 q 3.099,0 5.2995,2.20052 2.2005,2.20052 2.2005,5.29948 z"
       inkscape:connector-curvature="0"
       style="fill:#95c5cd;fill-opacity:1" />
    <path
       id="path4803"
       d="m -244.42255,327.75204 6.4286,0 0,-6.4286 -6.4286,0 0,6.4286 z m 7.8572,0 7.14281,0 0,-6.4286 -7.14281,0 0,6.4286 z m -7.8572,-7.8572 6.4286,0 0,-7.1428 -6.4286,0 0,7.1428 z m 7.8572,0 7.14281,0 0,-7.1428 -7.14281,0 0,7.1428 z m -7.8572,-8.5714 6.4286,0 0,-6.4286 -6.4286,0 0,6.4286 z m 16.42861,16.4286 7.1429,0 0,-6.4286 -7.1429,0 0,6.4286 z m -8.57141,-16.4286 7.14281,0 0,-6.4286 -7.14281,0 0,6.4286 z m 17.14281,16.4286 6.4286,0 0,-6.4286 -6.4286,0 0,6.4286 z m -8.5714,-7.8572 7.1429,0 0,-7.1428 -7.1429,0 0,7.1428 z m -7.85711,-19.2857 0,-6.4286 q 0,-0.2902 -0.2121,-0.5022 -0.212,-0.2121 -0.5022,-0.2121 l -1.4286,0 q -0.2902,0 -0.5022,0.2121 -0.2121,0.212 -0.2121,0.5022 l 0,6.4286 q 0,0.2902 0.2121,0.5022 0.212,0.2121 0.5022,0.2121 l 1.4286,0 q 0.2902,0 0.5022,-0.2121 0.2121,-0.212 0.2121,-0.5022 z m 16.42851,19.2857 6.4286,0 0,-7.1428 -6.4286,0 0,7.1428 z m -8.5714,-8.5714 7.1429,0 0,-6.4286 -7.1429,0 0,6.4286 z m 8.5714,0 6.4286,0 0,-6.4286 -6.4286,0 0,6.4286 z m 0.7143,-10.7143 0,-6.4286 q 0,-0.2902 -0.212,-0.5022 -0.2121,-0.2121 -0.5023,-0.2121 l -1.4285,0 q -0.2902,0 -0.5023,0.2121 -0.212,0.212 -0.212,0.5022 l 0,6.4286 q 0,0.2902 0.212,0.5022 0.2121,0.2121 0.5023,0.2121 l 1.4285,0 q 0.2902,0 0.5023,-0.2121 0.212,-0.212 0.212,-0.5022 z m 8.5715,-1.4286 0,28.5715 q 0,1.1607 -0.8483,2.0089 -0.8482,0.8482 -2.0089,0.8482 l -31.42861,0 q -1.1607,0 -2.00889,-0.8482 -0.84821,-0.8482 -0.84821,-2.0089 l 0,-28.5715 q 0,-1.1607 0.84821,-2.0089 0.8482,-0.8482 2.00889,-0.8482 l 2.85721,0 0,-2.1429 q 0,-1.4732 1.04909,-2.5223 1.0491,-1.0491 2.52231,-1.0491 l 1.4286,0 q 1.4732,0 2.52231,1.0491 1.04909,1.0491 1.04909,2.5223 l 0,2.1429 8.57141,0 0,-2.1429 q 0,-1.4732 1.0492,-2.5223 1.04909,-1.0491 2.52229,-1.0491 l 1.42851,0 q 1.47329,0 2.5224,1.0491 1.04909,1.0491 1.04909,2.5223 l 0,2.1429 2.8571,0 q 1.16071,0 2.00891,0.8482 0.84829,0.8482 0.84829,2.0089 z"
       inkscape:connector-curvature="0"
       style="fill:#95c5cd;fill-opacity:1" />
    <path
       id="path4836"
       d="m 700.41671,487.3268 0,2.8386 q 0,1.302 -0.9505,2.3177 -0.9505,1.0156 -2.4479,1.5755 -1.4974,0.5599 -3.0729,0.8463 -1.5756,0.2865 -3.0599,0.2865 -5.3386,0 -8.9193,-3.6198 -3.5807,-3.6198 -3.5807,-9.0104 0,-5.2865 3.5416,-8.8281 3.5417,-3.5417 8.8282,-3.5417 0.8854,0 1.9661,0.1172 1.0807,0.1172 2.4219,0.4687 1.3411,0.3516 2.4088,0.8855 1.0677,0.5338 1.7969,1.4713 0.7292,0.9375 0.7292,2.1094 l 0,2.8385 q 0,0.4167 -0.4167,0.4167 l -3.0729,0 q -0.4167,0 -0.4167,-0.4167 l 0,-1.8229 q 0,-1.1198 -1.7057,-1.7578 -1.7057,-0.638 -3.5807,-0.638 -3.6459,0 -5.9506,2.3828 -2.3046,2.3828 -2.3046,6.1849 0,3.9323 2.3828,6.4974 2.3828,2.5651 6.0807,2.5651 1.7708,0 3.5938,-0.625 1.8229,-0.625 1.8229,-1.7188 l 0,-1.8229 q 0,-0.1823 0.1172,-0.2995 0.1171,-0.1172 0.2734,-0.1172 l 3.099,0 q 0.1562,0 0.2864,0.1172 0.1302,0.1172 0.1302,0.2995 z m -9.9479,-21.3021 q -3.3854,0 -6.4714,1.3282 -3.0859,1.3281 -5.3125,3.5546 -2.2265,2.2266 -3.5546,5.3125 -1.3282,3.086 -1.3282,6.4714 0,3.3854 1.3282,6.4714 1.3281,3.0859 3.5546,5.3125 2.2266,2.2265 5.3125,3.5546 3.086,1.3282 6.4714,1.3282 3.3854,0 6.4714,-1.3282 3.0859,-1.3281 5.3125,-3.5546 2.2265,-2.2266 3.5546,-5.3125 1.3282,-3.086 1.3282,-6.4714 0,-3.3854 -1.3282,-6.4714 -1.3281,-3.0859 -3.5546,-5.3125 -2.2266,-2.2265 -5.3125,-3.5546 -3.086,-1.3282 -6.4714,-1.3282 z m 20,16.6667 q 0,5.4427 -2.6823,10.0391 -2.6823,4.5963 -7.2786,7.2786 -4.5964,2.6823 -10.0391,2.6823 -5.4427,0 -10.0391,-2.6823 -4.5963,-2.6823 -7.2786,-7.2786 -2.6823,-4.5964 -2.6823,-10.0391 0,-5.4427 2.6823,-10.0391 2.6823,-4.5963 7.2786,-7.2786 4.5964,-2.6823 10.0391,-2.6823 5.4427,0 10.0391,2.6823 4.5963,2.6823 7.2786,7.2786 2.6823,4.5964 2.6823,10.0391 z"
       inkscape:connector-curvature="0"
       style="fill:#95c5cd;fill-opacity:0.96078431" />
    <path
       id="path4847"
       d="m -334.75871,476.41368 0,19.9382 q 0,1.65731 -1.18021,2.83752 -1.18023,1.18022 -2.83754,1.18022 l -36.96359,0 q -1.65733,0 -2.83753,-1.18022 -1.18021,-1.18021 -1.18021,-2.83752 l 0,-19.9382 q 1.10483,1.23039 2.53625,2.1846 9.09016,6.17735 12.48015,8.66334 1.43132,1.05467 2.32275,1.64483 0.89155,0.59004 2.37303,1.20529 1.48159,0.61526 2.76226,0.61526 l 0.0506,0 q 1.28068,0 2.76228,-0.61526 1.48148,-0.61525 2.37302,-1.20529 0.89143,-0.59016 2.32274,-1.64483 4.26883,-3.08862 12.50535,-8.66334 1.43131,-0.97929 2.51109,-2.1846 z m 0,-7.38265 q 0,1.98367 -1.2304,3.79173 -1.23049,1.80795 -3.06365,3.08862 -9.44171,6.55401 -11.75196,8.16115 -0.25109,0.17571 -1.06726,0.76588 -0.81606,0.59006 -1.35594,0.95421 -0.53988,0.36414 -1.30575,0.81617 -0.76589,0.45191 -1.44392,0.67792 -0.67801,0.226 -1.25558,0.226 l -0.0506,0 q -0.57756,0 -1.25558,-0.226 -0.67802,-0.22601 -1.4439,-0.67792 -0.76588,-0.45203 -1.30576,-0.81617 -0.53987,-0.36415 -1.35594,-0.95421 -0.81617,-0.59017 -1.06727,-0.76588 -2.28516,-1.60714 -6.57907,-4.58283 -4.29405,-2.97567 -5.1478,-3.57832 -1.55685,-1.05466 -2.93799,-2.9003 -1.38113,-1.84564 -1.38113,-3.42769 0,-1.95858 1.04207,-3.26446 1.04218,-1.30575 2.97567,-1.30575 l 36.96359,0 q 1.63224,0 2.82494,1.18019 1.19282,1.18023 1.19282,2.83766 z"
       inkscape:connector-curvature="0"
       style="opacity:0.95999995;fill:#95c5cd;fill-opacity:1" />
    <path
       id="path4869"
       d="m 839.6761,474.76037 q 0,-1.98276 -1.38794,-3.37069 -1.38794,-1.38794 -3.37076,-1.38794 l -1.5862,0 0,9.51725 1.5862,0 q 1.98282,0 3.37076,-1.38793 1.38794,-1.38793 1.38794,-3.37069 z m -41.24142,19.03448 44.4138,0 q 0,2.62715 -1.85886,4.48599 -1.85885,1.85884 -4.48592,1.85884 l -31.72424,0 q -2.62706,0 -4.48592,-1.85884 -1.85886,-1.85884 -1.85886,-4.48599 z m 46.00001,-19.03448 q 0,3.94074 -2.7883,6.72899 -2.78817,2.78824 -6.72899,2.78824 l -1.5862,0 0,0.79312 q 0,2.28016 -1.63576,3.91593 -1.63575,1.63578 -3.91597,1.63578 l -17.44827,0 q -2.2801,0 -3.91586,-1.63578 -1.63588,-1.63577 -1.63588,-3.91593 l 0,-18.24138 q 0,-0.64441 0.47093,-1.11531 0.47091,-0.47091 1.11537,-0.47091 l 28.55164,0 q 3.94082,0 6.72899,2.78826 2.7883,2.78826 2.7883,6.72899 z"
       inkscape:connector-curvature="0"
       style="fill:#95c5cd;fill-opacity:1" />
    <path
       id="path4880"
       d="m 875.05009,411.11697 22.45385,0 0,-6.41545 -22.45385,0 0,6.41545 z m 0,-16.03845 22.45385,0 0,-9.6231 -4.00963,0 q -1.0024,0 -1.70407,-0.70172 -0.70169,-0.70171 -0.70169,-1.70406 l 0,-4.00968 -16.03846,0 0,16.03856 z m 28.86923,1.60378 q 0,-0.65155 -0.47614,-1.12767 -0.47615,-0.47611 -1.1277,-0.47611 -0.65157,0 -1.12771,0.47611 -0.47614,0.47612 -0.47614,1.12767 0,0.65156 0.47614,1.12778 0.47614,0.47612 1.12771,0.47612 0.65155,0 1.1277,-0.47612 0.47614,-0.47622 0.47614,-1.12778 z m 3.20768,0 0,10.425 q 0,0.32579 -0.23806,0.56389 -0.23807,0.23811 -0.56385,0.23811 l -5.61346,0 0,4.00956 q 0,1.00237 -0.70169,1.70407 -0.70168,0.70171 -1.70407,0.70171 l -24.05771,0 q -1.0024,0 -1.70409,-0.70171 -0.70168,-0.7017 -0.70168,-1.70407 l 0,-4.00956 -5.61347,0 q -0.32578,0 -0.56385,-0.23811 -0.23807,-0.2381 -0.23807,-0.56389 l 0,-10.425 q 0,-1.9797 1.41589,-3.39562 1.4159,-1.41593 3.39565,-1.41593 l 1.60385,0 0,-13.63268 q 0,-1.00236 0.70168,-1.70406 0.70169,-0.70171 1.70409,-0.70171 l 16.84039,0 q 1.00241,0 2.20529,0.50123 1.20288,0.50124 1.90457,1.20283 l 3.80913,3.8092 q 0.70168,0.70171 1.20289,1.90455 0.5012,1.20294 0.5012,2.20531 l 0,6.41533 1.60385,0 q 1.97974,0 3.39563,1.41593 1.41589,1.41592 1.41589,3.39562 z"
       inkscape:connector-curvature="0"
       style="fill:#95c5cd;fill-opacity:1" />
    <path
       id="path4902"
       d="m 963.02765,314.44839 0,7.6786 q 0,2.8554 -2.0276,4.8831 -2.0276,2.0276 -4.8831,2.0276 l -19.9643,0 q -2.8554,0 -4.8831,-2.0276 -2.0276,-2.0277 -2.0276,-4.8831 l 0,-19.9643 q 0,-2.8555 2.0276,-4.8831 2.0277,-2.0276 4.8831,-2.0276 l 16.8929,0 q 0.3359,0 0.5519,0.216 0.2159,0.2159 0.2159,0.5518 l 0,1.5358 q 0,0.3359 -0.2159,0.5518 -0.216,0.216 -0.5519,0.216 l -16.8929,0 q -1.5837,0 -2.7115,1.1278 -1.1278,1.1278 -1.1278,2.7115 l 0,19.9643 q 0,1.5837 1.1278,2.7115 1.1278,1.1278 2.7115,1.1278 l 19.9643,0 q 1.5837,0 2.7115,-1.1278 1.1278,-1.1278 1.1278,-2.7115 l 0,-7.6786 q 0,-0.3359 0.216,-0.5519 0.2159,-0.2159 0.5518,-0.2159 l 1.5358,0 q 0.3359,0 0.5518,0.2159 0.216,0.216 0.216,0.5519 z m 9.2143,-20.7321 0,12.2857 q 0,0.6239 -0.4559,1.0798 -0.4559,0.4559 -1.0798,0.4559 -0.6239,0 -1.0798,-0.4559 l -4.2232,-4.2233 -15.6451,15.6452 q -0.24,0.2399 -0.5519,0.2399 -0.312,0 -0.5519,-0.2399 l -2.7355,-2.7355 q -0.2399,-0.24 -0.2399,-0.5519 0,-0.3119 0.2399,-0.552 l 15.6451,-15.645 -4.2232,-4.2233 q -0.4559,-0.4559 -0.4559,-1.0797 0,-0.6239 0.4559,-1.0798 0.4559,-0.4559 1.0798,-0.4559 l 12.2857,0 q 0.6239,0 1.0798,0.4559 0.4559,0.4559 0.4559,1.0798 z"
       inkscape:connector-curvature="0"
       style="fill:#95c5cd;fill-opacity:0.96078431" />
    <path
       id="path4913"
       d="m 952.80933,479.791 19.11622,0 q 0.3164,1.7666 0.3164,3.3749 0,5.7218 -2.3994,10.2174 -2.39942,4.4956 -6.84229,7.0268 -4.44287,2.5313 -10.19093,2.5313 -4.13964,0 -7.88379,-1.5952 -3.74413,-1.5952 -6.45997,-4.311 -2.71581,-2.7159 -4.31102,-6.4599 -1.59522,-3.7443 -1.59522,-7.8839 0,-4.1396 1.59522,-7.8839 1.59521,-3.744 4.31102,-6.45986 2.71584,-2.71582 6.45997,-4.31103 3.74415,-1.59521 7.88379,-1.59521 7.91016,0 13.57911,5.2998 l -5.51075,5.2997 q -3.24316,-3.1376 -8.06836,-3.1376 -3.40136,0 -6.28857,1.7139 -2.88721,1.7139 -4.57471,4.6539 -1.6875,2.9399 -1.6875,6.4203 0,3.4804 1.6875,6.4203 1.6875,2.94 4.57471,4.6539 2.88721,1.71391 6.28857,1.71391 2.29395,0 4.21876,-0.63291 1.9248,-0.63279 3.16406,-1.5819 1.23926,-0.9493 2.16211,-2.1621 0.92285,-1.213 1.35791,-2.294 0.43506,-1.0811 0.59326,-2.0566 l -11.4961,0 0,-6.961 z"
       inkscape:connector-curvature="0"
       style="fill:#95c5cd;fill-opacity:1" />
  </g>
</svg>
