<?xml version="1.0" encoding="UTF-8" standalone="no"?>
<!-- Created with Inkscape (http://www.inkscape.org/) -->

<svg
   xmlns:dc="http://purl.org/dc/elements/1.1/"
   xmlns:cc="http://creativecommons.org/ns#"
   xmlns:rdf="http://www.w3.org/1999/02/22-rdf-syntax-ns#"
   xmlns:svg="http://www.w3.org/2000/svg"
   xmlns="http://www.w3.org/2000/svg"
   xmlns:sodipodi="http://sodipodi.sourceforge.net/DTD/sodipodi-0.dtd"
   xmlns:inkscape="http://www.inkscape.org/namespaces/inkscape"
   width="430"
   height="216"
   viewBox="0 0 430.00001 216"
   id="svg4202"
   version="1.1"
   inkscape:version="0.91 r13725"
   sodipodi:docname="about-banner-left.svg">
  <defs
     id="defs4204" />
  <sodipodi:namedview
     id="base"
     pagecolor="#ffffff"
     bordercolor="#666666"
     borderopacity="1.0"
     inkscape:pageopacity="0.0"
     inkscape:pageshadow="2"
     inkscape:zoom="1.4"
     inkscape:cx="-19.941637"
     inkscape:cy="67.752395"
     inkscape:document-units="px"
     inkscape:current-layer="layer1"
     showgrid="false"
     fit-margin-top="0"
     fit-margin-left="0"
     fit-margin-right="0"
     fit-margin-bottom="0"
     units="px"
     inkscape:window-width="2560"
     inkscape:window-height="1373"
     inkscape:window-x="2551"
     inkscape:window-y="-9"
     inkscape:window-maximized="1" />
  <metadata
     id="metadata4207">
    <rdf:RDF>
      <cc:Work
         rdf:about="">
        <dc:format>image/svg+xml</dc:format>
        <dc:type
           rdf:resource="http://purl.org/dc/dcmitype/StillImage" />
        <dc:title></dc:title>
      </cc:Work>
    </rdf:RDF>
  </metadata>
  <g
     inkscape:label="Layer 1"
     inkscape:groupmode="layer"
     id="layer1"
     transform="translate(1143.2882,227.20921)">
    <path
       id="path4901-2"
       d="m -713.28837,-46.27462 q -1.82795,2.67386 -4.42017,4.55663 0.0275,0.38188 0.0275,1.14599 0,3.54693 -1.03666,7.08028 -1.0371,3.53334 -3.1515,6.78037 -2.1144,3.24668 -5.0339,5.74335 -2.9194,2.49649 -7.0394,3.98346 -4.11991,1.48714 -8.81281,1.48714 -7.3939,0 -13.5329,-3.95648 0.9549,0.10999 2.1282,0.10999 6.139,0 10.9408,-3.76519 -2.8648,-0.055 -5.1294,-1.75989 -2.2645,-1.7054 -3.1102,-4.35194 0.9004,0.13577 1.6641,0.13577 1.1733,0 2.3193,-0.30041 -3.0557,-0.62731 -5.0612,-3.04217 -2.0055,-2.41434 -2.0055,-5.60705 l 0,-0.10828 q 1.8553,1.03703 3.9837,1.11866 -1.8008,-1.20029 -2.8652,-3.13772 -1.064,-1.93707 -1.064,-4.20173 0,-2.40129 1.2007,-4.44733 3.3013,4.06544 8.0353,6.50712 4.7336,2.44218 10.13581,2.7151 -0.2182,-1.03703 -0.2182,-2.01906 0,-3.65623 2.5783,-6.23453 2.5784,-2.57848 6.2345,-2.57848 3.8198,0 6.4392,2.78282 2.97378,-0.57282 5.59333,-2.12801 -1.0097,3.13789 -3.8745,4.8567 2.53757,-0.27292 5.07497,-1.36426 z"
       inkscape:connector-curvature="0"
       style="fill:#95c5cd;fill-opacity:1" />
    <path
       id="path4967-4"
       d="m -733.53101,-223.70673 q 5.50888,0 10.16098,2.71507 4.65213,2.71507 7.36713,7.36718 2.7147,4.65229 2.7147,10.16128 0,6.61558 -3.86148,11.90042 -3.8612,5.28503 -9.97625,7.31441 -0.71176,0.13281 -1.05454,-0.18448 -0.34257,-0.31611 -0.34257,-0.79062 0,-0.0797 0.0116,-2.01625 0.0116,-1.93755 0.0116,-3.54554 0,-2.55667 -1.3707,-3.74261 1.50242,-0.15774 2.70168,-0.47452 1.19928,-0.31628 2.47771,-1.02805 1.27846,-0.71159 2.13494,-1.75276 0.85679,-1.04132 1.39708,-2.76753 0.54032,-1.72653 0.54032,-3.96708 0,-3.13644 -2.08239,-5.4298 0.97536,-2.39861 -0.21088,-5.37699 -0.73781,-0.23726 -2.13493,0.29005 -1.39704,0.52697 -2.42495,1.15954 l -1.00144,0.63256 q -2.45138,-0.68503 -5.06079,-0.68503 -2.60941,0 -5.06079,0.68503 -0.42168,-0.28971 -1.12008,-0.71142 -0.6984,-0.42172 -2.20073,-1.01494 -1.50272,-0.59305 -2.24053,-0.35579 -1.18625,2.97838 -0.21086,5.37699 -2.0824,2.29336 -2.0824,5.4298 0,2.24055 0.54031,3.95363 0.54029,1.71342 1.38375,2.76786 0.84369,1.05429 2.12187,1.76588 1.27846,0.71177 2.47772,1.02805 1.1993,0.31612 2.70165,0.47452 -1.02785,0.94885 -1.29147,2.71473 -0.55373,0.26365 -1.18626,0.3953 -0.63257,0.13283 -1.50239,0.13283 -0.86981,0 -1.72625,-0.56665 -0.85674,-0.56682 -1.46294,-1.64734 -0.50082,-0.84359 -1.27844,-1.3709 -0.77755,-0.52697 -1.30457,-0.63256 l -0.52724,-0.0797 q -0.55344,0 -0.76421,0.11788 -0.21089,0.11789 -0.132,0.303 0.0792,0.18479 0.23721,0.36925 0.15806,0.18446 0.34285,0.31629 l 0.18444,0.13116 q 0.57979,0.26331 1.14651,1.00148 0.56671,0.73817 0.83033,1.34434 l 0.26339,0.60617 q 0.34278,1.00181 1.15983,1.62109 0.81698,0.61946 1.76593,0.79096 0.94906,0.17101 1.83193,0.18447 0.88311,0.0166 1.46288,-0.093 l 0.60618,-0.10626 q 0,1.00182 0.0149,2.3327 0.0116,1.33105 0.0116,1.43665 0,0.4745 -0.34257,0.79062 -0.34276,0.31647 -1.05454,0.18447 -6.11468,-2.02938 -9.97617,-7.31439 -3.86148,-5.28486 -3.86148,-11.90043 0,-5.50899 2.71461,-10.16127 2.71502,-4.65213 7.36715,-7.36719 4.6521,-2.71506 10.16098,-2.71506 z m -12.57259,29.07326 q 0.0789,-0.18446 -0.18447,-0.31645 -0.2636,-0.078 -0.34278,0.0532 -0.0789,0.18446 0.18445,0.31646 0.23723,0.15772 0.3428,-0.0532 z m 0.81705,0.89622 q 0.18445,-0.13282 -0.0527,-0.42171 -0.26363,-0.23726 -0.42167,-0.0797 -0.18444,0.13281 0.0525,0.42171 0.2636,0.26365 0.42173,0.0797 z m 0.79061,1.18611 q 0.23724,-0.18446 0,-0.50074 -0.21084,-0.34269 -0.44813,-0.15773 -0.2369,0.13282 0,0.47467 0.23729,0.34269 0.44813,0.18446 z m 1.10704,1.10691 q 0.21088,-0.21069 -0.10526,-0.50058 -0.31637,-0.31644 -0.52724,-0.0797 -0.23727,0.21085 0.1056,0.50107 0.31607,0.31612 0.52693,0.078 z m 1.5024,0.65897 q 0.0792,-0.28973 -0.34257,-0.42171 -0.3953,-0.1046 -0.50088,0.18445 -0.10526,0.29005 0.34284,0.39565 0.39532,0.15773 0.50061,-0.15773 z m 1.66064,0.13116 q 0,-0.34285 -0.44806,-0.29005 -0.42171,0 -0.42171,0.29005 0,0.34251 0.44814,0.28972 0.42163,0 0.42163,-0.28972 z m 1.52884,-0.26365 q -0.0527,-0.29005 -0.47447,-0.23726 -0.42174,0.0797 -0.36899,0.39532 0.0525,0.31645 0.4742,0.21086 0.42201,-0.10461 0.36926,-0.36892 z"
       inkscape:connector-curvature="0"
       style="fill:#95c5cd;fill-opacity:1" />
    <path
       id="path5000-0"
       d="m -977.03355,-210.02794 q 0.437,2.03912 -0.096,4.95224 -2.1119,10.77767 -13.7149,10.77767 l -1.0682,0 q -0.6069,0 -1.0678,0.40045 -0.4614,0.40076 -0.5828,1.03179 l -0.096,0.46116 -1.3348,8.39912 -0.049,0.36407 q -0.1207,0.63118 -0.5949,1.03164 -0.4732,0.4006 -1.0801,0.4006 l -6.09265,0 q -0.5099,0 -0.8009,-0.36437 -0.2915,-0.36406 -0.2188,-0.87369 0.2188,-1.35931 0.6433,-4.07824 0.4246,-2.71862 0.6431,-4.07807 0.2185,-1.35932 0.6556,-4.066 0.437,-2.70654 0.6554,-4.06585 0.1208,-0.89831 1.0436,-0.89831 l 3.18015,0 q 3.2285,0.049 5.7286,-0.50961 4.2479,-0.94663 6.9665,-3.49567 2.4761,-2.30594 3.7628,-5.97148 0.5824,-1.69906 0.8492,-3.2284 0.024,-0.14526 0.062,-0.18195 0.036,-0.0367 0.084,-0.0245 0.049,0.0153 0.1452,0.0841 1.9176,1.4324 2.3789,3.93236 z m -4.1751,-6.84531 q 0,2.59722 -1.1168,5.72882 -1.9418,5.65603 -7.3305,7.64653 -2.743,0.97078 -6.1172,1.01955 0,0.0245 -2.1848,0.0245 l -2.18455,-0.0245 q -2.4275,0 -2.8642,2.33025 -0.048,0.19419 -2.0633,12.86541 -0.024,0.24282 -0.2914,0.24282 l -7.1608,0 q -0.5339,0 -0.886,-0.40061 -0.352,-0.40045 -0.2791,-0.9347 l 5.6316,-35.7076 q 0.1208,-0.70382 0.6674,-1.16512 0.5463,-0.46131 1.2501,-0.46131 l 14.51605,0 q 0.8254,0 2.3665,0.31575 1.5414,0.31543 2.7065,0.77674 2.5976,0.99525 3.9689,2.98558 1.3716,1.99066 1.3716,4.75789 z"
       inkscape:connector-curvature="0"
       style="fill:#95c5cd;fill-opacity:1" />
    <path
       id="path5022-9"
       d="m -870.12159,-17.95915 q 0,-1.04162 -0.72912,-1.77059 -0.72895,-0.72946 -1.77088,-0.72946 -1.04163,0 -1.77057,0.72946 -0.72929,0.72897 -0.72929,1.77059 0,1.04145 0.72929,1.77092 0.72894,0.72929 1.77057,0.72929 1.04193,0 1.77088,-0.72929 0.72912,-0.72947 0.72912,-1.77092 z m 0,-29.9998 q 0,-1.04178 -0.72912,-1.77092 -0.72895,-0.72913 -1.77088,-0.72913 -1.04163,0 -1.77057,0.72913 -0.72929,0.72914 -0.72929,1.77092 0,1.04146 0.72929,1.77059 0.72894,0.7293 1.77057,0.7293 1.04193,0 1.77088,-0.7293 0.72912,-0.72913 0.72912,-1.77059 z m 16.66632,3.33319 q 0,-1.04163 -0.72895,-1.77092 -0.72928,-0.72914 -1.7709,-0.72914 -1.04161,0 -1.77088,0.72914 -0.72896,0.72929 -0.72896,1.77092 0,1.04162 0.72896,1.77091 0.72927,0.7293 1.77088,0.7293 1.04162,0 1.7709,-0.7293 0.72895,-0.72929 0.72895,-1.77091 z m 2.50018,0 q 0,1.3541 -0.67711,2.51317 -0.67713,1.15874 -1.82307,1.80963 -0.0525,7.47407 -5.88512,10.78134 -1.74483,0.98945 -5.28645,2.10932 -3.33313,1.04178 -4.4141,1.84916 -1.08065,0.80738 -1.08065,2.60421 l 0,0.67681 q 1.14577,0.65089 1.8229,1.81028 0.67712,1.15875 0.67712,2.51269 0,2.08356 -1.45842,3.54183 -1.45807,1.45811 -3.5416,1.45811 -2.08323,0 -3.54146,-1.45811 -1.45825,-1.45827 -1.45825,-3.54183 0,-1.35394 0.67679,-2.51269 0.67714,-1.15923 1.82306,-1.81028 l 0,-21.35402 q -1.14592,-0.65089 -1.82306,-1.80963 -0.67679,-1.1594 -0.67679,-2.51334 0,-2.08357 1.45825,-3.54184 1.45823,-1.45826 3.54146,-1.45826 2.08353,0 3.5416,1.45826 1.45842,1.45827 1.45842,3.54184 0,1.35394 -0.67712,2.51334 -0.67713,1.15874 -1.8229,1.80963 l 0,12.94282 q 1.40625,-0.67714 4.01027,-1.48468 1.43215,-0.44289 2.27873,-0.76817 0.84641,-0.32561 1.83585,-0.80738 0.98944,-0.48144 1.5365,-1.0285 0.54671,-0.54689 1.05455,-1.32802 0.508,-0.78146 0.72929,-1.8098 0.22144,-1.02899 0.22144,-2.38309 -1.14593,-0.65089 -1.82306,-1.80979 -0.67712,-1.15891 -0.67712,-2.51318 0,-2.08324 1.45825,-3.5415 1.45856,-1.45844 3.54177,-1.45844 2.08323,0 3.54179,1.45844 1.45824,1.45826 1.45824,3.5415 z"
       inkscape:connector-curvature="0"
       style="fill:#95c5cd;fill-opacity:1" />
    <path
       id="path5066-8"
       d="m -1040.8857,-128.63775 0,20.60055 q 0,1.17852 -1.203,1.52218 -4.2724,1.27688 -8.2991,1.27688 -1.7926,0 -5.2914,-0.72443 -3.4987,-0.72428 -5.5859,-0.72428 -4.0265,0 -9.0845,1.17852 l 0,8.29912 -3.9287,0 0,-33.58916 q -1.5468,-0.61384 -2.48,-1.98878 -0.9329,-1.37508 -0.9329,-3.04466 0,-2.23439 1.5714,-3.80606 1.5716,-1.57134 3.806,-1.57134 2.2344,0 3.8058,1.57134 1.5712,1.57167 1.5712,3.80606 0,1.66958 -0.933,3.04466 -0.933,1.37494 -2.4798,1.98878 l 0,1.66942 q 4.6652,-1.08015 8.4217,-1.08015 2.4307,0 4.8613,0.36824 0.344,0.0495 2.7378,0.55245 2.394,0.50342 3.6709,0.50342 1.8903,0 4.0511,-0.44201 0.2702,-0.0495 1.9644,-0.51549 1.6941,-0.46661 2.185,-0.46661 0.6385,0 1.1051,0.46661 0.4666,0.4663 0.4666,1.10474 z"
       inkscape:connector-curvature="0"
       style="fill:#95c5cd;fill-opacity:1" />
    <path
       id="path5110-2"
       d="m -846.02322,-205.47187 q 2.62824,1.08939 4.25032,3.44568 1.62253,2.35661 1.62253,5.24559 0,3.88381 -2.79456,6.64272 -2.79441,2.75906 -6.74938,2.75906 -0.0939,0 -0.27223,-0.0149 -0.17752,-0.0149 -0.24868,-0.0149 l -28.82051,0 q -4.02582,-0.23689 -6.81997,-2.97193 -2.7947,-2.73534 -2.7947,-6.64287 0,-2.60511 1.3026,-4.80732 1.3024,-2.2025 3.48118,-3.48135 -0.28433,-0.92366 -0.28433,-1.94205 0,-2.7234 1.94207,-4.64144 1.94189,-1.91818 4.71245,-1.91818 2.24994,0 4.0734,1.37341 1.77618,-3.64707 5.269,-5.87301 3.49328,-2.22622 7.73197,-2.22622 3.93124,0 7.24656,1.90641 3.31546,1.90656 5.24558,5.17457 1.93027,3.2679 1.93027,7.12828 0,0.14171 -0.0149,0.42617 -0.0149,0.28417 -0.0149,0.42634 z m -31.54407,6.29932 q 0,2.88914 1.98934,4.57073 1.9889,1.68131 4.92546,1.68131 3.24462,0 5.68371,-2.34452 -0.37889,-0.47376 -1.12475,-1.33805 -0.746,-0.86445 -1.03032,-1.19591 -1.58643,1.5393 -3.41005,1.5393 -1.30241,0 -2.21413,-0.79315 -0.91189,-0.79359 -0.91189,-2.07227 0,-1.25512 0.91189,-2.06034 0.91172,-0.80523 2.16669,-0.80523 1.04212,0 2.00099,0.49734 0.95931,0.49718 1.72903,1.30255 0.76957,0.80508 1.5393,1.77603 0.76956,0.97095 1.63386,1.94189 0.86429,0.97096 1.82347,1.77618 0.95931,0.80523 2.29707,1.30241 1.33806,0.49749 2.87735,0.49749 2.86527,0 4.84283,-1.69324 1.9774,-1.69338 1.9774,-4.51137 0,-2.86571 -1.98933,-4.54686 -1.9889,-1.68161 -4.90205,-1.68161 -3.38632,0 -5.70697,2.29723 l 2.20206,2.55783 q 1.563,-1.51587 3.3629,-1.51587 1.23155,0 2.17878,0.78135 0.94708,0.78166 0.94708,1.98934 0,1.34985 -0.87577,2.16715 -0.87652,0.81687 -2.22638,0.81687 -1.01839,0 -1.95354,-0.49719 -0.93559,-0.49749 -1.70531,-1.3027 -0.76957,-0.80523 -1.55108,-1.77618 -0.78151,-0.97096 -1.6458,-1.94176 -0.86429,-0.97109 -1.8354,-1.77632 -0.97095,-0.80523 -2.28514,-1.30241 -1.31434,-0.49734 -2.8065,-0.49734 -2.88913,0 -4.90174,1.66953 -2.01306,1.66966 -2.01306,4.48779 z"
       inkscape:connector-curvature="0"
       style="fill:#95c5cd;fill-opacity:1" />
    <path
       id="path5132-4"
       d="m -975.58081,-22.94706 q -1.0194,3.26778 -3.2154,6.53557 -3.3721,5.12373 -6.7184,5.12373 -1.2808,0 -3.6597,-0.8365 -2.248,-0.8365 -3.9474,-0.8365 -1.5945,0 -3.7119,0.86268 -2.1176,0.88887 -3.45069,0.88887 -3.9736,0 -7.8686,-6.77087 -3.8427,-6.82325 -3.8427,-13.1492 0,-5.96056 2.9539,-9.77718 2.9538,-3.76458 7.4242,-3.76458 1.8821,0 4.62679,0.78446 2.7189,0.78414 3.6077,0.78414 1.1763,0 3.7381,-0.88887 2.6665,-0.88886 4.5224,-0.88886 3.111,0 5.5684,1.69951 1.3591,0.9409 2.7186,2.6139 -2.0651,1.75155 -2.9801,3.08485 -1.6991,2.45746 -1.6991,5.4114 0,3.2416 1.8035,5.82965 1.8039,2.58788 4.1304,3.2938 z m -9.8291,-30.66417 q 0,1.59446 -0.7582,3.55497 -0.7841,1.96067 -2.4309,3.60782 -1.4118,1.41151 -2.8233,1.88212 -0.9674,0.28767 -2.7189,0.44444 0.079,-3.89517 2.0392,-6.71852 1.9344,-2.79701 6.5354,-3.86881 0.026,0.079 0.065,0.28767 0.039,0.20896 0.065,0.28734 0,0.10374 0.012,0.26149 0.012,0.15643 0.012,0.26148 z"
       inkscape:connector-curvature="0"
       style="fill:#95c5cd;fill-opacity:1" />
    <path
       id="path5176-6"
       d="m -1116.0483,-29.72989 q 0,1.66678 -0.9898,2.83866 -0.9893,1.17172 -2.3697,1.17172 -1.1199,0 -1.823,-0.39074 l 0,-7.2137 q 0.7292,-0.44274 1.823,-0.44274 1.3804,0 2.3697,1.18485 0.9898,1.18484 0.9898,2.85195 z m -8.9325,-11.14601 q 0,1.66679 -0.9895,2.85163 -0.9896,1.185 -2.3697,1.185 -1.1199,0 -1.8231,-0.39057 l 0,-7.21403 q 0.7293,-0.44274 1.8231,-0.44274 1.3801,0 2.3697,1.17205 0.9895,1.17172 0.9895,2.83866 z m 14.6354,11.22409 q 0,-3.48957 -2.2916,-5.96358 -2.2919,-2.47384 -5.5468,-2.47384 -0.5208,0 -1.0157,0.0787 -0.5991,2.03127 -2.0313,3.54156 -2.2656,2.47401 -5.4947,2.6305 l 0,16.56285 5.4947,-1.06772 0,-5.365 q 1.3281,0.4949 3.047,0.4949 3.2549,0 5.5468,-2.47385 2.2916,-2.47417 2.2916,-5.9639 z m -8.932,-11.12009 q 0,-3.48973 -2.3049,-5.96357 -2.3047,-2.47418 -5.5599,-2.47418 -1.9271,0 -3.6718,0.93764 l -4.8438,0 0,21.87552 5.4947,-1.06788 0,-5.36468 q 1.4326,0.4949 3.0209,0.4949 3.2552,0 5.5599,-2.47401 2.3049,-2.47385 2.3049,-5.96374 z m 15.9892,-4.68753 0,25.0006 q 0,3.09866 -2.2004,5.29939 -2.2004,2.20056 -5.2995,2.20056 l -25.0002,0 q -3.0986,0 -5.2993,-2.20056 -2.2006,-2.20073 -2.2006,-5.29939 l 0,-25.0006 q 0,-3.09915 2.2006,-5.29955 2.2007,-2.20056 5.2993,-2.20056 l 25.0002,0 q 3.0991,0 5.2995,2.20056 2.2004,2.2004 2.2004,5.29955 z"
       inkscape:connector-curvature="0"
       style="fill:#95c5cd;fill-opacity:1" />
    <path
       id="path5220-0"
       d="m -919.93976,-111.03205 q 0,-0.8333 -0.7811,-1.32836 -5.026,-2.99463 -11.6404,-2.99463 -3.4636,0 -7.474,0.88546 -1.0936,0.23424 -1.0936,1.35411 0,0.52098 0.3515,0.89842 0.3514,0.37761 0.9244,0.37761 0.1296,0 0.9633,-0.20816 3.4376,-0.70322 6.3284,-0.70322 5.8852,0 10.3383,2.68247 0.4949,0.28624 0.8594,0.28624 0.4949,0 0.8594,-0.35136 0.3644,-0.35169 0.3644,-0.89858 z m 2.5002,-5.59902 q 0,-1.04163 -0.9115,-1.58835 -6.1718,-3.67193 -14.2707,-3.67193 -3.9843,0 -7.8905,1.09378 -1.2499,0.33841 -1.2499,1.6666 0,0.65106 0.4555,1.10658 0.4557,0.45602 1.1068,0.45602 0.1825,0 0.9635,-0.20849 3.177,-0.85921 6.5365,-0.85921 7.2654,0 12.708,3.22919 0.6253,0.33824 0.9897,0.33824 0.6511,0 1.1068,-0.45552 0.4559,-0.45586 0.4559,-1.10691 z m 2.8126,-6.4584 q 0,-1.22403 -1.0421,-1.82292 -3.2809,-1.90084 -7.63,-2.87767 -4.349,-0.9765 -8.9322,-0.9765 -5.3124,0 -9.4791,1.22403 -0.5989,0.18224 -1.0024,0.66401 -0.4037,0.48178 -0.4037,1.26308 0,0.80705 0.5338,1.3541 0.5339,0.54673 1.3413,0.54673 0.2864,0 1.0415,-0.20832 3.4634,-0.96322 7.9947,-0.96322 4.1404,0 8.0597,0.88547 3.9196,0.88513 6.6015,2.47381 0.547,0.31265 1.0416,0.31265 0.7555,0 1.3154,-0.53393 0.56,-0.53377 0.56,-1.34132 z m 5.3384,3.87993 q 0,5.44302 -2.6825,10.03945 -2.682,4.5961 -7.2784,7.27874 -4.5966,2.68214 -10.039,2.68214 -5.4427,0 -10.0391,-2.68214 -4.5961,-2.68247 -7.2786,-7.27874 -2.6821,-4.59627 -2.6821,-10.03945 0,-5.44236 2.6821,-10.03879 2.6825,-4.59676 7.2786,-7.27858 4.5964,-2.6823 10.0391,-2.6823 5.4424,0 10.039,2.6823 4.5964,2.68182 7.2784,7.27858 2.6825,4.59659 2.6825,10.03879 z"
       inkscape:connector-curvature="0"
       style="fill:#95c5cd;fill-opacity:1" />
    <path
       id="path4978-1"
       d="m -1124.2417,-199.8854 3.8408,3.8404 -3.8665,3.86639 z m -0.026,-15.85474 3.8665,3.86639 -3.8406,3.84057 z m -3.3734,31.76129 12.0402,-12.04032 -7.9402,-7.9402 7.9402,-7.94036 -12.0402,-12.04017 0,15.85458 -6.6169,-6.61675 -2.4133,2.41316 8.3039,8.32954 -8.3039,8.32937 2.4133,2.41332 6.6169,-6.61674 0,15.85457 z m 18.6571,-19.98052 q 0,5.4234 -0.8303,9.48414 -0.8303,4.06106 -2.2705,6.66889 -1.44,2.608 -3.6458,4.21666 -2.2056,1.60901 -4.7096,2.24466 -2.5043,0.63582 -5.6958,0.63582 -3.1917,0 -5.6957,-0.63582 -2.5039,-0.63565 -4.7097,-2.24466 -2.2057,-1.60866 -3.6459,-4.21666 -1.4399,-2.60783 -2.2704,-6.66889 -0.8305,-4.06074 -0.8305,-9.48414 0,-5.42342 0.8305,-9.48414 0.8305,-4.06123 2.2704,-6.6689 1.4402,-2.60767 3.6459,-4.21666 2.2058,-1.60883 4.7097,-2.24482 2.504,-0.63532 5.6957,-0.63532 3.1915,0 5.6958,0.63532 2.504,0.63599 4.7096,2.24482 2.2058,1.60899 3.6458,4.21666 1.4402,2.60767 2.2705,6.6689 0.8303,4.06072 0.8303,9.48414 z"
       inkscape:connector-curvature="0"
       style="fill:#95c5cd;fill-opacity:1" />
    <path
       id="path5510-3"
       d="m -786.7884,-139.20923 q 3.099,0 5.2995,2.20052 2.2005,2.20052 2.2005,5.29948 l 0,25 q 0,3.09896 -2.2005,5.29948 -2.2005,2.20052 -5.2995,2.20052 l -4.8958,0 0,-15.49479 5.1823,0 0.7812,-6.04167 -5.9635,0 0,-3.85417 q 0,-1.45833 0.6119,-2.1875 0.612,-0.72916 2.3829,-0.72916 l 3.177,-0.026 0,-5.39063 q -1.6406,-0.23437 -4.6354,-0.23437 -3.5416,0 -5.664,2.08333 -2.1224,2.08333 -2.1224,5.88542 l 0,4.45312 -5.20841,0 0,6.04167 5.20841,0 0,15.49479 -13.85421,0 q -3.099,0 -5.2995,-2.20052 -2.20049,-2.20052 -2.20049,-5.29948 l 0,-25 q 0,-3.09896 2.20049,-5.29948 2.2005,-2.20052 5.2995,-2.20052 l 25.00001,0 z"
       inkscape:connector-curvature="0"
       style="fill:#95c5cd;fill-opacity:1" />
  </g>
</svg>
