<?xml version="1.0" encoding="UTF-8" standalone="no"?>
<!-- Generator: Adobe Illustrator 16.0.0, SVG Export Plug-In . SVG Version: 6.00 Build 0)  -->

<svg
   xmlns:dc="http://purl.org/dc/elements/1.1/"
   xmlns:cc="http://creativecommons.org/ns#"
   xmlns:rdf="http://www.w3.org/1999/02/22-rdf-syntax-ns#"
   xmlns:svg="http://www.w3.org/2000/svg"
   xmlns="http://www.w3.org/2000/svg"
   xmlns:sodipodi="http://sodipodi.sourceforge.net/DTD/sodipodi-0.dtd"
   xmlns:inkscape="http://www.inkscape.org/namespaces/inkscape"
   version="1.1"
   id="Layer_1"
   x="0px"
   y="0px"
   width="265"
   height="240"
   viewBox="0 0 264.99999 240"
   enable-background="new 0 0 825.96 441.07"
   xml:space="preserve"
   inkscape:version="0.91 r13725"
   sodipodi:docname="ComputerIconNoTextBlue.svg"><metadata
     id="metadata873"><rdf:RDF><cc:Work
         rdf:about=""><dc:format>image/svg+xml</dc:format><dc:type
           rdf:resource="http://purl.org/dc/dcmitype/StillImage" /><dc:title></dc:title></cc:Work></rdf:RDF></metadata><defs
     id="defs871" /><sodipodi:namedview
     pagecolor="#ffffff"
     bordercolor="#666666"
     borderopacity="1"
     objecttolerance="10"
     gridtolerance="10"
     guidetolerance="10"
     inkscape:pageopacity="0"
     inkscape:pageshadow="2"
     inkscape:window-width="1920"
     inkscape:window-height="1013"
     id="namedview869"
     showgrid="false"
     fit-margin-top="0"
     fit-margin-left="0"
     fit-margin-right="0"
     fit-margin-bottom="0"
     inkscape:zoom="0.44675286"
     inkscape:cx="874.71788"
     inkscape:cy="100.15246"
     inkscape:window-x="-9"
     inkscape:window-y="-9"
     inkscape:window-maximized="1"
     inkscape:current-layer="Layer_1" /><path
     d="m 9.1359358,239.99954 c -6.8035039,0.038 -9.24247703,-2.27305 -9.13238797,-9.03821 0.30324532,-17.24239 0.23519027,-34.49179 0.03903158,-51.72818 -0.07105749,-6.03314 2.17275779,-8.4742 8.34875409,-8.36719 15.3664315,0.27 30.7318615,0.143 46.0992935,0.072 9.015293,-0.041 18.192718,2.14105 24.591895,-8.19119 3.626934,-5.86613 11.774525,-3.48408 18.031587,-3.42408 4.212401,0.043 6.242041,-1.11402 5.674581,-5.59013 -0.22918,-1.86104 -0.27422,-3.80908 0.013,-5.65413 0.95277,-6.02013 -1.63433,-7.39317 -7.406992,-7.32216 -23.871312,0.323 -47.758636,-0.033 -71.629948,0.256 -6.415189,0.08 -8.803121,-1.92304 -8.771095,-8.48719 0.189153,-41.338952 0.17314,-82.6779 0.02002,-124.0218474 C 14.988655,2.5190955 16.968256,3.7657642e-5 23.2033,0.01103791 95.546825,0.12904062 167.88834,0.12904062 240.22286,3.7657642e-5 246.42587,-0.01096259 248.51456,2.3870924 248.49855,8.4072304 c -0.14712,41.3459476 -0.16013,82.6848946 0.017,124.0188396 0.031,6.48415 -2.29486,8.6642 -8.75909,8.5832 -23.63512,-0.28701 -47.27525,-0.143 -70.92037,-0.08 -2.01664,0.009 -5.4354,-0.94302 -5.73965,1.21903 -0.72659,5.06311 -1.14893,10.52124 0.025,15.40335 0.80265,3.33208 5.42739,1.62904 8.27069,1.56204 7.12977,-0.15101 14.19849,0.176 17.97755,7.18916 2.2338,4.1401 5.01005,4.76011 9.09435,4.71911 19.38469,-0.153 38.77137,0.078 58.16006,-0.158 6.11794,-0.082 8.45584,2.22105 8.37377,8.32719 -0.22819,17.00439 -0.0631,34.01478 -0.0871,51.02517 -0.011,9.0522 -0.62351,9.66022 -9.66982,9.66022 -40.90109,0.013 -81.80018,0 -122.69426,0 -41.137272,0.002 -82.275552,-0.11201 -123.4108302,0.123 z m 8.0304962,-59.66537 c -5.747649,-0.034 -7.8733691,1.29003 -7.6321739,7.38817 0.4693799,12.25528 0.3592906,24.55156 0.034027,36.81885 -0.1301053,4.85011 1.6813609,5.94413 6.1309599,5.94413 77.964072,-0.098 155.944155,-0.12 233.905225,0.029 5.00304,0.011 5.82971,-2.00404 5.76066,-6.29214 -0.20417,-12.26828 -0.3663,-24.56256 0.0641,-36.81685 0.19416,-5.70813 -1.71939,-7.09216 -7.19582,-7.06516 -38.51516,0.21201 -77.02732,0.11801 -115.54147,0.11801 -38.508153,0 -77.017306,0.112 -115.525459,-0.12401 z M 32.078496,9.2542498 c -5.668586,-0.056001 -7.680213,1.0970252 -7.622166,7.2461662 0.303245,35.886822 0.290235,71.780645 0,107.672474 -0.03603,5.99613 1.732401,7.40617 7.537097,7.39317 66.633906,-0.19801 133.273813,-0.18501 199.906713,-0.027 5.33432,0.011 7.25287,-1.10702 7.20683,-6.92015 -0.28523,-36.123834 -0.28523,-72.257662 0,-108.38149 0.036,-5.723131 -1.63031,-7.0251611 -7.12876,-6.9831602 -33.54214,0.2430056 -67.10329,0.1180027 -100.65343,0.1180027 -33.089764,0 -66.167524,0.130003 -99.246284,-0.1180027 z M 123.62255,140.99027 c -12.11881,0 -14.09641,2.63506 -11.81056,14.98934 0.53944,2.87707 2.07168,3.26508 4.39956,3.25108 6.37616,-0.044 12.75933,-0.135 19.13048,0.036 3.26464,0.078 4.4446,-0.97602 4.66677,-4.3971 0.90474,-13.88832 1.04585,-13.87932 -14.26053,-13.87932 -0.71058,0 -1.41515,0 -2.12572,0 z m 55.81115,29.60568 c 0.009,-0.41601 0.009,-0.84002 0.014,-1.25503 -31.24928,0 -62.51057,0 -93.769853,0 -0.07106,0.41501 -0.139112,0.83902 -0.208168,1.25503 31.323331,0 62.640671,0 93.964011,0 z m -28.14677,-12.06028 c 4.05428,0.12501 2.07468,-5.27712 1.99061,-8.08118 -0.10308,-3.06207 2.3479,-8.6752 -2.06267,-8.7592 -3.78306,-0.074 -0.3713,5.61113 -2.19778,8.08418 1.53324,3.19508 -1.64333,8.6322 2.26984,8.7562 z"
     id="path3"
     inkscape:connector-curvature="0"
     style="clip-rule:evenodd;fill:#838488;fill-rule:evenodd" /><path
     d="m 248.23236,180.34017 c 5.47743,-0.026 7.39098,1.35703 7.19582,7.06516 -0.43135,12.25529 -0.26922,24.54957 -0.0641,36.81685 0.0691,4.2881 -0.75762,6.30314 -5.76066,6.29214 -77.96007,-0.149 -155.940153,-0.127 -233.905225,-0.029 -4.4496,0 -6.2610655,-1.09502 -6.1309602,-5.94413 0.3252631,-12.26829 0.4363532,-24.56357 -0.034027,-36.81885 -0.2411952,-6.09814 1.8845242,-7.42217 7.6321742,-7.38817 38.508153,0.23501 77.018306,0.12401 115.524448,0.12401 38.51516,0 77.02732,0.094 115.54248,-0.11801 z m -109.10227,39.94492 c 3.36272,0.094 5.02907,-0.53701 5.11915,-4.55411 0.30624,-13.68931 -10.91984,-25.12557 -25.05227,-24.99457 -13.81418,0.12 -25.417559,12.32828 -24.680963,25.63959 0.187151,3.21107 1.497211,3.95309 4.352521,3.90409 6.825512,-0.127 13.653042,-0.042 20.481562,-0.042 6.59534,0 13.19568,-0.11801 19.78,0.047 z m -63.400281,0.012 c 3.072486,0.065 4.008243,-1.06903 4.155362,-4.0851 0.625506,-13.0903 -10.639607,-25.10557 -24.113508,-25.47658 -14.164458,-0.38801 -25.546666,10.68925 -25.579693,24.44856 -0.01301,4.1121 1.337082,5.28212 5.277269,5.12612 6.581324,-0.26101 13.181664,-0.064 19.778,-0.064 6.826523,10e-4 13.64704,-0.12001 20.48257,0.051 z M 196.35239,205.67575 c 0.1341,-9.28221 -6.97665,-16.63138 -16.25916,-16.78938 -9.61678,-0.16301 -17.313,7.27217 -17.22793,16.64938 0.0791,9.20021 7.39698,16.37738 16.75155,16.41338 9.3936,0.034 16.59542,-6.96016 16.73554,-16.27338 z"
     id="path5"
     inkscape:connector-curvature="0"
     style="clip-rule:evenodd;fill:#fafcfb;fill-rule:evenodd"
     sodipodi:nodetypes="ccccccccscccccccsccccccccccccc" /><path
     d="m 231.97821,9.2542498 c 5.49845,-0.042001 7.16479,1.2600292 7.12876,6.9831602 -0.28523,36.123828 -0.28523,72.257656 0,108.38149 0.046,5.81313 -1.87251,6.93215 -7.20683,6.92015 -66.6329,-0.158 -133.273808,-0.171 -199.906713,0.027 -5.804696,0.013 -7.573126,-1.39704 -7.537097,-7.39317 0.290235,-35.891829 0.303245,-71.785652 0,-107.672474 -0.05805,-6.149141 1.954581,-7.3021675 7.622166,-7.2461662 33.07876,0.2480057 66.15752,0.1180027 99.246284,0.1180027 33.55014,0 67.11129,0.1250029 100.65343,-0.1180027 z M 39.35138,14.47937 c -6.543294,-0.058 -8.72706,2.253051 -8.68903,8.625197 0.183149,31.640726 0.176143,63.277451 -0.006,94.912173 -0.03203,6.24515 1.943572,8.85721 8.584945,8.84421 62.370445,-0.17101 124.750915,-0.16101 187.138385,-0.022 6.20001,0.018 8.30572,-2.33806 8.27469,-8.3742 -0.17614,-31.868728 -0.21117,-63.743458 0.012,-95.612188 0.052,-6.662153 -2.58309,-8.420193 -8.88919,-8.372192 -30.94003,0.254006 -61.90508,0.114002 -92.85111,0.114002 -31.19124,10e-4 -62.380461,0.154004 -93.574696,-0.115002 z"
     id="path7"
     inkscape:connector-curvature="0"
     style="clip-rule:evenodd;fill:#fafcfb;fill-rule:evenodd" /><path
     d="m 125.74927,140.99027 c -0.71158,0 -1.41615,0 -2.12672,0 -12.11881,0 -14.09641,2.63506 -11.81056,14.98934 0.53944,2.87707 2.07168,3.26508 4.39956,3.25108 6.37616,-0.044 12.75933,-0.135 19.13048,0.036 3.26464,0.078 4.4446,-0.97602 4.66677,-4.3971 0.90674,-13.88832 1.04685,-13.87932 -14.25953,-13.87932 z"
     id="path9"
     inkscape:connector-curvature="0"
     style="clip-rule:evenodd;fill:#fafcfb;fill-rule:evenodd" /><path
     d="m 85.468688,170.59595 c 31.324332,0 62.641672,0 93.965012,0 0.009,-0.41601 0.009,-0.84002 0.014,-1.25503 -31.24928,0 -62.51057,0 -93.769853,0 -0.07106,0.41501 -0.139112,0.83902 -0.209169,1.25503 z"
     id="path11"
     inkscape:connector-curvature="0"
     style="clip-rule:evenodd;fill:#fafcfb;fill-rule:evenodd" /><path
     d="m 149.01709,149.77947 c 1.53224,3.19508 -1.64433,8.6322 2.26984,8.7562 4.05428,0.12501 2.07468,-5.27712 1.99061,-8.08118 -0.10308,-3.06207 2.3479,-8.6752 -2.06267,-8.7592 -3.78306,-0.074 -0.3703,5.61113 -2.19778,8.08418 z"
     id="path13"
     inkscape:connector-curvature="0"
     style="clip-rule:evenodd;fill:#fafcfb;fill-rule:evenodd" /><path
     d="m 98.868528,220.28009 c -2.85531,0.049 -4.16537,-0.69302 -4.352521,-3.90409 -0.736596,-13.31131 10.866783,-25.51959 24.680963,-25.63959 14.13243,-0.131 25.35851,11.30526 25.05227,24.99457 -0.0901,4.0171 -1.75643,4.64711 -5.11915,4.55411 -6.58432,-0.16501 -13.18566,-0.047 -19.781,-0.047 -6.82752,0 -13.65505,-0.085 -20.480562,0.042 z m 34.715082,-9.83323 c -1.59529,-5.73913 -5.42739,-8.7422 -10.63961,-9.89022 -5.9368,-1.30603 -11.13201,0.41901 -15.10122,5.16011 -0.99981,1.19203 -2.73321,2.55906 -1.61731,4.1741 0.54445,0.79202 2.52104,0.78702 3.86113,0.79202 2.08468,0.02 4.17438,-0.25701 6.27307,-0.39901 3.04647,0.054 6.09493,0.113 9.1424,0.163 2.53605,0 5.08812,0 8.08154,0 z"
     id="path15"
     inkscape:connector-curvature="0"
     style="clip-rule:evenodd;fill:#838488;fill-rule:evenodd" /><path
     d="m 35.47024,220.31109 c -3.940188,0.156 -5.291281,-1.01402 -5.277269,-5.12612 0.03303,-13.75931 11.415234,-24.83657 25.579693,-24.44856 13.4729,0.37001 24.739014,12.38628 24.113508,25.47658 -0.147119,3.01607 -1.082876,4.1501 -4.155362,4.0851 -6.83553,-0.17101 -13.656047,-0.051 -20.481569,-0.051 -6.596337,0 -13.197677,-0.19701 -19.779001,0.064 z m 25.720808,-9.75322 c 2.426963,-0.18301 6.001855,1.55603 6.95963,-1.04103 1.043844,-2.81506 -2.344897,-4.69111 -4.428583,-6.45215 -6.954626,-5.83813 -21.077051,-2.52105 -22.600283,7.25717 3.47381,0.72702 6.950623,0.48801 10.425434,0.075 3.211598,0.05 6.421195,0.107 9.643802,0.16101 z"
     id="path17"
     inkscape:connector-curvature="0"
     style="clip-rule:evenodd;fill:#838488;fill-rule:evenodd" /><path
     d="m 162.8653,205.53675 c -0.0851,-9.37721 7.61015,-16.81239 17.22793,-16.64938 9.28251,0.158 16.39326,7.50717 16.25916,16.78938 -0.14112,9.31222 -7.34194,16.30738 -16.73554,16.27338 -9.35457,-0.036 -16.67249,-7.21317 -16.75155,-16.41338 z m 16.87064,7.18316 c 4.23143,-0.024 7.07773,-2.77106 7.07773,-7.19916 -0.015,-4.78111 -2.98141,-7.62517 -7.58814,-7.40417 -4.21341,0.203 -6.58833,3.20307 -6.95362,7.51417 0.64552,4.3541 3.23561,7.11617 7.46403,7.08916 z"
     id="path19"
     inkscape:connector-curvature="0"
     style="clip-rule:evenodd;fill:#838488;fill-rule:evenodd" /><path
     d="m 225.77619,14.48137 c 6.3061,-0.049 8.94123,1.710039 8.88919,8.372192 -0.22318,31.86873 -0.18815,63.74346 -0.012,95.612188 0.031,6.03614 -2.07368,8.3922 -8.27469,8.3742 -62.38747,-0.13901 -124.76794,-0.14901 -187.13839,0.022 -6.640372,0.013 -8.616971,-2.59906 -8.584945,-8.84421 0.183148,-31.634722 0.189153,-63.271447 0.006,-94.912173 -0.03903,-6.372146 2.145735,-8.684199 8.689029,-8.625197 31.194236,0.270006 62.383466,0.116002 93.573696,0.116002 30.94604,-0.001 61.91209,0.139004 92.85212,-0.115002 z M 46.872464,36.058864 c -5.245243,-0.056 -6.836531,1.250029 -6.767475,6.644153 0.310251,22.658519 0.290235,45.333038 0.01001,67.984563 -0.05905,5.31312 1.461182,6.74915 6.757467,6.73815 57.181254,-0.187 114.365514,-0.187 171.537764,0 5.29028,0.011 6.83253,-1.41103 6.75747,-6.73815 -0.27322,-22.89053 -0.2422,-45.794055 -0.006,-68.70058 0.046,-4.739108 -1.4912,-5.936136 -6.04689,-5.904135 -28.82532,0.178004 -57.64864,0.094 -86.46995,0.094 -28.59814,10e-4 -57.186258,0.134003 -85.772384,-0.118003 z M 217.36739,27.110659 c 1.66134,0 3.31768,0.013 4.96301,-0.054 1.21699,-0.051 2.469,-0.321007 2.32688,-1.896043 -0.10408,-1.095026 -1.09888,-1.424033 -2.08568,-1.449034 -1.64934,-0.056 -3.31468,-0.067 -4.95701,-0.067 -56.69987,-0.007 -113.38173,-0.024 -170.071583,0.069 -2.321879,0.011 -6.581325,-1.516034 -6.647378,1.556036 -0.07806,3.399078 4.175378,1.75004 6.413188,1.75404 28.578119,0.140003 57.161233,0.087 85.738353,0.087 28.11475,0.009 56.22149,0.009 84.32022,0 z"
     id="path21"
     inkscape:connector-curvature="0"
     style="clip-rule:evenodd;fill:#838488;fill-rule:evenodd" /><path
     d="m 125.50207,210.44686 c 2.53605,0 5.08812,0 8.08154,0 -1.59529,-5.73913 -5.42739,-8.7422 -10.63961,-9.89022 -5.9368,-1.30603 -11.13201,0.41901 -15.10122,5.16011 -0.99981,1.19203 -2.73321,2.55906 -1.61731,4.1741 0.54445,0.79202 2.52104,0.78702 3.86113,0.79202 2.08468,0.02 4.17438,-0.25701 6.27307,-0.40601 0.77263,-3.44808 0.44336,-8.21819 5.81471,-7.52617 4.41657,0.57001 3.74503,4.4411 3.32769,7.69617 z"
     id="path23"
     inkscape:connector-curvature="0"
     style="clip-rule:evenodd;fill:#fafcfb;fill-rule:evenodd" /><path
     d="m 125.50207,210.44686 c 0.41734,-3.25507 1.08888,-7.12616 -3.32769,-7.69617 -5.37035,-0.69102 -5.04108,4.07809 -5.81471,7.52617 3.04647,0.06 6.09493,0.12 9.1424,0.17 z"
     id="path25"
     inkscape:connector-curvature="0"
     style="clip-rule:evenodd;fill:#7bc9be;fill-rule:evenodd" /><path
     d="m 61.191048,210.55787 c 2.426963,-0.18301 6.001855,1.55603 6.95963,-1.04103 1.043844,-2.81506 -2.344897,-4.69111 -4.428583,-6.45215 -6.954626,-5.83813 -21.077051,-2.52105 -22.600283,7.25717 3.47381,0.72702 6.950623,0.48801 10.425434,0.075 0.325263,-3.81109 0.60549,-7.90918 5.981839,-7.27417 4.587712,0.54302 4.19039,4.0791 3.661963,7.43518 z"
     id="path27"
     inkscape:connector-curvature="0"
     style="clip-rule:evenodd;fill:#fafcfb;fill-rule:evenodd" /><path
     d="m 61.191048,210.55787 c 0.528427,-3.35608 0.925749,-6.89216 -3.662964,-7.43618 -5.376349,-0.63501 -5.655575,3.46408 -5.981839,7.27417 3.212599,0.051 6.422196,0.108 9.644803,0.16201 z"
     id="path29"
     inkscape:connector-curvature="0"
     style="clip-rule:evenodd;fill:#7bc9be;fill-rule:evenodd" /><path
     d="m 172.27191,205.62975 c 0.64652,4.3541 3.23561,7.11617 7.46403,7.09016 4.23143,-0.024 7.07773,-2.77106 7.07773,-7.19916 -0.015,-4.78111 -2.98141,-7.62517 -7.58814,-7.40417 -4.21341,0.203 -6.58833,3.20307 -6.95362,7.51317 z"
     id="path31"
     inkscape:connector-curvature="0"
     style="clip-rule:evenodd;fill:#fafcfb;fill-rule:evenodd" /><path
     d="m 219.1148,36.083865 c 4.55569,-0.031 6.09293,1.166027 6.04689,5.904135 -0.23619,22.905525 -0.26821,45.81005 0.006,68.70058 0.0751,5.32712 -1.46719,6.74915 -6.75747,6.73815 -57.17225,-0.187 -114.35751,-0.187 -171.537766,0 -5.296285,0.011 -6.816514,-1.42403 -6.757467,-6.73815 0.280227,-22.651525 0.300243,-45.326044 -0.01001,-67.984563 -0.06906,-5.394124 1.522232,-6.700154 6.767475,-6.644153 28.586126,0.251006 57.174248,0.118003 85.772388,0.118003 28.82231,0 57.64563,0.084 86.46995,-0.094 z m -116.26706,15.27635 c -3.2226,-0.018 -6.021864,-0.239006 -5.988838,4.553104 0.03903,4.961114 3.124528,4.313099 6.177998,4.313099 31.9008,0.007 63.81062,0 95.71943,0.042 3.25964,0 6.0569,0.209005 6.00886,-4.549104 -0.041,-4.888112 -3.07749,-4.3591 -6.20502,-4.3591 -16.067,0.027 -32.137,0.013 -48.217,0.013 -15.83281,0 -31.66462,0.018 -47.49543,-0.013 z m 95.99666,35.746819 c 3.3377,0.027 5.94581,0.061 5.96283,-4.627106 0.016,-4.235097 -1.68737,-5.117117 -5.49945,-5.093117 -21.04603,0.131003 -42.09606,0.131003 -63.12307,0 -4.07129,-0.024 -6.10394,0.983023 -6.07091,5.514127 0.034,5.042115 3.3427,4.164095 6.32312,4.174095 10.39541,0.021 20.80583,0.009 31.20524,0.009 10.39641,-0.008 20.80183,-0.062 31.20224,0.023 z M 70.511588,52.858249 c -9.809936,0.049 -17.122852,7.230166 -17.187905,16.886387 -0.07506,8.989206 8.270691,17.302397 17.25596,17.184394 9.573745,-0.116003 16.831616,-7.564173 16.86064,-17.282396 0.02802,-9.961228 -6.908589,-16.837386 -16.928695,-16.788385 z m 83.678692,10.232235 c -3.40376,-0.066 -4.51465,1.275029 -4.50164,4.583105 0,3.346076 0.58147,5.23312 4.60672,5.193119 15.30538,-0.171004 30.63078,-0.129003 45.94717,-0.013 3.43879,0.033 4.49864,-1.30903 4.49864,-4.581105 0,-3.328077 -0.55345,-5.329123 -4.59672,-5.21312 -7.76828,0.241006 -15.56459,0.069 -23.33788,0.069 -7.53709,0.012 -15.0822,0.117002 -22.61629,-0.038 z m -11.87461,9.763224 c 3.97522,0.147003 4.61373,-1.788041 4.60773,-5.162119 -0.006,-3.270075 -1.04585,-4.631106 -4.45561,-4.601105 -13.64103,0.114002 -27.28507,0.141003 -40.93211,-0.016 -3.946187,-0.04 -4.660765,1.779041 -4.657762,5.178119 0.008,3.296076 1.1129,4.665107 4.504642,4.589105 7.0557,-0.147003 14.11241,-0.049 21.17112,-0.049 6.58733,0 13.18067,-0.164004 19.76199,0.061 z m -21.94775,14.273327 c 3.90015,0.314007 5.38135,-1.048024 5.34232,-5.129118 -0.045,-3.965091 -1.89754,-4.665107 -5.22323,-4.584105 -6.32912,0.138003 -12.67025,0.185004 -18.98135,-0.011 -3.936183,-0.125003 -4.628743,1.814041 -4.620737,5.188119 0.01902,3.303075 1.127913,4.712108 4.510647,4.525103 3.26464,-0.188004 6.56231,-0.041 9.83996,-0.041 3.04646,0.01 6.10594,-0.189004 9.13239,0.052 z m 79.57137,13.032305 c 3.03645,0.12 4.81689,-0.59102 4.89796,-4.195103 0.0731,-3.778086 -1.43716,-4.899112 -5.01306,-4.778109 -6.56731,0.198004 -13.14963,0.138003 -19.72495,0.011 -3.01945,-0.051 -4.82891,0.508012 -4.87695,4.157095 -0.045,3.735086 1.40013,5.042117 4.99304,4.805117 3.27565,-0.196011 6.57332,-0.04 9.85898,-0.04 3.28666,0.009 6.58132,-0.094 9.86498,0.04 z"
     id="path33"
     inkscape:connector-curvature="0"
     style="clip-rule:evenodd;fill:#fafcfb;fill-rule:evenodd" /><path
     d="m 133.04817,27.110659 c 28.11375,0.009 56.22049,0.009 84.31922,0 1.66134,0 3.31768,0.013 4.96301,-0.054 1.21699,-0.051 2.469,-0.321007 2.32688,-1.896043 -0.10408,-1.095026 -1.09888,-1.424033 -2.08568,-1.449034 -1.64934,-0.056 -3.31468,-0.067 -4.95701,-0.067 -56.69987,-0.007 -113.38173,-0.024 -170.071583,0.069 -2.321879,0.011 -6.581325,-1.516034 -6.647378,1.556036 -0.07806,3.399078 4.175378,1.75004 6.413188,1.75404 28.57912,0.140003 57.162243,0.087 85.739353,0.087 z"
     id="path35"
     inkscape:connector-curvature="0"
     style="clip-rule:evenodd;fill:#fafcfb;fill-rule:evenodd" /><path
     d="m 150.34317,51.373215 c -15.83181,0 -31.66462,0.018 -47.49543,-0.013 -3.2226,-0.018 -6.021864,-0.239006 -5.988838,4.553104 0.03903,4.961114 3.124528,4.313099 6.177998,4.313099 31.9008,0.007 63.81062,0 95.71943,0.042 3.25964,0 6.0569,0.209005 6.00886,-4.549104 -0.041,-4.888112 -3.07749,-4.3591 -6.20502,-4.3591 -16.067,0.027 -32.138,0.013 -48.217,0.013 z"
     id="path37"
     inkscape:connector-curvature="0"
     style="clip-rule:evenodd;fill:#7bc9be;fill-rule:evenodd" /><path
     d="m 167.64116,87.076033 c 10.39841,0 20.80283,-0.053 31.20324,0.031 3.3377,0.027 5.94581,0.061 5.96283,-4.627106 0.016,-4.235097 -1.68737,-5.117117 -5.49945,-5.093117 -21.04603,0.131003 -42.09606,0.131003 -63.12307,0 -4.07129,-0.024 -6.10394,0.983023 -6.07091,5.514127 0.034,5.042115 3.3427,4.164095 6.32312,4.174095 10.3944,0.021 20.80483,0.01 31.20424,0.001 z"
     id="path39"
     inkscape:connector-curvature="0"
     style="clip-rule:evenodd;fill:#7bc9be;fill-rule:evenodd" /><path
     d="m 70.579643,86.92903 c -8.985269,0.118003 -17.331021,-8.195188 -17.25596,-17.184394 0.06405,-9.655221 7.377969,-16.836386 17.187905,-16.886387 10.020106,-0.049 16.956718,6.827157 16.928695,16.788385 -0.02902,9.717223 -7.286895,17.166393 -16.86064,17.282396 z m 7.711238,-17.421399 c 0.01601,-4.524104 -3.147546,-7.689176 -7.720245,-7.527173 -4.337509,0.158004 -7.613159,2.809065 -7.51508,7.709177 0.09808,4.78311 3.059475,7.101163 7.588139,7.609174 4.860932,-0.427009 7.624168,-3.402078 7.647186,-7.791178 z"
     id="path41"
     inkscape:connector-curvature="0"
     style="clip-rule:evenodd;fill:#7bc9be;fill-rule:evenodd" /><path
     d="m 176.80657,63.133485 c -7.53709,0.007 -15.0822,0.112002 -22.61629,-0.042 -3.40376,-0.066 -4.51465,1.275029 -4.50164,4.583105 0,3.346077 0.58147,5.23312 4.60672,5.193119 15.30538,-0.171004 30.63078,-0.129003 45.94717,-0.013 3.43879,0.033 4.49864,-1.30903 4.49864,-4.581105 0,-3.328077 -0.55345,-5.329123 -4.59672,-5.21312 -7.76728,0.240006 -15.56359,0.068 -23.33788,0.073 z"
     id="path43"
     inkscape:connector-curvature="0"
     style="clip-rule:evenodd;fill:#7bc9be;fill-rule:evenodd" /><path
     d="m 122.55368,72.792706 c 6.58733,0 13.18067,-0.165004 19.76199,0.061 3.97522,0.147003 4.61373,-1.788041 4.60773,-5.162119 -0.006,-3.270075 -1.04585,-4.631106 -4.45561,-4.601105 -13.64103,0.114002 -27.28507,0.141003 -40.93211,-0.016 -3.946187,-0.04 -4.660765,1.779041 -4.657762,5.178119 0.008,3.296076 1.1129,4.665107 4.504642,4.589105 7.0557,-0.146003 14.11141,-0.049 21.17112,-0.049 z"
     id="path45"
     inkscape:connector-curvature="0"
     style="clip-rule:evenodd;fill:#7bc9be;fill-rule:evenodd" /><path
     d="m 111.23553,87.076033 c 3.04646,0.009 6.10594,-0.189004 9.13239,0.052 3.90015,0.314007 5.38135,-1.048024 5.34232,-5.129118 -0.045,-3.965091 -1.89754,-4.665107 -5.22323,-4.584105 -6.32912,0.138003 -12.67025,0.185004 -18.98135,-0.011 -3.936183,-0.125003 -4.628743,1.814041 -4.620737,5.188119 0.01902,3.303075 1.127913,4.712108 4.510647,4.525103 3.26464,-0.188004 6.56231,-0.041 9.83996,-0.041 z"
     id="path47"
     inkscape:connector-curvature="0"
     style="clip-rule:evenodd;fill:#7bc9be;fill-rule:evenodd" /><path
     d="m 190.07431,100.11933 c 3.28666,0.009 6.58132,-0.094 9.86498,0.04 3.03645,0.12 4.81689,-0.59102 4.89796,-4.195103 0.0731,-3.778086 -1.43716,-4.899112 -5.01306,-4.778109 -6.56731,0.198004 -13.14963,0.138003 -19.72495,0.011 -3.01945,-0.051 -4.82891,0.508012 -4.87695,4.157095 -0.045,3.735086 1.40013,5.042117 4.99304,4.805117 3.27665,-0.196011 6.57432,-0.04 9.85898,-0.04 z"
     id="path49"
     inkscape:connector-curvature="0"
     style="clip-rule:evenodd;fill:#7bc9be;fill-rule:evenodd" /><path
     d="m 70.643695,77.299809 c 4.860932,-0.428009 7.624168,-3.403078 7.647186,-7.792178 0.01601,-4.524104 -3.147546,-7.689176 -7.720245,-7.527173 -4.337509,0.158004 -7.613159,2.809065 -7.51508,7.709177 0.09808,4.78411 3.059475,7.102163 7.588139,7.610174 z"
     id="path51"
     inkscape:connector-curvature="0"
     style="clip-rule:evenodd;fill:#fafcfb;fill-rule:evenodd" /><path
     d="m 9.1359358,239.99954 c -6.8035039,0.038 -9.24247703,-2.27305 -9.13238797,-9.03821 0.30324532,-17.24239 0.23519027,-34.49179 0.03903158,-51.72818 -0.07105749,-6.03314 2.17275779,-8.4742 8.34875409,-8.36719 15.3664315,0.27 30.7318615,0.143 46.0992935,0.072 9.015293,-0.041 18.192718,2.14105 24.591895,-8.19119 3.626934,-5.86613 11.774525,-3.48408 18.031587,-3.42408 4.212401,0.043 6.242041,-1.11402 5.674581,-5.59013 -0.22918,-1.86104 -0.27422,-3.80908 0.013,-5.65413 0.95277,-6.02013 -1.63433,-7.39317 -7.406992,-7.32216 -23.871312,0.323 -47.758636,-0.033 -71.629948,0.256 -6.415189,0.08 -8.803121,-1.92304 -8.771095,-8.48719 0.189153,-41.338952 0.17314,-82.6779 0.02002,-124.0218474 C 14.988655,2.5190955 16.968256,3.7657642e-5 23.2033,0.01103791 95.546825,0.12904062 167.88834,0.12904062 240.22286,3.7657642e-5 246.42587,-0.01096259 248.51456,2.3870924 248.49855,8.4072304 c -0.14712,41.3459476 -0.16013,82.6848946 0.017,124.0188396 0.031,6.48415 -2.29486,8.6642 -8.75909,8.5832 -23.63512,-0.28701 -47.27525,-0.143 -70.92037,-0.08 -2.01664,0.009 -5.4354,-0.94302 -5.73965,1.21903 -0.72659,5.06311 -1.14893,10.52124 0.025,15.40335 0.80265,3.33208 5.42739,1.62904 8.27069,1.56204 7.12977,-0.15101 14.19849,0.176 17.97755,7.18916 2.2338,4.1401 5.01005,4.76011 9.09435,4.71911 19.38469,-0.153 38.77137,0.078 58.16006,-0.158 6.11794,-0.082 8.45584,2.22105 8.37377,8.32719 -0.22819,17.00439 -0.0631,34.01478 -0.0871,51.02517 -0.011,9.0522 -0.62351,9.66022 -9.66982,9.66022 -40.90109,0.013 -81.80018,0 -122.69426,0 -41.137272,0.002 -82.275552,-0.11201 -123.4108302,0.123 z m 8.0304962,-59.66537 c -5.747649,-0.034 -7.8733691,1.29003 -7.6321739,7.38817 0.4693799,12.25528 0.3592906,24.55156 0.034027,36.81885 -0.1301053,4.85011 1.6813609,5.94413 6.1309599,5.94413 77.964072,-0.098 155.944155,-0.12 233.905225,0.029 5.00304,0.011 5.82971,-2.00404 5.76066,-6.29214 -0.20417,-12.26828 -0.3663,-24.56256 0.0641,-36.81685 0.19416,-5.70813 -1.71939,-7.09216 -7.19582,-7.06516 -38.51516,0.21201 -77.02732,0.11801 -115.54147,0.11801 -38.508153,0 -77.017306,0.112 -115.525459,-0.12401 z M 32.078496,9.2542498 c -5.668586,-0.056001 -7.680213,1.0970252 -7.622166,7.2461662 0.303245,35.886822 0.290235,71.780645 0,107.672474 -0.03603,5.99613 1.732401,7.40617 7.537097,7.39317 66.633906,-0.19801 133.273813,-0.18501 199.906713,-0.027 5.33432,0.011 7.25287,-1.10702 7.20683,-6.92015 -0.28523,-36.123834 -0.28523,-72.257662 0,-108.38149 0.036,-5.723131 -1.63031,-7.0251611 -7.12876,-6.9831602 -33.54214,0.2430056 -67.10329,0.1180027 -100.65343,0.1180027 -33.089764,0 -66.167524,0.130003 -99.246284,-0.1180027 z M 123.62255,140.99027 c -12.11881,0 -14.09641,2.63506 -11.81056,14.98934 0.53944,2.87707 2.07168,3.26508 4.39956,3.25108 6.37616,-0.044 12.75933,-0.135 19.13048,0.036 3.26464,0.078 4.4446,-0.97602 4.66677,-4.3971 0.90474,-13.88832 1.04585,-13.87932 -14.26053,-13.87932 -0.71058,0 -1.41515,0 -2.12572,0 z m 55.81115,29.60568 c 0.009,-0.41601 0.009,-0.84002 0.014,-1.25503 -31.24928,0 -62.51057,0 -93.769853,0 -0.07106,0.41501 -0.139112,0.83902 -0.208168,1.25503 31.323331,0 62.640671,0 93.964011,0 z m -28.14677,-12.06028 c 4.05428,0.12501 2.07468,-5.27712 1.99061,-8.08118 -0.10308,-3.06207 2.3479,-8.6752 -2.06267,-8.7592 -3.78306,-0.074 -0.3713,5.61113 -2.19778,8.08418 1.53324,3.19508 -1.64333,8.6322 2.26984,8.7562 z"
     id="path53"
     inkscape:connector-curvature="0"
     style="clip-rule:evenodd;fill:#838488;fill-rule:evenodd" /><path
     d="m 231.97821,9.2542498 c 5.49845,-0.042001 7.16479,1.2600292 7.12876,6.9831602 -0.28523,36.123828 -0.28523,72.257656 0,108.38149 0.046,5.81313 -1.87251,6.93215 -7.20683,6.92015 -66.6329,-0.158 -133.273808,-0.171 -199.906713,0.027 -5.804696,0.013 -7.573126,-1.39704 -7.537097,-7.39317 0.290235,-35.891829 0.303245,-71.785652 0,-107.672474 -0.05805,-6.149141 1.954581,-7.3021675 7.622166,-7.2461662 33.07876,0.2480057 66.15752,0.1180027 99.246284,0.1180027 33.55014,0 67.11129,0.1250029 100.65343,-0.1180027 z M 39.35138,14.47937 c -6.543294,-0.058 -8.72706,2.253051 -8.68903,8.625197 0.183149,31.640726 0.176143,63.277451 -0.006,94.912173 -0.03203,6.24515 1.943572,8.85721 8.584945,8.84421 62.370445,-0.17101 124.750915,-0.16101 187.138385,-0.022 6.20001,0.018 8.30572,-2.33806 8.27469,-8.3742 -0.17614,-31.868728 -0.21117,-63.743458 0.012,-95.612188 0.052,-6.662153 -2.58309,-8.420193 -8.88919,-8.372192 -30.94003,0.254006 -61.90508,0.114002 -92.85111,0.114002 -31.19124,10e-4 -62.380461,0.154004 -93.574696,-0.115002 z"
     id="path55"
     inkscape:connector-curvature="0"
     style="clip-rule:evenodd;fill:#fafcfb;fill-rule:evenodd" /><path
     d="m 125.74927,140.99027 c -0.71158,0 -1.41615,0 -2.12672,0 -12.11881,0 -14.09641,2.63506 -11.81056,14.98934 0.53944,2.87707 2.07168,3.26508 4.39956,3.25108 6.37616,-0.044 12.75933,-0.135 19.13048,0.036 3.26464,0.078 4.4446,-0.97602 4.66677,-4.3971 0.90674,-13.88832 1.04685,-13.87932 -14.25953,-13.87932 z"
     id="path57"
     inkscape:connector-curvature="0"
     style="clip-rule:evenodd;fill:#fafcfb;fill-rule:evenodd" /><path
     d="m 85.468688,170.59595 c 31.324332,0 62.641672,0 93.965012,0 0.009,-0.41601 0.009,-0.84002 0.014,-1.25503 -31.24928,0 -62.51057,0 -93.769853,0 -0.07106,0.41501 -0.139112,0.83902 -0.209169,1.25503 z"
     id="path59"
     inkscape:connector-curvature="0"
     style="clip-rule:evenodd;fill:#fafcfb;fill-rule:evenodd" /><path
     d="m 149.01709,149.77947 c 1.53224,3.19508 -1.64433,8.6322 2.26984,8.7562 4.05428,0.12501 2.07468,-5.27712 1.99061,-8.08118 -0.10308,-3.06207 2.3479,-8.6752 -2.06267,-8.7592 -3.78306,-0.074 -0.3703,5.61113 -2.19778,8.08418 z"
     id="path61"
     inkscape:connector-curvature="0"
     style="clip-rule:evenodd;fill:#fafcfb;fill-rule:evenodd" /><path
     d="m 98.868528,220.28009 c -2.85531,0.049 -4.16537,-0.69302 -4.352521,-3.90409 -0.736596,-13.31131 10.866783,-25.51959 24.680963,-25.63959 14.13243,-0.131 25.35851,11.30526 25.05227,24.99457 -0.0901,4.0171 -1.75643,4.64711 -5.11915,4.55411 -6.58432,-0.16501 -13.18566,-0.047 -19.781,-0.047 -6.82752,0 -13.65505,-0.085 -20.480562,0.042 z m 34.715082,-9.83323 c -1.59529,-5.73913 -5.42739,-8.7422 -10.63961,-9.89022 -5.9368,-1.30603 -11.13201,0.41901 -15.10122,5.16011 -0.99981,1.19203 -2.73321,2.55906 -1.61731,4.1741 0.54445,0.79202 2.52104,0.78702 3.86113,0.79202 2.08468,0.02 4.17438,-0.25701 6.27307,-0.39901 3.04647,0.054 6.09493,0.113 9.1424,0.163 2.53605,0 5.08812,0 8.08154,0 z"
     id="path63"
     inkscape:connector-curvature="0"
     style="clip-rule:evenodd;fill:#838488;fill-rule:evenodd" /><path
     d="m 35.47024,220.31109 c -3.940188,0.156 -5.291281,-1.01402 -5.277269,-5.12612 0.03303,-13.75931 11.415234,-24.83657 25.579693,-24.44856 13.4729,0.37001 24.739014,12.38628 24.113508,25.47658 -0.147119,3.01607 -1.082876,4.1501 -4.155362,4.0851 -6.83553,-0.17101 -13.656047,-0.051 -20.481569,-0.051 -6.596337,0 -13.197677,-0.19701 -19.779001,0.064 z m 25.720808,-9.75322 c 2.426963,-0.18301 6.001855,1.55603 6.95963,-1.04103 1.043844,-2.81506 -2.344897,-4.69111 -4.428583,-6.45215 -6.954626,-5.83813 -21.077051,-2.52105 -22.600283,7.25717 3.47381,0.72702 6.950623,0.48801 10.425434,0.075 3.211598,0.05 6.421195,0.107 9.643802,0.16101 z"
     id="path65"
     inkscape:connector-curvature="0"
     style="clip-rule:evenodd;fill:#838488;fill-rule:evenodd" /><path
     d="m 162.8653,205.53675 c -0.0851,-9.37721 7.61015,-16.81239 17.22793,-16.64938 9.28251,0.158 16.39326,7.50717 16.25916,16.78938 -0.14112,9.31222 -7.34194,16.30738 -16.73554,16.27338 -9.35457,-0.036 -16.67249,-7.21317 -16.75155,-16.41338 z m 16.87064,7.18316 c 4.23143,-0.024 7.07773,-2.77106 7.07773,-7.19916 -0.015,-4.78111 -2.98141,-7.62517 -7.58814,-7.40417 -4.21341,0.203 -6.58833,3.20307 -6.95362,7.51417 0.64552,4.3541 3.23561,7.11617 7.46403,7.08916 z"
     id="path67"
     inkscape:connector-curvature="0"
     style="clip-rule:evenodd;fill:#838488;fill-rule:evenodd" /><path
     d="m 225.77619,14.48137 c 6.3061,-0.049 8.94123,1.710039 8.88919,8.372192 -0.22318,31.86873 -0.18815,63.74346 -0.012,95.612188 0.031,6.03614 -2.07368,8.3922 -8.27469,8.3742 -62.38747,-0.13901 -124.76794,-0.14901 -187.13839,0.022 -6.640372,0.013 -8.616971,-2.59906 -8.584945,-8.84421 0.183148,-31.634722 0.189153,-63.271447 0.006,-94.912173 -0.03903,-6.372146 2.145735,-8.684199 8.689029,-8.625197 31.194236,0.270006 62.383466,0.116002 93.573696,0.116002 30.94604,-0.001 61.91209,0.139004 92.85212,-0.115002 z M 46.872464,36.058864 c -5.245243,-0.056 -6.836531,1.250029 -6.767475,6.644153 0.310251,22.658519 0.290235,45.333038 0.01001,67.984563 -0.05905,5.31312 1.461182,6.74915 6.757467,6.73815 57.181254,-0.187 114.365514,-0.187 171.537764,0 5.29028,0.011 6.83253,-1.41103 6.75747,-6.73815 -0.27322,-22.89053 -0.2422,-45.794055 -0.006,-68.70058 0.046,-4.739108 -1.4912,-5.936136 -6.04689,-5.904135 -28.82532,0.178004 -57.64864,0.094 -86.46995,0.094 -28.59814,10e-4 -57.186258,0.134003 -85.772384,-0.118003 z M 217.36739,27.110659 c 1.66134,0 3.31768,0.013 4.96301,-0.054 1.21699,-0.051 2.469,-0.321007 2.32688,-1.896043 -0.10408,-1.095026 -1.09888,-1.424033 -2.08568,-1.449034 -1.64934,-0.056 -3.31468,-0.067 -4.95701,-0.067 -56.69987,-0.007 -113.38173,-0.024 -170.071583,0.069 -2.321879,0.011 -6.581325,-1.516034 -6.647378,1.556036 -0.07806,3.399078 4.175378,1.75004 6.413188,1.75404 28.578119,0.140003 57.161233,0.087 85.738353,0.087 28.11475,0.009 56.22149,0.009 84.32022,0 z"
     id="path69"
     inkscape:connector-curvature="0"
     style="clip-rule:evenodd;fill:#838488;fill-rule:evenodd" /><path
     d="m 125.50207,210.44686 c 2.53605,0 5.08812,0 8.08154,0 -1.59529,-5.73913 -5.42739,-8.7422 -10.63961,-9.89022 -5.9368,-1.30603 -11.13201,0.41901 -15.10122,5.16011 -0.99981,1.19203 -2.73321,2.55906 -1.61731,4.1741 0.54445,0.79202 2.52104,0.78702 3.86113,0.79202 2.08468,0.02 4.17438,-0.25701 6.27307,-0.40601 0.77263,-3.44808 0.44336,-8.21819 5.81471,-7.52617 4.41657,0.57001 3.74503,4.4411 3.32769,7.69617 z"
     id="path71"
     inkscape:connector-curvature="0"
     style="clip-rule:evenodd;fill:#fafcfb;fill-rule:evenodd" /><path
     d="m 125.50207,210.44686 c 0.41734,-3.25507 1.08888,-7.12616 -3.32769,-7.69617 -5.37035,-0.69102 -5.04108,4.07809 -5.81471,7.52617 3.04647,0.06 6.09493,0.12 9.1424,0.17 z"
     id="path73"
     inkscape:connector-curvature="0"
     style="clip-rule:evenodd;fill:#00aeef;fill-rule:evenodd" /><path
     d="m 61.191048,210.55787 c 2.426963,-0.18301 6.001855,1.55603 6.95963,-1.04103 1.043844,-2.81506 -2.344897,-4.69111 -4.428583,-6.45215 -6.954626,-5.83813 -21.077051,-2.52105 -22.600283,7.25717 3.47381,0.72702 6.950623,0.48801 10.425434,0.075 0.325263,-3.81109 0.60549,-7.90918 5.981839,-7.27417 4.587712,0.54302 4.19039,4.0791 3.661963,7.43518 z"
     id="path75"
     inkscape:connector-curvature="0"
     style="clip-rule:evenodd;fill:#fafcfb;fill-rule:evenodd" /><path
     d="m 61.191048,210.55787 c 0.528427,-3.35608 0.925749,-6.89216 -3.662964,-7.43618 -5.376349,-0.63501 -5.655575,3.46408 -5.981839,7.27417 3.212599,0.051 6.422196,0.108 9.644803,0.16201 z"
     id="path77"
     inkscape:connector-curvature="0"
     style="clip-rule:evenodd;fill:#00aeef;fill-rule:evenodd" /><path
     d="m 172.27191,205.62975 c 0.64652,4.3541 3.23561,7.11617 7.46403,7.09016 4.23143,-0.024 7.07773,-2.77106 7.07773,-7.19916 -0.015,-4.78111 -2.98141,-7.62517 -7.58814,-7.40417 -4.21341,0.203 -6.58833,3.20307 -6.95362,7.51317 z"
     id="path79"
     inkscape:connector-curvature="0"
     style="clip-rule:evenodd;fill:#fafcfb;fill-rule:evenodd" /><path
     d="m 219.1148,36.083865 c 4.55569,-0.031 6.09293,1.166027 6.04689,5.904135 -0.23619,22.905525 -0.26821,45.81005 0.006,68.70058 0.0751,5.32712 -1.46719,6.74915 -6.75747,6.73815 -57.17225,-0.187 -114.35751,-0.187 -171.537766,0 -5.296285,0.011 -6.816514,-1.42403 -6.757467,-6.73815 0.280227,-22.651525 0.300243,-45.326044 -0.01001,-67.984563 -0.06906,-5.394124 1.522232,-6.700154 6.767475,-6.644153 28.586126,0.251006 57.174248,0.118003 85.772388,0.118003 28.82231,0 57.64563,0.084 86.46995,-0.094 z m -116.26706,15.27635 c -3.2226,-0.018 -6.021864,-0.239006 -5.988838,4.553104 0.03903,4.961114 3.124528,4.313099 6.177998,4.313099 31.9008,0.007 63.81062,0 95.71943,0.042 3.25964,0 6.0569,0.209005 6.00886,-4.549104 -0.041,-4.888112 -3.07749,-4.3591 -6.20502,-4.3591 -16.067,0.027 -32.137,0.013 -48.217,0.013 -15.83281,0 -31.66462,0.018 -47.49543,-0.013 z m 95.99666,35.746819 c 3.3377,0.027 5.94581,0.061 5.96283,-4.627106 0.016,-4.235097 -1.68737,-5.117117 -5.49945,-5.093117 -21.04603,0.131003 -42.09606,0.131003 -63.12307,0 -4.07129,-0.024 -6.10394,0.983023 -6.07091,5.514127 0.034,5.042115 3.3427,4.164095 6.32312,4.174095 10.39541,0.021 20.80583,0.009 31.20524,0.009 10.39641,-0.008 20.80183,-0.062 31.20224,0.023 z M 70.511588,52.858249 c -9.809936,0.049 -17.122852,7.230166 -17.187905,16.886387 -0.07506,8.989206 8.270691,17.302397 17.25596,17.184394 9.573745,-0.116003 16.831616,-7.564173 16.86064,-17.282396 0.02802,-9.961228 -6.908589,-16.837386 -16.928695,-16.788385 z m 83.678692,10.232235 c -3.40376,-0.066 -4.51465,1.275029 -4.50164,4.583105 0,3.346076 0.58147,5.23312 4.60672,5.193119 15.30538,-0.171004 30.63078,-0.129003 45.94717,-0.013 3.43879,0.033 4.49864,-1.30903 4.49864,-4.581105 0,-3.328077 -0.55345,-5.329123 -4.59672,-5.21312 -7.76828,0.241006 -15.56459,0.069 -23.33788,0.069 -7.53709,0.012 -15.0822,0.117002 -22.61629,-0.038 z m -11.87461,9.763224 c 3.97522,0.147003 4.61373,-1.788041 4.60773,-5.162119 -0.006,-3.270075 -1.04585,-4.631106 -4.45561,-4.601105 -13.64103,0.114002 -27.28507,0.141003 -40.93211,-0.016 -3.946187,-0.04 -4.660765,1.779041 -4.657762,5.178119 0.008,3.296076 1.1129,4.665107 4.504642,4.589105 7.0557,-0.147003 14.11241,-0.049 21.17112,-0.049 6.58733,0 13.18067,-0.164004 19.76199,0.061 z m -21.94775,14.273327 c 3.90015,0.314007 5.38135,-1.048024 5.34232,-5.129118 -0.045,-3.965091 -1.89754,-4.665107 -5.22323,-4.584105 -6.32912,0.138003 -12.67025,0.185004 -18.98135,-0.011 -3.936183,-0.125003 -4.628743,1.814041 -4.620737,5.188119 0.01902,3.303075 1.127913,4.712108 4.510647,4.525103 3.26464,-0.188004 6.56231,-0.041 9.83996,-0.041 3.04646,0.01 6.10594,-0.189004 9.13239,0.052 z m 79.57137,13.032305 c 3.03645,0.12 4.81689,-0.59102 4.89796,-4.195103 0.0731,-3.778086 -1.43716,-4.899112 -5.01306,-4.778109 -6.56731,0.198004 -13.14963,0.138003 -19.72495,0.011 -3.01945,-0.051 -4.82891,0.508012 -4.87695,4.157095 -0.045,3.735086 1.40013,5.042117 4.99304,4.805117 3.27565,-0.196011 6.57332,-0.04 9.85898,-0.04 3.28666,0.009 6.58132,-0.094 9.86498,0.04 z"
     id="path81"
     inkscape:connector-curvature="0"
     style="clip-rule:evenodd;fill:#fafcfb;fill-rule:evenodd" /><path
     d="m 133.04817,27.110659 c 28.11375,0.009 56.22049,0.009 84.31922,0 1.66134,0 3.31768,0.013 4.96301,-0.054 1.21699,-0.051 2.469,-0.321007 2.32688,-1.896043 -0.10408,-1.095026 -1.09888,-1.424033 -2.08568,-1.449034 -1.64934,-0.056 -3.31468,-0.067 -4.95701,-0.067 -56.69987,-0.007 -113.38173,-0.024 -170.071583,0.069 -2.321879,0.011 -6.581325,-1.516034 -6.647378,1.556036 -0.07806,3.399078 4.175378,1.75004 6.413188,1.75404 28.57912,0.140003 57.162243,0.087 85.739353,0.087 z"
     id="path83"
     inkscape:connector-curvature="0"
     style="clip-rule:evenodd;fill:#fafcfb;fill-rule:evenodd" /><path
     d="m 150.34317,51.373215 c -15.83181,0 -31.66462,0.018 -47.49543,-0.013 -3.2226,-0.018 -6.021864,-0.239006 -5.988838,4.553104 0.03903,4.961114 3.124528,4.313099 6.177998,4.313099 31.9008,0.007 63.81062,0 95.71943,0.042 3.25964,0 6.0569,0.209005 6.00886,-4.549104 -0.041,-4.888112 -3.07749,-4.3591 -6.20502,-4.3591 -16.067,0.027 -32.138,0.013 -48.217,0.013 z"
     id="path85"
     inkscape:connector-curvature="0"
     style="clip-rule:evenodd;fill:#00aeef;fill-rule:evenodd" /><path
     d="m 167.64116,87.076033 c 10.39841,0 20.80283,-0.053 31.20324,0.031 3.3377,0.027 5.94581,0.061 5.96283,-4.627106 0.016,-4.235097 -1.68737,-5.117117 -5.49945,-5.093117 -21.04603,0.131003 -42.09606,0.131003 -63.12307,0 -4.07129,-0.024 -6.10394,0.983023 -6.07091,5.514127 0.034,5.042115 3.3427,4.164095 6.32312,4.174095 10.3944,0.021 20.80483,0.01 31.20424,0.001 z"
     id="path87"
     inkscape:connector-curvature="0"
     style="clip-rule:evenodd;fill:#00aeef;fill-rule:evenodd" /><path
     d="m 70.579643,86.92903 c -8.985269,0.118003 -17.331021,-8.195188 -17.25596,-17.184394 0.06405,-9.655221 7.377969,-16.836386 17.187905,-16.886387 10.020106,-0.049 16.956718,6.827157 16.928695,16.788385 -0.02902,9.717223 -7.286895,17.166393 -16.86064,17.282396 z m 7.711238,-17.421399 c 0.01601,-4.524104 -3.147546,-7.689176 -7.720245,-7.527173 -4.337509,0.158004 -7.613159,2.809065 -7.51508,7.709177 0.09808,4.78311 3.059475,7.101163 7.588139,7.609174 4.860932,-0.427009 7.624168,-3.402078 7.647186,-7.791178 z"
     id="path89"
     inkscape:connector-curvature="0"
     style="clip-rule:evenodd;fill:#00aeef;fill-rule:evenodd" /><path
     d="m 176.80657,63.133485 c -7.53709,0.007 -15.0822,0.112002 -22.61629,-0.042 -3.40376,-0.066 -4.51465,1.275029 -4.50164,4.583105 0,3.346077 0.58147,5.23312 4.60672,5.193119 15.30538,-0.171004 30.63078,-0.129003 45.94717,-0.013 3.43879,0.033 4.49864,-1.30903 4.49864,-4.581105 0,-3.328077 -0.55345,-5.329123 -4.59672,-5.21312 -7.76728,0.240006 -15.56359,0.068 -23.33788,0.073 z"
     id="path91"
     inkscape:connector-curvature="0"
     style="clip-rule:evenodd;fill:#00aeef;fill-rule:evenodd" /><path
     d="m 122.55368,72.792706 c 6.58733,0 13.18067,-0.165004 19.76199,0.061 3.97522,0.147003 4.61373,-1.788041 4.60773,-5.162119 -0.006,-3.270075 -1.04585,-4.631106 -4.45561,-4.601105 -13.64103,0.114002 -27.28507,0.141003 -40.93211,-0.016 -3.946187,-0.04 -4.660765,1.779041 -4.657762,5.178119 0.008,3.296076 1.1129,4.665107 4.504642,4.589105 7.0557,-0.146003 14.11141,-0.049 21.17112,-0.049 z"
     id="path93"
     inkscape:connector-curvature="0"
     style="clip-rule:evenodd;fill:#00aeef;fill-rule:evenodd" /><path
     d="m 111.23553,87.076033 c 3.04646,0.009 6.10594,-0.189004 9.13239,0.052 3.90015,0.314007 5.38135,-1.048024 5.34232,-5.129118 -0.045,-3.965091 -1.89754,-4.665107 -5.22323,-4.584105 -6.32912,0.138003 -12.67025,0.185004 -18.98135,-0.011 -3.936183,-0.125003 -4.628743,1.814041 -4.620737,5.188119 0.01902,3.303075 1.127913,4.712108 4.510647,4.525103 3.26464,-0.188004 6.56231,-0.041 9.83996,-0.041 z"
     id="path95"
     inkscape:connector-curvature="0"
     style="clip-rule:evenodd;fill:#00aeef;fill-rule:evenodd" /><path
     d="m 190.07431,100.11933 c 3.28666,0.009 6.58132,-0.094 9.86498,0.04 3.03645,0.12 4.81689,-0.59102 4.89796,-4.195103 0.0731,-3.778086 -1.43716,-4.899112 -5.01306,-4.778109 -6.56731,0.198004 -13.14963,0.138003 -19.72495,0.011 -3.01945,-0.051 -4.82891,0.508012 -4.87695,4.157095 -0.045,3.735086 1.40013,5.042117 4.99304,4.805117 3.27665,-0.196011 6.57432,-0.04 9.85898,-0.04 z"
     id="path97"
     inkscape:connector-curvature="0"
     style="clip-rule:evenodd;fill:#00aeef;fill-rule:evenodd" /><path
     d="m 70.643695,77.299809 c 4.860932,-0.428009 7.624168,-3.403078 7.647186,-7.792178 0.01601,-4.524104 -3.147546,-7.689176 -7.720245,-7.527173 -4.337509,0.158004 -7.613159,2.809065 -7.51508,7.709177 0.09808,4.78411 3.059475,7.102163 7.588139,7.610174 z"
     id="path99"
     inkscape:connector-curvature="0"
     style="clip-rule:evenodd;fill:#fafcfb;fill-rule:evenodd" /></svg>