<?xml version="1.0" encoding="UTF-8"?>
<svg style="background-color:#121212" version="1.1" viewBox="0 0 320 160" xmlns="http://www.w3.org/2000/svg">
  <style>/* jura-700 - latin */
  @font-face {
    font-family: 'Jura';
    font-style: normal;
    font-weight: 700;
    src: local('Jura Bold'), local('Jura-Bold'),
         url('../fonts/jura-v9-latin-700.woff2') format('woff2'), /* Chrome 26+, Opera 23+, Firefox 39+ */
         url('../fonts/jura-v9-latin-700.woff') format('woff'); /* Chrome 6+, Firefox 3.6+, IE 9+, Safari 5.1+ */
  }
  a.btn:hover .btn-rect
  {
    fill: #303030;
    fill-opacity: 1;
  }
  a.btn:hover
  {
    cursor: pointer;
  }</style>
  <text x="159.70122" y="59.219994" fill="#ffffff" font-family="Jura" font-size="57.844px" font-weight="bold" letter-spacing="0px" stroke-width="2.3928" text-align="center" text-anchor="middle" word-spacing="0px" style="font-feature-settings:normal;font-variant-caps:normal;font-variant-ligatures:normal;font-variant-numeric:normal;line-height:0" xml:space="preserve"><tspan x="159.70122" y="59.219994" font-family="Jura" font-size="57.844px" font-weight="bold" stroke-width="2.3928" text-align="center" text-anchor="middle" style="font-feature-settings:normal;font-variant-caps:normal;font-variant-ligatures:normal;font-variant-numeric:normal">COMPSOC</tspan></text>
  <line x1="20" x2="300" y1="69.03" y2="69.03" clip-rule="evenodd" fill="#95c5cd" fill-rule="evenodd" stroke="#95c5cd" stroke-miterlimit="10" stroke-width="3.7306"/>
  <text transform="scale(.98451 1.0157)" x="162.51443" y="86.351517" fill="#ffffff" font-family="Jura" font-size="12.88px" font-weight="bold" stroke-width=".59189" text-align="center" text-anchor="middle" style="font-feature-settings:normal;font-variant-caps:normal;font-variant-ligatures:normal;font-variant-numeric:normal;line-height:0%">{DURHAM UNIVERSITY COMPUTING SOCIETY}</text>
  <a id="facebook-btn" class="btn" href="https://www.facebook.com/DurhamCompSoc" target="_parent">
    <rect x="25" y="100" width="50" height="50" fill-opacity="0" stroke-width=".87879"/>
    <rect class="btn-rect" x="35.5" y="110.5" width="29" height="29" rx="5" ry="5" fill="none" stroke="#95c5cd"/>
    <path class="btn-icon" d="m47.732 135.5v-9.3926h-3.1459v-3.7324h3.1459v-2.9408c0-3.1951 1.9523-4.9342 4.8029-4.9342 1.3658 0 2.5389 0.10254 2.8793 0.14766v3.3387h-1.977c-1.5504 0-1.8498 0.7383-1.8498 1.817v2.5717h3.4986l-0.47989 3.7324h-3.0188v9.3926" fill="#c6e3e9" stroke-width=".041016"/>
  </a>
  <a id="slack-btn" class="btn" href="https://ducompsoc.slack.com" target="_parent">
    <rect x="80.035" y="99.997" width="50" height="50" fill-opacity="0" stroke-width=".87879"/>
    <rect class="btn-rect" x="90.531" y="110.5" width="29" height="29" rx="5" ry="5" fill="none" stroke="#95c5cd"/>
    <path class="btn-icon" d="m115.45 125.67c-0.29062-0.89077-1.2609-1.3643-2.1562-1.0736l-2.1281 0.70792-1.4203-4.2194 2.1281-0.70792c0.8953-0.29068 1.364-1.2564 1.0781-2.1519-0.29061-0.89076-1.2609-1.3643-2.1562-1.0736l-2.1281 0.70792-0.73593-2.2035c-0.29062-0.89078-1.2609-1.3643-2.1562-1.0736-0.8953 0.29068-1.364 1.2565-1.0781 2.1519l0.73591 2.2035-4.378 1.4628-0.73592-2.2035c-0.29063-0.89078-1.2609-1.3643-2.1562-1.0736s-1.364 1.2565-1.0781 2.1519l0.73592 2.2035-2.1234 0.70324c-0.8953 0.29068-1.364 1.2565-1.0781 2.1519 0.23437 0.67981 0.8953 1.1252 1.575 1.1533 0.31875 0.0468 0.56249-0.0751 2.7046-0.78763l1.4203 4.2194-2.1281 0.70792c-0.89061 0.29067-1.364 1.2612-1.0781 2.1519 0.23437 0.67979 0.8953 1.1252 1.575 1.1533 0.31874 0.0468 0.56249-0.0751 2.7046-0.78764l0.73593 2.2035c0.27656 0.79231 1.1578 1.3596 2.1562 1.0736 0.8953-0.29068 1.364-1.2565 1.0781-2.1519l-0.73593-2.2035 4.3874-1.4674 0.73592 2.2035c0.27657 0.79231 1.1578 1.3596 2.1562 1.0736 0.8953-0.29067 1.364-1.2564 1.0781-2.1519l-0.73594-2.2035 2.1281-0.70792c0.89061-0.28131 1.364-1.2518 1.0734-2.1425zm-11.911 2.2128-1.4203-4.2288 4.3828-1.4674 1.4203 4.2288z" fill="#c6e3e9" stroke-width=".046878"/>
  </a>
  <a id="calendar-btn" class="btn" href="/events" target="_parent">
    <rect x="135.06" y="99.997" width="50" height="50" fill-opacity="0" stroke-width=".87879"/>
    <rect class="btn-rect" x="145.56" y="110.5" width="29" height="29" rx="5" ry="5" fill="none" stroke="#95c5cd"/>
    <path class="btn-icon" d="m168.76 121.06h-17.391c-0.2707 0-0.49213-0.22152-0.49213-0.4922v-1.4765c0-1.0869 0.8818-1.9688 1.9688-1.9688h1.9687v-2.1328c0-0.27061 0.22148-0.49223 0.49219-0.49223h1.6406c0.2707 0 0.49217 0.22152 0.49217 0.49223v2.1328h5.25v-2.1328c0-0.27061 0.2215-0.49223 0.49221-0.49223h1.6406c0.27069 0 0.49216 0.22152 0.49216 0.49223v2.1328h1.9688c1.0869 0 1.9687 0.88183 1.9687 1.9688v1.4765c0 0.27059-0.22148 0.4922-0.49216 0.4922zm-17.391 1.3125h17.391c0.2707 0 0.49216 0.2215 0.49216 0.4922v10.664c0 1.0869-0.88184 1.9687-1.9687 1.9687h-14.437c-1.087 0-1.9688-0.88188-1.9688-1.9687v-10.664c0-0.27092 0.22143-0.4922 0.49213-0.4922zm4.7578 8.3672c0-0.27093-0.22148-0.49222-0.49211-0.49222h-1.6407c-0.27071 0-0.4922 0.22153-0.4922 0.49222v1.6406c0 0.27059 0.22148 0.49217 0.4922 0.49217h1.6407c0.27063 0 0.49211-0.22151 0.49211-0.49217zm0-5.25c0-0.27091-0.22148-0.49218-0.49211-0.49218h-1.6407c-0.27071 0-0.4922 0.22151-0.4922 0.49218v1.6406c0 0.27092 0.22148 0.49221 0.4922 0.49221h1.6407c0.27063 0 0.49211-0.22152 0.49211-0.49221zm5.25 5.25c0-0.27093-0.22149-0.49222-0.49217-0.49222h-1.6406c-0.2707 0-0.49218 0.22153-0.49218 0.49222v1.6406c0 0.27059 0.22147 0.49217 0.49218 0.49217h1.6406c0.2707 0 0.49217-0.22151 0.49217-0.49217zm0-5.25c0-0.27091-0.22149-0.49218-0.49217-0.49218h-1.6406c-0.2707 0-0.49218 0.22151-0.49218 0.49218v1.6406c0 0.27092 0.22147 0.49221 0.49218 0.49221h1.6406c0.2707 0 0.49217-0.22152 0.49217-0.49221zm5.25 5.25c0-0.27093-0.22149-0.49222-0.4922-0.49222h-1.6406c-0.2707 0-0.49216 0.22153-0.49216 0.49222v1.6406c0 0.27059 0.22148 0.49217 0.49216 0.49217h1.6406c0.2707 0 0.4922-0.22151 0.4922-0.49217zm0-5.25c0-0.27091-0.22149-0.49218-0.4922-0.49218h-1.6406c-0.2707 0-0.49216 0.22151-0.49216 0.49218v1.6406c0 0.27092 0.22148 0.49221 0.49216 0.49221h1.6406c0.2707 0 0.4922-0.22152 0.4922-0.49221z" fill="#c6e3e9" stroke-width=".041016"/>
  </a>
  <a id="github-btn" class="btn" href="https://github.com/ducompsoc" target="_parent">
    <rect x="190.58" y="100" width="50" height="50" fill-opacity="0" stroke-width=".87879"/>
    <rect class="btn-rect" x="201.07" y="110.5" width="29" height="29" rx="5" ry="5" fill="none" stroke="#95c5cd"/>
    <path class="btn-icon" d="m212.1 131.25c0 0.0847-0.0974 0.15242-0.22016 0.15242-0.13972 0.0127-0.23709-0.055-0.23709-0.15242 0-0.0847 0.0974-0.15242 0.22015-0.15242 0.12702-0.0127 0.2371 0.055 0.2371 0.15242zm-1.3167-0.19053c-0.0297 0.0847 0.055 0.18207 0.18207 0.20747 0.11008 0.0424 0.23709 0 0.2625-0.0847 0.0254-0.0847-0.055-0.18205-0.18207-0.22017-0.11008-0.0297-0.23286 0.0127-0.2625 0.0974zm1.8714-0.072c-0.12277 0.0297-0.20745 0.11008-0.19476 0.20746 0.0127 0.0847 0.12278 0.13972 0.2498 0.11007 0.12279-0.0297 0.20746-0.11007 0.19475-0.19475-0.0127-0.0804-0.127-0.1355-0.24979-0.12278zm2.7859-16.224c-5.8724 0-10.365 4.4583-10.365 10.331 0 4.6954 2.9552 8.7133 7.1764 10.127 0.54194 0.0974 0.73246-0.23709 0.73246-0.5123 0-0.2625-0.0127-1.7105-0.0127-2.5996 0 0-2.9637 0.63509-3.5861-1.2617 0 0-0.48266-1.232-1.177-1.5496 0 0-0.96957-0.66471 0.0677-0.65201 0 0 1.0542 0.0847 1.6343 1.0923 0.92722 1.6343 2.481 1.1643 3.0865 0.88489 0.0974-0.67744 0.37258-1.1474 0.67741-1.4268-2.3667-0.2625-4.7546-0.60544-4.7546-4.6784 0-1.1643 0.32178-1.7486 0.99921-2.4938-0.11009-0.27521-0.46996-1.4099 0.11007-2.8748 0.88488-0.27521 2.9214 1.1431 2.9214 1.1431 0.84678-0.23709 1.7571-0.35988 2.6589-0.35988s1.8121 0.12279 2.6589 0.35988c0 0 2.0365-1.4226 2.9214-1.1431 0.58004 1.4691 0.22016 2.5996 0.11008 2.8748 0.67742 0.74939 1.0923 1.3337 1.0923 2.4938 0 4.0857-2.4937 4.4117-4.8605 4.6784 0.3895 0.33449 0.71975 0.96955 0.71975 1.9645 0 1.4268-0.0127 3.1924-0.0127 3.5395 0 0.27521 0.19475 0.60968 0.73245 0.5123 4.2339-1.4056 7.1044-5.4236 7.1044-10.119 0-5.8724-4.7631-10.331-10.636-10.331zm-6.2492 14.603c-0.055 0.0423-0.0424 0.13972 0.0297 0.22015 0.0677 0.0677 0.16512 0.0974 0.22017 0.0424 0.055-0.0424 0.0424-0.13973-0.0297-0.22018-0.0677-0.0677-0.16511-0.0974-0.22015-0.0424zm-0.45728-0.34295c-0.0297 0.055 0.0127 0.12279 0.0974 0.16513 0.0677 0.0424 0.1524 0.0297 0.18206-0.0297 0.0297-0.055-0.0127-0.12278-0.0974-0.16513-0.0847-0.0254-0.15242-0.0127-0.18207 0.0297zm1.3718 1.5073c-0.0677 0.055-0.0424 0.18204 0.055 0.2625 0.0974 0.0974 0.22015 0.11008 0.27519 0.0424 0.055-0.055 0.0297-0.18206-0.055-0.2625-0.0932-0.0974-0.22016-0.11009-0.27521-0.0424zm-0.48266-0.62239c-0.0677 0.0424-0.0677 0.15241 0 0.24979 0.0677 0.0974 0.18207 0.13974 0.2371 0.0974 0.0677-0.055 0.0677-0.16512 0-0.2625-0.0593-0.0974-0.16935-0.13971-0.2371-0.0847z" fill="#c6e3e9" stroke-width=".042339"/>
  </a>
  <a id="email-btn" class="btn" href="/contact" target="_parent">
    <rect x="245" y="100" width="50" height="50" fill-opacity="0" stroke-width=".87879"/>
    <rect class="btn-rect" x="255.5" y="110.5" width="29" height="29" rx="5" ry="5" fill="none" stroke="#95c5cd"/>
    <path class="btn-icon" d="m280.1 122.33c0.15996-0.12715 0.39785-9e-3 0.39785 0.19277v8.3877c0 1.0869-0.88183 1.9688-1.9688 1.9688h-17.062c-1.0869 0-1.9688-0.88183-1.9688-1.9688v-8.3836c0-0.20508 0.23379-0.31992 0.39785-0.19277 0.91875 0.71366 2.1369 1.6201 6.3205 4.6594 0.86542 0.63166 2.3256 1.9606 3.7816 1.9524 1.4643 0.0123 2.9531-1.3453 3.7858-1.9524 4.1836-3.0392 5.3976-3.9498 6.3164-4.6635zm-10.102 5.2992c0.95156 0.0164 2.3215-1.1977 3.0105-1.698 5.4428-3.9498 5.857-4.2943 7.1121-5.2787 0.23789-0.18456 0.37735-0.47168 0.37735-0.7752v-0.77929c0-1.0869-0.88183-1.9687-1.9688-1.9687h-17.062c-1.0869 0-1.9688 0.88182-1.9688 1.9687v0.77929c0 0.30352 0.13946 0.58654 0.37735 0.7752 1.2551 0.98028 1.6693 1.3289 7.1121 5.2787 0.68905 0.50038 2.059 1.7144 3.0105 1.698z" fill="#c6e3e9" stroke-width=".041016"/>
  </a>
</svg>
