<svg width="57" height="32" viewBox="0 0 57 32" fill="none" xmlns="http://www.w3.org/2000/svg">
<path d="M6.41708 0C2.77068 0 0 2.76154 0 6.30588C0 10.1909 2.77068 11.6912 5.84284 12.6118C8.74991 13.5323 10.1281 14.5543 10.1281 16.5692C10.1281 18.6132 8.60635 20.0483 6.61806 20.0483C4.62259 20.0483 2.89989 18.6132 2.89989 16.4025C2.89989 15.1776 3.47412 14.8659 3.47412 14.1846C3.47412 13.4018 2.93578 12.8219 2.05289 12.8219C1.04798 12.8219 0 14.3586 0 16.5402C0 20.0556 3.00756 22.6432 6.61806 22.6432C10.2645 22.6432 13.0351 19.8816 13.0351 16.3373C13.0351 12.4813 10.2645 10.9519 7.16358 10.0314C4.29241 9.14715 2.90706 8.08892 2.90706 6.07394C2.90706 4.0662 4.3929 2.63107 6.38119 2.63107C8.44125 2.63107 10.0994 4.0952 10.1281 6.11018C10.164 7.03069 10.8028 7.5743 11.5493 7.5743C12.3245 7.5743 13.0351 7.03069 12.9992 6.0377C12.9346 2.52235 9.99887 0 6.41708 0ZM21.0744 22.6069C22.6966 22.6069 23.9456 22.0633 23.9456 20.9689C23.9456 20.1498 23.2709 19.6062 22.6249 19.6062C22.1511 19.6062 21.8138 19.8092 21.0385 19.8092C18.9426 19.8092 17.2917 18.0044 17.2917 15.8879C17.2917 13.6047 18.9785 11.7927 21.1103 11.7927C23.5077 11.7927 25.0295 13.6337 25.0295 16.2938V21.1718C25.0295 22.0271 25.7042 22.6069 26.5153 22.6069C27.2905 22.6069 27.9652 22.0271 27.9652 21.1718V16.1923C27.9652 12.1044 25.1658 9.10366 21.1749 9.10366C17.4567 9.10366 14.3846 12.0029 14.3846 15.8879C14.3846 19.6424 17.428 22.6069 21.0744 22.6069ZM35.9328 31.7468C39.5792 31.7468 42.3498 28.9853 42.3498 25.441C42.3498 21.556 39.5791 20.0556 36.4783 19.1351C33.6071 18.2146 32.2218 17.1926 32.2218 15.1776C32.2218 13.1626 33.7435 11.6985 35.6959 11.6985C37.6914 11.6985 39.4428 13.1336 39.4428 15.3443C39.4428 16.5765 38.8685 16.8809 38.8685 17.5622C38.8685 18.345 39.4069 18.9249 40.2539 18.9249C41.3019 18.9249 42.3498 17.3883 42.3498 15.2066C42.3498 11.6912 39.3136 9.10366 35.6959 9.10366C32.0495 9.10366 29.3147 11.8652 29.3147 15.4095C29.3147 19.2655 32.0495 20.7949 35.1575 21.7154C38.0646 22.5997 39.4428 23.6579 39.4428 25.6729C39.4428 27.7169 37.921 29.1158 35.9686 29.1158C33.8727 29.1158 32.2505 27.6879 32.2218 25.6367C32.1859 24.7161 31.5112 24.2015 30.8005 24.2015C30.0253 24.2015 29.3147 24.7161 29.3506 25.7019C29.3793 29.2607 32.3151 31.7468 35.9328 31.7468ZM50.5901 22.6069C52.4779 22.6069 53.9709 22.0633 55.0117 21.411C56.0238 20.7659 56.4258 20.215 56.4258 19.6062C56.4258 18.9611 55.952 18.3813 55.0763 18.3813C54.0283 18.3813 53.1885 19.9469 50.6188 19.9469C48.3578 19.9469 46.5633 18.1421 46.5633 15.8589C46.5633 13.6047 48.286 11.7637 50.4465 11.7637C52.7794 11.7637 54.0283 13.3003 54.0283 14.2861C54.0283 14.5615 53.8274 14.6992 53.5546 14.6992H50.7193C49.9441 14.6992 49.3699 15.2138 49.3699 15.8952C49.3699 16.6417 49.9441 17.1926 50.7193 17.1926H54.6026C56.0884 17.1926 57 16.4098 57 15.0761C57 11.7347 54.1647 9.11091 50.4107 9.11091C46.6925 9.11091 43.6921 12.1116 43.6921 15.8589C43.6921 19.6062 46.8073 22.6069 50.5901 22.6069Z" fill="#00D639"/>
</svg>
