<svg xmlns="http://www.w3.org/2000/svg" width="137" height="50" viewBox="0 0 137 50">
  <g fill="#FFF" fill-rule="evenodd">
    <path fill-rule="nonzero" d="M75.9434745 20.3013699C75.6583301 20.0616438 75.6583301 20.0616438 75.6583301 19.7328767L75.6583301 13.7123288C75.6583301 9.54109589 74.110403 7.45890411 70.9127115 7.45890411 68.9370678 7.45890411 67.4841889 8.31506849 66.3096653 10.1164384L66.3096653.349315068 60.5796194 1.34246575 60.5796194 1.76712329 61.9917634 3.14383562C62.2022272 3.3630137 62.2293838 3.43150685 62.2293838 3.76027397L62.2293838 19.6849315C62.2293838 20.0136986 62.2225947 20.1164384 61.9917634 20.3013699L60.3487882 21.5821918 60.3487882 22.0068493 68.1902609 22.0068493 68.1902609 21.5821918 66.5948097 20.3013699C66.3571893 20.109589 66.3096653 20.0136986 66.3096653 19.6849315L66.3096653 11.8630137C67.0157373 10.5342466 68.0001646 9.82191781 69.1746882 9.82191781 70.7701393 9.82191781 71.5712595 11.1027397 71.5712595 13.6643836L71.5712595 19.6849315C71.5712595 20.0136986 71.5237354 20.109589 71.2929042 20.3013699L69.697453 21.5821918 69.697453 22.0068493 77.5389257 22.0068493 77.5389257 21.5821918 75.9434745 20.3013699zM54.1027667 22.3424658C56.8727415 22.3424658 58.9909575 20.869863 59.8803366 18.3150685L59.4594091 18.0753425C58.6107648 19.1643836 57.4362412 19.7808219 56.0784105 19.7808219 53.2133876 19.7808219 51.6179364 17.7876712 51.6179364 14.0958904 51.6179364 10.9178082 52.9825563 8.78767123 55.0464591 8.78767123 55.4198626 8.78767123 55.6371155 8.8630137 55.8475792 9.21232877L57.911482 12.6712329 58.3324095 12.6712329 59.7445535 8.45205479C58.3799336 7.83561644 56.5943862 7.45890411 55.0464591 7.45890411 50.3483647 7.45890411 47.3407695 10.4931507 47.3407695 15.1849315 47.3407695 19.5410959 49.968172 22.3424658 54.1027667 22.3424658zM37.9921047 13.7123288C34.516058 13.7123288 32.1194867 15.609589 32.1194867 18.4520548 32.1194867 20.7739726 33.7624619 22.3356164 36.1590332 22.3356164 38.0396288 22.3356164 39.8251763 21.3424658 40.6195072 19.869863 40.7620795 21.3835616 41.7465068 22.3356164 43.1586508 22.3356164 44.9441982 22.3356164 46.3088181 21.390411 46.6822216 19.8219178L46.3563422 19.5342466C46.1187218 19.9109589 45.8403665 20.1027397 45.4669631 20.1027397 44.9034633 20.1027397 44.5775839 19.5342466 44.5775839 18.5410959L44.5775839 12.6712329C44.5775839 8.97260274 42.6969883 7.45890411 38.1414661 7.45890411 36.4509668 7.45890411 34.7129434 7.78767123 32.9749201 8.45205479L34.387064 12.6712329 34.8079916 12.6712329 36.8718943 9.21232877C37.1163039 8.80821918 37.2928219 8.73972603 37.9038457 8.73972603 39.5468209 8.73972603 40.4905133 9.82876712 40.4905133 11.7739726L40.4905133 14.0479452C40.0627966 13.9041096 39.3092006 13.7123288 37.9921047 13.7123288zM40.4837242 18.5C39.8727003 19.4931507 38.888273 20.109589 37.9445806 20.109589 36.722533 20.109589 35.9689369 19.2123288 35.9689369 17.8356164 35.9689369 16.1780822 37.2385086 15.0410959 39.1191043 15.0410959 39.8727003 15.0410959 40.1985797 15.1369863 40.4837242 15.2328767L40.4837242 18.5 40.4837242 18.5zM63.2138111 47.5068493C62.1343357 47.5068493 61.4757878 46.7465753 61.4757878 45.4657534L61.4757878 36.890411 65.325238 36.890411 65.325238 35.3287671 61.4757878 35.3287671 61.4757878 30.260274 61.0548602 30.260274 57.5788135 34.8561644C57.2529341 35.2808219 57.1578859 35.3287671 56.6894343 35.3287671L55.4673866 35.3287671 55.4673866 36.890411 57.3955063 36.890411 57.3955063 45.7534247C57.3955063 48.4109589 58.7601262 49.8767123 61.2924806 49.8767123 63.5940037 49.8767123 65.1894549 48.6438356 65.6103824 46.6506849L65.1894549 46.4589041C64.7685273 47.130137 64.0624554 47.5068493 63.2138111 47.5068493zM23.9046106 7.45890411C19.6749677 7.45890411 17.0000411 10.3972603 17.0000411 15.0410959 17.0000411 19.5890411 19.6274437 22.3424658 23.9521346 22.3424658 27.1430369 22.3424658 29.2612529 20.869863 30.1981561 18.0273973L29.8722768 17.8356164C28.7928013 19.0684932 27.2856092 19.7328767 25.5543749 19.7328767 22.9269724 19.7328767 21.3722562 17.9794521 21.229684 14.8972603L30.1981561 14.8972603 30.1981561 14C30.1981561 9.78082192 27.9441571 7.45890411 23.9046106 7.45890411zM21.2228948 13.6164384C21.317943 10.4863014 22.2073221 8.82876712 23.8095624 8.82876712 25.4050136 8.82876712 26.1586096 10.3424658 26.1586096 13.6164384L21.2228948 13.6164384zM51.1902197 41.1575342L48.7461244 40.3493151C47.1506732 39.8287671 46.3970771 39.1643836 46.3970771 38.2191781 46.3970771 36.9863014 47.4290285 36.1780822 48.9837447 36.1780822 49.832389 36.1780822 50.0496419 36.2191781 50.2533165 36.5547945L52.2289603 39.7808219 52.6498878 39.7808219 53.9669836 35.7534247C52.3715325 35.2328767 50.585985 34.9452055 48.8954857 34.9452055 45.3243908 34.9452055 42.9753436 36.7465753 42.9753436 39.4931507 42.9753436 41.4383562 44.2449154 43.0479452 46.4038663 43.760274L48.6578654 44.5205479C50.4909369 45.1369863 51.0069126 45.5616438 51.0069126 46.4657534 51.0069126 47.7945205 49.7848649 48.6917808 48.0468415 48.6917808 46.8723179 48.6917808 46.4989144 48.5479452 46.21377 48.0273973L44.4282225 44.760274 44.007295 44.760274 42.595151 48.9315068C44.095554 49.5 46.0711978 49.8767123 47.9042693 49.8767123 51.9913399 49.8767123 54.4829593 48.0273973 54.4829593 44.9931507 54.4829593 43.1438356 53.3966947 41.869863 51.1902197 41.1575342zM7.22365965 3L7.22365965 19.2123288C7.22365965 19.5410959 7.2168705 19.5821918 6.98603927 19.7808219L4.82708836 21.5342466 4.82708836 22.0068493 14.2708013 22.0068493 14.2708013 21.5342466 12.1118504 19.7328767C11.8945975 19.5410959 11.87423 19.4931507 11.87423 19.2123288L11.87423 3 14.1282291 3 18.0252034 7.17123288 18.493655 7.17123288 18.493655 1.67123288.597445535 1.67123288.597445535 7.17123288 1.06589715 7.17123288 4.96287144 3C4.96287144 3 7.22365965 3 7.22365965 3zM27.2856092 30.5410959C27.2856092 29.2123288 26.2536578 28.1712329 24.9365619 28.1712329 23.6669902 28.1712329 22.5875147 29.2123288 22.5875147 30.5410959 22.5875147 31.869863 23.6194661 32.9589041 24.9365619 32.9589041 26.2536578 32.9589041 27.2856092 31.869863 27.2856092 30.5410959zM36.0232501 38.0273973L36.0232501 35.3287671 30.3882525 35.3287671 30.3882525 35.7054795 32.1262758 37.5068493C32.2552698 37.6506849 32.2688481 37.6986301 32.2688481 38.1232877L32.2688481 47.2260274C32.2688481 47.630137 32.2892155 47.6438356 32.0312277 47.8424658L30.3882525 49.1232877 30.3882525 49.5479452 38.8407489 49.5479452 38.8407489 49.1232877 36.681798 47.6506849C36.3966536 47.4589041 36.3559187 47.4109589 36.3559187 46.9863014L36.3559187 40.0684932C36.3559187 38.739726 37.2928219 37.6027397 38.3722973 37.6027397 38.5623936 37.6027397 38.6099177 37.6506849 38.6981767 37.7945205L40.1510556 40.2123288 40.5719832 40.2123288 42.1199102 35.5684932C41.6039345 35.1917808 40.7077662 34.9520548 39.8183871 34.9520548 37.9921047 34.9452055 36.722533 35.9931507 36.0232501 38.0273973zM27.1430369 47.2260274L27.1430369 35.3287671 21.1753707 35.3287671 21.1278467 35.7054795 22.86587 37.5068493C23.0288097 37.6917808 23.0559663 37.8356164 23.0559663 38.1232877L23.0559663 47.2260274C23.0559663 47.5547945 23.0695446 47.6232877 22.818346 47.8424658L21.1753707 49.1232877 21.1753707 49.5479452 29.0168434 49.5479452 29.0168434 49.1232877 27.4213922 47.8424658C27.1430369 47.6027397 27.1430369 47.6027397 27.1430369 47.2260274zM4.64378121 29.6849315L6.99282842 31.5821918C7.23044881 31.7739726 7.23044881 31.869863 7.23044881 32.1986301L7.23044881 46.7465753C7.23044881 47.0958904 7.2168705 47.1164384 6.99282842 47.3150685L4.83387751 49.0684932 4.83387751 49.5410959 15.1669696 49.5410959 15.1669696 49.0684932 12.2544226 47.2671233C11.9013866 47.0479452 11.8810192 46.9726027 11.8810192 46.5547945L11.8810192 40.2534247 14.0399701 40.2534247 16.7624208 43.1438356 17.2308724 43.1438356 17.2308724 36.0410959 16.7624208 36.0410959 14.0399701 38.9315068 11.8810192 38.9315068 11.8810192 30.5410959 15.6829453 30.5410959 19.3015643 34.3356164 19.7700159 34.3356164 19.7700159 29.2191781 4.64378121 29.2191781 4.64378121 29.6849315 4.64378121 29.6849315z" transform="translate(58.925)"/>
    <polygon fill-rule="nonzero" points="44.35 16.176 45.667 16.176 45.667 2.941 32.409 2.941 32.409 4.255"/>
    <polygon fill-rule="nonzero" points="41.324 33.824 42.72 33.824 42.72 16.176 41.324 16.176 32.409 25.021"/>
    <polygon fill-rule="nonzero" points="0 16.176 1.328 16.176 13.258 4.255 13.258 2.941 0 2.941"/>
    <polygon fill-rule="nonzero" points="8.839 50 35.355 50 35.355 48.694 28.705 42.169 28.705 2.941 15.488 2.941 15.488 42.169 8.839 48.694"/>
  </g>
</svg>