<?xml version="1.0" encoding="UTF-8" standalone="no"?>
<svg
   xmlns:dc="http://purl.org/dc/elements/1.1/"
   xmlns:cc="http://creativecommons.org/ns#"
   xmlns:rdf="http://www.w3.org/1999/02/22-rdf-syntax-ns#"
   xmlns:svg="http://www.w3.org/2000/svg"
   xmlns="http://www.w3.org/2000/svg"
   height="1434.2"
   width="2328.2"
   xml:space="preserve"
   viewBox="0 0 2328.2 1434.2"
   y="0px"
   x="0px"
   id="Layer_1"
   version="1.1"><metadata
     id="metadata179"><rdf:RDF><cc:Work
         rdf:about=""><dc:format>image/svg+xml</dc:format><dc:type
           rdf:resource="http://purl.org/dc/dcmitype/StillImage" /><dc:title></dc:title></cc:Work></rdf:RDF></metadata><defs
     id="defs177" /><style
     id="style2"
     type="text/css">
	.st0{fill:#FEFEFE;}
	.st1{fill:#01016C;}
	.st2{fill:#015B8C;}
</style><g
     transform="translate(-0.9,-0.9)"
     id="g172"><path
       style="fill:#01016c"
       id="path6"
       d="m 566,1051.3 c 0,3 0,4.8 0,6.5 0,90.2 0,180.3 0.1,270.5 0,4.4 -0.9,5.9 -5.7,5.8 -34.5,-0.2 -69,-0.2 -103.5,0 -4.6,0 -5.7,-1.3 -5.7,-5.8 0.1,-252.3 0,-504.6 0.2,-756.9 0,-24.8 11.7,-43.7 34.8,-53.7 23.1,-10 44.7,-5.7 63.2,11.2 10.1,9.3 15.9,21.3 17.2,35.2 0.2,1.8 0.5,3.5 0.8,5.9 5.7,-5.3 11,-10.2 16.3,-15 39.9,-36.2 85.9,-60.4 139,-70.8 20.3,-4 40.7,-6.1 61.3,-5.7 74.1,1.3 142.1,21.6 201.6,66.6 55.5,42 92.6,97.1 113,163.6 12.5,40.6 17.2,82.3 14.8,124.6 -2.9,50.8 -16.3,98.8 -40.8,143.5 -19,34.7 -43.7,64.7 -73.1,91 -21.3,19 -44.6,35 -70.4,47.3 -25.8,12.2 -52.8,20.4 -81,24.8 -22.1,3.5 -44.2,5.2 -66.5,4.8 -67.2,-1.3 -128,-21.2 -181.2,-62.9 -11.6,-9.3 -22.7,-19.4 -34.4,-30.5 z m 71,-72.8 0.1,0.4 0.4,0.1 c 0.7,0.5 1.4,0.9 2,1.4 37,32.1 79.6,50.4 128.8,53.1 5.9,0.9 11.7,0.8 17.6,0 37.1,-1.8 71.6,-12.4 103.5,-31.3 11.8,-7 22.5,-15.6 33.2,-24.3 l 0.4,-0.1 c 0,0 0.1,-0.4 0.1,-0.4 0.5,-0.5 1.1,-1 1.6,-1.5 l 0.3,-0.1 0.1,-0.3 c 0.1,-0.3 0.3,-0.5 0.6,-0.5 0.3,0 0.4,-0.1 0.4,-0.4 0,-0.3 0.2,-0.5 0.6,-0.6 0.3,0 0.4,-0.1 0.4,-0.4 0,-0.3 0.2,-0.5 0.6,-0.6 0.3,0 0.4,-0.1 0.4,-0.4 0,-0.3 0.2,-0.5 0.6,-0.6 0.3,0 0.4,-0.1 0.4,-0.4 0,-0.3 0.2,-0.5 0.6,-0.6 0.3,0 0.4,-0.1 0.4,-0.4 0,-0.3 0.2,-0.5 0.6,-0.6 0.3,0 0.4,-0.1 0.4,-0.4 0,-0.3 0.2,-0.5 0.6,-0.6 0.3,0 0.4,-0.1 0.4,-0.4 0,-0.3 0.2,-0.5 0.6,-0.6 0.3,0 0.4,-0.1 0.4,-0.4 0,-0.3 0.2,-0.5 0.6,-0.6 0.3,0 0.4,-0.1 0.4,-0.4 0.1,-0.3 0.3,-0.5 0.6,-0.6 0.3,0 0.4,-0.1 0.4,-0.4 0.1,-0.4 0.3,-0.6 0.6,-0.6 0.3,0 0.4,-0.1 0.4,-0.4 0.1,-0.4 0.3,-0.6 0.6,-0.6 0.3,0 0.4,-0.1 0.4,-0.4 0,-0.3 0.2,-0.6 0.5,-0.7 l 0.4,-0.1 0.1,-0.4 c 0,-0.3 0.2,-0.5 0.5,-0.5 l 0.4,-0.1 0.1,-0.4 c 10.1,-12.1 19.6,-24.6 27.4,-38.3 24.6,-43.2 32.2,-89.7 26.8,-138.6 -3.4,-31.3 -13.3,-60.8 -28.8,-88.3 -14.1,-25 -32.5,-46.5 -55.3,-64 -35.9,-27.6 -76.6,-42.5 -121.9,-44.9 -33.6,-1.8 -65.3,4.8 -95.7,18.9 -19.8,9.2 -37.3,21.7 -54,35.6 l -0.4,0.1 -0.1,0.4 c 0,0.3 -0.2,0.5 -0.5,0.5 l -0.4,0.1 -0.1,0.4 c 0,0.3 -0.2,0.5 -0.5,0.5 l -0.4,0.1 -0.1,0.4 c -0.1,0.3 -0.4,0.5 -0.7,0.5 -0.3,0 -0.4,0.1 -0.4,0.4 -0.1,0.4 -0.3,0.6 -0.6,0.6 -0.3,0 -0.4,0.1 -0.4,0.4 -0.1,0.4 -0.3,0.6 -0.6,0.6 -0.3,0 -0.4,0.1 -0.4,0.4 -0.1,0.4 -0.3,0.6 -0.6,0.6 -0.3,0 -0.4,0.1 -0.4,0.4 -0.1,0.4 -0.3,0.6 -0.6,0.6 -0.3,0 -0.4,0.1 -0.4,0.4 -0.1,0.4 -0.3,0.6 -0.6,0.6 -0.3,0 -0.4,0.1 -0.4,0.4 -0.1,0.4 -0.3,0.6 -0.6,0.6 -0.3,0 -0.4,0.1 -0.4,0.4 -0.1,0.4 -0.3,0.6 -0.6,0.6 -0.3,0 -0.4,0.1 -0.4,0.4 -0.1,0.4 -0.3,0.6 -0.6,0.6 -0.3,0 -0.4,0.1 -0.4,0.4 -0.1,0.4 -0.3,0.6 -0.6,0.6 -0.3,0 -0.4,0.1 -0.4,0.4 -0.1,0.4 -0.3,0.6 -0.6,0.6 -0.3,0 -0.4,0.1 -0.4,0.4 -0.1,0.4 -0.3,0.6 -0.6,0.6 -0.3,0 -0.4,0.1 -0.4,0.4 0,0.3 -0.2,0.6 -0.5,0.7 l -0.3,0.1 -0.1,0.3 c -0.5,0.5 -1,1.1 -1.5,1.6 l -0.4,0.1 -0.1,0.4 c -2.7,3.3 -5.5,6.6 -8.2,9.9 -30,37.8 -47,80.5 -49.4,128.9 -0.9,5.5 -0.8,11 0,16.6 1,10.2 1,20.4 3,30.7 4,20.4 9.5,40.2 18.1,59.1 9.8,21.7 23.1,41 38.5,59 l 0.1,0.4 0.4,0.1 c 0.3,0 0.5,0.2 0.5,0.5 l 0.1,0.4 0.4,0.1 c 0.3,0 0.5,0.2 0.5,0.5 l 0.1,0.4 0.4,0.1 c 0.3,0.1 0.5,0.4 0.5,0.7 0,0.3 0.1,0.4 0.4,0.4 0.4,0.1 0.6,0.3 0.6,0.6 0,0.3 0.1,0.4 0.4,0.4 0.4,0.1 0.6,0.3 0.6,0.6 0,0.3 0.1,0.4 0.4,0.4 0.4,0.1 0.6,0.3 0.6,0.6 0,0.3 0.1,0.4 0.4,0.4 0.4,0.1 0.6,0.3 0.6,0.6 0,0.3 0.1,0.4 0.4,0.4 0.4,0.1 0.6,0.3 0.6,0.6 0,0.3 0.1,0.4 0.4,0.4 0.4,0.1 0.6,0.3 0.6,0.6 0,0.3 0.1,0.4 0.4,0.4 0.4,0.1 0.6,0.3 0.6,0.6 0,0.3 0.1,0.4 0.4,0.4 0.4,0.1 0.6,0.3 0.6,0.6 0,0.3 0.1,0.4 0.4,0.4 0.4,0 0.6,0.2 0.6,0.6 0,0.3 0.1,0.4 0.4,0.4 0.3,0 0.5,0.2 0.6,0.5 l 0.1,0.4 0.4,0.1 c 0.3,0 0.5,0.2 0.5,0.5 l 0.1,0.4 0.4,0.1 c 0.2,-0.2 0.4,0 0.4,0.3 z"
       class="st1" /><path
       style="fill:#01016c"
       id="path8"
       d="m 1272.7,1050.7 c 0,3.5 0,5.4 0,7.3 0,90.1 0,180.3 0.1,270.4 0,5 -1.4,5.9 -6.1,5.9 -34.3,-0.2 -68.7,-0.2 -103,0 -4.1,0 -5.6,-0.5 -5.6,-5.3 0.1,-252.9 0,-505.9 0.3,-758.8 0,-24.7 12.8,-42.6 35.5,-52.8 20.2,-9.1 45.5,-4.3 61.7,11.1 10.9,10.3 17.1,22.9 18.1,37.9 0.1,1.1 0.3,2.2 0.6,4 5,-4.6 9.6,-8.8 14.1,-13.1 38.5,-36 83.4,-60.2 134.9,-71.7 30.3,-6.8 61.1,-8.1 92.1,-5.7 38.9,3 76.3,11.8 112.1,27.4 29.1,12.7 55.7,29.3 79.8,49.9 32.2,27.5 57.6,60.2 76.7,97.9 14,27.5 23.7,56.5 29.8,86.8 5.8,28.7 8.1,57.6 6.7,86.7 -3.2,68.5 -24.3,131 -65.3,186.3 -27.4,36.9 -60.5,67.6 -100.5,90.6 -28.8,16.6 -59.8,27.4 -92.6,33.4 -26.9,4.9 -54.1,6.8 -81.3,5.7 -63.4,-2.5 -120.8,-22.2 -171.4,-61 -12.6,-9.7 -24.6,-20.2 -36.7,-32.9 z M 1644.5,659 c -0.3,-0.1 -0.5,-0.2 -0.5,-0.6 0,-0.3 -0.1,-0.5 -0.4,-0.4 -0.3,-0.1 -0.5,-0.3 -0.5,-0.7 0,-0.3 -0.1,-0.4 -0.4,-0.4 -0.4,-0.1 -0.6,-0.3 -0.6,-0.6 0,-0.3 -0.1,-0.4 -0.4,-0.4 -0.4,0 -0.6,-0.2 -0.6,-0.6 L 1641,655 h -0.3 c -4.1,-3.6 -8.1,-7.4 -12,-11.1 -12.5,-11.8 -26.5,-21.6 -41.5,-29.8 -29.7,-16.3 -61.7,-24.5 -95.3,-26.7 -5.9,-0.9 -11.7,-0.8 -17.6,0 -12.2,0.8 -24.3,2.3 -36.2,5.3 -19.5,4.9 -38.1,12 -55.5,22.3 -13.9,8.2 -26.6,17.9 -38.9,28.1 l -0.4,0.1 -0.1,0.4 c 0,0.3 -0.2,0.5 -0.5,0.5 l -0.4,0.1 -0.1,0.4 c 0,0.3 -0.2,0.5 -0.5,0.5 l -0.4,0.1 -0.1,0.4 c -0.1,0.3 -0.3,0.5 -0.6,0.5 -0.3,0 -0.4,0.1 -0.4,0.4 -0.1,0.3 -0.3,0.5 -0.6,0.6 -0.3,0 -0.4,0.1 -0.4,0.4 -0.1,0.4 -0.3,0.6 -0.6,0.6 -0.3,0 -0.4,0.1 -0.4,0.4 -0.1,0.4 -0.3,0.6 -0.6,0.6 -0.3,0 -0.4,0.1 -0.4,0.4 -0.1,0.4 -0.3,0.6 -0.6,0.6 -0.3,0 -0.4,0.1 -0.4,0.4 -0.1,0.4 -0.3,0.6 -0.6,0.6 -0.3,0 -0.4,0.1 -0.4,0.4 -0.1,0.4 -0.3,0.6 -0.6,0.6 -0.3,0 -0.4,0.1 -0.4,0.4 -0.1,0.4 -0.3,0.6 -0.6,0.6 -0.3,0 -0.4,0.1 -0.4,0.4 -0.1,0.4 -0.3,0.6 -0.6,0.6 -0.3,0 -0.4,0.1 -0.4,0.4 -0.1,0.4 -0.3,0.6 -0.6,0.6 -0.3,0 -0.4,0.1 -0.4,0.4 0,0.4 -0.2,0.6 -0.6,0.6 -0.3,0 -0.4,0.1 -0.4,0.4 0,0.3 -0.2,0.5 -0.5,0.6 l -0.4,0.1 -0.1,0.4 c 0,0.3 -0.2,0.5 -0.5,0.5 l -0.4,0.1 -0.1,0.4 c 0,0.3 -0.2,0.5 -0.5,0.5 l -0.4,0.1 -0.1,0.4 c -4.6,5.8 -9.5,11.4 -13.9,17.4 -20.6,28 -34.6,58.8 -40.6,93.2 -4.5,25.5 -4.3,50.9 0.1,76.3 4.7,27.5 13.1,53.7 27.6,77.9 13.1,21.8 28.7,41.5 48,58.1 22.9,19.6 48.3,34.5 77.4,43 41.5,12.1 82.7,11.2 123.8,-1.9 36.2,-11.5 67.1,-31.2 93.1,-58.9 13.7,-14.6 25.2,-30.6 34.4,-48.2 15.1,-29 22.9,-60 24.5,-92.6 0.8,-6.2 0.8,-12.4 0,-18.6 -0.8,-10.3 -1.9,-20.6 -3.5,-30.9 -3.4,-21.4 -9.8,-41.9 -18.8,-61.6 -8.8,-19.5 -21.2,-36.5 -34.3,-53.2 l -0.1,-0.4 z"
       class="st1" /><path
       style="fill:#01016c"
       id="path10"
       d="m 130.3,782.5 c 0,-51 -0.1,-102 0.1,-153 0,-4.5 -1.1,-5.5 -5.5,-5.4 -15.5,0 -31,0.7 -46.5,-0.4 -31.9,-2.3 -56.9,-36.4 -49.7,-67.5 5.9,-25.1 21.5,-40.2 46.6,-45.5 6.4,-1.3 12.9,-0.7 19.4,-0.8 10.3,0 20.7,-0.2 31,0.1 3.8,0.1 4.6,-1 4.6,-4.7 -0.2,-33.7 -0.1,-67.3 -0.1,-101 0,-33.6 19.9,-58 52.8,-64.6 31,-6.2 65.6,18 70.7,49.2 0.9,5.6 1.2,11.2 1.2,16.8 0,33 0.1,66 -0.1,99 0,4.1 0.9,5.3 5.1,5.3 27.5,-0.2 55,-0.2 82.5,-0.1 28.8,0.1 53.2,20.7 57,49.1 3.9,29.6 -14.3,56.3 -43.6,63.6 -4.9,1.2 -9.8,1.5 -14.8,1.5 -26.8,0 -53.7,0.1 -80.5,-0.1 -4.1,0 -5.7,0.6 -5.7,5.3 0.2,97.2 0,194.3 0.2,291.5 0.1,22.7 5.6,44.1 19.6,62.7 14.3,19 33.7,30.2 56.1,36.6 20.2,5.8 41,7.5 62,7 3.7,-0.1 5,0.7 5,4.8 -0.2,35.7 -0.2,71.3 0,107 0,4.5 -1.5,5.2 -5.4,5.1 -21.9,-0.5 -43.8,-1.9 -65.4,-5.4 -45.9,-7.6 -89.1,-22.2 -125.8,-51.8 -33.9,-27.3 -55.1,-62.8 -64.8,-105.1 -4.2,-18.3 -6,-37 -6,-55.8 0,-47.8 0,-95.6 0,-143.4 z"
       class="st1" /><path
       style="fill:#015b8c"
       id="path12"
       d="M 1927.2,420.6 C 1909,238 1788.5,130.4 1652.8,94.1 c 9.3,-4.4 17.8,-8.6 26.5,-12.4 34.1,-15.1 69.3,-26.6 106,-33.1 31.2,-5.5 62.6,-7.2 94.3,-4.4 71.7,6.4 134.5,33.8 189.5,79.8 11.3,9.4 21.7,19.6 31.5,30.5 3.2,3.5 3.9,5.2 -0.4,8.8 -24.2,20.8 -45.7,44.1 -65.4,69.2 -30.3,38.5 -55.7,80 -77.5,123.7 -9.8,19.7 -18.9,39.6 -26.7,60.2 -0.6,1.5 -0.6,3.7 -3.4,4.2 z"
       class="st2" /><path
       style="fill:#015b8c"
       id="path14"
       d="m 1853.1,744.3 c -1.3,-19.6 -5.3,-38.8 -10.9,-57.7 -14.2,-48 -37,-91.3 -69.8,-129.1 -4.8,-5.5 -9.6,-11.1 -14.8,-16.2 -2.7,-2.7 -2.5,-4 0.1,-6.7 35.9,-37.4 69.3,-76.7 98.2,-119.8 11,-16.4 21,-33.3 29.5,-51.2 0.5,-1 1.1,-2 1.9,-3.5 5.1,15.1 7.8,30.1 10.5,45.1 4.1,23.5 6.6,47.3 9.9,71 1.4,10 -2,18.9 -4.5,28.1 -14.4,53.3 -26.9,107.1 -37.2,161.3 -4.5,23.7 -8.6,47.6 -11.2,71.6 -0.4,2.5 -1.1,4.8 -1.7,7.1 z"
       class="st2" /><path
       style="fill:#015b8c"
       id="path16"
       d="m 2052.4,78.4 c 21.5,-15.5 44.5,-27.3 70.2,-32.9 60.4,-13.2 114.3,2.8 163.7,37.8 3.5,2.5 6.8,5.3 10.2,7.9 0.8,0.6 1.5,1.5 1.2,2.5 -0.4,1.5 -1.5,0.7 -2.4,0.6 -43.1,-2.4 -84.3,6.3 -124.2,21.9 -14,5.5 -27.6,11.7 -40.7,19.3 -1.9,1.1 -3.3,1.9 -5.4,-0.5 -19.9,-23.9 -44.8,-41.7 -72.6,-56.6 z"
       class="st2" /><path
       style="fill:#015b8c"
       id="path20"
       d="m 768.2,1033.5 c 5.9,-0.5 11.7,-0.5 17.6,0 -5.9,0.9 -11.7,0.9 -17.6,0 z"
       class="st2" /><path
       style="fill:#015b8c"
       id="path22"
       d="m 562.5,798.2 c 0.5,5.5 0.5,11 0,16.6 -0.9,-5.5 -0.9,-11 0,-16.6 z"
       class="st2" /><path
       style="fill:#015b8c"
       id="path24"
       d="m 635.5,644 c 0.1,0.1 0.1,0.3 0.2,0.4 -0.2,0 -0.5,0.1 -0.7,0.1 0,0 0.1,-0.4 0.1,-0.4 z"
       class="st2" /><path
       style="fill:#015b8c"
       id="path26"
       d="m 634.3,645 c 0.1,0.1 0.2,0.2 0.3,0.3 -0.2,0 -0.4,0 -0.6,0 -0.1,-0.2 0.1,-0.4 0.3,-0.3 z"
       class="st2" /><path
       style="fill:#015b8c"
       id="path28"
       d="m 633.3,646 c 0.1,0.1 0.2,0.2 0.3,0.3 -0.2,0 -0.4,0 -0.6,0 -0.1,-0.2 0.1,-0.4 0.3,-0.3 z"
       class="st2" /><path
       style="fill:#015b8c"
       id="path30"
       d="m 632.3,647 c 0.1,0.1 0.2,0.2 0.3,0.3 -0.2,0 -0.4,0 -0.6,0 -0.1,-0.2 0.1,-0.4 0.3,-0.3 z"
       class="st2" /><path
       style="fill:#015b8c"
       id="path32"
       d="m 631.3,648 c 0.1,0.1 0.2,0.2 0.3,0.3 -0.2,0 -0.4,0 -0.6,0 -0.1,-0.2 0.1,-0.4 0.3,-0.3 z"
       class="st2" /><path
       style="fill:#015b8c"
       id="path34"
       d="m 630.3,649 c 0.1,0.1 0.2,0.2 0.3,0.3 -0.2,0 -0.4,0 -0.6,0 -0.1,-0.2 0.1,-0.4 0.3,-0.3 z"
       class="st2" /><path
       style="fill:#015b8c"
       id="path36"
       d="m 629.3,650 c 0.1,0.1 0.2,0.2 0.3,0.3 -0.2,0 -0.4,0 -0.6,0 -0.1,-0.2 0.1,-0.4 0.3,-0.3 z"
       class="st2" /><path
       style="fill:#015b8c"
       id="path38"
       d="m 628.3,651 c 0.1,0.1 0.2,0.2 0.3,0.3 -0.2,0 -0.4,0 -0.6,0 -0.1,-0.2 0.1,-0.4 0.3,-0.3 z"
       class="st2" /><path
       style="fill:#015b8c"
       id="path40"
       d="m 627.3,652 c 0.1,0.1 0.2,0.2 0.3,0.3 -0.2,0 -0.4,0 -0.6,0 -0.1,-0.2 0.1,-0.4 0.3,-0.3 z"
       class="st2" /><path
       style="fill:#015b8c"
       id="path42"
       d="m 626.3,653 c 0.1,0.1 0.2,0.2 0.3,0.3 -0.2,0 -0.4,0 -0.6,0 -0.1,-0.2 0.1,-0.4 0.3,-0.3 z"
       class="st2" /><path
       style="fill:#015b8c"
       id="path44"
       d="m 625.3,654 c 0.1,0.1 0.2,0.2 0.3,0.3 -0.2,0 -0.4,0 -0.6,0 -0.1,-0.2 0.1,-0.4 0.3,-0.3 z"
       class="st2" /><path
       style="fill:#015b8c"
       id="path46"
       d="m 624.3,655 c 0.1,0.1 0.2,0.2 0.3,0.3 -0.2,0 -0.4,0 -0.6,0 -0.1,-0.2 0.1,-0.4 0.3,-0.3 z"
       class="st2" /><path
       style="fill:#015b8c"
       id="path48"
       d="m 623.3,656 c 0.1,0.1 0.2,0.2 0.3,0.3 -0.2,0 -0.4,0 -0.6,0 -0.1,-0.2 0.1,-0.4 0.3,-0.3 z"
       class="st2" /><path
       style="fill:#015b8c"
       id="path50"
       d="m 622.4,657 c 0.1,0.1 0.2,0.2 0.2,0.4 -0.2,0 -0.4,0.1 -0.7,0.1 0,0 0.1,-0.3 0.1,-0.3 z"
       class="st2" /><path
       style="fill:#015b8c"
       id="path52"
       d="m 620.5,659 c 0.1,0.1 0.1,0.2 0.2,0.4 -0.2,0 -0.4,0.1 -0.7,0.1 0,0 0.1,-0.4 0.1,-0.4 z"
       class="st2" /><path
       style="fill:#015b8c"
       id="path54"
       d="m 637.5,642 c 0.1,0.1 0.1,0.2 0.2,0.4 -0.2,0 -0.5,0 -0.7,0.1 0,0 0.1,-0.4 0.1,-0.4 z"
       class="st2" /><path
       style="fill:#015b8c"
       id="path56"
       d="m 636.5,643 c 0.1,0.1 0.1,0.3 0.2,0.4 -0.2,0 -0.5,0.1 -0.7,0.1 0,0 0.1,-0.4 0.1,-0.4 z"
       class="st2" /><path
       style="fill:#015b8c"
       id="path58"
       d="m 938.5,962 c -0.1,-0.1 -0.1,-0.2 -0.2,-0.4 0.2,0 0.4,-0.1 0.7,-0.1 0,0 -0.1,0.4 -0.1,0.4 z"
       class="st2" /><path
       style="fill:#015b8c"
       id="path60"
       d="m 937.5,963 c -0.3,-0.7 -0.2,-0.8 0.5,-0.5 0,0 -0.1,0.4 -0.1,0.4 z"
       class="st2" /><path
       style="fill:#015b8c"
       id="path62"
       d="m 622,963.5 c 0.6,-0.3 0.8,-0.2 0.4,0.5 0,0 -0.4,-0.1 -0.4,-0.1 z"
       class="st2" /><path
       style="fill:#015b8c"
       id="path64"
       d="m 936.7,964 c -0.1,-0.1 -0.2,-0.2 -0.3,-0.3 0.2,0 0.4,0 0.6,0 0.1,0.2 -0.1,0.4 -0.3,0.3 z"
       class="st2" /><path
       style="fill:#015b8c"
       id="path66"
       d="m 623,964.5 c 0.6,-0.3 0.8,-0.2 0.5,0.5 0,0 -0.4,-0.1 -0.4,-0.1 z"
       class="st2" /><path
       style="fill:#015b8c"
       id="path68"
       d="m 935.7,965 c -0.1,-0.1 -0.2,-0.2 -0.3,-0.3 0.2,0 0.4,0 0.6,0 0.1,0.2 -0.1,0.4 -0.3,0.3 z"
       class="st2" /><path
       style="fill:#015b8c"
       id="path70"
       d="m 624,965.5 c 0.6,-0.3 0.8,-0.2 0.5,0.5 0,0 -0.4,-0.1 -0.4,-0.1 z"
       class="st2" /><path
       style="fill:#015b8c"
       id="path72"
       d="m 934.7,966 c -0.1,-0.1 -0.2,-0.2 -0.3,-0.3 0.2,0 0.4,0 0.6,0 0.1,0.2 -0.1,0.4 -0.3,0.3 z"
       class="st2" /><path
       style="fill:#015b8c"
       id="path74"
       d="m 625,966.7 c 0.6,-0.4 0.7,-0.3 0.4,0.4 -0.3,0 -0.5,-0.2 -0.4,-0.4 z"
       class="st2" /><path
       style="fill:#015b8c"
       id="path76"
       d="m 933.6,967.1 c -0.1,-0.1 -0.2,-0.2 -0.3,-0.4 0.2,0 0.5,0 0.7,-0.1 0.1,0.3 -0.1,0.5 -0.4,0.5 z"
       class="st2" /><path
       style="fill:#015b8c"
       id="path78"
       d="m 626,967.7 c 0.6,-0.4 0.7,-0.2 0.4,0.4 -0.3,0 -0.5,-0.2 -0.4,-0.4 z"
       class="st2" /><path
       style="fill:#015b8c"
       id="path80"
       d="m 932.6,968.1 c -0.1,-0.1 -0.2,-0.2 -0.3,-0.4 0.2,0 0.5,0 0.7,-0.1 0.1,0.3 -0.1,0.5 -0.4,0.5 z"
       class="st2" /><path
       style="fill:#015b8c"
       id="path82"
       d="m 931.6,969.1 c -0.1,-0.1 -0.2,-0.2 -0.3,-0.4 0.2,0 0.5,0 0.7,-0.1 0.1,0.3 -0.1,0.5 -0.4,0.5 z"
       class="st2" /><path
       style="fill:#015b8c"
       id="path84"
       d="m 628,969.7 c 0.6,-0.4 0.7,-0.2 0.4,0.4 -0.3,0 -0.5,-0.2 -0.4,-0.4 z"
       class="st2" /><path
       style="fill:#015b8c"
       id="path86"
       d="m 930.6,970.1 c -0.1,-0.1 -0.2,-0.2 -0.3,-0.4 0.2,0 0.5,0 0.7,-0.1 0.1,0.3 -0.1,0.5 -0.4,0.5 z"
       class="st2" /><path
       style="fill:#015b8c"
       id="path88"
       d="m 629,970.7 c 0.6,-0.4 0.7,-0.2 0.4,0.4 -0.3,0 -0.5,-0.2 -0.4,-0.4 z"
       class="st2" /><path
       style="fill:#015b8c"
       id="path90"
       d="m 929.6,971.1 c -0.1,-0.1 -0.2,-0.2 -0.3,-0.4 0.2,0 0.5,0 0.7,-0.1 0.1,0.3 -0.1,0.5 -0.4,0.5 z"
       class="st2" /><path
       style="fill:#015b8c"
       id="path92"
       d="m 630,971.7 c 0.6,-0.4 0.7,-0.2 0.4,0.4 -0.3,0 -0.5,-0.2 -0.4,-0.4 z"
       class="st2" /><path
       style="fill:#015b8c"
       id="path94"
       d="m 928.6,972.1 c -0.1,-0.1 -0.2,-0.2 -0.3,-0.4 0.2,0 0.5,0 0.7,-0.1 0.1,0.3 -0.1,0.5 -0.4,0.5 z"
       class="st2" /><path
       style="fill:#015b8c"
       id="path96"
       d="m 631,972.7 c 0.6,-0.4 0.7,-0.2 0.4,0.4 -0.3,0 -0.5,-0.2 -0.4,-0.4 z"
       class="st2" /><path
       style="fill:#015b8c"
       id="path98"
       d="m 927.6,973.1 c -0.1,-0.1 -0.2,-0.2 -0.3,-0.4 0.2,0 0.5,0 0.7,-0.1 0.1,0.3 -0.1,0.5 -0.4,0.5 z"
       class="st2" /><path
       style="fill:#015b8c"
       id="path100"
       d="m 627,968.7 c 0.6,-0.4 0.7,-0.2 0.4,0.4 -0.3,0 -0.5,-0.2 -0.4,-0.4 z"
       class="st2" /><path
       style="fill:#015b8c"
       id="path102"
       d="m 926.6,974.1 c -0.1,-0.1 -0.2,-0.2 -0.3,-0.4 0.2,0 0.5,0 0.7,-0.1 0.1,0.3 -0.1,0.5 -0.4,0.5 z"
       class="st2" /><path
       style="fill:#015b8c"
       id="path104"
       d="m 633,974.7 c 0.6,-0.4 0.7,-0.2 0.4,0.4 -0.3,0 -0.5,-0.2 -0.4,-0.4 z"
       class="st2" /><path
       style="fill:#015b8c"
       id="path106"
       d="m 925.6,975.1 c -0.1,-0.1 -0.2,-0.2 -0.3,-0.4 0.2,0 0.5,0 0.7,-0.1 0.1,0.3 -0.1,0.5 -0.4,0.5 z"
       class="st2" /><path
       style="fill:#015b8c"
       id="path108"
       d="m 634,975.6 c 0.7,-0.4 0.8,-0.2 0.4,0.4 -0.3,0.1 -0.4,-0.1 -0.4,-0.4 z"
       class="st2" /><path
       style="fill:#015b8c"
       id="path110"
       d="m 924.6,976 c -0.1,-0.1 -0.2,-0.2 -0.2,-0.4 0.2,0 0.5,0 0.7,-0.1 0,0 -0.1,0.3 -0.1,0.3 z"
       class="st2" /><path
       style="fill:#015b8c"
       id="path112"
       d="m 635,976.5 c 0.7,-0.3 0.8,-0.2 0.5,0.5 0,0 -0.4,-0.1 -0.4,-0.1 z"
       class="st2" /><path
       style="fill:#015b8c"
       id="path114"
       d="m 636,977.5 c 0.6,-0.3 0.8,-0.2 0.5,0.5 0,0 -0.4,-0.1 -0.4,-0.1 z"
       class="st2" /><path
       style="fill:#015b8c"
       id="path116"
       d="m 922.5,978 c -0.1,-0.1 -0.1,-0.2 -0.2,-0.4 0.2,0 0.4,-0.1 0.7,-0.1 0,0 -0.1,0.4 -0.1,0.4 z"
       class="st2" /><path
       style="fill:#015b8c"
       id="path118"
       d="m 637,978.5 c 0.6,-0.3 0.8,-0.2 0.5,0.4 0,0 -0.4,-0.1 -0.4,-0.1 z"
       class="st2" /><path
       style="fill:#015b8c"
       id="path120"
       d="m 632,973.7 c 0.6,-0.4 0.7,-0.2 0.4,0.4 -0.3,0 -0.5,-0.2 -0.4,-0.4 z"
       class="st2" /><path
       style="fill:#015b8c"
       id="path124"
       d="m 1701.5,823.8 c -0.5,-6.2 -0.5,-12.4 0,-18.6 0.9,6.2 0.9,12.4 0,18.6 z"
       class="st2" /><path
       style="fill:#015b8c"
       id="path126"
       d="m 1491.8,587.5 c -5.9,0.5 -11.7,0.5 -17.6,0 5.9,-0.9 11.7,-0.9 17.6,0 z"
       class="st2" /><path
       style="fill:#015b8c"
       id="path128"
       d="m 1342.5,644 c 0.1,0.1 0.1,0.3 0.2,0.4 -0.2,0 -0.5,0.1 -0.7,0.1 0,0 0.1,-0.4 0.1,-0.4 z"
       class="st2" /><path
       style="fill:#015b8c"
       id="path130"
       d="m 1341.5,645 c 0.1,0.1 0.1,0.3 0.2,0.4 -0.2,0 -0.5,0.1 -0.7,0.1 0,0 0.1,-0.4 0.1,-0.4 0,0 0.4,-0.1 0.4,-0.1 z"
       class="st2" /><path
       style="fill:#015b8c"
       id="path132"
       d="m 1340.4,646 c 0.1,0.1 0.2,0.2 0.3,0.4 -0.2,0 -0.5,0 -0.7,0.1 0,-0.4 0.1,-0.5 0.4,-0.5 z"
       class="st2" /><path
       style="fill:#015b8c"
       id="path134"
       d="m 1339.3,647 c 0.1,0.1 0.2,0.2 0.3,0.3 -0.2,0 -0.4,0 -0.6,0 -0.1,-0.2 0.1,-0.4 0.3,-0.3 z"
       class="st2" /><path
       style="fill:#015b8c"
       id="path136"
       d="m 1338.3,648 c 0.1,0.1 0.2,0.2 0.3,0.3 -0.2,0 -0.4,0 -0.6,0 -0.1,-0.2 0.1,-0.4 0.3,-0.3 z"
       class="st2" /><path
       style="fill:#015b8c"
       id="path138"
       d="m 1337.3,649 c 0.1,0.1 0.2,0.2 0.3,0.3 -0.2,0 -0.4,0 -0.6,0 -0.1,-0.2 0.1,-0.4 0.3,-0.3 z"
       class="st2" /><path
       style="fill:#015b8c"
       id="path140"
       d="m 1336.3,650 c 0.1,0.1 0.2,0.2 0.3,0.3 -0.2,0 -0.4,0 -0.6,0 -0.1,-0.2 0.1,-0.4 0.3,-0.3 z"
       class="st2" /><path
       style="fill:#015b8c"
       id="path142"
       d="m 1335.3,651 c 0.1,0.1 0.2,0.2 0.3,0.3 -0.2,0 -0.4,0 -0.6,0 -0.1,-0.2 0.1,-0.4 0.3,-0.3 z"
       class="st2" /><path
       style="fill:#015b8c"
       id="path144"
       d="m 1334.3,652 c 0.1,0.1 0.2,0.2 0.3,0.3 -0.2,0 -0.4,0 -0.6,0 -0.1,-0.2 0.1,-0.4 0.3,-0.3 z"
       class="st2" /><path
       style="fill:#015b8c"
       id="path146"
       d="m 1333.3,653 c 0.1,0.1 0.2,0.2 0.3,0.3 -0.2,0 -0.4,0 -0.6,0 -0.1,-0.2 0.1,-0.4 0.3,-0.3 z"
       class="st2" /><path
       style="fill:#015b8c"
       id="path148"
       d="m 1332.3,654 c 0.1,0.1 0.2,0.2 0.3,0.3 -0.2,0 -0.4,0 -0.6,0 -0.1,-0.2 0.1,-0.4 0.3,-0.3 z"
       class="st2" /><path
       style="fill:#015b8c"
       id="path150"
       d="m 1331.3,655 c 0.1,0.1 0.2,0.2 0.3,0.3 -0.2,0 -0.4,0 -0.6,0 -0.1,-0.2 0.1,-0.4 0.3,-0.3 z"
       class="st2" /><path
       style="fill:#015b8c"
       id="path152"
       d="m 1641.1,655.4 c -0.6,0.4 -0.7,0.3 -0.4,-0.3 0,0 0.3,0 0.3,0 z"
       class="st2" /><path
       style="fill:#015b8c"
       id="path154"
       d="m 1330.4,656 c 0.1,0.1 0.2,0.2 0.2,0.4 -0.2,0 -0.5,0 -0.7,0.1 0,-0.4 0.2,-0.5 0.5,-0.5 z"
       class="st2" /><path
       style="fill:#015b8c"
       id="path156"
       d="m 1642,656.3 c -0.6,0.4 -0.7,0.2 -0.4,-0.4 0.3,0 0.5,0.2 0.4,0.4 z"
       class="st2" /><path
       style="fill:#015b8c"
       id="path158"
       d="m 1329.5,657 c 0.1,0.1 0.1,0.3 0.2,0.4 -0.2,0 -0.5,0.1 -0.7,0.1 0,0 0.1,-0.4 0.1,-0.4 z"
       class="st2" /><path
       style="fill:#015b8c"
       id="path160"
       d="m 1643,657.3 c -0.6,0.4 -0.7,0.3 -0.4,-0.4 0.3,0 0.5,0.2 0.4,0.4 z"
       class="st2" /><path
       style="fill:#015b8c"
       id="path162"
       d="m 1328.5,658 c 0.1,0.1 0.1,0.3 0.2,0.4 -0.2,0 -0.5,0.1 -0.7,0.1 0,0 0.1,-0.4 0.1,-0.4 z"
       class="st2" /><path
       style="fill:#015b8c"
       id="path164"
       d="m 1644,658.4 c -0.7,0.4 -0.8,0.2 -0.5,-0.4 0.4,0 0.5,0.1 0.5,0.4 z"
       class="st2" /><path
       style="fill:#015b8c"
       id="path166"
       d="m 1327.5,659 c 0.1,0.1 0.1,0.2 0.2,0.4 -0.2,0 -0.4,0.1 -0.7,0.1 0,0 0.1,-0.4 0.1,-0.4 z"
       class="st2" /><path
       style="fill:#015b8c"
       id="path168"
       d="m 1645,659.5 c -0.6,0.3 -0.8,0.1 -0.4,-0.5 0,0 0.4,0.1 0.4,0.1 z"
       class="st2" /><path
       style="fill:#015b8c"
       id="path170"
       d="m 1343.5,643 c 0.1,0.1 0.1,0.2 0.2,0.4 -0.2,0 -0.5,0 -0.7,0.1 0,0 0.1,-0.4 0.1,-0.4 z"
       class="st2" /></g></svg>
