<?xml version="1.0" encoding="UTF-8" standalone="no"?>
<svg
   xmlns:dc="http://purl.org/dc/elements/1.1/"
   xmlns:cc="http://creativecommons.org/ns#"
   xmlns:rdf="http://www.w3.org/1999/02/22-rdf-syntax-ns#"
   xmlns:svg="http://www.w3.org/2000/svg"
   xmlns="http://www.w3.org/2000/svg"
   xmlns:sodipodi="http://sodipodi.sourceforge.net/DTD/sodipodi-0.dtd"
   xmlns:inkscape="http://www.inkscape.org/namespaces/inkscape"
   width="1664"
   height="1792"
   viewBox="0 0 1664 1792"
   id="svg2"
   version="1.1"
   inkscape:version="0.91 r13725"
   sodipodi:docname="calendar.svg">
  <metadata
     id="metadata10">
    <rdf:RDF>
      <cc:Work
         rdf:about="">
        <dc:format>image/svg+xml</dc:format>
        <dc:type
           rdf:resource="http://purl.org/dc/dcmitype/StillImage" />
        <dc:title></dc:title>
      </cc:Work>
    </rdf:RDF>
  </metadata>
  <defs
     id="defs8" />
  <sodipodi:namedview
     pagecolor="#ffffff"
     bordercolor="#666666"
     borderopacity="1"
     objecttolerance="10"
     gridtolerance="10"
     guidetolerance="10"
     inkscape:pageopacity="0"
     inkscape:pageshadow="2"
     inkscape:window-width="698"
     inkscape:window-height="480"
     id="namedview6"
     showgrid="false"
     fit-margin-top="0"
     fit-margin-left="0"
     fit-margin-right="0"
     fit-margin-bottom="0"
     inkscape:zoom="0.13169643"
     inkscape:cx="832"
     inkscape:cy="896"
     inkscape:window-x="2764"
     inkscape:window-y="782"
     inkscape:window-maximized="0"
     inkscape:current-layer="svg2" />
  <path
     d="m 128,1664 288,0 0,-288 -288,0 0,288 z m 352,0 320,0 0,-288 -320,0 0,288 z m -352,-352 288,0 0,-320 -288,0 0,320 z m 352,0 320,0 0,-320 -320,0 0,320 z m -352,-384 288,0 0,-288 -288,0 0,288 z m 736,736 320,0 0,-288 -320,0 0,288 z m -384,-736 320,0 0,-288 -320,0 0,288 z m 768,736 288,0 0,-288 -288,0 0,288 z m -384,-352 320,0 0,-320 -320,0 0,320 z M 512,448 512,160 q 0,-13 -9.5,-22.5 Q 493,128 480,128 l -64,0 q -13,0 -22.5,9.5 Q 384,147 384,160 l 0,288 q 0,13 9.5,22.5 9.5,9.5 22.5,9.5 l 64,0 q 13,0 22.5,-9.5 Q 512,461 512,448 Z m 736,864 288,0 0,-320 -288,0 0,320 z m -384,-384 320,0 0,-288 -320,0 0,288 z m 384,0 288,0 0,-288 -288,0 0,288 z m 32,-480 0,-288 q 0,-13 -9.5,-22.5 Q 1261,128 1248,128 l -64,0 q -13,0 -22.5,9.5 -9.5,9.5 -9.5,22.5 l 0,288 q 0,13 9.5,22.5 9.5,9.5 22.5,9.5 l 64,0 q 13,0 22.5,-9.5 9.5,-9.5 9.5,-22.5 z m 384,-64 0,1280 q 0,52 -38,90 -38,38 -90,38 l -1408,0 Q 76,1792 38,1754 0,1716 0,1664 L 0,384 q 0,-52 38,-90 38,-38 90,-38 l 128,0 0,-96 Q 256,94 303,47 350,0 416,0 l 64,0 q 66,0 113,47 47,47 47,113 l 0,96 384,0 0,-96 q 0,-66 47,-113 47,-47 113,-47 l 64,0 q 66,0 113,47 47,47 47,113 l 0,96 128,0 q 52,0 90,38 38,38 38,90 z"
     id="path4"
     inkscape:connector-curvature="0"
     style="fill:#95c5cd;fill-opacity:1" />
</svg>
