<?xml version="1.0" encoding="UTF-8" standalone="no"?>
<svg
   xmlns:dc="http://purl.org/dc/elements/1.1/"
   xmlns:cc="http://creativecommons.org/ns#"
   xmlns:rdf="http://www.w3.org/1999/02/22-rdf-syntax-ns#"
   xmlns:svg="http://www.w3.org/2000/svg"
   xmlns="http://www.w3.org/2000/svg"
   xmlns:sodipodi="http://sodipodi.sourceforge.net/DTD/sodipodi-0.dtd"
   xmlns:inkscape="http://www.inkscape.org/namespaces/inkscape"
   width="1536"
   height="1536"
   viewBox="0 0 1536 1536"
   id="svg2"
   version="1.1"
   inkscape:version="0.91 r13725"
   sodipodi:docname="envelope-square.svg">
  <metadata
     id="metadata10">
    <rdf:RDF>
      <cc:Work
         rdf:about="">
        <dc:format>image/svg+xml</dc:format>
        <dc:type
           rdf:resource="http://purl.org/dc/dcmitype/StillImage" />
        <dc:title></dc:title>
      </cc:Work>
    </rdf:RDF>
  </metadata>
  <defs
     id="defs8" />
  <sodipodi:namedview
     pagecolor="#ffffff"
     bordercolor="#666666"
     borderopacity="1"
     objecttolerance="10"
     gridtolerance="10"
     guidetolerance="10"
     inkscape:pageopacity="0"
     inkscape:pageshadow="2"
     inkscape:window-width="698"
     inkscape:window-height="480"
     id="namedview6"
     showgrid="false"
     fit-margin-top="0"
     fit-margin-left="0"
     fit-margin-right="0"
     fit-margin-bottom="0"
     inkscape:zoom="0.13169643"
     inkscape:cx="768"
     inkscape:cy="768"
     inkscape:window-x="0"
     inkscape:window-y="0"
     inkscape:window-maximized="0"
     inkscape:current-layer="svg2" />
  <path
     d="M 1248,0 Q 1367,0 1451.5,84.5 1536,169 1536,288 l 0,960 q 0,119 -84.5,203.5 Q 1367,1536 1248,1536 l -960,0 Q 169,1536 84.5,1451.5 0,1367 0,1248 L 0,288 Q 0,169 84.5,84.5 169,0 288,0 l 960,0 z m 32,1056 0,-436 q -31,35 -64,55 -34,22 -132.5,85 Q 985,823 932,859 834,928 768,928 702,928 604,859 557,827 462,766.5 367,706 320,674 308,666 287,647 266,628 256,620 l 0,436 q 0,40 28,68 28,28 68,28 l 832,0 q 40,0 68,-28 28,-28 28,-68 z m 0,-573 q 0,-41 -27.5,-70 -27.5,-29 -68.5,-29 l -832,0 q -40,0 -68,28 -28,28 -28,68 0,37 30.5,76.5 30.5,39.5 67.5,64.5 47,32 137.5,89 90.5,57 129.5,83 3,2 17,11.5 14,9.5 21,14 7,4.5 21,13 14,8.5 23.5,13 9.5,4.5 21.5,9.5 12,5 22.5,7.5 10.5,2.5 20.5,2.5 10,0 20.5,-2.5 10.5,-2.5 22.5,-7.5 12,-5 21.5,-9.5 9.5,-4.5 23.5,-13 14,-8.5 21,-13 7,-4.5 21,-14 14,-9.5 17,-11.5 l 267,-174 q 35,-23 66.5,-62.5 Q 1280,517 1280,483 Z"
     id="path4"
     inkscape:connector-curvature="0"
     style="fill:#95c5cd;fill-opacity:1" />
</svg>
