<?xml version="1.0" encoding="UTF-8" standalone="no"?>
<svg
   xmlns:dc="http://purl.org/dc/elements/1.1/"
   xmlns:cc="http://creativecommons.org/ns#"
   xmlns:rdf="http://www.w3.org/1999/02/22-rdf-syntax-ns#"
   xmlns:svg="http://www.w3.org/2000/svg"
   xmlns="http://www.w3.org/2000/svg"
   xmlns:sodipodi="http://sodipodi.sourceforge.net/DTD/sodipodi-0.dtd"
   xmlns:inkscape="http://www.inkscape.org/namespaces/inkscape"
   width="1536"
   height="1536"
   viewBox="0 0 1536 1536"
   id="svg2"
   version="1.1"
   inkscape:version="0.91 r13725"
   sodipodi:docname="facebook-square.svg">
  <metadata
     id="metadata10">
    <rdf:RDF>
      <cc:Work
         rdf:about="">
        <dc:format>image/svg+xml</dc:format>
        <dc:type
           rdf:resource="http://purl.org/dc/dcmitype/StillImage" />
        <dc:title></dc:title>
      </cc:Work>
    </rdf:RDF>
  </metadata>
  <defs
     id="defs8" />
  <sodipodi:namedview
     pagecolor="#ffffff"
     bordercolor="#666666"
     borderopacity="1"
     objecttolerance="10"
     gridtolerance="10"
     guidetolerance="10"
     inkscape:pageopacity="0"
     inkscape:pageshadow="2"
     inkscape:window-width="698"
     inkscape:window-height="480"
     id="namedview6"
     showgrid="false"
     fit-margin-top="0"
     fit-margin-left="0"
     fit-margin-right="0"
     fit-margin-bottom="0"
     inkscape:zoom="0.13169643"
     inkscape:cx="768"
     inkscape:cy="768"
     inkscape:window-x="2868"
     inkscape:window-y="196"
     inkscape:window-maximized="0"
     inkscape:current-layer="svg2" />
  <path
     d="M 1248,0 Q 1367,0 1451.5,84.5 1536,169 1536,288 l 0,960 q 0,119 -84.5,203.5 Q 1367,1536 1248,1536 l -188,0 0,-595 199,0 30,-232 -229,0 0,-148 q 0,-56 23.5,-84 23.5,-28 91.5,-28 l 122,-1 0,-207 q -63,-9 -178,-9 -136,0 -217.5,80 Q 820,392 820,538 l 0,171 -200,0 0,232 200,0 0,595 -532,0 Q 169,1536 84.5,1451.5 0,1367 0,1248 L 0,288 Q 0,169 84.5,84.5 169,0 288,0 l 960,0 z"
     id="path4"
     inkscape:connector-curvature="0"
     style="stroke:none;stroke-opacity:1;fill:#95c5cd;fill-opacity:1" />
</svg>
