<?xml version="1.0" encoding="UTF-8" standalone="no"?>
<svg
   xmlns:dc="http://purl.org/dc/elements/1.1/"
   xmlns:cc="http://creativecommons.org/ns#"
   xmlns:rdf="http://www.w3.org/1999/02/22-rdf-syntax-ns#"
   xmlns:svg="http://www.w3.org/2000/svg"
   xmlns="http://www.w3.org/2000/svg"
   xmlns:sodipodi="http://sodipodi.sourceforge.net/DTD/sodipodi-0.dtd"
   xmlns:inkscape="http://www.inkscape.org/namespaces/inkscape"
   width="1536"
   height="1536"
   viewBox="0 0 1536 1536"
   id="svg2"
   version="1.1"
   inkscape:version="0.91 r13725"
   sodipodi:docname="github-square.svg">
  <metadata
     id="metadata10">
    <rdf:RDF>
      <cc:Work
         rdf:about="">
        <dc:format>image/svg+xml</dc:format>
        <dc:type
           rdf:resource="http://purl.org/dc/dcmitype/StillImage" />
        <dc:title></dc:title>
      </cc:Work>
    </rdf:RDF>
  </metadata>
  <defs
     id="defs8" />
  <sodipodi:namedview
     pagecolor="#ffffff"
     bordercolor="#666666"
     borderopacity="1"
     objecttolerance="10"
     gridtolerance="10"
     guidetolerance="10"
     inkscape:pageopacity="0"
     inkscape:pageshadow="2"
     inkscape:window-width="698"
     inkscape:window-height="480"
     id="namedview6"
     showgrid="false"
     fit-margin-top="0"
     fit-margin-left="0"
     fit-margin-right="0"
     fit-margin-bottom="0"
     inkscape:zoom="0.13169643"
     inkscape:cx="768"
     inkscape:cy="768"
     inkscape:window-x="3784"
     inkscape:window-y="800"
     inkscape:window-maximized="0"
     inkscape:current-layer="svg2" />
  <path
     d="m 519,1072 q 4,-6 -3,-13 -9,-7 -14,-2 -4,6 3,13 9,7 14,2 z m -28,-41 q -5,-7 -12,-4 -6,4 0,12 7,8 12,5 6,-4 0,-13 z m -41,-40 q 2,-4 -5,-8 -7,-2 -8,2 -3,5 4,8 8,2 9,-2 z m 21,23 q 2,-1 1.5,-4.5 -0.5,-3.5 -3.5,-5.5 -6,-7 -10,-3 -4,4 1,11 6,6 11,2 z m 86,75 q 2,-7 -9,-11 -9,-3 -13,4 -2,7 9,11 9,3 13,-4 z m 42,3 q 0,-8 -12,-8 -10,0 -10,8 0,8 11,8 11,0 11,-8 z m 39,-7 q -2,-7 -13,-5 -11,2 -9,9 2,8 12,6 10,-2 10,-10 z M 1280,768 Q 1280,556 1130,406 980,256 768,256 556,256 406,406 256,556 256,768 q 0,167 98,300.5 98,133.5 252,185.5 18,3 26.5,-5 8.5,-8 8.5,-20 0,-52 -1,-95 -6,1 -15.5,2.5 -9.5,1.5 -35.5,2 -26,0.5 -48,-4 -22,-4.5 -43.5,-20 Q 476,1099 468,1073 q -23,-59 -57,-74 -2,-1 -4.5,-3.5 l -8,-8 -7,-9.5 4,-7.5 19.5,-3.5 q 6,0 15,2 9,2 30,15.5 21,13.5 33,35.5 16,28 37.5,42 21.5,14 43.5,14 22,0 38,-3.5 16,-3.5 30,-9.5 7,-47 33,-69 -49,-6 -86,-18.5 Q 552,963 516,936.5 480,910 460.5,860.5 441,811 441,741 q 0,-79 53,-137 -24,-62 5,-136 19,-6 54.5,7.5 Q 589,489 614,505 l 26,16 q 58,-17 128,-17 70,0 128,17 11,-7 28.5,-18 17.5,-11 55.5,-26 38,-15 57,-9 29,74 5,136 53,58 53,137 0,57 -14,100.5 -14,43.5 -35.5,70 Q 1024,938 992,956 q -32,18 -62.5,26 -30.5,8 -68.5,12 35,31 35,95 0,40 -0.5,89 -0.5,49 -0.5,51 0,12 8.5,20 8.5,8 26.5,5 154,-52 252,-185.5 98,-133.5 98,-300.5 z m 256,-480 0,960 q 0,119 -84.5,203.5 Q 1367,1536 1248,1536 l -960,0 Q 169,1536 84.5,1451.5 0,1367 0,1248 L 0,288 Q 0,169 84.5,84.5 169,0 288,0 l 960,0 Q 1367,0 1451.5,84.5 1536,169 1536,288 Z"
     id="path4"
     inkscape:connector-curvature="0"
     style="fill:#95c5cd;fill-opacity:1" />
</svg>
