<?xml version="1.0" encoding="UTF-8" standalone="no"?>
<svg
   xmlns:dc="http://purl.org/dc/elements/1.1/"
   xmlns:cc="http://creativecommons.org/ns#"
   xmlns:rdf="http://www.w3.org/1999/02/22-rdf-syntax-ns#"
   xmlns:svg="http://www.w3.org/2000/svg"
   xmlns="http://www.w3.org/2000/svg"
   xmlns:sodipodi="http://sodipodi.sourceforge.net/DTD/sodipodi-0.dtd"
   xmlns:inkscape="http://www.inkscape.org/namespaces/inkscape"
   width="1664"
   height="1664"
   viewBox="0 0 1664 1664"
   id="svg2"
   version="1.1"
   inkscape:version="0.91 r13725"
   sodipodi:docname="slack.svg">
  <metadata
     id="metadata10">
    <rdf:RDF>
      <cc:Work
         rdf:about="">
        <dc:format>image/svg+xml</dc:format>
        <dc:type
           rdf:resource="http://purl.org/dc/dcmitype/StillImage" />
        <dc:title></dc:title>
      </cc:Work>
    </rdf:RDF>
  </metadata>
  <defs
     id="defs8" />
  <sodipodi:namedview
     pagecolor="#ffffff"
     bordercolor="#666666"
     borderopacity="1"
     objecttolerance="10"
     gridtolerance="10"
     guidetolerance="10"
     inkscape:pageopacity="0"
     inkscape:pageshadow="2"
     inkscape:window-width="698"
     inkscape:window-height="480"
     id="namedview6"
     showgrid="false"
     fit-margin-top="0"
     fit-margin-left="0"
     fit-margin-right="0"
     fit-margin-bottom="0"
     inkscape:zoom="0.13169643"
     inkscape:cx="832"
     inkscape:cy="768"
     inkscape:window-x="1459"
     inkscape:window-y="198"
     inkscape:window-maximized="0"
     inkscape:current-layer="svg2" />
  <path
     d="m 1519,776 q 62,0 103.5,40.5 41.5,40.5 41.5,101.5 0,97 -93,130 l -172,59 56,167 q 7,21 7,47 0,59 -42,102 -42,43 -101,43 -47,0 -85.5,-27 -38.5,-27 -53.5,-72 l -55,-165 -310,106 55,164 q 8,24 8,47 0,59 -42,102 -42,43 -102,43 -47,0 -85,-27 -38,-27 -53,-72 l -55,-163 -153,53 q -29,9 -50,9 -61,0 -101.5,-40 -40.5,-40 -40.5,-101 0,-47 27.5,-85 27.5,-38 71.5,-53 L 451,1132 346,819 190,873 q -26,8 -48,8 Q 82,881 41,840.5 0,800 0,740 0,693 27.5,655 55,617 99,602 L 256,549 203,390 q -8,-24 -8,-47 0,-60 42,-102.5 42,-42.5 102,-42.5 47,0 85,27 38,27 53,72 L 531,457 841,352 787,192 Q 779,168 779,145 779,86 821.5,43 864,0 923,0 970,0 1008.5,27.5 1047,55 1062,99 l 53,161 162,-55 q 21,-6 43,-6 60,0 102.5,39.5 42.5,39.5 42.5,98.5 0,45 -30,81.5 -30,36.5 -74,51.5 l -157,54 105,316 164,-56 q 24,-8 46,-8 z M 725,1038 1035,933 930,618 620,725 Z"
     id="path4"
     inkscape:connector-curvature="0"
     style="fill-opacity:1;fill:#95c5cd" />
</svg>
