<?xml version="1.0" encoding="utf-8"?>
<!-- Generator: Adobe Illustrator 13.0.2, SVG Export Plug-In  -->
<!DOCTYPE svg PUBLIC "-//W3C//DTD SVG 1.1//EN" "http://www.w3.org/Graphics/SVG/1.1/DTD/svg11.dtd" [
	<!ENTITY ns_flows "http://ns.adobe.com/Flows/1.0/">
]>
<svg version="1.1"
	 xmlns="http://www.w3.org/2000/svg" xmlns:xlink="http://www.w3.org/1999/xlink" xmlns:a="http://ns.adobe.com/AdobeSVGViewerExtensions/3.0/"
	 x="0px" y="0px" width="168px" height="30px" viewBox="-0.522 -0.896 168 30" enable-background="new -0.522 -0.896 168 30"
	 xml:space="preserve">
<defs>
</defs>
<path fill="#33409A" d="M38.989,19.526c0,3.033,2.201,3.916,5.12,3.916c3.002,0,4.153-1.662,4.153-2.959
	c0-0.777-0.584-1.814-1.469-2.154c-1.5-0.568-3.352-1.165-6.337-1.971c-4.152-1.114-4.687-3.554-4.687-5.813
	c0-3.993,4.02-6.225,7.905-6.225c4.536,0,8.372,2.26,8.372,6.773h-3.836c-0.25-2.597-2.068-3.451-4.67-3.451
	c-1.75,0-3.602,0.854-3.602,2.463c0,1.508,0.65,2.308,2.201,2.725c0.35,0.08,5.12,1.403,6.254,1.737
	c2.852,0.809,4.152,3.242,4.152,5.502c0,4.59-4.252,6.77-8.555,6.77c-4.804,0-8.873-1.945-8.956-7.313H38.989"/>
<path fill="#33409A" d="M64.589,15.966c-0.516-1.111-1.267-2.536-3.035-2.514c-1.784,0.022-3.818,1.063-3.818,5.136
	c0,2.154,0.684,4.96,3.686,4.96c1.4,0,2.985-0.601,3.269-2.674h3.735c-0.416,3.656-3.085,5.81-7.004,5.81
	c-4.67,0-7.722-3.322-7.722-8.096c0-4.228,2.769-8.121,7.839-8.121c2.668,0,5.937,1.169,6.67,5.499H64.589"/>
<path fill="#33409A" d="M69.776,5.357h3.818v6.851h0.084c1.317-0.803,2.535-1.688,4.619-1.688c3.387,0,5.204,2.65,5.204,5.71v10.067
	h-3.753v-9.161c0-0.983-0.7-3.291-2.734-3.291c-1.969,0-3.42,1.088-3.42,3.916v8.536h-3.818V5.357"/>
<path fill="#33409A" d="M93.759,18.64c0-4.748,2.936-8.096,7.955-8.096c5.037,0,8.021,3.531,8.021,8.096
	c0,4.567-3.219,8.176-8.021,8.176C96.927,26.816,93.759,23.259,93.759,18.64 M105.749,18.64c0-2.696-1.15-5.188-4.035-5.188
	c-2.752,0-3.986,2.699-3.986,5.188c0,2.751,1.168,5.265,3.986,5.265C104.466,23.905,105.749,21.211,105.749,18.64z"/>
<path fill="#33409A" d="M126.296,26.296h-3.735l-0.351-0.857h-0.05c-1.45,0.777-2.101,1.352-4.069,1.352
	c-4.937,0-7.104-4.208-7.104-7.707c0-5.968,3.702-8.591,6.554-8.591c1.985,0,2.936,0.312,4.67,1.48l0.217-0.101V5.351h3.869V26.296
	 M118.558,23.623c3.02,0,3.97-2.594,3.97-4.954c0-3.45-1.784-4.882-3.919-4.882c-1.701,0-3.553,1.506-3.553,4.959
	C115.056,19.834,115.556,23.623,118.558,23.623z"/>
<path fill="#33409A" d="M131.851,19.68c0,1.763,1.066,3.836,3.735,3.836c2.001,0,2.651-0.957,3.419-1.891h3.936
	c-0.783,3.376-3.936,5.059-7.354,5.059c-4.937,0-8.072-3.604-8.072-8.016c0-4.436,3.286-8.253,7.955-8.253
	c3.485,0,7.922,2.543,7.639,9.265H131.851 M138.987,16.772c-0.467-2.539-2.101-3.217-3.519-3.217c-1.801,0-3.618,1.089-3.618,3.217
	H138.987z"/>
<path fill="#33409A" d="M144.408,10.961h3.886v1.657h0.051c1.301-1.214,1.917-1.737,3.252-1.892c0.834-0.077,1,0.077,1.316,0.106
	v3.162c-3.268,0-4.652,1.711-4.652,4.23v8.07h-3.853V10.961"/>
<path fill="#33409A" d="M156.565,21.311c0.602,2.26,2.269,2.571,4.037,2.52c1.301-0.025,2.4-0.831,2.4-1.843
	c0-1.585-3.135-1.945-4.035-2.073c-2.519-0.417-5.504-1.457-5.137-4.854c0-3.22,3.785-4.462,6.638-4.462
	c3.219,0,6.021,1.791,6.037,4.776h-3.335c-0.468-1.38-1.252-1.923-2.936-2.052c-0.984-0.08-2.885,0.414-2.852,1.58
	c0.016,1.714,2.534,1.637,5.103,2.205c2.519,0.571,4.286,1.82,4.286,4.908c0,2.488-2.984,4.719-6.221,4.719
	c-4.553,0-6.938-1.477-7.438-5.425H156.565"/>
<path fill="#33409A" d="M85.203,10.961h3.886v1.657h0.05c1.301-1.214,1.918-1.737,3.235-1.892c0.834-0.077,1.018,0.077,1.334,0.106
	v3.162c-3.269,0-4.652,1.711-4.652,4.23v8.07h-3.853V10.961"/>
<path fill="#33409A" d="M18.326,13.858l0.1-0.025v-0.105l0.033-0.5l0.017-0.14l-0.15-0.012c-0.167-0.018-0.584-0.052-0.734,0.374
	v0.015v0.014c0-0.008,0,0.029-0.067,0.151c-0.033,0.061-0.066,0.151-0.05,0.237l0.8-0.003C18.31,13.861,18.326,13.858,18.326,13.858
	"/>
<polyline fill="#33409A" points="13.807,22.014 14.224,22.48 13.556,22.388 13.323,22.982 13.106,22.394 12.439,22.48 
	12.856,22.014 12.439,21.548 13.106,21.634 13.323,21.045 13.556,21.628 14.224,21.548 13.807,22.014 "/>
<polyline fill="#33409A" points="15.241,23.59 15.658,24.056 14.991,23.965 14.757,24.559 14.523,23.968 13.873,24.056 14.29,23.59 
	13.873,23.125 14.523,23.21 14.757,22.62 14.991,23.206 15.658,23.125 15.241,23.59 "/>
<polyline fill="#33409A" points="16.725,22.017 17.142,22.485 16.492,22.394 16.258,22.988 16.024,22.397 15.374,22.485 
	15.774,22.017 15.374,21.551 16.024,21.637 16.258,21.048 16.492,21.631 17.142,21.551 16.725,22.017 "/>
<path fill="#33409A" d="M15.991,17.615c0.133-0.08,0.25-0.16,0.317-0.203c0.15-0.1,0.517-0.58,0.601-0.654
	c0.083-0.074-0.067-0.054-0.067-0.054s-0.033,0.012-0.25,0.309c-0.351,0.454-0.65,0.534-1.018,0.797
	c-0.233,0.177-0.567,0.331-0.8,0.423c-0.233,0.091-0.05,0.071-0.05,0.071l0.384-0.037c0,0,0.5-0.411,0.567-0.448
	c0.017-0.006,0.033-0.023,0.067-0.034c0.184-0.061,0.434-0.206,0.734-0.215c0.3-0.009,0.684-0.014,0.75,0.031
	c0.083,0.052,0.183,0.015,0.033-0.025c-0.15-0.037-0.4-0.06-0.583-0.06C16.508,17.515,16.108,17.541,15.991,17.615"/>
<path fill="#33409A" d="M12.572,17.192c0.05,0.134,0.034,0.3-0.066,0.34c-0.1,0.043-0.234-0.054-0.284-0.191
	c-0.067-0.137-0.033-0.282,0.067-0.322S12.506,17.055,12.572,17.192"/>
<path fill="#33409A" d="M12.506,17.923c-0.034-0.146,0.033-0.3,0.133-0.32c0.1-0.017,0.217,0.105,0.233,0.255
	c0.033,0.143-0.033,0.279-0.133,0.297C12.639,18.174,12.522,18.069,12.506,17.923"/>
<path fill="#33409A" d="M13.94,16.141c0.083,0.217,0.033,0.468-0.117,0.528c-0.167,0.054-0.367-0.104-0.45-0.32
	c-0.083-0.217-0.017-0.439,0.133-0.5C13.656,15.79,13.856,15.92,13.94,16.141"/>
<path fill="#33409A" d="M13.556,16.812c0.15-0.046,0.3-0.009,0.334,0.092c0.033,0.097-0.067,0.22-0.217,0.269
	c-0.134,0.048-0.284,0.002-0.3-0.095C13.339,16.978,13.423,16.861,13.556,16.812"/>
<path fill="#33409A" d="M14.257,16.895c-0.117,0.068-0.25,0.068-0.3-0.006c-0.05-0.08,0.017-0.209,0.133-0.274
	c0.1-0.068,0.234-0.06,0.284,0.018C14.424,16.709,14.374,16.83,14.257,16.895"/>
<path fill="#33409A" d="M16.191,16.423c-0.05,0.226-0.233,0.414-0.384,0.38c-0.167-0.037-0.25-0.279-0.2-0.508
	c0.05-0.229,0.217-0.383,0.383-0.349C16.158,15.981,16.241,16.195,16.191,16.423"/>
<path fill="#33409A" d="M15.524,16.824c0.083,0.128,0.083,0.291-0.017,0.346c-0.083,0.057-0.234-0.018-0.3-0.146
	c-0.083-0.125-0.083-0.273,0.017-0.328C15.308,16.64,15.441,16.698,15.524,16.824"/>
<path fill="#33409A" d="M15.608,17.512c-0.117-0.104-0.15-0.261-0.083-0.332c0.083-0.074,0.25-0.034,0.367,0.066
	c0.1,0.1,0.133,0.239,0.05,0.313C15.875,17.634,15.725,17.612,15.608,17.512"/>
<path fill="#33409A" d="M12.973,17.877c-0.017-0.148,0.033-0.297,0.15-0.306c0.1-0.009,0.217,0.126,0.234,0.274
	c0.033,0.146-0.034,0.277-0.15,0.285C13.106,18.14,13.006,18.026,12.973,17.877"/>
<path fill="#33409A" d="M13.006,17.172c0.067,0.119,0.034,0.26-0.05,0.297c-0.083,0.034-0.2-0.049-0.25-0.169
	c-0.05-0.114-0.017-0.242,0.067-0.277C12.856,16.989,12.956,17.052,13.006,17.172"/>
<path fill="#33409A" d="M17.342,18.078c-0.167-0.172-0.217-0.426-0.1-0.534c0.117-0.111,0.367-0.043,0.534,0.126
	c0.15,0.171,0.183,0.399,0.066,0.511S17.492,18.246,17.342,18.078"/>
<path fill="#33409A" d="M16.758,17.786c0.05-0.143,0.167-0.248,0.267-0.217s0.133,0.194,0.1,0.334
	c-0.05,0.144-0.167,0.231-0.267,0.197C16.758,18.069,16.708,17.926,16.758,17.786"/>
<path fill="#33409A" d="M17.326,17.324c-0.05,0.14-0.184,0.242-0.284,0.208c-0.1-0.037-0.133-0.197-0.083-0.337
	c0.05-0.143,0.167-0.223,0.267-0.188S17.375,17.183,17.326,17.324"/>
<path fill="#33409A" d="M16.725,17.315c-0.05,0.143-0.184,0.24-0.284,0.194s-0.117-0.218-0.066-0.357
	c0.05-0.143,0.167-0.22,0.267-0.174C16.742,17.021,16.775,17.172,16.725,17.315"/>
<path fill="#33409A" d="M16.241,17.8c0.017-0.129,0.1-0.243,0.2-0.231c0.083,0.012,0.15,0.14,0.134,0.271
	c-0.017,0.123-0.1,0.22-0.184,0.212C16.292,18.041,16.225,17.926,16.241,17.8"/>
<path fill="#33409A" d="M14.824,17.815c-0.033-0.151,0.034-0.298,0.133-0.306c0.117-0.012,0.217,0.12,0.25,0.271
	c0.017,0.148-0.05,0.276-0.15,0.285C14.957,18.078,14.84,17.963,14.824,17.815"/>
<path fill="#33409A" d="M14.974,17.167c0.05,0.114,0.033,0.257-0.05,0.291c-0.083,0.037-0.2-0.046-0.25-0.163
	c-0.05-0.12-0.033-0.242,0.05-0.279C14.807,16.978,14.924,17.046,14.974,17.167"/>
<path fill="#33409A" d="M13.656,18.118c-0.117,0.083-0.183,0.12-0.25,0.137c-0.333,0.117-0.15,0.114,0.083,0.055
	c0.2-0.049,0.317-0.229,0.483-0.363c0.167-0.131,0.534-0.26,0.734-0.346c0.2-0.08,0.784-0.239,1.067-0.68
	c0.284-0.439,0.117-0.294,0.017-0.131c-0.083,0.162-0.15,0.263-0.3,0.371c-0.167,0.105-0.333,0.208-0.517,0.282
	c-0.2,0.072-0.417,0.138-0.601,0.231c-0.3,0.154-0.284,0.146-0.167-0.034c0.117-0.183,0.284-0.428,0.4-0.822
	c0.1-0.395-0.033-0.18-0.033-0.148c0,0-0.1,0.396-0.217,0.588c-0.083,0.154-0.133,0.309-0.267,0.412
	c-0.117,0.103-0.117,0.134-0.083-0.043c0,0,0.033-0.432-0.083-0.837c-0.133-0.406-0.184-0.378-0.117-0.2
	c0.083,0.174,0.167,0.688,0.15,0.997C13.94,17.963,13.656,18.118,13.656,18.118"/>
<path fill="#33409A" d="M16.441,16.049c-0.017-0.009-0.066-0.04-0.05-0.058c0-0.02,0.066-0.011,0.066-0.008
	c0.017,0.014,0.017,0.02,0.05,0.045c0.033,0.015,0.017,0.021,0,0.015C16.458,16.038,16.441,16.049,16.441,16.049"/>
<path fill="#33409A" d="M17.559,16.846c0.017,0.015,0.033,0.065,0,0.074c-0.017,0.009-0.05-0.034-0.05-0.043
	c-0.017-0.022,0-0.025-0.017-0.068c0-0.022,0-0.025,0.017-0.009C17.542,16.832,17.559,16.846,17.559,16.846"/>
<path fill="#33409A" d="M17.842,15.987c0.017,0,0.067,0,0.083,0.02c0,0.021-0.05,0.052-0.066,0.052
	c-0.017,0-0.017-0.009-0.067-0.009c-0.033,0-0.033-0.009,0-0.018C17.826,16.015,17.842,15.987,17.842,15.987"/>
<path fill="#33409A" d="M16.558,16.021c-0.017-0.043-0.083-0.154,0.1-0.229c0.2-0.069,0.2-0.111,0.234-0.163
	c0.05-0.049,0.117-0.117,0.2-0.043c0.067,0.068,0.05,0.065,0.1,0.009c0.067-0.055,0.134-0.074,0.217,0.022
	c0.067,0.095,0.1,0.151,0.234,0.194c0.133,0.04,0.167,0.135,0.117,0.203c-0.05,0.065-0.017,0.046,0.05,0.1
	c0.067,0.055,0.067,0.101-0.017,0.212s-0.1,0.165-0.1,0.309c-0.017,0.14-0.083,0.171-0.15,0.143
	c-0.067-0.025-0.067-0.049-0.067,0.022c0,0.068-0.033,0.146-0.133,0.132c-0.1-0.015-0.2-0.058-0.317-0.026
	c-0.117,0.029-0.233,0.023-0.233-0.088c0-0.108,0-0.103-0.067-0.089c-0.083,0.015-0.133-0.031-0.15-0.143
	c0-0.117-0.017-0.197-0.067-0.274c-0.067-0.077-0.067-0.171,0-0.206C16.608,16.066,16.558,16.021,16.558,16.021 M16.625,16.112
	c-0.067-0.008-0.1,0.123,0,0.175c0.067,0.04,0.083,0.165,0.05,0.251c-0.034,0.095,0.033,0.16,0.1,0.126
	c0.134-0.068,0.134-0.108,0.083,0.083c-0.033,0.108,0.1,0.077,0.184,0.048c0.1-0.04,0.15-0.04,0.284,0.043
	c0.066,0.046,0.117-0.068,0.1-0.125c-0.05-0.151-0.034-0.086,0.066-0.006c0.05,0.04,0.133,0.017,0.1-0.126
	c-0.017-0.12,0.033-0.186,0.1-0.283c0.083-0.097,0.083-0.186,0.017-0.183c-0.184,0-0.167,0-0.033-0.071
	c0.066-0.034,0.05-0.183-0.1-0.16c-0.133,0.018-0.184-0.083-0.233-0.18c-0.034-0.103-0.134-0.092-0.15-0.022
	c-0.033,0.18-0.033,0.229-0.066,0.011c-0.017-0.091-0.117-0.068-0.184,0.052c-0.05,0.092-0.033,0.097-0.217,0.129
	c-0.184,0.034-0.1,0.134-0.083,0.174C16.642,16.046,16.925,16.141,16.625,16.112z"/>
<path fill="#33409A" d="M17.109,15.484c0-0.015,0.033-0.066,0.05-0.063s0.033,0.063,0.017,0.072c0,0.022,0,0.02-0.017,0.063
	c-0.017,0.025-0.017,0.022-0.017,0C17.125,15.512,17.109,15.484,17.109,15.484"/>
<path fill="#33409A" d="M16.809,16.112c0-0.025-0.05-0.091,0.066-0.131c0.1-0.04,0.1-0.066,0.134-0.095
	c0.017-0.028,0.066-0.068,0.1-0.025c0.05,0.04,0.033,0.037,0.066,0.006s0.083-0.043,0.117,0.014c0.05,0.055,0.067,0.089,0.15,0.111
	c0.066,0.023,0.1,0.077,0.066,0.117c-0.033,0.04-0.017,0.029,0.017,0.058c0.05,0.031,0.05,0.06,0,0.123
	c-0.05,0.065-0.05,0.094-0.066,0.177c0,0.083-0.033,0.1-0.083,0.089c-0.033-0.018-0.033-0.031-0.033,0.009
	c0,0.039-0.017,0.082-0.083,0.076c-0.05-0.011-0.117-0.031-0.184-0.014c-0.066,0.017-0.133,0.012-0.133-0.052
	c0-0.063,0-0.06-0.033-0.051c-0.05,0.008-0.083-0.018-0.083-0.086c0-0.065-0.017-0.114-0.05-0.154c-0.033-0.046-0.033-0.103,0-0.12
	C16.842,16.141,16.809,16.112,16.809,16.112 M17.159,16.426c0.083,0,0.167-0.077,0.167-0.174c0-0.104-0.083-0.181-0.167-0.181
	c-0.1,0-0.184,0.077-0.184,0.181C16.975,16.349,17.059,16.426,17.159,16.426z"/>
<path fill="#33409A" d="M14.007,15.941c-0.017-0.009-0.05-0.04-0.05-0.058c0-0.017,0.067-0.014,0.083-0.009
	c0.017,0.015,0,0.021,0.05,0.043c0.017,0.015,0.017,0.023-0.017,0.021C14.04,15.929,14.007,15.941,14.007,15.941"/>
<path fill="#33409A" d="M15.141,16.735c0,0.018,0.017,0.068,0,0.077s-0.066-0.034-0.066-0.046c0-0.022,0-0.025-0.017-0.068
	c0-0.025,0-0.025,0.017-0.009C15.107,16.723,15.141,16.735,15.141,16.735"/>
<path fill="#33409A" d="M15.424,15.875c0.017,0,0.066,0,0.066,0.023c0,0.02-0.05,0.049-0.066,0.049s-0.017-0.006-0.067-0.006
	c-0.017,0-0.017-0.009,0-0.021C15.391,15.904,15.424,15.875,15.424,15.875"/>
<path fill="#33409A" d="M14.14,15.913c-0.017-0.046-0.1-0.16,0.083-0.229c0.2-0.069,0.2-0.114,0.25-0.163
	c0.033-0.052,0.1-0.12,0.184-0.046c0.083,0.074,0.05,0.065,0.117,0.009c0.05-0.055,0.117-0.074,0.2,0.025
	c0.083,0.092,0.1,0.151,0.233,0.194c0.133,0.037,0.184,0.134,0.117,0.203c-0.05,0.065-0.017,0.048,0.05,0.1
	c0.067,0.055,0.083,0.098,0,0.212c-0.083,0.108-0.1,0.162-0.117,0.306c0,0.146-0.066,0.171-0.133,0.148
	c-0.067-0.029-0.083-0.052-0.083,0.017c0,0.071-0.017,0.148-0.117,0.135c-0.117-0.018-0.217-0.058-0.333-0.029
	c-0.117,0.035-0.217,0.026-0.217-0.085c0-0.108,0-0.101-0.083-0.089c-0.083,0.018-0.133-0.028-0.133-0.146
	c-0.017-0.114-0.017-0.197-0.083-0.271c-0.066-0.077-0.066-0.175,0.017-0.206C14.173,15.958,14.14,15.913,14.14,15.913 M14.19,16
	c-0.066-0.006-0.1,0.123,0,0.178c0.067,0.04,0.083,0.165,0.05,0.248c-0.017,0.095,0.05,0.163,0.117,0.129
	c0.117-0.069,0.117-0.111,0.067,0.083c-0.017,0.105,0.117,0.077,0.183,0.045c0.1-0.04,0.15-0.04,0.284,0.043
	c0.066,0.049,0.117-0.065,0.1-0.125c-0.05-0.149-0.017-0.086,0.066-0.003c0.05,0.04,0.134,0.017,0.117-0.126
	c-0.017-0.123,0.017-0.186,0.1-0.283c0.067-0.097,0.083-0.186,0-0.186c-0.167,0.003-0.15,0-0.017-0.068
	c0.05-0.034,0.034-0.186-0.117-0.163c-0.117,0.018-0.184-0.083-0.217-0.18c-0.05-0.103-0.15-0.089-0.167-0.022
	c-0.034,0.18-0.034,0.23-0.067,0.014c-0.017-0.094-0.117-0.071-0.167,0.052c-0.05,0.088-0.05,0.094-0.233,0.126
	c-0.183,0.034-0.083,0.137-0.066,0.177C14.224,15.938,14.507,16.029,14.19,16z"/>
<path fill="#33409A" d="M14.69,15.375c0-0.015,0.017-0.066,0.033-0.063s0.034,0.061,0.034,0.068
	c-0.017,0.026-0.017,0.023-0.034,0.066c0,0.022-0.017,0.02-0.017-0.003C14.707,15.404,14.69,15.375,14.69,15.375"/>
<path fill="#33409A" d="M14.39,16.003c-0.017-0.025-0.066-0.091,0.05-0.131c0.117-0.043,0.117-0.069,0.133-0.095
	c0.033-0.031,0.067-0.071,0.117-0.028c0.033,0.043,0.033,0.037,0.05,0.006c0.034-0.032,0.083-0.043,0.134,0.014
	c0.033,0.055,0.05,0.089,0.133,0.114c0.083,0.021,0.1,0.077,0.067,0.114c-0.034,0.04-0.017,0.029,0.033,0.061
	c0.033,0.028,0.033,0.057,0,0.123c-0.05,0.065-0.067,0.094-0.067,0.177c-0.017,0.08-0.05,0.1-0.083,0.083
	c-0.05-0.015-0.05-0.029-0.05,0.014c0,0.04-0.017,0.083-0.067,0.074c-0.066-0.008-0.133-0.031-0.2-0.014
	c-0.067,0.017-0.117,0.014-0.117-0.052c0-0.063,0-0.057-0.05-0.052c-0.05,0.009-0.067-0.017-0.083-0.082c0-0.066,0-0.114-0.05-0.157
	c-0.034-0.046-0.034-0.101,0.017-0.12C14.407,16.029,14.39,16.003,14.39,16.003 M14.724,16.318c0.1,0,0.184-0.08,0.184-0.177
	c0-0.101-0.083-0.181-0.184-0.181s-0.183,0.08-0.183,0.181C14.541,16.238,14.624,16.318,14.724,16.318z"/>
<path fill="#33409A" d="M13.306,17.48c-0.117-0.079-0.117-0.065-0.184-0.108c-0.15-0.097-0.617-0.522-0.7-0.594
	s0.05-0.055,0.05-0.055s0.167,0.063,0.317,0.255c0.351,0.454,0.717,0.508,1.084,0.771c0.234,0.175,0.451,0.412,0.684,0.503
	c0.233,0.089,0.05,0.071,0.05,0.071l-0.4-0.037c0,0-0.367-0.491-0.434-0.528c-0.017-0.006-0.25-0.183-0.267-0.191
	c-0.2-0.06-0.4-0.054-0.917,0.043c-0.3,0.052-0.684-0.017-0.75,0.031c-0.066,0.049-0.167,0.012-0.033-0.025
	c0.15-0.04,0.417-0.063,0.584-0.063c0.183,0,0.617-0.146,0.733-0.074L13.306,17.48"/>
<path fill="#33409A" d="M11.639,17.557c0.183-0.134,0.45-0.159,0.55-0.028c0.083,0.132-0.017,0.371-0.2,0.509
	c-0.184,0.14-0.417,0.143-0.517,0.012C11.372,17.917,11.455,17.698,11.639,17.557"/>
<path fill="#33409A" d="M11.605,16.121c0-0.006-0.05-0.037-0.033-0.055c0-0.017,0.067-0.017,0.067-0.008
	c0.017,0.011,0.017,0.017,0.05,0.046c0.033,0.011,0.017,0.017,0,0.014C11.639,16.112,11.605,16.121,11.605,16.121"/>
<path fill="#33409A" d="M13.022,16.061c0.017-0.003,0.067,0,0.083,0.017c0,0.021-0.05,0.052-0.066,0.052
	c-0.017,0-0.017-0.009-0.067-0.009c-0.033,0-0.017-0.006,0-0.017C13.006,16.086,13.022,16.061,13.022,16.061"/>
<path fill="#33409A" d="M11.738,16.092c-0.017-0.043-0.1-0.154,0.1-0.226c0.2-0.071,0.184-0.114,0.234-0.163
	c0.05-0.049,0.117-0.12,0.2-0.043c0.067,0.068,0.05,0.063,0.1,0.006c0.05-0.055,0.134-0.071,0.217,0.022
	c0.067,0.098,0.1,0.154,0.234,0.194c0.133,0.043,0.167,0.138,0.117,0.203c-0.05,0.071-0.017,0.049,0.05,0.103
	c0.067,0.055,0.067,0.098-0.017,0.209c-0.083,0.114-0.1,0.168-0.1,0.309c-0.017,0.143-0.083,0.174-0.15,0.146
	c-0.067-0.022-0.067-0.049-0.067,0.022c0,0.069-0.033,0.146-0.133,0.129c-0.1-0.015-0.2-0.058-0.317-0.025
	c-0.117,0.031-0.233,0.022-0.233-0.086s0.017-0.1-0.067-0.089c-0.083,0.015-0.133-0.028-0.15-0.146c0-0.114-0.017-0.197-0.067-0.274
	c-0.067-0.074-0.067-0.171,0-0.202C11.789,16.141,11.738,16.092,11.738,16.092 M11.805,16.186c-0.067-0.008-0.1,0.12,0,0.175
	c0.067,0.04,0.083,0.163,0.05,0.248c-0.034,0.098,0.05,0.163,0.1,0.126c0.134-0.065,0.134-0.108,0.083,0.086
	c-0.033,0.108,0.1,0.077,0.184,0.046c0.1-0.037,0.15-0.037,0.284,0.045c0.066,0.046,0.117-0.068,0.1-0.125
	c-0.05-0.151-0.034-0.089,0.066-0.009c0.05,0.043,0.133,0.017,0.1-0.123c-0.017-0.123,0.033-0.188,0.1-0.285
	c0.083-0.095,0.083-0.184,0.017-0.184c-0.184,0.003-0.167,0-0.033-0.068c0.067-0.037,0.05-0.183-0.1-0.16
	c-0.133,0.015-0.184-0.085-0.233-0.183c-0.034-0.103-0.15-0.091-0.15-0.022c-0.033,0.18-0.033,0.229-0.066,0.014
	c-0.017-0.094-0.117-0.071-0.184,0.049c-0.05,0.095-0.05,0.098-0.217,0.132c-0.184,0.034-0.1,0.131-0.083,0.171
	C11.822,16.118,12.105,16.212,11.805,16.186z"/>
<path fill="#33409A" d="M11.922,16.926c-0.017,0.009-0.05,0.046-0.066,0.034c-0.017-0.015,0-0.068,0.017-0.077
	c0.017-0.015,0.017-0.009,0.05-0.043c0.017-0.017,0.017-0.009,0.017,0.012C11.922,16.892,11.922,16.926,11.922,16.926"/>
<path fill="#33409A" d="M12.322,15.626c0,0.025,0,0.028,0.017,0.003c0.017-0.046,0.017-0.04,0.017-0.063
	c0.017-0.012,0-0.072-0.017-0.072c-0.033-0.002-0.05,0.049-0.05,0.063C12.289,15.558,12.306,15.583,12.322,15.626"/>
<path fill="#33409A" d="M11.989,16.186c0-0.028-0.05-0.094,0.066-0.134c0.1-0.04,0.1-0.065,0.134-0.092
	c0.017-0.031,0.066-0.071,0.1-0.025c0.05,0.037,0.033,0.034,0.066,0.006c0.034-0.031,0.083-0.043,0.117,0.014
	c0.05,0.052,0.067,0.086,0.15,0.109c0.066,0.022,0.1,0.079,0.066,0.119c-0.033,0.037-0.017,0.026,0.017,0.055
	c0.05,0.034,0.05,0.06,0,0.126c-0.05,0.063-0.05,0.094-0.066,0.177c0,0.083-0.033,0.1-0.083,0.086
	c-0.033-0.018-0.033-0.028-0.033,0.012c0,0.039-0.017,0.082-0.083,0.074c-0.05-0.009-0.117-0.032-0.184-0.015
	c-0.066,0.018-0.133,0.015-0.133-0.052c0-0.063,0-0.057-0.033-0.048c-0.05,0.005-0.083-0.021-0.083-0.086s-0.017-0.117-0.05-0.157
	c-0.033-0.046-0.033-0.1,0-0.12C12.022,16.212,11.989,16.186,11.989,16.186 M12.339,16.503c0.083,0,0.167-0.083,0.167-0.18
	c0-0.098-0.083-0.178-0.167-0.178c-0.1,0-0.184,0.08-0.184,0.178C12.155,16.42,12.239,16.503,12.339,16.503z"/>
<path fill="#33409A" d="M3.683,9.662C4.1,9.785,4.601,9.476,4.967,9.753c0.167,0.108-0.017,0.126-0.05,0.103
	C4.817,9.773,4.2,9.988,3.883,9.917C3.7,9.876,3.6,9.708,3.6,9.708S3.466,9.55,3.683,9.662"/>
<path fill="#33409A" d="M18.943,17.284v-0.009c0.217-0.151,0.434-0.289,0.634-0.408v-3.003h-1.301
	c-0.066,0.021-0.217,0.063-0.217,0.061c0,0.003-0.2,0.065-0.317,0.091c-0.1,0.021-0.183,0-0.233-0.063
	c-0.017-0.012-0.017-0.025-0.017-0.04c-0.033,0.074-0.083,0.163-0.184,0.217c-0.05,0.026-0.167,0.063-0.317-0.003l-0.033-0.014
	l-0.033-0.021c-0.133-0.103-0.284-0.177-0.484-0.226l-0.934,0.003c-0.134,0.043-0.317,0.126-0.467,0.269
	c0.1,0.08,0.184,0.209,0.184,0.352c0,0.242-0.2,0.442-0.45,0.442c-0.1,0-0.217-0.046-0.284-0.12l0.017,0.071l-0.083,0.023
	l-0.083-0.031l-2.352-0.806l0.066-0.197H9.971v4.368l0.033,0.388c0.034,0.043,0.067,0.077,0.1,0.106
	c0.083,0.091,0.133,0.248,0.1,0.371c-0.033,0.08-0.083,0.134-0.15,0.157v0.017c0.05,1.386,0.534,2.7,1.15,3.862
	c0.801,1.365,2.085,2.392,3.436,3.208c0.066,0.055,0.183,0.055,0.25,0.003c1.368-0.816,2.652-1.84,3.452-3.202
	c0.533-1.017,0.984-2.151,1.117-3.345l-0.017-0.015l-0.017-0.021c-0.2-0.214-0.283-0.502-0.35-0.791
	c-0.051,0.026-0.117,0.04-0.184,0.04c-0.25,0-0.434-0.2-0.434-0.442c0-0.229,0.167-0.414,0.401-0.435l-0.018-0.02
	c-0.083-0.151-0.25-0.515,0.084-0.829L18.943,17.284 M10.188,14.493c0-0.24,0.2-0.438,0.434-0.438c0.25,0,0.45,0.197,0.45,0.438
	c0,0.245-0.2,0.442-0.45,0.442C10.388,14.935,10.188,14.738,10.188,14.493z M10.688,19.048c-0.234,0-0.434-0.199-0.434-0.439
	c0-0.246,0.2-0.44,0.434-0.44c0.25,0,0.45,0.194,0.45,0.44C11.138,18.849,10.938,19.048,10.688,19.048z M11.322,15.212h6.871v3.239
	h-6.871V15.212z M11.722,23.203c-0.25,0-0.45-0.197-0.45-0.44s0.2-0.439,0.45-0.439c0.233,0,0.434,0.196,0.434,0.439
	S11.955,23.203,11.722,23.203z M14.757,26.122c-0.234,0-0.434-0.2-0.434-0.439c0-0.246,0.2-0.443,0.434-0.443
	c0.25,0,0.45,0.197,0.45,0.443C15.208,25.921,15.007,26.122,14.757,26.122z M14.824,24.919l-0.15-0.003
	c-0.951-0.643-1.785-1.371-2.352-2.38c-0.384-0.577-0.65-1.226-0.834-1.886l6.521-0.005c-0.017,0.485-0.233,0.939-0.434,1.371
	C17.042,23.246,15.975,24.25,14.824,24.919z M17.876,23.203c-0.25,0-0.434-0.197-0.434-0.44s0.183-0.439,0.434-0.439
	c0.233,0,0.434,0.196,0.434,0.439S18.109,23.203,17.876,23.203z M18.426,14.475c0-0.242,0.2-0.439,0.434-0.439
	c0.25,0,0.449,0.197,0.449,0.439c0,0.243-0.199,0.443-0.449,0.443C18.626,14.918,18.426,14.718,18.426,14.475z"/>
<path fill="#33409A" d="M14.49,13.87h-1.284l1.051,0.363C14.324,14.101,14.407,13.981,14.49,13.87"/>
<path fill="#33409A" d="M25.681,5.491c0.15,0.138,0.1,0.341,0.1,0.537c-0.166,0.086-0.283-0.196-0.449-0.251
	c-0.051,0.028-0.134,0.086-0.15,0.123c0.05-0.012,0.1,0.009,0.133,0.043c0.084,0.077,0.134,0.223,0.25,0.257l-0.232,0.214
	c-0.018-0.148-0.484-0.297-0.134-0.485c-0.033-0.009-0.067-0.02-0.101-0.031c-0.166-0.065-0.25-0.2-0.133-0.392
	C25.081,5.274,25.515,5.317,25.681,5.491"/>
<path fill="#33409A" d="M24.88,6.168c0.168,0.22,0.434,0.468,0.334,0.733c-0.117,0.123-0.267,0.203-0.45,0.16
	c-0.167-0.346-0.567-0.588-0.467-1.034c0.2-0.091,0.351-0.319,0.5-0.5C24.747,5.703,24.714,5.98,24.88,6.168"/>
<path fill="#33409A" d="M22.995,5.375c-0.016,0.014-0.016,0.02-0.016,0.042c0.367-0.022,0.633,0.329,0.801,0.558
	c-0.751,0.137-1.118-0.632-1.902-0.48v0.074c0.818,0.455,1.602,0.883,2.318,1.463c0.25,0.157,0.635,0.448,1.051,0.138
	c-0.3,0.303-0.95,0.919-1.484,0.485c-0.199-0.092,0.066-0.263,0.066-0.417c-0.25-0.003-0.699,0.131-0.85-0.163
	c-0.434-0.368-0.768-0.849-1.301-1.028c0.184,0.397,0.666,0.769,0.666,1.309c-0.434,0.297-0.299-0.395-0.616-0.526
	c0,0.271-0.017,0.586-0.184,0.801c-0.134,0.223-0.45,0.236-0.517,0.52c-0.351-0.812,0.983-1.711,0.016-2.337l-0.149-0.006
	c0.2-0.88,1.368-0.471,1.935-1.074c0.334-0.351,0.533-0.52,0.834-0.877C23.646,4.394,23.663,5.16,22.995,5.375"/>
<path fill="#33409A" d="M20.761,5.419c-0.967,1.506,0.418,2.939,0.434,4.488c0.066-0.065,0.066-0.212,0.101-0.314
	c0.167-0.731,0.116-1.828,1.05-1.968c0.334-0.052,1.135-0.227,1.252-0.215l-0.451,0.834c-0.867,0.175-1.367,1.105-1.65,1.843
	l0.033,0.025c0.184-0.306,0.5-0.653,0.934-0.616l0.15,0.177c-0.117-0.028-0.367-0.1-0.484,0.063
	c-0.399,0.395-0.55,1.105-1.184,1.188c-0.3-0.022-0.617,0.031-0.884-0.065c0.233-0.058,0.217-0.38,0.149-0.558
	c-0.166-0.251-0.383-0.497-0.699-0.576c-0.25-0.037-0.484,0.034-0.701,0.108c0.033-0.269,0.217-0.406,0.417-0.525
	c-0.366-0.357-1-0.029-1.367-0.423c-0.234-0.203-0.484-0.472-0.334-0.812c0.15-0.098,0.317-0.206,0.5-0.157
	c-0.067,0.057-0.184,0.063-0.184,0.163c0.317,0.06,0.601-0.234,0.934-0.055c0.617,0.132,0.9,0.769,1.234,1.197
	c0.25,0.365,0.434,0.813,0.733,1.165c0.034-0.611-0.351-1.125-0.567-1.674c-0.366-0.766-1.316-1.634-0.684-2.591
	C19.894,5.891,20.345,5.651,20.761,5.419"/>
<path fill="#33409A" d="M12.889,8.954c-0.65,0.054-0.8,0.708-1.317,0.948v0.052c1.117-0.077,2.035-0.549,2.969-1.126
	C13.973,8.859,13.439,8.908,12.889,8.954 M13.022,9.51c0.1-0.126-0.05-0.429,0.284-0.411C13.206,9.228,13.373,9.537,13.022,9.51z"/>
<path fill="#33409A" d="M4.017,5.708C4,5.876,3.917,6.071,3.783,6.142l-0.45-0.374c-0.067,0.151-0.1,0.326-0.184,0.463
	c-0.05,0.095-0.35,0.36-0.267-0.349c0.05-0.168,0.2-0.362,0.383-0.408C3.5,5.334,3.917,5.414,4.017,5.708"/>
<path fill="#33409A" d="M4.667,7.859L4.667,7.859C4.167,7.905,3.9,7.437,3.483,7.222C3.5,6.697,4.083,6.485,4.184,5.997
	C4.367,6.628,4.1,7.428,4.667,7.859"/>
<path fill="#33409A" d="M3.683,6.477C3.517,6.602,3.517,6.817,3.35,6.74C3.016,6.639,3.417,6.234,3.383,6.102
	C3.533,6.216,3.733,6.366,3.683,6.477"/>
<path fill="#33409A" d="M5.718,4.348c0.434,0.463,1.001,0.877,1.734,0.914c0.25,0.026,0.534,0.086,0.801,0.069
	c0.284,0.276,0.65,0.465,0.934,0.699v0.052C8.753,6.094,8.303,6.354,8.12,6.716c-0.333,0.601,0.434,1.089,0.033,1.66
	c0.017,0.057-0.017,0.16-0.1,0.111c-0.1-0.475-0.734-0.694-0.5-1.297L7.519,7.163c-0.25,0.282-0.534,0.625-1,0.468
	c0.55-0.266,0.65-1.06,1.234-1.34L8.103,6.08c-0.117-0.037-0.267,0.031-0.4,0.065C6.885,6.502,6.385,7.108,5.718,7.614
	C4.701,8.245,4.534,7.228,4.534,6.982c0.1-0.108,0.2,0.009,0.317-0.045C5.668,6.648,6.302,6.12,7.136,5.869
	C6.435,5.568,5.685,6.406,5.051,5.751V5.677c0.467,0.251,0.934-0.104,1.368-0.218l-0.05-0.046C5.885,5.36,5.268,5.443,5.051,4.946
	c-0.067-0.277,0.117-0.58,0.017-0.854C5.201,4.366,5.501,4.24,5.718,4.348"/>
<path fill="#33409A" d="M9.554,6.448c0.184,0.229,0.333,0.489,0.2,0.837C9.487,8.208,8.62,8.874,8.703,9.927
	c0.767-0.582,1.101-2.225,2.418-1.628c0.183-0.018,0.367,0.037,0.517,0.057c-0.267,0.112-0.284,0.417-0.434,0.626
	c-0.483,0.626-1.484,0.18-1.968,0.886c0.384-0.095,0.701,0.168,1,0.314c0.167,0.117-0.017,0.239-0.117,0.334
	c-0.217-0.166-0.467-0.363-0.767-0.28c-0.25,0.058-0.534,0.24-0.65,0.494c-0.133,0.349,0.117,0.603,0.3,0.854l-1.468-0.543
	c-0.066-0.417-0.483-0.886-0.834-1.063c-0.2-0.092-0.5-0.018-0.583-0.283V9.625C6.402,9.856,6.652,9.51,6.952,9.67l0.217,0.097
	c0-0.151-0.2-0.346-0.333-0.442c-0.45-0.389-1.334-0.731-1.084-1.537c0.35,0.417,1,0,1.334,0.423c0.65,0.446,0.35,1.426,0.801,2.034
	c0.1-0.237,0.05-0.451,0.066-0.729c0.3-1.046,0.951-1.819,0.951-2.968c-0.05-0.028-0.067-0.063-0.05-0.117
	C9.053,6.311,9.387,6.268,9.554,6.448"/>
<path fill="#33409A" d="M10.888,10.333c0.267,0.194,0.517,0.394,0.733,0.594l-0.033,0.034c-0.567,0.552-1.351,0.908-2.185,0.66
	c-0.15-0.012-0.3-0.289-0.351-0.349c-0.033-0.06-0.066-0.12-0.1-0.183c-0.05-0.172,0.034-0.183,0.117-0.172
	c0.633-0.043,1.167-0.223,1.701-0.588L10.888,10.333"/>
<path fill="#33409A" d="M11.889,11.176c0.117,0.131,0.284,0.402,0.383,0.574c0.017,0.011,0.034,0.025-0.083,0.22
	c-0.3,0.294-0.55,0.254-0.601,0.266c-0.033,0.012-0.083,0.02-0.117,0.012c-0.033-0.009-0.117-0.043,0.017-0.12
	c0.25-0.246,0.1-0.675,0.317-0.932C11.805,11.184,11.838,11.196,11.889,11.176"/>
<path fill="#33409A" d="M15.591,4.7c-0.167-0.168-0.217-0.42-0.1-0.531c0.117-0.111,0.367-0.046,0.534,0.126
	c0.15,0.171,0.184,0.399,0.067,0.511C15.975,4.917,15.741,4.872,15.591,4.7"/>
<path fill="#33409A" d="M16.225,4.237c-0.167-0.171-0.217-0.423-0.1-0.534c0.117-0.114,0.367-0.043,0.534,0.126
	c0.167,0.169,0.184,0.397,0.067,0.512C16.608,4.452,16.392,4.406,16.225,4.237"/>
<path fill="#33409A" d="M16.108,3.143c0.133,0.188,0.167,0.442,0.034,0.54c-0.134,0.1-0.367,0.003-0.517-0.186
	c-0.134-0.188-0.134-0.42-0.017-0.515C15.741,2.883,15.975,2.955,16.108,3.143"/>
<line fill="#33409A" stroke="#888A8C" stroke-width="0.069" x1="14.69" y1="6.08" x2="14.69" y2="1.935"/>
<path fill="#33409A" stroke="#888A8C" stroke-width="0.0897" d="M14.523,5.743c-0.2-0.565-0.434-1.435-0.867-1.78
	c-0.434-0.345-0.784-0.422-0.9-0.603"/>
<path fill="#33409A" stroke="#888A8C" stroke-width="0.0897" d="M14.824,5.725c0.2-0.702,0.284-1.271,0.867-1.745
	c0.584-0.475,0.867-0.417,0.884-0.703"/>
<path fill="#33409A" d="M16.975,3c-0.083,0.22-0.267,0.386-0.434,0.331c-0.15-0.052-0.2-0.303-0.133-0.525
	c0.083-0.22,0.333-0.42,0.467-0.34C17.009,2.56,17.059,2.78,16.975,3"/>
<path fill="#33409A" d="M12.839,2.94c0.133,0.186,0.167,0.44,0.033,0.537c-0.133,0.103-0.367,0.006-0.517-0.183
	c-0.133-0.186-0.15-0.417-0.017-0.515C12.472,2.68,12.689,2.751,12.839,2.94"/>
<path fill="#33409A" d="M13.807,3.446c-0.117,0.206-0.333,0.331-0.484,0.249c-0.15-0.077-0.15-0.335-0.033-0.537
	c0.1-0.206,0.317-0.306,0.467-0.227C13.89,3.014,13.923,3.243,13.807,3.446"/>
<path fill="#33409A" d="M12.739,3.903c0.15-0.183,0.383-0.277,0.517-0.177c0.133,0.1,0.1,0.354-0.034,0.54
	c-0.15,0.186-0.367,0.254-0.5,0.153C12.589,4.32,12.606,4.088,12.739,3.903"/>
<path fill="#33409A" d="M14.44,4.014c-0.15,0.18-0.384,0.26-0.517,0.154c-0.117-0.105-0.083-0.359,0.066-0.537
	c0.15-0.18,0.384-0.237,0.5-0.131C14.624,3.609,14.59,3.837,14.44,4.014"/>
<path fill="#33409A" d="M13.456,4.337c0.15-0.172,0.4-0.24,0.517-0.129c0.134,0.114,0.067,0.365-0.083,0.534
	c-0.167,0.172-0.384,0.217-0.517,0.105C13.256,4.737,13.29,4.508,13.456,4.337"/>
<path fill="#33409A" d="M15.374,3.583c0.167,0.154,0.25,0.397,0.134,0.523c-0.1,0.123-0.351,0.08-0.534-0.071
	c-0.167-0.154-0.234-0.38-0.117-0.503C14.957,3.406,15.191,3.431,15.374,3.583"/>
<path fill="#33409A" d="M13.339,1.158c-0.017-0.012-0.1-0.068-0.083-0.1c0.017-0.037,0.133-0.029,0.15-0.018
	c0.033,0.025,0.017,0.034,0.083,0.08c0.05,0.028,0.033,0.037,0,0.031C13.406,1.137,13.339,1.158,13.339,1.158"/>
<path fill="#33409A" d="M15.441,2.628c0.017,0.029,0.033,0.123,0,0.138c-0.033,0.017-0.117-0.061-0.117-0.08
	c-0.017-0.043,0-0.046-0.017-0.126c-0.017-0.046,0-0.049,0.033-0.014C15.374,2.609,15.441,2.628,15.441,2.628"/>
<path fill="#33409A" d="M15.958,1.043c0.033-0.003,0.117,0,0.133,0.034c0,0.04-0.083,0.095-0.117,0.095s-0.033-0.015-0.117-0.015
	c-0.05,0-0.05-0.015-0.017-0.028C15.925,1.095,15.958,1.043,15.958,1.043"/>
<path fill="#33409A" d="M15.875,1.281c-0.117-0.098-0.184-0.058-0.083-0.184c0.1-0.125,0.034-0.303-0.217-0.377
	c-0.25-0.077-0.3-0.183-0.434-0.359c-0.15-0.178-0.283-0.143-0.383-0.04c-0.117,0.103-0.067,0.114-0.2-0.015
	c-0.15-0.14-0.284-0.011-0.351,0.08c-0.083,0.092-0.083,0.172-0.45,0.3c-0.35,0.132-0.2,0.34-0.167,0.42c0,0,0.083,0.083-0.1,0.16
	c-0.133,0.058-0.133,0.237-0.017,0.377c0.117,0.141,0.133,0.292,0.15,0.506c0.017,0.211,0.1,0.294,0.25,0.269
	c0.15-0.022,0.15-0.043,0.15,0.163c0,0.202,0.2,0.217,0.4,0.159c0.217-0.054,0.417,0.018,0.6,0.046
	c0.2,0.029,0.233-0.111,0.25-0.239c0-0.132,0-0.086,0.134-0.037c0.117,0.045,0.25-0.009,0.25-0.271
	c0.017-0.261,0.067-0.36,0.217-0.568C16.024,1.463,16.008,1.38,15.875,1.281 M15.674,1.618c-0.133,0.177-0.217,0.3-0.167,0.522
	c0.033,0.263-0.117,0.306-0.2,0.231c-0.184-0.148-0.217-0.269-0.133,0.012c0.033,0.105-0.05,0.319-0.2,0.231
	c-0.234-0.154-0.317-0.154-0.5-0.08c-0.15,0.054-0.4,0.111-0.35-0.089c0.1-0.356,0.083-0.279-0.134-0.151
	c-0.117,0.063-0.25-0.06-0.2-0.237c0.066-0.157,0.033-0.383-0.1-0.46C13.506,1.5,13.573,1.26,13.707,1.275
	c0.55,0.049,0.033-0.12,0.033-0.12c-0.033-0.071-0.2-0.26,0.15-0.323c0.316-0.06,0.316-0.068,0.4-0.236
	c0.117-0.223,0.3-0.266,0.317-0.092c0.067,0.397,0.067,0.309,0.133-0.025c0.017-0.126,0.217-0.148,0.3,0.04
	c0.067,0.183,0.184,0.365,0.4,0.334c0.284-0.04,0.317,0.234,0.2,0.297c-0.233,0.129-0.267,0.132,0.066,0.129
	C15.841,1.278,15.808,1.441,15.674,1.618z"/>
<path fill="#33409A" d="M13.923,2.64c-0.017,0.025-0.1,0.086-0.133,0.065c-0.017-0.022,0.017-0.128,0.017-0.14
	c0.033-0.031,0.05-0.02,0.117-0.077c0.033-0.034,0.033-0.022,0.017,0.018C13.907,2.581,13.923,2.64,13.923,2.64"/>
<path fill="#33409A" d="M14.607,0.118c0-0.028,0.034-0.123,0.067-0.117s0.066,0.111,0.05,0.129c0,0.043-0.017,0.04-0.05,0.12
	c0,0.046-0.017,0.04-0.033-0.003C14.641,0.169,14.607,0.118,14.607,0.118"/>
<path fill="#33409A" d="M15.374,1.377c-0.066-0.06-0.117-0.034-0.05-0.108c0.05-0.071,0.017-0.174-0.133-0.217
	c-0.134-0.046-0.167-0.106-0.25-0.206c-0.083-0.105-0.167-0.086-0.217-0.025c-0.066,0.06-0.033,0.065-0.117-0.009
	c-0.083-0.08-0.167-0.006-0.2,0.046c-0.05,0.054-0.05,0.1-0.267,0.174c-0.2,0.074-0.117,0.194-0.1,0.243c0,0,0.05,0.049-0.05,0.094
	c-0.083,0.035-0.066,0.135-0.017,0.218c0.067,0.08,0.083,0.168,0.1,0.291c0,0.123,0.05,0.172,0.133,0.154
	c0.1-0.012,0.083-0.022,0.083,0.097c0,0.117,0.117,0.123,0.25,0.092c0.117-0.031,0.233,0.012,0.333,0.028
	c0.117,0.018,0.15-0.065,0.15-0.14c0-0.077,0-0.052,0.067-0.022c0.083,0.028,0.15-0.003,0.15-0.157
	c0.017-0.151,0.033-0.206,0.133-0.326C15.458,1.483,15.441,1.435,15.374,1.377 M14.674,1.858c-0.184,0-0.333-0.146-0.333-0.329
	c0-0.18,0.15-0.328,0.333-0.328s0.333,0.148,0.333,0.328C15.007,1.711,14.857,1.858,14.674,1.858z"/>
<path fill="#33409A" d="M15.107,12.601c-0.15-0.788,0.333-1.391,0.567-2.065c0.184-0.68-0.2-1.251-0.567-1.714
	c0.634,0.028,1.217,0.071,1.818,0.188c0.65,1.022,1.584,1.531,2.652,1.957c0.45,0.18,1.051,0.214,1.534,0.108l-0.017,0.071
	c-0.4,0.261-0.867,0.497-1.301,0.629c-1.117-0.463-2.235-0.945-2.919-2.111c-0.033-0.014-0.167,0.023-0.2,0.043
	c0.267,0.734,1.134,1.083,0.917,2.02l0.133,0.194c-0.467,0.034-0.8-0.414-1.034-0.777c-0.117-0.22-0.25-0.471-0.333-0.736
	c-0.25,0.622-0.2,1.494-0.768,1.859C15.424,12.378,15.291,12.582,15.107,12.601"/>
<path fill="#33409A" d="M26.048,25.248c-0.051,0.203-0.084,0.414-0.1,0.632c0,0.085-0.018,0.22-0.134,0.285
	c0.017,0.025,0.017,0.052,0.033,0.08c0.033,0.1,0.017,0.2-0.033,0.285l-0.05,0.049l-0.051,0.028l-0.4,0.189l-0.049,0.017h-0.051
	c-0.05,0.003-0.25-0.003-0.35-0.14c-0.067-0.074-0.101-0.178-0.067-0.286c0.017-0.091,0.05-0.171,0.083-0.237
	c0-0.034,0.018-0.063,0.033-0.088l-0.016,0.02c0.033-0.103,0.083-0.16,0.133-0.197c-0.017-0.022-0.017-0.051-0.033-0.082
	c-0.017-0.101,0-0.203,0.084-0.317l-0.018,0.022c0.117-0.263,0.167-0.574,0.101-0.84c-0.584-0.322-1.317-0.651-2.169-0.951
	c-0.066,0.037-0.133,0.055-0.166,0.058c-0.584,0.108-1.051,0.245-1.418,0.579c-0.033,0.043-0.083,0.069-0.133,0.086
	c0,0.132-0.084,0.252-0.25,0.3l-0.033,0.012h-0.018l-0.7,0.003c-0.134-0.009-0.267-0.034-0.366-0.194l0.016,0.034
	c-0.016-0.028-0.1-0.12-0.083-0.251c0-0.08,0.05-0.154,0.116-0.206l-0.033,0.037c0.15-0.194,0.317-0.211,0.451-0.186
	c0-0.02,0-0.04,0-0.055c0.016-0.051,0.066-0.134,0.199-0.171c0.018-0.012,0.051-0.037,0.084-0.065
	c0.083-0.074,0.25-0.206,0.467-0.148c0.084-0.035,0.184-0.066,0.268-0.095c0.133-0.046,0.266-0.086,0.383-0.14
	c-0.801-0.234-1.668-0.446-2.568-0.614c-0.1,0.245-0.233,0.494-0.367,0.745c-0.733,1.271-1.934,2.383-3.652,3.408l0.066-0.037
	c-0.283,0.209-0.667,0.209-0.934,0.02c-1.701-1.017-2.885-2.128-3.636-3.422c-0.134-0.254-0.25-0.506-0.367-0.754
	c-0.333,0.063-0.667,0.131-0.984,0.208c0.033,0.037,0.067,0.071,0.083,0.092c0.1,0.163,0.033,0.28,0,0.323
	c-0.017,0.017-0.033,0.031-0.05,0.045c0,0.006,0,0.015,0,0.018c0.017,0.092,0,0.183-0.066,0.243
	c-0.067,0.048-0.133,0.071-0.217,0.068c0,0.017,0.017,0.034,0.017,0.048C9.12,23.857,9.053,24,8.92,24.071
	c-0.066,0.04-0.267,0.103-0.534-0.089c-0.033,0.095-0.117,0.148-0.184,0.169c-0.117,0.028-0.233-0.015-0.316-0.105
	c-0.034,0.037-0.083,0.065-0.134,0.079c-0.117,0.026-0.25-0.014-0.333-0.134c-0.05,0.022-0.1,0.04-0.167,0.031
	c-0.083-0.014-0.167-0.071-0.217-0.174c-0.05,0.022-0.1,0.037-0.167,0.037c-0.1-0.006-0.2-0.068-0.25-0.203
	c-0.784,0.3-1.484,0.617-2.035,0.932c0,0.014,0.017,0.031,0.017,0.048c0.017,0.023,0.017,0.058,0.017,0.089
	c0.133,0.065,0.25,0.183,0.233,0.34c-0.017,0.092-0.066,0.154-0.15,0.194c0.033,0.04,0.05,0.08,0.066,0.126
	c0.034,0.111-0.017,0.223-0.1,0.291C4.567,25.788,4.4,25.785,4.2,25.69c-0.033,0.135-0.15,0.24-0.3,0.269
	c-0.15,0.026-0.283-0.022-0.383-0.119c-0.017,0.014-0.034,0.028-0.05,0.042c-0.117,0.072-0.25,0.063-0.367-0.022
	c-0.033,0.1-0.067,0.194-0.067,0.286c0,0.174,0.067,0.34,0.217,0.494c1.018,1.028,6.204,1.894,11.558,1.928
	c5.47,0.031,11.825-1.04,11.825-2.471C26.632,25.844,26.432,25.553,26.048,25.248 M24.297,26.576l-0.134,0.252l-0.133,0.236
	c0,0-4.87,1.029-9.173,0.989c-5.154-0.043-9.874-1.178-9.874-1.178s-0.3-0.514-0.3-0.557c0-0.312,0.117-0.246,0.25-0.134
	c0.117,0.105,0.117,0.159,0.133-0.043c0-0.126,0.083-0.36,0.217-0.141c0.117,0.184,0.067,0.086,0.1,0.026
	c0.05-0.117,0.267-0.286,0.333-0.026c0.067,0.263,0.034,0.141,0.134,0.055c0.117-0.086,0.283-0.135,0.283,0.046
	c0,0.217,0.017,0.159,0.1,0.103c0.083-0.055,0.2-0.08,0.2,0.105c0,0.229,0,0.166,0.05,0.141c0.067-0.052,0.184,0,0.184,0
	s0.05,0.02,0.067,0.045c0.117,0.106,0.033-0.011,0.033-0.051c-0.067-0.475,0.083-0.4,0.233-0.277
	c0.117,0.103,0.117,0.16,0.134-0.043c0-0.126,0.066-0.359,0.217-0.14c0.1,0.183,0.05,0.085,0.083,0.022
	c0.067-0.114,0.284-0.285,0.351-0.022c0.066,0.263,0.033,0.14,0.133,0.054c0.1-0.088,0.267-0.137,0.267,0.046
	c0.017,0.215,0.034,0.16,0.117,0.103c0.083-0.054,0.2-0.082,0.2,0.106c-0.017,0.229,0,0.165,0.034,0.137
	c0.066-0.052,0.317-0.025,0.183,0.146L8.586,26.81h0.65c-0.284-0.163-0.167-0.477,0.05-0.357c0,0,0.05,0.026,0.066,0.049
	c0.117,0.12,0.034-0.006,0.034-0.046c-0.017-0.477,0.117-0.394,0.25-0.26c0.117,0.117,0.117,0.172,0.15-0.028
	c0.017-0.123,0.1-0.354,0.217-0.123c0.1,0.194,0.05,0.089,0.1,0.031c0.067-0.108,0.3-0.26,0.333,0.006
	c0.05,0.271,0.017,0.143,0.134,0.066c0.117-0.078,0.283-0.112,0.267,0.068c0,0.217,0.017,0.162,0.1,0.114
	c0.083-0.049,0.2-0.066,0.184,0.122c-0.017,0.227,0,0.166,0.033,0.141c0.083-0.052,0.317,0,0.167,0.16l-0.15,0.22l0.767,0.386
	c-0.283-0.186-0.133-0.491,0.083-0.349c0,0,0.05,0.025,0.067,0.054c0.083,0.126,0.033-0.002,0.033-0.045
	c0.017-0.478,0.15-0.383,0.267-0.237c0.1,0.126,0.1,0.183,0.15-0.018c0.017-0.122,0.133-0.343,0.233-0.1
	c0.083,0.194,0.033,0.092,0.083,0.034c0.083-0.1,0.317-0.234,0.35,0.037c0.017,0.274,0,0.146,0.117,0.077s0.284-0.092,0.267,0.089
	c-0.034,0.214,0,0.162,0.083,0.123c0.1-0.04,0.217-0.049,0.183,0.134c-0.05,0.226-0.017,0.169,0.017,0.143
	c0.067-0.04,0.317,0.029,0.15,0.175l-0.167,0.208l0.417-0.22c0.033-0.037,0.083-0.04,0.133,0.052c0.1,0.148,0.05,0.068,0.083,0.017
	c0.05-0.094,0.217-0.231,0.284-0.017c0.05,0.214,0.017,0.114,0.1,0.043c0.083-0.069,0.217-0.112,0.233,0.04l0.1-0.069
	c0.066-0.054,0.15,0.006,0.184,0.006l0.15-0.097c-0.167-0.146,0.083-0.218,0.15-0.172c0.05,0.023,0.067,0.08,0.034-0.143
	c-0.034-0.186,0.083-0.177,0.167-0.137c0.083,0.039,0.117,0.091,0.083-0.12c-0.017-0.181,0.15-0.16,0.267-0.092
	c0.117,0.065,0.1,0.194,0.134-0.077c0.017-0.269,0.25-0.137,0.333-0.034c0.05,0.055,0.017,0.16,0.083-0.04
	c0.117-0.24,0.217-0.02,0.25,0.103c0.033,0.2,0.033,0.144,0.133,0.018c0.133-0.143,0.25-0.24,0.267,0.24
	c0.017,0.04-0.05,0.223,0.033,0.097l0.317-0.018c-0.3-0.162-0.217-0.459,0.017-0.359c0,0,0.05,0.022,0.067,0.046
	c0.117,0.108,0.033-0.009,0.033-0.052c-0.067-0.475,0.083-0.402,0.217-0.277c0.133,0.106,0.133,0.157,0.15-0.04
	c0-0.128,0.067-0.362,0.2-0.143c0.117,0.183,0.067,0.089,0.1,0.022c0.067-0.113,0.284-0.282,0.351-0.022
	c0.066,0.263,0.033,0.143,0.133,0.055c0.101-0.086,0.268-0.135,0.268,0.045c0.016,0.215,0.033,0.157,0.116,0.106
	c0.083-0.055,0.2-0.08,0.184,0.103c0,0.229,0.017,0.169,0.05,0.14c0.033-0.025,0.117-0.082,0.184-0.111
	c-0.1-0.143,0-0.312,0.167-0.237c0,0,0.05,0.026,0.083,0.046c0.117,0.108,0.018-0.006,0.018-0.048
	c-0.051-0.478,0.082-0.406,0.232-0.28c0.117,0.105,0.134,0.16,0.134-0.04c0-0.129,0.083-0.363,0.217-0.14
	c0.116,0.18,0.067,0.085,0.101,0.02c0.05-0.114,0.267-0.285,0.333-0.02c0.067,0.263,0.034,0.14,0.134,0.054
	c0.117-0.089,0.283-0.137,0.283,0.043c0,0.214,0.017,0.16,0.1,0.105c0.084-0.051,0.201-0.083,0.201,0.106
	c0,0.229,0.016,0.165,0.049,0.137c0.067-0.058,0.317-0.028,0.184,0.146l0.15-0.017c0,0,0.051,0.02,0.084,0.045
	c0.1,0.106,0.016-0.011,0.016-0.051c-0.066-0.475,0.084-0.4,0.234-0.277c0.117,0.103,0.117,0.16,0.133-0.043
	c0-0.126,0.066-0.359,0.217-0.14c0.101,0.183,0.051,0.085,0.084,0.022c0.066-0.114,0.283-0.285,0.35-0.022
	c0.067,0.263,0.033,0.14,0.134,0.054c0.101-0.088,0.267-0.137,0.284,0.046c0,0.215,0.016,0.16,0.1,0.103
	c0.083-0.054,0.2-0.082,0.2,0.106c-0.017,0.229,0,0.165,0.033,0.137C24.18,26.378,24.431,26.405,24.297,26.576z"/>
<path fill="#33409A" d="M17.742,13.501c0.083-0.271,0.3-0.309,0.567-0.283l-0.034,0.497l-0.25,0.068c0,0-0.217,0.063-0.317,0.086
	s-0.117-0.022-0.05-0.174C17.726,13.539,17.742,13.501,17.742,13.501"/>
<path fill="#33409A" d="M21.128,16.155c-0.617,0.446-1.367,0.809-2.051,1.297c-0.201,0.186-0.134,0.38-0.033,0.574
	c0.217,0.297,0.166,1.183,0.533,1.6c0.066,0.043,0.15,0.029,0.217,0.009c0.066-0.022,0.05-0.02,0.083-0.077
	c0.034-0.037,0.05-0.077,0-0.092c-0.2-0.022-0.217-0.223-0.2-0.394c0.051-0.108,0.033-0.148-0.033-0.206
	c-0.184-0.282-0.15-0.654-0.233-0.968c0.134-0.083,0.284-0.243,0.267-0.432c0.451-0.188,0.918-0.286,1.385-0.406"/>
<path fill="#33409A" d="M20.11,19.591l0.167,0.605c0,0-0.017,0.063-0.067,0.023c-0.199-0.104-0.183,0.022-0.183,0.022
	s-0.05,0.101-0.083,0.012c-0.084-0.114-0.15-0.237-0.234-0.343c-0.05-0.046-0.016-0.065,0.018-0.065
	c0.133-0.018,0.232-0.086,0.3-0.209C20.061,19.463,20.11,19.591,20.11,19.591"/>
<path fill="#33409A" d="M20.861,15.835c-0.117,0.011-0.384,0.085-0.417-0.086c0.083-0.598-0.1-1.163-0.134-1.769
	c-0.033-0.439-0.25-0.883-0.784-0.64c-0.116,0.04-1.083,0.349-1.083,0.349l0.033-0.497c0,0,0.134-0.086,0.284-0.175
	c0.149-0.077,1.601-0.585,1.817,0.129c0.15,0.603,0.268,1.131,0.4,1.688c0,0,0.051,0.303,0.201,0.463
	c0.166,0.154,0.066,0.448,0.066,0.448L20.861,15.835"/>
<path fill="#33409A" d="M20.11,19.591l0.167,0.605c0,0-0.017,0.063-0.067,0.023c-0.199-0.104-0.183,0.022-0.183,0.022
	s-0.05,0.101-0.083,0.012c-0.084-0.114-0.15-0.237-0.234-0.343c-0.05-0.046-0.016-0.065,0.018-0.065
	c0.133-0.018,0.232-0.086,0.3-0.209C20.061,19.463,20.11,19.591,20.11,19.591"/>
<polyline fill="#33409A" points="24.18,8.005 24.73,10.833 24.113,10.856 24.18,8.005 "/>
<path fill="#33409A" d="M24.046,9.902c-0.25,0.065-0.399,0.191-0.383,0.309c0.033,0.12,0.066,0.083,0.1,0.094
	c0.033,0.009,0.117,0,0.066-0.031c-0.033-0.034-0.033-0.123,0.101-0.123C24.13,10.145,24.046,9.902,24.046,9.902"/>
<path fill="#33409A" d="M20.094,24.442c0,0-0.083-0.08,0-0.131c0.167-0.212,0.3-0.08,0.501-0.018
	c0.232,0.14,0.366,0.015,0.467,0.114c0.033,0.068-0.051,0.108-0.084,0.123l-0.7,0.003C20.177,24.531,20.144,24.513,20.094,24.442"/>
<path fill="#33409A" d="M25.265,26.062c0.149,0.051,0.467,0.197,0.366,0.346l-0.417,0.188c0,0-0.25,0.006-0.217-0.163
	c0.033-0.105,0.084-0.194,0.117-0.294C25.147,26.033,25.214,26.047,25.265,26.062"/>
<path fill="#33409A" d="M23.43,19.906c0.066,0,0.2,0.02,0.183,0.171c0.018,0.112,0.034,0.212,0,0.346
	c0.084,0.224,0.451,0.443,0.201,0.666l-0.184,0.297c0,0-0.033,0.138-0.234,0.135c-0.266,0.063-0.517,0.245-0.65,0.514
	c-0.1,0.469,0.018,0.975,0.168,1.389c0.016,0.037,0.066,0.108-0.117,0.134c-0.567,0.104-1.102,0.249-1.535,0.635
	c-0.016,0.022-0.066,0.088-0.1-0.018c-0.1-0.131-0.383,0.009-0.517-0.114c-0.034-0.02-0.117-0.08,0.017-0.094
	c0.166-0.077,0.25-0.286,0.467-0.184c0.4-0.171,0.9-0.205,1.117-0.611c0.033-0.045,0.1-0.165,0.018-0.26
	c-0.334-0.806-0.968-1.656-0.501-2.622C22.162,19.872,22.879,19.883,23.43,19.906"/>
<path fill="#33409A" d="M14.424,14.601l-2.085-0.726c0.25-0.286,0.601-0.506,0.851-0.757c-0.3-1.154-0.867-2.194-1.918-2.862
	c1.401-0.086,2.585-0.4,3.569-1.38c0.367,0.463,0.734,0.997,0.551,1.68c-0.25,0.723-0.801,1.368-0.534,2.254l0.117,0.091
	c0.567-0.159,1.034-0.494,1.284-1.105l0.167-0.729c0.1,0.329,0.517,0.586,0.417,0.957c-0.117,0.672,0.1,1.209,0.4,1.714
	c-0.017,0.055-0.034,0.163-0.133,0.117c-0.417-0.328-1.018-0.391-1.568-0.303c-0.517,0.12-0.951,0.472-1.101,1.049H14.424
	 M14.007,13.167c0.017-0.257-0.05-1.434-0.851-2.585l-0.184,0.049c0.8,1.151,0.884,2.365,0.851,2.622L14.007,13.167z"/>
<path fill="#33409A" d="M4.667,10.316c0.083,0.037,0.05,0.089,0.117-0.02c0.05-0.023,0.117-0.037,0.1-0.126
	c0-0.043-0.034-0.068-0.067-0.092c-0.067-0.054-0.117-0.046-0.083,0.018c0.017,0.043,0.033,0.08,0.033,0.117
	c0,0.025,0,0.054-0.033,0.077c-0.033-0.003-0.05-0.037-0.066-0.071c-0.017-0.052-0.05-0.023-0.05-0.009
	C4.601,10.227,4.567,10.296,4.667,10.316"/>
<path fill="#33409A" d="M11.855,13.432c-0.083-0.371-0.217-0.819-0.484-0.977L9.27,12.282c-0.367-0.018-0.434-0.052-0.633,0.38
	c-0.417,1.014-0.884,2.26-0.917,2.796c-0.017,0.166,0.2,0.583,0.5,0.072c0.45-0.686,1.167-2.754,1.351-2.352
	c0.267,0.614,0.534,0.56,0.367,0.058c-0.067-0.2,0.217-0.135,0.3,0.054c0.184,0.429,0.5,0.466,0.334,0.015
	c-0.05-0.166,0.183-0.111,0.267,0.046c0.217,0.388,0.467,0.405,0.317,0.057c-0.083-0.197,0.133-0.177,0.267,0.04
	C11.639,13.781,12.055,13.827,11.855,13.432"/>
<path fill="#33409A" d="M5.601,14.607c0.034,0.108,0.067,0.125,0.083,0.017c0.067-0.313,0.083-0.352-0.167-0.739
	c-0.066,0.043-0.133,0.071-0.2,0.088c0.05,0.095,0.117,0.209,0.183,0.354C5.551,14.444,5.584,14.536,5.601,14.607"/>
<path fill="#33409A" d="M5.535,13.589c0.1-0.103,0.15-0.231,0.15-0.374c0-0.319-0.267-0.577-0.583-0.577s-0.567,0.258-0.567,0.577
	c0,0.306,0.233,0.558,0.534,0.574c0,0,0.25-0.034,0.333-0.08C5.401,13.696,5.401,13.709,5.535,13.589"/>
<path fill="#33409A" d="M3.233,12.125c0.167-0.178,0.333-0.518,0.434-0.757c0.05-0.083,0.083-0.089,0.117-0.089
	c0.15,0.025,0.017,0.263,0.017,0.263s-0.4,0.688-0.083,1.392c0.25,0.525,0.684,1.025,0.733,1.625c0.067,0.82-0.217,1.097,0.2,0.68
	c0.05-0.083,0.1-0.194,0.117-0.352c0.017-0.282,0.017-0.383-0.2-0.773c-0.2-0.312,0.1-0.258,0.283,0.025
	c0.2,0.286,0.25,0.383,0.184,0.657c-0.117,0.431,0.033,0.386,0.15,0.174c0.117-0.191,0.167-0.491-0.05-0.948
	c0-0.006,0-0.012,0-0.018c-0.017,0-0.017,0.003-0.033,0.003c-0.434,0-0.784-0.354-0.784-0.791c0-0.437,0.351-0.791,0.784-0.791
	s0.8,0.354,0.8,0.791c0,0.206-0.083,0.386-0.217,0.525c0.067,0.086,0.133,0.188,0.184,0.312c0.217,0.503,0.383,0.061,0.083-0.611
	c-0.167-0.371,0.217-0.077,0.4,0.206c0.167,0.282,0,0.583-0.333,1.048c-0.333,0.469-0.083,0.8,0.05,1.037
	c0.15,0.237,0.15-0.123,0.167-0.168c0.033-0.197,0.05-0.317,0.434-0.849c0.384-0.531,0.3-0.877,0.083-1.18
	c-0.217-0.3,0.083-0.352,0.2-0.332c0.333,0.061,0.517,0.483,0.583,0.574c0.184,0.592-0.283,1.046-0.283,1.623
	c0.033,0.148,0.083,0.266,0.167,0.374c0.184,0.24,0.2,0.249,0.367,0.223c0.05-0.011,0.15-0.083-0.034-0.083
	c-0.083-0.031-0.05-0.111-0.117-0.196c-0.05-0.106-0.1-0.271-0.033-0.497c0.15-0.683,0.583-1.595-0.1-2.328
	c-0.701-0.857-0.9-0.734-1.117-0.697c-0.467,0.134-1.284-0.209-1.368-0.297c0,0-0.067-0.151-0.1-0.271c0-0.028,0-0.126,0.1-0.037
	c0.2,0.117,0.417,0.205,0.617,0.239c0.05,0.006,0.2,0.08,0.15-0.151c0-0.057-0.033-0.108-0.067-0.131
	c-0.183,0.052-0.3-0.046-0.417-0.14c-0.017-0.023-0.066-0.089,0.067-0.104c0.417-0.077,0.834,0.074,1.217,0.114
	c0.05,0.003,0.267,0.04,0.317-0.128c0.017-0.101,0.034-0.234,0.017-0.343c-0.05-0.126-0.083-0.106-0.134-0.021
	c-0.483,0.528-0.984-0.2-1.551,0.157c-0.05,0.022-0.15,0.16-0.15-0.052c0-0.034,0-0.071,0-0.105c0.034-0.18,0.184-0.217,0.334-0.248
	c0.2-0.101,0.25,0.091,0.25,0.091s0.066,0.117,0.1-0.011c0.017-0.089,0.017-0.172,0.066-0.255c0.1-0.1-0.017-0.143-0.017-0.143
	c-0.133-0.114-0.117-0.277,0.067-0.135c0.017,0.021,0.066,0.123,0.1-0.082c0.017-0.12-0.083-0.123-0.117-0.135
	c-0.267-0.065-0.567-0.103-0.801,0.025c-0.1,0.018,0.034,0.138,0.034,0.138c0.033,0.08,0,0.163-0.05,0.203
	c-0.367,0.279-0.25,0.26-0.617,0.02c-0.117-0.037-0.017-0.151-0.017-0.151s0.117-0.206-0.066-0.092
	c-0.267,0.089-0.484-0.014-0.684-0.146c-0.25-0.211-0.367-0.205-0.4-0.2c-0.15,0.021-0.15,0.188-0.117,0.314
	c0.017,0.08,0.05,0.175,0.05,0.26c-0.05,0.234-0.033,0.141,0.033,0.234c0.033,0.061,0.083,0.111,0.15,0.146
	c0.15,0.086,0.133-0.045,0.133-0.045S3.55,10.65,3.5,10.627c-0.017-0.021,0.05-0.034,0.033-0.055
	c-0.05-0.082-0.117-0.183-0.083-0.285c0.05-0.105-0.033-0.163-0.083-0.188c-0.15-0.031-0.083-0.129-0.033-0.157
	c0.033-0.006,0.184-0.003,0.233,0.097c0.083,0.212,0.2,0.435,0.184,0.672c0,0.114-0.017,0.117-0.083,0.157
	c-0.383,0.263-0.45,0.825-0.6,1.208C3,12.205,3.167,12.205,3.233,12.125"/>
<path fill="#33409A" d="M9.337,18.18c-0.45-1.091-1.484-1.537-2.218-2.474c-0.217-0.546,0.117-1,0.267-1.514
	c0-0.255-0.133-0.457-0.267-0.629c-0.233-0.237-0.283-0.191-0.083,0.043c0.534,0.859-0.551,1.312-0.701,2.499
	c0,0.098-0.05,0.101-0.133,0.04c-0.35-0.186-0.5-0.594-0.567-0.954c-0.017-0.117-0.05-0.079-0.083-0.008
	c-0.117,0.162-0.284,0.311-0.467,0.368c-0.117,0.071-0.25,0.003-0.35-0.043c-0.434-0.229-0.767,2.254-1.151,2.788
	c-0.333,0.494-0.567,1.015-0.534,1.708c0,0.04-0.017,0.163-0.083,0.243c-0.267,0.371-0.55,0.785-0.901,1.06
	c-0.7,0.451-1.368-0.16-0.834-1.168c0.801-1.025,1.818-2.131,2.302-3.383c0.2-0.705,0.133-1.414-0.684-1.836
	c-0.334-0.2-1.201,0-1.234-0.592c0-0.086,0.083-0.14,0.167-0.18c0.083-0.031,0-0.108-0.05-0.126
	c-0.033-0.012-0.066-0.015-0.117-0.009c-0.167,0.063-0.3,0.22-0.284,0.409c-0.017,0.171,0.017,0.345-0.033,0.457
	c-0.25,0.251-0.601,0.273-0.617-0.058c0.017-0.414,0.25-0.865-0.033-1.245c-0.117-0.106-0.417-0.077-0.184,0.137
	c0.034,0.063,0.083,0.021,0.034,0.254c-0.017,0.123-0.067,0.234-0.1,0.335c-0.15,0.428-0.134,0.614-0.017,0.819
	c0.05,0.083,0.117,0.157,0.183,0.218c0.3,0.233,0.834,0.057,1.134-0.104c0.117-0.04,0.2-0.091,0.283-0.111
	c0.25-0.071,0.317,0.065,0.067,0.157c-0.483,0.174-0.3,0.706-0.684,0.969c-0.117,0.034-0.184-0.069-0.267-0.106
	c-0.083-0.045-0.117,0.08,0.034,0.16c0.167,0.117,0.283,0.12,0.45,0.098c0.317-0.184,0.434-0.549,0.65-0.783
	c0.467-0.454,0.667-0.02,0.717,0.143c0.234,0.909-0.033,1.135-0.75,2.269c-0.033,0.052-0.117,0.134-0.133,0.031
	c-0.1-0.248-0.317-0.445-0.267-0.754c0.017-0.077,0.083-0.114,0.15-0.132c0.083-0.011,0.2-0.088,0.1-0.154
	c-0.184-0.068-0.367-0.008-0.5,0.138c-0.066,0.154-0.15,0.34-0.033,0.509c0.233,0.248,0.333,0.808,0.117,0.571
	c-0.1-0.314-0.317-0.383-0.567-0.472c-0.284-0.052-0.333-0.071-0.434-0.175c-0.1-0.125-0.167-0.137-0.184-0.022
	c-0.167,0.823,0.801,0.417,1,0.96c0.017,0.132-0.083,0.2-0.267,0.028c-0.184-0.223-0.417-0.091-0.65-0.049
	c-0.1,0.009-0.167,0.009-0.233-0.06c-0.2-0.2-0.083,0.14-0.083,0.14c0.083,0.2,0.267,0.226,0.45,0.229
	c0.167,0.003,0.25,0.029,0.3,0.12c0.184,0.203-0.033,0.283-0.217,0.183c-0.15-0.063-0.217-0.054-0.4,0.006
	c-0.217,0.184-0.4,0.397-0.333,0.7c0.017,0.049,0.05,0.103,0.083,0.148c0.133,0.103,0.184,0.003,0.15-0.049
	c-0.083-0.168,0.05-0.328,0.184-0.405c0.05-0.022,0.083-0.028,0.133-0.02c0.05,0.008,0.2,0.017,0.2,0.239
	c0,0.215-0.1,0.409-0.2,0.614c-0.2,0.454-0.117,1.525,0.584,1.591c0.217,0.018,0.317-0.002,0.5-0.008
	c0,0.094-0.033,0.231-0.033,0.313c-0.033,0.215,0.05,0.352,0.167,0.392c0.217,0.08,0.267-0.028,0.3-0.063
	c0.067-0.061,0.05-0.154,0.034-0.132c-0.034,0.023-0.067,0.029-0.083,0.029c-0.117-0.006-0.25-0.052-0.15-0.237
	c0.267-0.451,0.7-0.74,1.067-1.16c0.05-0.057,0.217-0.06,0.334,0.206c0.183,0.46,0.65,0.797,0.483,1.374
	c-0.117,0.248-0.417,0.386-0.55,0.331c-0.1-0.04-0.133,0.012-0.117,0.04c0.067,0.074,0.05,0.488-0.35,0.411
	c-0.417-0.074-0.05,0.175,0.117,0.215c0.183,0.043,0.033,0.157-0.067,0.18c-0.167,0.043-0.1,0.291,0.067,0.2
	c0.167-0.092,0.183,0.022-0.017,0.214c-0.184,0.194-0.083,0.334,0.133,0.2c0.217-0.132,0.117,0.105-0.034,0.24
	c-0.133,0.131-0.017,0.231,0.117,0.122c0.117-0.108,0.1,0.111-0.017,0.263c-0.1,0.149,0.067,0.32,0.134,0.151
	c0.066-0.168,0.117,0.023,0.05,0.215c-0.15,0.34,0.25,0.357,0.167,0.037c-0.05-0.137,0.1-0.031,0.25,0.177
	c0.15,0.209,0.5-0.003,0.284-0.171c-0.2-0.169-0.017-0.194,0.35,0c0.384,0.191,0.317-0.138,0.083-0.186
	c-0.233-0.043-0.384-0.243,0.033-0.203s0.184-0.157,0.017-0.188c-0.167-0.031-0.3,0.083-0.083-0.092
	c0.217-0.174-0.183-0.103-0.3-0.137c-0.1-0.063-0.217-0.206-0.234-0.34c0.05-0.269,0.017-0.583,0.234-0.754
	c0.65-0.332,1.451-0.752,1.501-1.62c-0.2-0.571-0.601-1.006-0.867-1.482c-0.067-0.3,0-0.598,0.233-0.797
	c0.2-0.089,0.033-0.423,0.15-0.577c0.467-0.654,1.484-0.868,1.718-1.748c-0.067-0.023-0.2,0.025-0.25-0.077
	c-0.017-0.043-0.1-0.095-0.034-0.146c0.484-0.188-0.233-0.217-0.017-0.537c0.083,0.126,0.233,0.066,0.3,0.175
	c0.117,0.151-0.033,0.346-0.067,0.439c0.167,0.046,0.334-0.034,0.4-0.211c0.1-0.254,0.317,0.126,0.267,0.546
	c-0.034,0.236,0.2,0.331,0.233,0.146c0.083-0.349,0.267-0.095,0.217,0.202c-0.05,0.269,0.083,0.452,0.15,0.221
	c0.1-0.289,0.217-0.111,0.167,0.226c-0.033,0.3,0.117,0.396,0.167,0.177c0.067-0.229,0.284-0.312,0.217,0.172
	c-0.05,0.297,0.117,0.223,0.15,0.12c0.083-0.218,0.033-0.194,0.117-0.04c0,0,0.184,0.193,0.217,0.551
	c0.05,0.357,0.25,0.08,0.217-0.071C9.12,18.723,9.354,19,9.487,19.211C9.621,19.428,9.804,19.28,9.67,19.1
	c-0.333-0.482-0.033-0.28,0.184-0.049c0.217,0.226,0.267-0.088,0.15-0.217C9.871,18.706,9.504,18.36,9.337,18.18 M4.951,21.24
	c0,0.438-0.35,0.788-0.784,0.788c-0.45,0-0.801-0.351-0.801-0.788c0-0.435,0.351-0.788,0.801-0.788
	C4.601,20.452,4.951,20.805,4.951,21.24z M5.018,18.469c-0.434,0-0.784-0.354-0.784-0.792c0-0.434,0.351-0.788,0.784-0.788
	c0.45,0,0.8,0.354,0.8,0.788C5.818,18.115,5.468,18.469,5.018,18.469z"/>
<path fill="#33409A" d="M3.583,21.24c0,0.32,0.25,0.58,0.584,0.58c0.317,0,0.567-0.26,0.567-0.58s-0.25-0.577-0.567-0.577
	C3.833,20.663,3.583,20.919,3.583,21.24"/>
<path fill="#33409A" d="M5.018,17.1c-0.317,0-0.567,0.261-0.567,0.577c0,0.32,0.25,0.58,0.567,0.58c0.333,0,0.583-0.26,0.583-0.58
	C5.601,17.361,5.351,17.1,5.018,17.1"/>
<path fill="#33409A" d="M8.987,22.888c-0.083,0.02-0.117,0.006-0.184,0.022c-0.133,0.046-0.217,0.015-0.184-0.025
	c0.117-0.16,0.034-0.317-0.283-0.006c-0.333,0.129-0.684,0.028-0.967-0.14c-0.1-0.126-0.284-0.3-0.233-0.518
	c0.2-0.813,0.85-1.922,0.1-2.656c-0.434-0.608-1.317-0.286-1.935-0.429c-0.267,0.234,0.05,0.597-0.267,0.746
	c-0.117,0.122-0.167,0.254-0.167,0.414c-0.033,0.64,0.768,0.103,1.134,0.316c0.217,0.12,0.35,0.352,0.417,0.571
	c0.033,0.418,0.066,0.943-0.333,1.16c-0.3,0.186,0.2,0.283,0.083,0.537c-0.4,0.414-0.2,0.408-0.05,0.363
	c0.167-0.104,0.3-0.077,0.267,0.063c-0.034,0.143,0.033,0.306,0.183,0.04c0.15-0.263,0.2-0.049,0.233,0.194
	c0.034,0.242,0.234,0.068,0.25-0.009c0.05-0.217,0.183-0.175,0.167,0.074c-0.033,0.243,0.117,0.229,0.15,0.137
	c0.066-0.316,0.1-0.303,0.183,0.009c0.067,0.257,0.25,0.157,0.217,0.009c-0.05-0.269,0.134-0.249,0.2-0.009
	c0.067,0.237,0.284,0.266,0.217-0.025c-0.083-0.291,0.184-0.04,0.25,0.02c0.467,0.403,0.634-0.134,0.183-0.223
	c-0.183-0.04-0.317-0.322,0.1-0.177c0.734,0.254,0.417-0.095,0.05-0.194c-0.1-0.028,0.1-0.092,0.35-0.009
	C9.42,23.237,9.087,22.871,8.987,22.888"/>
<path fill="#33409A" d="M24.013,13.132c-0.316,0-0.566,0.261-0.566,0.58c0,0.317,0.25,0.577,0.566,0.577
	c0.317,0,0.584-0.26,0.584-0.577C24.597,13.393,24.33,13.132,24.013,13.132"/>
<path fill="#33409A" d="M25.048,20.837c-0.317,0-0.584,0.26-0.584,0.579c0,0.317,0.267,0.58,0.584,0.58
	c0.316,0,0.583-0.263,0.583-0.58C25.631,21.097,25.364,20.837,25.048,20.837"/>
<path fill="#33409A" d="M28.899,19.409c0.018-0.034,0-0.058-0.033-0.043c-0.267,0.135-0.483-0.243-0.801-0.14
	c-0.184,0.06-0.3,0.214-0.383,0.365c-0.117,0.229-0.217,0.157-0.217-0.049c0.033-0.322,0.35-0.477,0.584-0.696
	c0.25-0.203,0.25-0.605,0.217-0.731c-0.034-0.138-0.101-0.101-0.101,0.006c-0.167,0.505-0.95,0.383-1.101,0.914
	c-0.018,0.074,0.05,0.211-0.084,0.217c-0.283-0.626,0.567-0.937,0.467-1.577c-0.049-0.131-0.149-0.285-0.3-0.343
	c-0.083-0.028-0.366-0.025-0.167,0.092c0.066,0.077,0.117,0.209,0.066,0.346c-0.25,0.263-0.467,0.557-0.449,0.92
	c0,0.054-0.067,0.074-0.101,0.028c-0.233-0.294-0.483-0.62-0.617-0.988c-0.149-0.475-0.101-1.971,0.901-1.723
	c0.133,0.046,0.266,0.14,0.383,0.254c0.066,0.092,0.033,0.2-0.017,0.289c-0.066,0.091-0.05,0.18,0.116,0.1
	c0.234-0.117,0.234-0.417,0.184-0.651c-0.083-0.168-0.232-0.309-0.416-0.405c-0.084-0.043-0.033-0.108,0.033-0.1
	c0.45,0.037,0.884,0.42,1.351,0.137c0.567-0.463-0.067-0.923-0.116-1.402c0-0.157-0.084-0.034-0.101,0.025
	c-0.067,0.24,0.149,0.445,0.2,0.669c0.05,0.279-0.15,0.405-0.2,0.442c-0.2,0.171-0.333,0.054-0.067-0.103
	c0.135-0.132,0.101-0.363,0.084-0.534c-0.033-0.126-0.117-0.166-0.1,0c-0.051,0.511-0.518,0.537-0.617,0.514
	c-0.033-0.006-0.084-0.068,0-0.091c0.1-0.023,0.217-0.083,0.283-0.166c0.066-0.063,0.033-0.148-0.066-0.074
	c-0.167,0.065-0.384,0.02-0.584,0.088c-0.184,0.063-0.367,0.221-0.533,0.28c-0.051,0.018-0.084-0.022-0.051-0.049
	c0.101-0.079,0.2-0.154,0.301-0.236c0.184-0.144,0.166-0.446,0.15-0.54c-0.051-0.108-0.101-0.052-0.101,0.028
	c-0.05,0.343-0.467,0.583-0.718,0.825c-0.916,0.966-1.184,1.703-0.783,2.631c0.383,0.846,1.084,1.506,1.685,2.252
	c0.317,0.431,0.917,0.782,0.767,1.414c-0.116,0.188-0.316,0.308-0.533,0.303c-1.435-0.309-1.484-1.175-2.051-2.563
	c-0.268-0.672-0.534-1.34-0.701-2.043c0,0-0.283-1.511,0.051-2.002c0.316-0.483,0.65-0.521,0.65-0.521
	c0.082-0.009,0.299,0.04,0.35-0.031c0.066-0.068,0.1-0.169,0.1-0.274c-0.016-0.111-0.033-0.171,0.15-0.257
	c0.084-0.065,0.167-0.143,0.15-0.271c0.05,0.025,0.017,0.083,0.017,0.117c0,0,0.267,0.006-0.067-0.56
	c-0.133-0.181-0.016-0.175,0.033-0.151c0.034,0.168,0.184,0.037,0.217,0.211c0,0.206,0.101,0.138,0.051-0.043
	c-0.017-0.18-0.051-0.365-0.2-0.479c-0.05-0.049-0.017-0.083,0.067-0.031c0.1,0.105,0.25,0.196,0.25,0.325
	c-0.018,0.1,0.05,0.021,0.083-0.043c0.116-0.257-0.15-0.451-0.317-0.617c-0.066-0.063-0.033-0.103,0.018-0.088
	c0.083,0.114,0.232,0.197,0.333,0.3c0.033,0.037,0.134,0.057,0.101-0.037c-0.084-0.5-0.067-0.277-0.4-0.537
	c-0.084-0.049-0.018-0.157,0.033-0.154c0.1,0.1,0.267,0.146,0.367,0.24c0.083,0.148,0.1-0.023,0.083-0.074
	c-0.083-0.188-0.351-0.218-0.468-0.386c0,0-0.033-0.104,0.034-0.132c0.116,0.025,0.267-0.028,0.384,0.055
	c0.017,0.02,0.05,0.077,0.066,0c-0.033-0.231-0.233-0.26-0.367-0.252c-0.033,0-0.066,0.006-0.083-0.051
	c-0.034-0.069-0.101-0.141,0.017-0.191c0.167-0.083,0.316,0.028,0.434,0.146c0.05,0.063,0.05,0.003,0.05-0.026
	c-0.017-0.054-0.033-0.103-0.066-0.148c-0.067-0.168-0.2-0.165-0.267-0.171c-0.066-0.009-0.117-0.015-0.184-0.037
	c0-0.006-0.066-0.043,0.017-0.095c0.134-0.131,0.351,0.012,0.517,0.009c0.051-0.022,0.051-0.068,0.051-0.114
	c0.033-0.126-0.033-0.034-0.033-0.034s-0.051,0.074-0.184-0.04c-0.134-0.157-0.351-0.068-0.467-0.052
	c-0.051,0.032-0.084-0.051-0.018-0.097c0.084-0.063,0.167-0.143,0.25-0.177c0.184-0.006,0.033-0.086-0.05-0.109
	c-0.283-0.088-0.833,0.012-0.934,0.372c-0.034-0.138-0.034-0.58-0.034-0.758c-0.016-0.177-0.066-0.148-0.116-0.002
	c-0.033,0.171-0.033,0.356-0.066,0.531c-0.017,0.054-0.05,0.071-0.067,0.011c-0.016-0.143,0.067-0.628-0.467-0.688
	c0,0-0.083,0.132,0.084,0.191c0.267,0.095,0.066,0.737,0.133,0.611c0,0.021-0.033,0.061-0.083,0.026
	c-0.149-0.123-0.284-0.166-0.417-0.209l0.017,0.22c-0.45,0.169-0.983,0.035-1.484,0.029c-0.333-0.023-0.366,0.114-0.267,0.171
	c0.1,0.123-0.017,0.36,0.15,0.472c0.1,0.063,0.25-0.023,0.35,0.014c0.1,0.032,0.018,0.083-0.05,0.077
	c-0.267-0.022-0.483,0.095-0.718,0.117c-0.183,0.023-0.217-0.114-0.217-0.114l-0.016-0.1c0,0-0.033-0.111-0.066-0.015
	c-0.018,0.029-0.034,0.052-0.034,0.08c-0.05,0.166,0.017,0.372,0.417,0.271c0.217-0.054,0.434-0.148,0.617-0.065
	c0.033,0.012,0.05,0.074,0,0.089c-0.384,0.105-0.217,0.168-0.217,0.168s0.166-0.077,0.15,0.043c0.116,0.271-0.301,0.32-0.283,0.56
	c0,0.052,0.049,0.071,0.049,0.071s0.184,0.032,0.067-0.051c-0.034-0.028-0.017-0.117,0.083-0.157
	c0.167-0.08,0.234-0.231,0.283-0.423c0.084-0.06,0.201-0.065,0.301-0.065c0.133,0.006,0.117-0.058,0.117-0.086
	c-0.018-0.126-0.051-0.229-0.018-0.337c0.018-0.026,0.051-0.074,0.067,0c0.066,0.434,0.217,0.914,0.667,1.054
	c0.45,0.077,0.7-0.211,0.884-0.503c0.017-0.071,0.067-0.04,0.05,0.04c-0.017,0.163-0.133,0.323-0.25,0.429
	c-0.217,0.197-0.551,0.229-0.834,0.138c-0.083-0.061-0.166,0.002-0.217,0.022c-0.483,0.211-1.018,0.374-1.451,0.683
	c-0.733,0.706-1.668,1.563-1.367,2.819c-0.617,0.446-1.367,0.809-2.051,1.297c-0.201,0.186-0.134,0.38-0.033,0.574
	c0.217,0.297,0.166,1.183,0.533,1.6c0.066,0.043,0.15,0.029,0.217,0.009c0.066-0.022,0.05-0.02,0.083-0.077
	c0.034-0.037,0.05-0.077,0-0.092c-0.2-0.022-0.217-0.223-0.2-0.394c0.051-0.108,0.033-0.148-0.033-0.206
	c-0.184-0.282-0.15-0.654-0.233-0.968c0.134-0.083,0.284-0.243,0.267-0.432c0.451-0.188,0.918-0.286,1.385-0.406
	c0.117-0.025,0.233-0.002,0.233,0.144c0.283,0.851,0.968,1.482,1.718,1.891c0.316,0.292,0.783,0.58,0.851,1.063
	c-0.167,0.197,0.017,0.354,0.116,0.506c0.018,0.095,0.117,0.183,0.167,0c0.05-0.097,0.067-0.223,0.116-0.337
	c0.018-0.055,0.117-0.143,0.135,0.018c0.116,0.573-0.435,1.036-0.685,1.496c-0.333,1.363,1.118,1.706,1.651,2.643
	c0.117,0.363,0.05,0.783-0.1,1.12c-0.117,0.174,0,0.205,0.016,0.226c0.084,0.065,0.15,0.131,0.4,0.137
	c0.051,0.031,0.051-0.043,0.051-0.117c0.033-0.448,0.149-0.862,0.316-1.229c0.05-0.091,0.184-0.285-0.017-0.319
	c-0.233-0.114-0.4-0.405-0.501-0.62c-0.4-0.651,0.15-1.186,0.367-1.751c0.018-0.046,0.117-0.108,0.217-0.021
	c0.268,0.187,0.551,0.341,0.734,0.632c0.1,0.137,0.116,0.346,0.083,0.52c-0.05,0.083-0.05,0.187,0.101,0.055
	c0.083-0.083,0.116-0.191,0.116-0.317c0-0.028,0.017-0.123-0.033-0.274c-0.017-0.063,0.033-0.103,0.116-0.051
	c0.25,0.077,0.718,0.022,0.918-0.178c0.533-0.423,0.15-1.076,0.05-1.628c-0.017-0.049-0.017-0.157,0.033-0.229
	c0.2-0.211,0.384-0.103,0.4-0.049c0.05,0.106,0.101,0.098,0.116,0.052c0.033-0.291-0.217-0.488-0.416-0.426
	c-0.134,0.101-0.234,0.223-0.268,0.386c0,0.097-0.066,0.077-0.083-0.009c-0.017-0.054-0.017-0.12-0.033-0.168
	C27.933,19.617,28.649,19.703,28.899,19.409 M24.163,11.181c-0.133,0.035-0.117-0.114-0.184-0.18
	c0.101-0.097,0.217-0.131,0.351-0.117C24.263,10.982,24.08,11.03,24.163,11.181z M24.663,11.291l-0.232-0.003l0.166-0.197
	C24.63,11.153,24.714,11.205,24.663,11.291z M23.313,18.409c-0.434,0-0.784-0.354-0.784-0.788c0-0.435,0.351-0.789,0.784-0.789
	s0.784,0.354,0.784,0.789C24.097,18.054,23.746,18.409,23.313,18.409z M24.013,14.501c-0.434,0-0.783-0.354-0.783-0.789
	c0-0.437,0.35-0.791,0.783-0.791s0.801,0.354,0.801,0.791C24.813,14.147,24.446,14.501,24.013,14.501z M25.048,22.206
	c-0.434,0-0.785-0.354-0.785-0.789c0-0.434,0.352-0.788,0.785-0.788s0.783,0.354,0.783,0.788
	C25.831,21.851,25.481,22.206,25.048,22.206z"/>
<path fill="#33409A" d="M23.313,17.041c-0.317,0-0.583,0.26-0.583,0.58c0,0.316,0.266,0.577,0.583,0.577s0.584-0.261,0.584-0.577
	C23.896,17.3,23.63,17.041,23.313,17.041"/>
<path fill="#33409A" d="M11.872,4.614c0.05-0.037,0.25-0.165,0.4-0.18c-0.3-0.257-0.55-0.314-0.55-0.314
	c-1.034-0.502-1-0.674-1.017-0.754c-0.05-0.354-0.1-0.274-0.117-0.052c0,0.144,0,0.826,0.851,1.4c0.066,0.054,0.15,0.123,0.217,0.2
	C11.688,4.839,11.822,4.66,11.872,4.614"/>
<path fill="#33409A" d="M13.022,5.628L13.022,5.628c0,0,0.034,0.009,0.067,0.022c-0.233-0.568-0.517-0.934-0.75-1.159v0.014
	l-0.05-0.003c-0.1,0-0.284,0.111-0.367,0.172c-0.05,0.04-0.184,0.214-0.2,0.26l0.017,0.012l-0.033,0.025
	c0.25,0.3,0.4,0.697,0.484,0.957C12.255,5.833,12.556,5.474,13.022,5.628 M11.955,5.123c0-0.194,0.15-0.352,0.351-0.352
	s0.35,0.157,0.35,0.352s-0.15,0.352-0.35,0.352C12.122,5.474,11.955,5.317,11.955,5.123z"/>
<path fill="#33409A" d="M18.81,3.232c-0.017-0.221-0.066-0.303-0.117,0.057c-0.016,0.074,0.018,0.249-1.017,0.751
	c0,0-0.3,0.086-0.634,0.418c0.15,0.017,0.317,0.116,0.384,0.162c0.033,0.023,0.217,0.186,0.25,0.3
	c0.083-0.111,0.184-0.211,0.283-0.285C18.81,4.06,18.81,3.375,18.81,3.232"/>
<path fill="#33409A" d="M16.341,5.674c0.467-0.169,0.768,0.18,0.834,0.274c0.067-0.229,0.217-0.629,0.45-0.952l-0.033-0.011
	l0.017-0.031c0.017-0.04-0.133-0.218-0.217-0.274c-0.066-0.043-0.233-0.146-0.383-0.151h-0.034V4.526
	c-0.25,0.248-0.5,0.62-0.7,1.159l0.017,0.009C16.292,5.688,16.325,5.682,16.341,5.674 M16.992,4.854c0.2,0,0.351,0.16,0.351,0.354
	s-0.15,0.352-0.351,0.352c-0.183,0-0.35-0.157-0.35-0.352S16.792,4.854,16.992,4.854z"/>
<path fill="#33409A" d="M17.242,6.179c-0.083,0.109-0.2,0.218-0.117-0.048c0,0,0.017-0.037,0.033-0.092l-0.017-0.031
	c-0.017-0.018-0.3-0.438-0.767-0.263c-0.083,0.025-0.117,0.031-0.134,0.014c-0.117,0.332-0.217,0.729-0.283,1.2
	c-0.184,1.285-0.984,0.771-1.084,0.408c0,0-0.034-0.154-0.034-0.177h-0.283c0,0,0.017,0.031-0.034,0.22c0,0.012,0,0.026-0.017,0.037
	c-0.117,0.323-0.884,0.789-1.067-0.414c-0.066-0.514-0.183-0.939-0.317-1.288v0.012l-0.033-0.023
	c-0.033-0.02-0.067-0.031-0.083-0.034V5.697c-0.483-0.157-0.75,0.274-0.767,0.291L12.222,6.02c0.033,0.108,0.05,0.183,0.05,0.188
	c0.1,0.263-0.033,0.157-0.117,0.048c-0.083-0.108-0.567-0.417-0.367-0.071c0.2,0.349,0.667,2.131,0.734,2.432
	c0,0,1.751-0.181,2.185-0.181c1.067-0.006,2.168,0.184,2.168,0.181c0.083-0.303,0.534-2.16,0.734-2.509S17.326,6.071,17.242,6.179"
	/>
<path fill="#33409A" d="M14.84,7.191L14.84,7.191c-0.066-0.28,0.05-0.537,0.134-0.657c0.083-0.108,0.4-0.108,0.483-0.017
	c0.067,0.063,0.1,0.097,0.133,0.159c0.017,0.069,0.034,0.074,0.067,0c0.017-0.065,0.083-0.294,0.017-0.423
	c-0.066-0.128-0.133-0.191-0.25-0.233c-0.1-0.046-0.2-0.049-0.284-0.015s-0.15,0.097-0.184,0.105
	C14.94,6.12,14.924,6.125,14.94,6.085c0-0.037,0.05-0.254,0-0.405c-0.017-0.066-0.05-0.169-0.117-0.246
	c-0.066-0.074-0.05-0.068-0.083-0.105c-0.017-0.018-0.033-0.029-0.05-0.031c-0.017,0.002-0.033,0.014-0.05,0.031
	c-0.034,0.034-0.017,0.031-0.083,0.105c-0.067,0.077-0.1,0.18-0.117,0.246c-0.05,0.151,0,0.368,0,0.405
	c0.017,0.04,0,0.034-0.017,0.025c-0.034-0.009-0.1-0.071-0.184-0.105s-0.184-0.031-0.3,0.015c-0.1,0.042-0.167,0.105-0.233,0.233
	c-0.067,0.129,0,0.357,0.017,0.423c0.033,0.074,0.05,0.069,0.067,0c0.033-0.063,0.066-0.097,0.133-0.159
	c0.083-0.092,0.4-0.092,0.483,0.017c0.083,0.12,0.217,0.377,0.15,0.657H14.84"/>
</svg>
