<?xml version="1.0" encoding="utf-8"?>
<!-- Generator: Adobe Illustrator 22.1.0, SVG Export Plug-In . SVG Version: 6.00 Build 0)  -->
<svg version="1.1" id="Layer_1" xmlns="http://www.w3.org/2000/svg" xmlns:xlink="http://www.w3.org/1999/xlink" x="0px" y="0px"
	 viewBox="0 0 125.2 28.2" style="enable-background:new 0 0 125.2 28.2;" xml:space="preserve">
<style type="text/css">
	.st0{clip-path:url(#SVGID_2_);fill:#363331;}
</style>
<g>
	<defs>
		<rect id="SVGID_1_" x="5.7" y="5.2" width="113.7" height="17.7"/>
	</defs>
	<clipPath id="SVGID_2_">
		<use xlink:href="#SVGID_1_"  style="overflow:visible;"/>
	</clipPath>
	<path class="st0" d="M14.1,8.7c-1.1,2.8-2.3,5.5-3.4,8.9h0c-0.9-3.4-1.9-6.2-2.8-9.1L5.7,9l4,11.3h1.4c1.1-2.9,2.3-5.7,3.4-9h0
		c1.1,3.3,2.3,6.2,3.5,9h1.5l4.1-11.5l-1.9-0.3c-0.9,2.8-1.9,5.7-2.8,9.1h0c-1.1-3.3-2.2-6.1-3.4-8.9H14.1z"/>
	<path class="st0" d="M45.8,5.2l-2.1,0.7v2.8h-1.6v1.2h1.6v7c0,2.4,1.1,3.7,3.4,3.7c0.8,0,1.6-0.3,2.4-0.7L49,18.7
		c-0.4,0.2-0.8,0.4-1.6,0.4c-1.3,0-1.6-1-1.6-2.6V9.9h3V8.7h-3V5.2z"/>
	<path class="st0" d="M52.5,13.2c0.1-1.5,1-3.3,3.2-3.3c1.8,0,2.6,1.5,2.6,3.3H52.5z M60.2,14.6c0.2-3-1-6.2-4.5-6.2
		c-2.6,0-5.5,1.8-5.5,5.8c0,4.1,2.4,6.3,6,6.3c1.2,0,2.6-0.5,3.8-1.3l-0.6-1.1c-0.8,0.6-2.1,1-3.2,1c-2.3,0-3.9-2.1-3.9-4.4H60.2z"
		/>
	<path class="st0" d="M64.3,8.7h-2v11.6h2.1V14c0-2.6,0.9-3.6,1.9-3.6c0.5,0,1,0.2,1.6,0.5l1-1.3c-0.6-0.8-1.4-1.1-1.9-1.1
		c-0.5,0-1.3,0.3-1.7,0.8l-0.8,0.9V8.7z"/>
	<path class="st0" d="M76.6,9.5c-0.6-0.6-1.7-1.1-2.9-1.1c-2,0-3.8,1.2-3.8,3c0,1.6,1.2,2.4,2.5,3.3c1.1,0.8,2.3,1.4,2.3,2.7
		c0,1.1-1,1.6-2,1.6c-0.9,0-1.8-0.5-2.5-1.2l-1,1.2c0.8,0.9,2.2,1.5,3.6,1.5c2.1,0,4.1-1.3,4.1-3.3c0-1.6-1-2.6-2.5-3.7
		c-1.3-1-2.4-1.5-2.4-2.5c0-1,0.9-1.3,1.7-1.3c0.6,0,1.3,0.2,2.1,0.7L76.6,9.5z"/>
	<path class="st0" d="M81.5,5.2l-2.1,0.7v2.8h-1.6v1.2h1.6v7c0,2.4,1.1,3.7,3.4,3.7c0.8,0,1.6-0.3,2.4-0.7l-0.5-1.2
		c-0.4,0.2-0.8,0.4-1.6,0.4c-1.3,0-1.6-1-1.6-2.6V9.9h3V8.7h-3V5.2z"/>
	<path class="st0" d="M91.8,9.9c2.6,0,3.5,2.4,3.5,4.4c0,2.2-0.7,4.7-3.5,4.7c-2.7,0-3.5-2.5-3.5-4.7C88.3,12.3,89.2,9.9,91.8,9.9
		 M91.8,20.6c3.4,0,5.7-2.6,5.7-6.2c0-3.8-2.8-5.9-5.7-5.9c-2.9,0-5.7,2.2-5.7,5.9C86.1,17.9,88.4,20.6,91.8,20.6"/>
	<path class="st0" d="M101.8,8.7h-2.1v11.6h2.1v-7c0-2.2,1.5-3.4,3.2-3.4c1.9,0,2.8,1.1,2.8,3.3v7h2.1v-7.5c0-2.9-1.4-4.4-4.1-4.4
		c-1.2,0-2.9,0.6-4,1.7V8.7z"/>
	<path class="st0" d="M119.3,9.5c-0.6-0.6-1.7-1.1-2.9-1.1c-2,0-3.8,1.2-3.8,3c0,1.6,1.2,2.4,2.5,3.3c1.1,0.8,2.3,1.4,2.3,2.7
		c0,1.1-1,1.6-2,1.6c-0.9,0-1.8-0.5-2.5-1.2l-1,1.2c0.8,0.9,2.2,1.5,3.6,1.5c2.1,0,4.1-1.3,4.1-3.3c0-1.6-1-2.6-2.5-3.7
		c-1.3-1-2.4-1.5-2.4-2.5c0-1,0.9-1.3,1.7-1.3c0.6,0,1.3,0.2,2.1,0.7L119.3,9.5z"/>
	<path class="st0" d="M25.9,20.1c-1.3-1.5-2-3.3-2-5.3c0-2.4,0.8-4.4,2.4-6.1c1.8-1.9,4.2-2.8,7.2-2.8c2.6,0,4.7,0.7,6.2,2
		c1.4,1.3,2.1,2.9,2.1,4.9c0,1.7-0.5,3.1-1.5,4.3c-1,1.2-2.1,1.8-3.4,1.8c-0.7,0-1.3-0.2-1.6-0.5c-0.3-0.4-0.5-0.8-0.5-1.3
		c0-0.1,0-0.2,0-0.3c0-0.1,0-0.2,0.1-0.3c-0.4,0.8-0.9,1.4-1.5,1.8c-0.6,0.3-1.2,0.5-1.8,0.5c-0.9,0-1.6-0.3-2.2-1
		c-0.6-0.7-0.8-1.5-0.8-2.5c0-1.5,0.5-2.8,1.4-3.9c1-1.1,2-1.7,3.1-1.7c0.8,0,1.4,0.2,1.9,0.7c0.5,0.4,0.8,1,0.8,1.6l0.6-1.9h1.6
		l-1.5,4.8c-0.1,0.4-0.2,0.7-0.2,0.9c-0.1,0.2-0.1,0.4-0.1,0.6c0,0.3,0.1,0.6,0.3,0.7c0.2,0.1,0.4,0.2,0.7,0.2
		c0.8,0,1.6-0.4,2.3-1.3c0.7-0.9,1-2,1-3.4c0-1.7-0.6-3.1-1.8-4c-1.2-1-2.8-1.5-4.8-1.5c-2.8,0-4.9,0.8-6.4,2.5
		c-1.3,1.4-1.9,3.1-1.9,5.3c0,1.8,0.6,3.4,1.8,4.6c1.4,1.5,3.4,2.2,6,2.2c1.2,0,2.4-0.2,3.4-0.6c1.1-0.4,2-0.9,2.9-1.6l0.7,1
		c-0.7,0.6-1.7,1.1-3,1.7C36,22.7,34.6,23,33,23C29.9,23,27.5,22,25.9,20.1 M34.7,11.4c-0.3-0.4-0.7-0.6-1.3-0.6
		c-0.8,0-1.6,0.5-2.2,1.5c-0.6,1-0.9,2-0.9,3c0,0.7,0.2,1.3,0.5,1.7c0.3,0.4,0.7,0.6,1.2,0.6c1,0,1.8-0.6,2.3-1.7
		c0.6-1.2,0.8-2.2,0.8-3.2C35.2,12.1,35,11.7,34.7,11.4"/>
</g>
</svg>
